<?xml version="1.0" standalone="no"?>
<!DOCTYPE svg PUBLIC "-//W3C//DTD SVG 1.1//EN" "http://www.w3.org/Graphics/SVG/1.1/DTD/svg11.dtd" >
<svg xmlns="http://www.w3.org/2000/svg" xmlns:xlink="http://www.w3.org/1999/xlink" version="1.1">
<metadata>
Created by FontForge 20170731 at Wed Aug 23 02:39:21 2017
 By DOTA
Copyright 2017 The Interface project authors
</metadata>
<defs>
<font id="Interface-Bold" horiz-adv-x="1792" >
  <font-face 
    font-family="Interface"
    font-weight="700"
    font-stretch="normal"
    units-per-em="2816"
    panose-1="0 0 0 0 0 0 0 0 0 0"
    ascent="2252"
    descent="-564"
    x-height="1488"
    cap-height="2004"
    bbox="-2584 -764 5740 2976"
    underline-thickness="256"
    underline-position="-384"
    unicode-range="U+0002-1F16B"
  />
<missing-glyph horiz-adv-x="2816" 
d="M256 2176v512h2304v-512h-2304zM256 1472v512h2304v-512h-2304zM256 768v512h2304v-512h-2304zM256 64v512h2304v-512h-2304zM256 -640v512h2304v-512h-2304z" />
    <glyph glyph-name="longst" unicode="&#x17f;t" horiz-adv-x="2048" 
d="M1960 12q-109 -40 -256 -40q-213 0 -334.5 106.5t-121.5 349.5v740h-196v320h196v220h-40v40q-24 12 -85.5 24t-142.5 12q-188 0 -188 -176v-1608h-444v1168h-216v320h216v120q0 261 153 396.5t423 135.5q219 0 404.5 -50t323.5 -98v-132h40v-372h248v-320h-248v-684
q0 -87 34 -117.5t118 -30.5q36 0 64 2.5t52 5.5v-332z" />
    <glyph glyph-name=".notdef" horiz-adv-x="2816" 
d="M256 2176v512h2304v-512h-2304zM256 1472v512h2304v-512h-2304zM256 768v512h2304v-512h-2304zM256 64v512h2304v-512h-2304zM256 -640v512h2304v-512h-2304z" />
    <glyph glyph-name=".null" horiz-adv-x="0" 
 />
    <glyph glyph-name="space" unicode=" " horiz-adv-x="768" 
 />
    <glyph glyph-name="A" unicode="A" horiz-adv-x="2048" 
d="M1440 0l-107 376h-618l-107 -376h-512l680 2004h496l680 -2004h-512zM1012 1424l-192 -676h408l-192 676h-24z" />
    <glyph glyph-name="Lambda" unicode="&#x39b;" horiz-adv-x="2048" 
d="M608 0h-512l680 2004h496l680 -2004h-512l-404 1424h-24z" />
    <glyph glyph-name="B" unicode="B" 
d="M1660 592q0 -294 -188.5 -443t-551.5 -149h-788v2004h712q363 0 569.5 -137t206.5 -419q0 -134 -65.5 -250.5t-217.5 -175.5q177 -44 250 -167.5t73 -262.5zM592 1628v-460h252q168 0 242 56.5t74 167.5q0 126 -75.5 181t-240.5 55h-252zM1204 600q0 117 -62 184.5
t-206 67.5h-344v-480h328q150 0 217 66t67 162z" />
    <glyph glyph-name="C" unicode="C" horiz-adv-x="1920" 
d="M1360 680h460q-12 -210 -113.5 -369.5t-281 -249t-425.5 -89.5q-396 0 -620 268.5t-224 763.5q0 326 104 556t293 351t443 121q258 0 435 -93.5t274 -256t115 -370.5h-456q-15 159 -95 249.5t-245 90.5q-400 0 -400 -648q0 -652 400 -652q165 0 243 84.5t93 243.5z" />
    <glyph glyph-name="D" unicode="D" horiz-adv-x="1920" 
d="M128 0v2004h692q204 0 376.5 -73.5t299.5 -207t197.5 -312.5t70.5 -391q0 -332 -123.5 -559.5t-337 -344t-483.5 -116.5h-692zM796 1604h-204v-1224h208q142 0 253 59t175 199t64 382q0 288 -140 436t-356 148z" />
    <glyph glyph-name="E" unicode="E" horiz-adv-x="1664" 
d="M128 0v2004h1368v-384h-904v-412h764v-384h-764v-440h904v-384h-1368z" />
    <glyph glyph-name="F" unicode="F" horiz-adv-x="1664" 
d="M128 0v2004h1368v-384h-904v-412h764v-384h-764v-824h-464z" />
    <glyph glyph-name="G" unicode="G" horiz-adv-x="1920" 
d="M1800 1072v-368q0 -244 -106 -406.5t-284 -244t-394 -81.5q-264 0 -462 116.5t-308 346t-110 569.5q0 338 109 567t301 345t442 116q270 0 441.5 -87.5t260 -242t110.5 -354.5h-444q-21 150 -101.5 231t-254.5 81q-183 0 -289.5 -156t-106.5 -504q0 -342 107.5 -499
t332.5 -157q153 0 232.5 93t79.5 303h-364v332h808z" />
    <glyph glyph-name="H" unicode="H" horiz-adv-x="1920" 
d="M1328 0v824h-736v-824h-464v2004h464v-796h736v796h464v-2004h-464z" />
    <glyph glyph-name="Hcedilla" unicode="&#x1e28;" horiz-adv-x="2048" 
d="M856 -308q0 -153 -127 -246.5t-373 -93.5l-12 256q57 0 94.5 23.5t37.5 80.5q0 54 -44.5 74t-143.5 26l41 188h-205v2004h464v-796h736v796h464v-2004h-464v824h-736v-808h80l-16 -88q75 -12 139.5 -65.5t64.5 -170.5z" />
    <glyph glyph-name="Hbar" unicode="&#x126;" horiz-adv-x="2048" 
d="M1352 0v824h-736v-824h-464v1460h-112v248h112v296h464v-296h736v296h464v-296h192v-248h-192v-1460h-464zM616 1208h736v252h-736v-252z" />
    <glyph glyph-name="Enhookcyrillic" unicode="&#x4c7;" horiz-adv-x="2048" 
d="M192 2004h460v-836h744v836h460v-2016q0 -285 -149.5 -436.5t-410.5 -151.5q-57 0 -108.5 4t-111.5 16l20 368q36 -9 64 -12.5t76 -3.5q160 0 160 216v812h-744v-800h-460v2004z" />
    <glyph glyph-name="Endescendercyrillic" unicode="&#x4a2;" horiz-adv-x="2304" 
d="M2172 308v-800h-444v492h-420v824h-736v-824h-464v2004h464v-796h736v796h464v-1696h400z" />
    <glyph glyph-name="uni04C9" unicode="&#x4c9;" horiz-adv-x="2304" 
d="M1328 0v824h-736v-824h-464v2004h464v-796h736v796h464v-2004h-464zM2172 300v-292q0 -168 -80 -331t-200 -265l-224 112q30 62 63.5 126t57 143t23.5 187v320h360z" />
    <glyph glyph-name="Enghecyrillic" unicode="&#x4a4;" horiz-adv-x="2816" 
d="M564 2004v-796h736v796h1352v-360h-860l-28 26v-1670h-464v824h-736v-824h-464v2004h464z" />
    <glyph glyph-name="I" unicode="I" horiz-adv-x="768" 
d="M616 2004v-2004h-464v2004h464z" />
    <glyph glyph-name="Idieresisacute" unicode="&#x1e2e;" horiz-adv-x="1024" 
d="M388 2486l176 253h300l-247 -253h-229zM28 2299q0 69 53.5 117t139.5 48q88 0 142 -48t54 -117q0 -71 -54 -118t-142 -47q-86 0 -139.5 47t-53.5 118zM608 2299q0 69 53.5 117t141.5 48q87 0 140.5 -48t53.5 -117q0 -71 -53.5 -118t-140.5 -47q-88 0 -141.5 47t-53.5 118
zM710 2004v-2004h-464v2004h464z" />
    <glyph glyph-name="Itildebelow" unicode="&#x1e2c;" horiz-adv-x="1280" 
d="M880 2004v-2004h-464v2004h464zM920 -160l248 -16q0 -100 -40.5 -185.5t-112 -138t-163.5 -52.5q-86 0 -144.5 29t-112 58t-123.5 29q-45 0 -76.5 -30.5t-31.5 -93.5l-252 12q0 98 40.5 184t112 139t163.5 53q72 0 133.5 -28t121 -56t125.5 -28q45 0 78.5 30.5t33.5 93.5
z" />
    <glyph glyph-name="J" unicode="J" horiz-adv-x="1536" 
d="M992 628v1376h460v-1376q0 -200 -90 -347.5t-245 -228t-349 -80.5q-198 0 -352.5 68t-243 208t-88.5 356h464q0 -150 57.5 -205t162.5 -55t164.5 76t59.5 208z" />
    <glyph glyph-name="K" unicode="K" horiz-adv-x="1920" 
d="M1248 0l-430 719l-226 -300v-419h-464v2004h464v-878l168 250l456 628h568l-677 -900l685 -1104h-544z" />
    <glyph glyph-name="Kabashkircyrillic" unicode="&#x4a0;" horiz-adv-x="2560" 
d="M108 1644v360h1088v-878l168 250l456 628h568l-677 -900l685 -1104h-544l-430 719l-226 -300v-419h-464v1644h-624z" />
    <glyph glyph-name="Kadescendercyrillic" unicode="&#x49a;" horiz-adv-x="2304" 
d="M2132 308v-800h-444v492h-404l-430 719l-226 -300v-419h-464v2004h464v-878l168 250l456 628h568l-677 -900l545 -878v82h444z" />
    <glyph glyph-name="L" unicode="L" horiz-adv-x="1536" 
d="M1420 384v-384h-1292v2004h464v-1620h828z" />
    <glyph glyph-name="Lslash" unicode="&#x141;" 
d="M1592 384v-384h-1292v870l-152 -42v244l152 43v889h464v-759l308 87v-248l-308 -85v-615h828z" />
    <glyph glyph-name="M" unicode="M" horiz-adv-x="2432" 
d="M128 2004h612l464 -1336h24l464 1336h612v-2004h-468v1288h-12l-456 -1288h-312l-448 1296h-8v-1296h-472v2004z" />
    <glyph glyph-name="uni04CD" unicode="&#x4cd;" horiz-adv-x="2816" 
d="M2672 8q0 -168 -80 -331t-200 -265l-224 112q30 62 63.5 126t57 143t23.5 187v20h-460v1288h-12l-456 -1288h-312l-448 1296h-8v-1296h-472v2004h612l464 -1336h24l464 1336h612v-1704h352v-292z" />
    <glyph glyph-name="N" unicode="N" horiz-adv-x="1920" 
d="M1792 2004v-2004h-456l-728 1216h-16v-1216h-464v2004h460l724 -1216h16v1216h464z" />
    <glyph glyph-name="afii10026" unicode="&#x418;" horiz-adv-x="1920" 
d="M1792 2004v-2004h-464v1216h-16l-724 -1216h-460v2004h464v-1216h16l728 1216h456z" />
    <glyph glyph-name="uni048A" unicode="&#x48a;" horiz-adv-x="2304" 
d="M1132 2544h308q0 -186 -134.5 -305t-365.5 -119q-228 0 -362 119t-134 305h304q0 -69 43.5 -122.5t148.5 -53.5t148.5 53.5t43.5 122.5zM1748 2004v-2004h-464v1216h-16l-724 -1216h-460v2004h464v-1216h16l728 1216h456zM2112 300v-292q0 -168 -80 -331t-200 -265
l-224 112q30 62 63.5 126t57 143t23.5 187v320h360z" />
    <glyph glyph-name="O" unicode="O" horiz-adv-x="2048" 
d="M1892 1000q0 -326 -110 -556t-305 -351t-449 -121q-256 0 -452.5 121t-308 351t-111.5 556t110.5 557t306 353t451.5 122q254 0 450 -122t307 -353t111 -557zM1424 1000q0 330 -104 491t-296 161q-400 0 -400 -652t404 -652q192 0 294 164t102 488z" />
    <glyph glyph-name="Oslash" unicode="&#xd8;" horiz-adv-x="2048" 
d="M1028 -28q-249 0 -442 114l-126 -218h-280l218 376q-115 131 -178.5 322t-63.5 434q0 326 110.5 557t306 353t451.5 122q201 0 367 -77l77 133h276l-154 -267q142 -131 222 -339t80 -482q0 -326 -110 -556t-305 -351t-449 -121zM624 1000q0 -180 32 -311l536 924
q-73 39 -168 39q-400 0 -400 -652zM1424 1000q0 261 -67 419l-568 -983q94 -88 239 -88q192 0 294 164t102 488z" />
    <glyph glyph-name="Ohorn" unicode="&#x1a0;" horiz-adv-x="2048" 
d="M1820 1000q0 -326 -110 -556t-305 -351t-449 -121q-256 0 -452.5 121t-308 351t-111.5 556t110.5 557t306 353t451.5 122q383 0 618 -265q68 41 93 136.5t25 236.5h276q0 -216 -62.5 -362t-197.5 -212q56 -116 86 -258t30 -308zM1352 1000q0 330 -104 491t-296 161
q-400 0 -400 -652t404 -652q192 0 294 164t102 488z" />
    <glyph glyph-name="P" unicode="P" 
d="M920 680h-328v-680h-464v2004h792q240 0 408 -88.5t256 -242t88 -349.5q0 -291 -196 -467.5t-556 -176.5zM592 1620v-560h328q156 3 222 85t66 199q0 111 -66 195t-222 81h-328z" />
    <glyph glyph-name="Q" unicode="Q" horiz-adv-x="2048" 
d="M1872 -112l-312 -228l-242 358q-135 -46 -290 -46q-256 0 -452.5 121t-308 351t-111.5 556t110.5 557t306 353t451.5 122q254 0 450 -122t307 -353t111 -557q0 -250 -66.5 -444.5t-185.5 -326.5zM624 1000q0 -652 404 -652q33 0 64 5l-116 171l300 240l97 -142
q51 150 51 378q0 330 -104 491t-296 161q-400 0 -400 -652z" />
    <glyph glyph-name="R" unicode="R" 
d="M1228 0l-354 708h-282v-708h-464v2004h772q232 0 400.5 -81t260 -219t91.5 -308q0 -231 -95 -362t-254 -205l421 -809v-20h-496zM592 1620v-532h308q147 0 219.5 69t72.5 195q0 129 -74 198.5t-218 69.5h-308z" />
    <glyph glyph-name="response" unicode="&#x211f;" horiz-adv-x="2048" 
d="M1292 0l-307 614l-309 -1110h-232l134 496h-386v2004h772q78 0 150 -10l30 110l-276 72l76 244l500 -160l-92 -332q173 -77 268.5 -218t95.5 -314q0 -231 -95 -362t-254 -205l421 -809v-20h-496zM656 1620v-532h214l143 530q-23 2 -49 2h-308zM1256 1352q0 78 -27 135
l-103 -368q130 61 130 233zM656 708v-417l112 417h-112z" />
    <glyph glyph-name="S" unicode="S" 
d="M1204 1408q-6 114 -79 179t-217 65q-141 0 -214.5 -52t-73.5 -136q0 -93 105.5 -144.5t270.5 -111.5l56 -20q288 -102 450 -242.5t162 -381.5q0 -202 -96.5 -333t-267 -195t-392.5 -64q-153 0 -297.5 39.5t-259.5 121.5t-183 210t-68 305h460q6 -147 90 -223.5t258 -76.5
q144 0 220 65.5t76 146.5q0 88 -87.5 160t-324.5 144l-40 12q-182 54 -315 122.5t-205 179t-72 290.5q0 172 98.5 298.5t270 196t391.5 69.5t387.5 -77t262 -217t94.5 -330h-460z" />
    <glyph glyph-name="Germandbls" unicode="&#x1e9e;" horiz-adv-x="2048" 
d="M608 0h-444v1316q0 716 724 716q261 0 477 -94t435 -262l-443 -508q252 -42 389.5 -189.5t137.5 -394.5q0 -206 -93.5 -342t-250 -203t-344.5 -67q-162 0 -278.5 25.5t-197.5 58.5l124 336q42 -18 120.5 -41t171.5 -23q144 0 224 68t80 188q0 177 -93.5 244.5
t-270.5 67.5h-180v264l352 392q-72 51 -159 85.5t-201 34.5q-120 0 -200 -74.5t-80 -281.5v-1316z" />
    <glyph glyph-name="T" unicode="T" 
d="M68 1620v384h1660v-384h-600v-1620h-464v1620h-596z" />
    <glyph glyph-name="U" unicode="U" horiz-adv-x="1920" 
d="M1328 2004h464v-1308q0 -234 -104.5 -395.5t-291 -245t-432.5 -83.5q-248 0 -436.5 83.5t-294 245t-105.5 395.5v1308h464v-1308q0 -150 103.5 -237t268.5 -87q162 0 263 87t101 237v1308z" />
    <glyph glyph-name="Uhorn" unicode="&#x1af;" horiz-adv-x="2048" 
d="M1616 696q0 -234 -104.5 -395.5t-291 -245t-432.5 -83.5q-248 0 -436.5 83.5t-294 245t-105.5 395.5v1308h464v-1308q0 -150 103.5 -237t268.5 -87q162 0 263 87t101 237v1308h464v-305q87 22 125.5 78t48.5 141t10 194h276q0 -185 -40.5 -322.5t-141 -220.5t-278.5 -105
v-768z" />
    <glyph glyph-name="V" unicode="V" horiz-adv-x="2048" 
d="M96 2004h512l404 -1424h24l404 1424h512l-680 -2004h-496z" />
    <glyph glyph-name="W" unicode="W" horiz-adv-x="2560" 
d="M552 2004l216 -1332h16l296 1332h404l296 -1336h16l216 1336h416l-388 -2004h-472l-280 1240h-16l-276 -1240h-472l-392 2004h420z" />
    <glyph glyph-name="X" unicode="X" horiz-adv-x="2048" 
d="M684 2004l328 -640l9 -18t3 -18h8q0 20 8 36l328 640h524l-564 -996l580 -1008h-532l-336 652q-8 16 -8 36h-8q0 -12 -3 -18l-9 -18l-340 -652h-532l580 1008l-564 996h528z" />
    <glyph glyph-name="Hadescendercyrillic" unicode="&#x4b2;" horiz-adv-x="2048" 
d="M1932 308v-800h-444v492h-112l-336 652q-8 16 -8 36h-8q0 -12 -3 -18l-9 -18l-340 -652h-532l580 1008l-564 996h528l328 -640l9 -18t3 -18h8q0 20 8 36l328 640h524l-564 -996l403 -700h201z" />
    <glyph glyph-name="uni04FC" unicode="&#x4fc;" horiz-adv-x="2048" 
d="M2036 -20q0 -282 -147 -431t-405 -149q-57 0 -106 4t-106 16l20 352q33 -9 62 -12.5t74 -3.5q164 0 164 224v20h-344l-336 652q-8 16 -8 36h-8q0 -12 -3 -18l-9 -18l-340 -652h-532l580 1008l-564 996h528l328 -640l9 -18t3 -18h8q0 20 8 36l328 640h524l-564 -996
l392 -681v81h444v-428z" />
    <glyph glyph-name="Y" unicode="Y" horiz-adv-x="2048" 
d="M592 2004l432 -872l432 872h500l-700 -1284v-720h-464v720l-700 1284h500z" />
    <glyph glyph-name="Z" unicode="Z" 
d="M120 1628v376h1540v-248l-949 -1384h961v-372h-1548v256l954 1372h-958z" />
    <glyph glyph-name="AE" unicode="&#xc6;" horiz-adv-x="2816" 
d="M2676 364v-364h-1232l-19 452h-554l-215 -452h-516l1032 2004h1420v-364h-773l17 -436h644v-360h-630l19 -480h807zM1048 824h361l-29 699z" />
    <glyph glyph-name="OE" unicode="&#x152;" horiz-adv-x="2816" 
d="M2596 384v-384h-1208q-90 -12 -190.5 -20t-205.5 -8q-254 0 -447 104t-301 289t-108 427v420q0 242 108 427t301 289t447 104q102 0 204 -9.5t192 -18.5h1208v-384h-904v-412h764v-384h-764v-440h904zM580 792q0 -231 111.5 -345.5t300.5 -114.5q124 0 236 12v1314
q-57 7 -116 10.5t-120 3.5q-192 0 -302 -114.5t-110 -345.5v-420z" />
    <glyph glyph-name="Thorn" unicode="&#xde;" 
d="M880 384h-284v-384h-444v2004h444v-356h284q246 0 415.5 -81.5t257 -224t87.5 -326.5t-87.5 -326.5t-257 -224t-415.5 -81.5zM596 1292v-552h284q171 0 243.5 82t72.5 190q0 111 -72.5 195.5t-243.5 84.5h-284z" />
    <glyph glyph-name="Gamma" unicode="&#x393;" 
d="M1568 2004v-376h-880v-1628h-460v2004h1340z" />
    <glyph glyph-name="Delta" unicode="&#x2206;" horiz-adv-x="2304" 
d="M124 0l780 2004h492l788 -2004h-2060zM745 372h817l-411 1106z" />
    <glyph glyph-name="Delta" unicode="&#x394;" horiz-adv-x="2304" 
d="M124 0l780 2004h492l788 -2004h-2060zM745 372h817l-411 1106z" />
    <glyph glyph-name="Theta" unicode="&#x398;" horiz-adv-x="2048" 
d="M1892 1000q0 -326 -110 -556t-305 -351t-449 -121q-256 0 -452.5 121t-308 351t-111.5 556t110.5 557t306 353t451.5 122q254 0 450 -122t307 -353t111 -557zM1424 1000q0 330 -104 491t-296 161q-400 0 -400 -652t404 -652q192 0 294 164t102 488zM1208 1168v-356h-460
v356h460z" />
    <glyph glyph-name="Xi" unicode="&#x39e;" 
d="M252 1628v376h1260v-376h-1260zM384 824v356h1032v-356h-1032zM208 0v372h1376v-372h-1376z" />
    <glyph glyph-name="Pi" unicode="&#x3a0;" horiz-adv-x="2048" 
d="M1856 2004v-2004h-460v1628h-744v-1628h-460v2004h1664z" />
    <glyph glyph-name="Sigma" unicode="&#x3a3;" 
d="M184 1796v208h1404v-376h-761l429 -604v-16l-439 -636h791v-372h-1424v208l588 808z" />
    <glyph glyph-name="Phi" unicode="&#x3a6;" horiz-adv-x="2304" 
d="M2172 988q0 -226 -99 -393.5t-276 -263.5t-413 -106v-225h-456v225q-239 9 -418 103.5t-278.5 262t-99.5 393.5q0 236 99.5 411t278.5 275t418 109v225h456v-225q236 -10 413 -109t276 -273t99 -409zM1724 988q0 187 -94 280.5t-246 105.5v-744q152 11 246 99.5t94 258.5
zM584 984q0 -170 96 -256.5t248 -97.5v744q-152 -12 -248 -107.5t-96 -282.5z" />
    <glyph glyph-name="Psi" unicode="&#x3a8;" horiz-adv-x="2304" 
d="M2140 1400q0 -377 -201.5 -594t-542.5 -252v-554h-460v552q-353 27 -560.5 245.5t-207.5 602.5v604h460v-604q0 -209 79 -323.5t229 -145.5v1073h460v-1075q148 28 214 142.5t66 328.5v604h464v-604z" />
    <glyph glyph-name="Omega" unicode="&#x2126;" 
d="M616 1092q0 -336 61.5 -496.5t154.5 -211.5v-384h-708v376h300q-140 121 -234 305t-94 411v104q0 244 101 431.5t281 294t418 106.5t419 -106.5t283 -294t102 -431.5v-104q0 -227 -94.5 -411t-234.5 -305h297v-376h-700v384q90 54 149 214.5t59 493.5v108q0 222 -74 337
t-206 115q-129 0 -204.5 -115t-75.5 -337v-108z" />
    <glyph glyph-name="Omega" unicode="&#x3a9;" 
d="M616 1092q0 -336 61.5 -496.5t154.5 -211.5v-384h-708v376h300q-140 121 -234 305t-94 411v104q0 244 101 431.5t281 294t418 106.5t419 -106.5t283 -294t102 -431.5v-104q0 -227 -94.5 -411t-234.5 -305h297v-376h-700v384q90 54 149 214.5t59 493.5v108q0 222 -74 337
t-206 115q-129 0 -204.5 -115t-75.5 -337v-108z" />
    <glyph glyph-name="afii10018" unicode="&#x411;" 
d="M108 0v2004h1432v-376h-880v-316h184q240 0 417 -80.5t274 -226t97 -341.5t-97 -345.5t-274 -234t-417 -84.5h-736zM844 944h-184v-572h184q159 0 243.5 86.5t84.5 209.5q0 117 -84.5 196.5t-243.5 79.5z" />
    <glyph glyph-name="afii10050" unicode="&#x490;" 
d="M684 1628v-1628h-460v2004h852v532h444v-532h44v-376h-880z" />
    <glyph glyph-name="uni04FA" unicode="&#x4fa;" 
d="M1036 896h-164v-896h-460v896h-368v264h368v844h1340v-376h-880v-468h164v-264zM924 408h444v-428q0 -282 -147 -431t-405 -149q-57 0 -106 4t-106 16l20 352q33 -9 62 -12.5t74 -3.5q164 0 164 224v428z" />
    <glyph glyph-name="afii10021" unicode="&#x414;" horiz-adv-x="2304" 
d="M552 1180l60 824h1344v-1632h220l-44 -864h-416v492h-1128v-492h-428l-32 864h144q56 40 113 121t102 243t65 444zM1012 1180q-20 -303 -76 -494t-131 -314h691v1256h-451z" />
    <glyph glyph-name="afii10024" unicode="&#x416;" horiz-adv-x="3072" 
d="M1316 0v784h-251l-397 -784h-572l610 1081l-590 923h580l420 -788h200v788h460v-788h196l404 788h580l-574 -917l598 -1087h-576l-383 784h-245v-784h-460z" />
    <glyph glyph-name="Zhedescendercyrillic" unicode="&#x496;" horiz-adv-x="3328" 
d="M3212 308v-800h-444v492h-300l-383 784h-245v-784h-460v784h-251l-397 -784h-572l610 1081l-590 923h580l420 -788h200v788h460v-788h196l404 788h580l-574 -917l428 -779h338z" />
    <glyph glyph-name="afii10025" unicode="&#x417;" 
d="M908 844h-252v356h252q144 0 206 67t62 181q0 84 -70.5 146t-217.5 62q-117 0 -196.5 -52t-79.5 -148h-460q0 180 101.5 308t269 196t365.5 68q339 0 543.5 -144.5t204.5 -423.5q0 -137 -81 -251t-224 -180q163 -57 250 -175.5t87 -293.5q0 -186 -101 -317.5t-277 -201
t-402 -69.5q-140 0 -275.5 34t-246 105t-176.5 181.5t-66 263.5h464q0 -90 84 -151t216 -61q150 0 235 66t85 162q0 150 -76.5 211t-223.5 61z" />
    <glyph glyph-name="Kaverticalstrokecyrillic" unicode="&#x49c;" horiz-adv-x="2048" 
d="M696 476v308h-104v-784h-460v2004h460v-784h104v356h236v-356h32l324 784h576l-513 -905l569 -1099h-592l-332 784h-64v-308h-236z" />
    <glyph glyph-name="Kahookcyrillic" unicode="&#x4c3;" horiz-adv-x="2048" 
d="M1848 332q0 -130 -38 -276t-127 -274.5t-242.5 -209t-384.5 -80.5v352q120 0 187.5 53t98.5 130.5t38.5 154t7.5 122.5q3 246 -97.5 361t-274.5 115h-356v-780h-460v2004h460v-788h128l412 788h580l-563 -872q284 -46 457.5 -240.5t173.5 -559.5z" />
    <glyph glyph-name="afii10029" unicode="&#x41b;" horiz-adv-x="2048" 
d="M504 1152l32 852h1376v-2004h-460v1628h-475l-33 -644q-20 -384 -99.5 -598t-226 -300t-366.5 -86h-116v372l56 4q106 12 171 87.5t98 241t43 447.5z" />
    <glyph glyph-name="uni04C5" unicode="&#x4c5;" horiz-adv-x="2304" 
d="M560 1152l32 852h1376v-1704h260v-292q0 -168 -80 -331t-200 -265l-224 112q30 62 63.5 126t57 143t23.5 187v20h-360v1628h-475l-33 -644q-20 -384 -99.5 -598t-226 -300t-366.5 -86h-116v372l56 4q106 12 171 87.5t98 241t43 447.5z" />
    <glyph glyph-name="uni052E" unicode="&#x52e;" horiz-adv-x="2304" 
d="M504 2004h1376v-1696h320v-800h-444v492h-336v1628h-476l-32 -644q-20 -384 -100 -598t-227 -300t-369 -86h-112v372l56 4q106 12 171 87.5t98 241t43 447.5z" />
    <glyph glyph-name="uni0512" unicode="&#x512;" horiz-adv-x="2560" 
d="M628 1152l32 852h1376v-2004h-460v1628h-475l-33 -644q-20 -384 -99.5 -598t-226 -300t-366.5 -86h-116v372l56 4q106 12 171 87.5t98 241t43 447.5zM2100 408h444v-428q0 -282 -147 -431t-405 -149q-57 0 -106 4t-106 16l20 352q33 -9 62 -12.5t74 -3.5q164 0 164 224
v428z" />
    <glyph glyph-name="afii10147" unicode="&#x472;" horiz-adv-x="2048" 
d="M1892 1000q0 -326 -110 -556t-305 -351t-449 -121q-256 0 -452.5 121t-308 351t-111.5 556t110.5 557t306 353t451.5 122q254 0 450 -122t307 -353t111 -557zM1404 880h-776q37 -532 400 -532q192 0 294 164t102 488q0 330 -104 491t-296 161q-353 0 -395 -508h775v-264z
" />
    <glyph glyph-name="uni0524" unicode="&#x524;" horiz-adv-x="2304" 
d="M2148 308v-800h-444v492h-340v1628h-744v-1628h-460v2004h1664v-1696h324z" />
    <glyph glyph-name="afii10145" unicode="&#x40f;" horiz-adv-x="2048" 
d="M1860 0h-584v-496h-460v496h-624v2004h460v-1632h744v1632h464v-2004z" />
    <glyph glyph-name="uni048E" unicode="&#x48e;" 
d="M792 680h-328v-680h-464v2004h792q240 0 408 -88.5t256 -242t88 -349.5q0 -281 -179 -452l175 -200l-132 -116l-189 214q-177 -90 -427 -90zM464 1620v-560h328q84 2 145 30l-157 178l132 120l147 -168q21 55 21 124q0 111 -66 195t-222 81h-328z" />
    <glyph glyph-name="afii10037" unicode="&#x423;" 
d="M1092 416q-52 -118 -122.5 -219t-179 -163t-274.5 -62h-144l-8 376q18 -3 51.5 -3.5t48.5 -0.5q123 0 172.5 44t79.5 140l26 71l-718 1405h492l424 -872l2 -7l338 879h488z" />
    <glyph glyph-name="afii10038" unicode="&#x424;" horiz-adv-x="2560" 
d="M1524 172h-20v-256h-444v256h-20q-242 0 -431 100t-297 283t-108 433q0 258 109 447.5t298 293t429 103.5h20v252h444v-252h20q242 0 431 -103.5t297 -293t108 -447.5q0 -248 -108 -431.5t-297 -284t-431 -100.5zM1040 560h20v884h-20q-174 0 -289 -111t-115 -345
q0 -219 116.5 -323.5t287.5 -104.5zM1528 1444h-24v-884h24q171 0 283.5 106t112.5 322q0 234 -112.5 345t-283.5 111z" />
    <glyph glyph-name="afii10040" unicode="&#x426;" horiz-adv-x="2304" 
d="M2132 368l-24 -852h-436v484h-1500v2004h460v-1632h744v1632h464v-1636h292z" />
    <glyph glyph-name="Tetsecyrillic" unicode="&#x4b4;" horiz-adv-x="2560" 
d="M64 1644v360h1324v-360h-388v-1272h744v1632h464v-1636h292l-24 -852h-436v484h-1500v1644h-476z" />
    <glyph glyph-name="afii10041" unicode="&#x427;" horiz-adv-x="2048" 
d="M1836 2004v-2004h-460v743q-87 -15 -191.5 -23t-152.5 -8q-372 0 -594 164.5t-222 515.5v612h460v-612q0 -180 88 -244t268 -64q54 0 157 6.5t187 20.5v893h460z" />
    <glyph glyph-name="Chedescendercyrillic" unicode="&#x4b6;" horiz-adv-x="2304" 
d="M2148 308v-800h-444v492h-348v743q-87 -15 -191.5 -23t-152.5 -8q-372 0 -594 164.5t-222 515.5v612h460v-612q0 -180 88 -244t268 -64q54 0 157 6.5t187 20.5v893h460v-1696h332z" />
    <glyph glyph-name="Cheverticalstrokecyrillic" unicode="&#x4b8;" 
d="M1704 2004v-2004h-460v743q-61 -10 -133.5 -17.5t-130.5 -10.5v-315h-232v319q-306 31 -485 195t-179 478v612h460v-612q0 -137 50.5 -205t153.5 -90v383h232v-394q59 3 131.5 9t132.5 16v893h460z" />
    <glyph glyph-name="Shhacyrillic" unicode="&#x4ba;" horiz-adv-x="2048" 
d="M1016 920q-51 0 -153.5 -8t-186.5 -22v-890h-460v2004h460v-743q86 15 189.5 23t150.5 8q248 0 432.5 -73.5t286 -225t101.5 -385.5v-608h-460v608q0 183 -90 247.5t-270 64.5z" />
    <glyph glyph-name="uni0526" unicode="&#x526;" horiz-adv-x="2304" 
d="M640 0h-460v2004h460v-744q87 15 191.5 23.5t152.5 8.5q246 0 429.5 -73.5t285 -225t101.5 -385.5v-300h324v-800h-440v492h-344v608q0 183 -89.5 247.5t-266.5 64.5q-54 0 -157 -8t-187 -20v-892z" />
    <glyph glyph-name="afii10060" unicode="&#x40b;" horiz-adv-x="2048" 
d="M44 1628v376h1520v-376h-616v-353q71 8 139.5 12.5t104.5 4.5q246 0 429.5 -73.5t285 -224t101.5 -382.5v-612h-460v612q0 180 -88 244t-268 64q-39 0 -106.5 -4t-137.5 -12v-904h-460v1628h-444z" />
    <glyph glyph-name="afii10042" unicode="&#x428;" horiz-adv-x="2816" 
d="M204 2004h464v-1632h516v1632h460v-1632h508v1632h460v-2004h-2408v2004z" />
    <glyph glyph-name="afii10043" unicode="&#x429;" horiz-adv-x="3072" 
d="M2884 356l-28 -836h-416v480h-2200v2004h464v-1632h516v1632h460v-1632h508v1632h460v-1648h236z" />
    <glyph glyph-name="afii10044" unicode="&#x42a;" horiz-adv-x="2304" 
d="M128 1644v360h984v-692h276q240 0 417 -80.5t274 -226t97 -341.5t-97 -345.5t-274 -234t-417 -84.5h-736v1644h-524zM1112 372h276q159 0 243.5 86.5t84.5 209.5q0 117 -84.5 196.5t-243.5 79.5h-276v-572z" />
    <glyph glyph-name="afii10045" unicode="&#x42b;" horiz-adv-x="2560" 
d="M1740 664q0 -196 -97 -345.5t-274 -234t-417 -84.5h-736v2004h460v-692h276q240 0 417 -80.5t274 -226t97 -341.5zM2344 2004v-2004h-464v2004h464zM676 372h276q159 0 243.5 86.5t84.5 209.5q0 117 -84.5 196.5t-243.5 79.5h-276v-572z" />
    <glyph glyph-name="afii10046" unicode="&#x42c;" 
d="M1660 664q0 -196 -97 -345.5t-274 -234t-417 -84.5h-736v2004h460v-692h276q240 0 417 -80.5t274 -226t97 -341.5zM596 372h276q159 0 243.5 86.5t84.5 209.5q0 117 -84.5 196.5t-243.5 79.5h-276v-572z" />
    <glyph glyph-name="afii10058" unicode="&#x409;" horiz-adv-x="3072" 
d="M484 1152l32 852h1376v-648h276q240 0 417 -88t274 -241t97 -347q0 -198 -97 -351.5t-274 -241t-417 -87.5h-736v1628h-475l-33 -644q-18 -384 -98 -598t-227 -300t-367 -86h-112v372l52 4q108 12 173 87.5t97 241t42 447.5zM1892 372h276q162 0 245 92.5t83 215.5
q0 120 -83 212t-245 92h-276v-612z" />
    <glyph glyph-name="afii10059" unicode="&#x40a;" horiz-adv-x="3072" 
d="M1380 0v792h-744v-792h-460v2004h460v-840h744v840h456v-644h276q242 0 419 -88.5t273 -242t96 -349.5t-96 -349.5t-273 -242t-419 -88.5h-732zM1836 368h276q162 0 245 95t83 221q0 120 -83 214t-245 94h-276v-624z" />
    <glyph glyph-name="afii10047" unicode="&#x42d;" horiz-adv-x="2048" 
d="M1856 944q0 -300 -100 -518t-288 -336t-452 -118q-246 0 -425.5 88.5t-281 247t-113.5 368.5h460q12 -336 360 -336q185 0 274.5 113.5t105.5 362.5h-580v372h579q-19 249 -114 358.5t-261 109.5q-198 0 -278.5 -88.5t-89.5 -259.5h-460q20 208 118 371.5t275 258
t435 94.5q254 0 442 -119t291 -339t103 -522v-108z" />
    <glyph glyph-name="afii10048" unicode="&#x42e;" horiz-adv-x="2816" 
d="M2636 1000q0 -326 -110 -556t-305 -351t-449 -121q-227 0 -408 95.5t-298 278t-152 442.5h-306v-788h-464v2004h464v-888h296q20 290 134 495t302 313t428 108q254 0 450 -122t307 -353t111 -557zM2168 1000q0 330 -104 491t-296 161q-400 0 -400 -652t404 -652
q192 0 294 164t102 488z" />
    <glyph glyph-name="afii10049" unicode="&#x42f;" horiz-adv-x="1536" 
d="M1108 0v704h-296l-344 -704h-504l419 858q-279 173 -279 522q0 309 201.5 466.5t546.5 157.5h716v-2004h-460zM852 1048h256v580h-256q-153 0 -222.5 -74t-69.5 -218q0 -165 74 -226.5t218 -61.5z" />
    <glyph glyph-name="Ghemiddlehookcyrillic" unicode="&#x494;" 
d="M1700 340q0 -136 -38 -282.5t-127 -272t-239.5 -203.5t-375.5 -78v336q118 0 186.5 52t100.5 130t41.5 157t11.5 133q0 249 -102.5 364.5t-285.5 115.5h-320v-792h-460v2004h1340v-376h-880v-476h320q244 0 430.5 -86.5t292 -266t105.5 -459.5z" />
    <glyph glyph-name="Pemiddlehookcyrillic" unicode="&#x4a6;" horiz-adv-x="3072" 
d="M2972 336q0 -136 -38 -282.5t-127 -272t-239.5 -203.5t-375.5 -78v336q118 0 186.5 52t100.5 130t41.5 157t11.5 133q0 249 -102.5 364.5t-285.5 115.5h-348v-788h-460v1628h-744v-1628h-460v2004h1664v-856h348q244 0 430.5 -86.5t292 -266t105.5 -459.5z" />
    <glyph glyph-name="afii10053" unicode="&#x404;" horiz-adv-x="2048" 
d="M1856 676q-12 -210 -113.5 -368.5t-281 -247t-425.5 -88.5q-264 0 -453 118t-290 336t-101 518v108q0 302 104 522t293 339t443 119q258 0 435 -94.5t274 -258t115 -371.5h-456q-9 171 -91 259.5t-277 88.5q-168 0 -262.5 -109.5t-112.5 -358.5h555v-372h-556
q16 -249 105.5 -362.5t274.5 -113.5q342 0 360 336h460z" />
    <glyph glyph-name="Haabkhasiancyrillic" unicode="&#x4a8;" horiz-adv-x="2304" 
d="M2184 -12q-157 0 -299.5 23.5t-267.5 68.5q-108 -52 -233 -80t-264 -28q-300 0 -525 123t-350 333t-125 472v316q0 230 94.5 415t264 293t393.5 108v-388q-123 0 -191.5 -122.5t-68.5 -305.5v-316q0 -237 134 -388.5t374 -151.5q27 0 53 2q-123 131 -190 298.5t-67 363.5
v252q0 214 74 385t208 271t314 100q196 0 344.5 -108.5t232 -300t83.5 -439.5v-192q0 -182 -54 -343t-155 -290q105 -19 221 -19v-352zM1344 1024q0 -291 211 -478q153 174 153 446v256q0 166 -22.5 251t-66 115t-107.5 30q-81 0 -124.5 -72.5t-43.5 -291.5v-256z" />
    <glyph glyph-name="Cheabkhasiancyrillic" unicode="&#x4bc;" horiz-adv-x="2304" 
d="M2080 68q-45 -21 -198 -60.5t-390 -39.5q-312 0 -520 111t-312 307t-104 450v38q-212 36 -328 196.5t-116 417.5h296q0 -219 148 -282q2 241 114 427t302.5 291.5t427.5 103.5q258 0 434.5 -117t267 -331t90.5 -504v-244h-1176q1 -125 45 -228.5t148 -165.5t283 -62
q177 0 309.5 28t210.5 52zM1400 1620q-189 0 -285 -120.5t-99 -287.5h716v44q0 153 -76 258.5t-256 105.5z" />
    <glyph glyph-name="Schwacyrillic" unicode="&#x4d8;" horiz-adv-x="2048" 
d="M1896 880q0 -268 -114.5 -473.5t-311 -321t-442.5 -113.5q-286 0 -481 116t-295 329t-100 503v244h1283q-8 127 -60.5 230.5t-166.5 164.5t-304 61q-189 0 -328 -26t-220 -50l-68 388q45 21 206 60.5t410 39.5q330 0 550.5 -117.5t331 -324t110.5 -474.5v-236zM1028 380
q180 0 280.5 115.5t121.5 288.5h-818v-40q0 -153 94 -258.5t322 -105.5z" />
    <glyph glyph-name="Dzeabkhasiancyrillic" unicode="&#x4e0;" 
d="M816 932h-180v272l448 424h-828v376h1348l4 -312l-471 -489q239 -53 367 -216.5t128 -426.5q0 -186 -97 -317.5t-267 -201t-388 -69.5q-134 0 -262 34t-231.5 105t-165 181.5t-61.5 263.5h460q0 -90 70 -151t190 -61q138 0 217 66t79 162q0 195 -93 277.5t-267 82.5z" />
    <glyph glyph-name="uni0510" unicode="&#x510;" horiz-adv-x="2048" 
d="M1028 1200h280v-356h-280q-174 0 -263 -61t-89 -211q0 -96 98 -162t278 -66q144 0 234 61t90 151h460q0 -153 -68 -263.5t-181.5 -181.5t-253 -105t-281.5 -34q-244 0 -433.5 69.5t-298 201t-108.5 317.5q0 175 94.5 293.5t270.5 175.5q-155 65 -244 179t-89 252
q0 186 100.5 313.5t282 193t425.5 65.5q204 0 376 -69t276 -198t104 -309h-460q0 96 -86.5 150t-209.5 54q-180 0 -262 -64t-82 -148q0 -114 74.5 -181t245.5 -67z" />
    <glyph glyph-name="afii10148" unicode="&#x474;" horiz-adv-x="2048" 
d="M1708 1496l-424 -1496h-496l-656 2004h484l400 -1460l19 -96l17 88l264 980q75 237 202.5 374.5t349.5 137.5l48 -4l-4 -380h-48q-57 0 -99 -45.5t-57 -102.5z" />
    <glyph glyph-name="afii10051" unicode="&#x402;" horiz-adv-x="2304" 
d="M152 1628v376h1564v-376h-628v-432q76 16 156 26t160 10q218 0 387 -65t265 -202t96 -353q0 -104 -37 -215.5t-126 -208t-241.5 -156.5t-383.5 -60v348q118 0 185 29t98 73t39 88t10 74q0 123 -85 201.5t-235 78.5q-87 0 -155.5 -6t-132.5 -18v-840h-460v1628h-476z" />
    <glyph glyph-name="a" unicode="a" horiz-adv-x="1536" 
d="M964 0v132h-12q-45 -60 -128.5 -110t-227.5 -50q-138 0 -252.5 57t-183 158t-68.5 233q0 231 170.5 359.5t521.5 128.5h156v80q0 93 -45 148.5t-147 55.5q-84 0 -132 -39.5t-48 -120.5h-444q0 138 80.5 247.5t226 173t341.5 63.5q176 0 314.5 -59t218 -177t79.5 -296
v-984h-420zM940 660h-152q-138 0 -195 -66t-57 -150q0 -63 44.5 -101.5t119.5 -38.5q90 0 153 38t87 86v232z" />
    <glyph glyph-name="b" unicode="b" horiz-adv-x="1536" 
d="M1448 764q0 -232 -65.5 -410.5t-194 -280t-316.5 -101.5q-125 0 -217 52t-158 142l-13 -166h-400v2112h444v-745q63 71 147 110t193 39q285 0 432.5 -206.5t147.5 -545.5zM1008 764q0 171 -57 283.5t-195 112.5q-150 0 -211 -92.5t-61 -275.5v-112q0 -156 61.5 -252
t214.5 -96q138 0 193 121.5t55 310.5z" />
    <glyph glyph-name="c" unicode="c" horiz-adv-x="1536" 
d="M1460 920h-416q-9 87 -64.5 163.5t-187.5 76.5q-153 0 -214.5 -121t-61.5 -295q0 -177 62 -294.5t218 -117.5q123 0 182.5 61t65.5 139h416q-4 -174 -94.5 -299.5t-238 -193t-323.5 -67.5q-232 0 -393.5 99.5t-246 274t-84.5 398.5q0 222 84 396.5t245 275t391 100.5
q186 0 334 -80.5t235 -216t91 -299.5z" />
    <glyph glyph-name="d" unicode="d" horiz-adv-x="1536" 
d="M1052 0l-21 161q-67 -88 -157.5 -138.5t-209.5 -50.5q-188 0 -317.5 99.5t-196 276t-66.5 408.5q0 226 67 397t197 267t320 96q107 0 191.5 -42t148.5 -118v756h444v-2112h-400zM528 756q0 -189 53.5 -306.5t194.5 -117.5q138 0 207 94.5t69 253.5v108q0 180 -67 276
t-205 96t-195 -115t-57 -289z" />
    <glyph glyph-name="dcroat" unicode="&#x111;" 
d="M1080 0l-25 194q-68 -102 -165 -162t-226 -60q-188 0 -317.5 99.5t-196 276t-66.5 408.5q0 226 67 397t197 267t320 96q119 0 210 -52t158 -143v351h-344v260h344v180h444v-180h204v-260h-204v-1672h-400zM528 756q0 -189 53.5 -306.5t194.5 -117.5q105 0 170 55.5
t90 153.5v404q-51 215 -256 215q-138 0 -195 -115t-57 -289z" />
    <glyph glyph-name="e" unicode="e" horiz-adv-x="1536" 
d="M1420 236q-69 -99 -218.5 -181.5t-365.5 -82.5q-238 0 -407 100.5t-259 271t-90 380.5q0 228 81 407t239 282t388 103q318 0 495 -197.5t177 -530.5v-188h-928q27 -133 114 -200.5t218 -67.5q99 0 164.5 35.5t131.5 116.5zM784 1160q-113 0 -172.5 -74t-79.5 -198h500
q0 64 -26 126.5t-81 104t-141 41.5z" />
    <glyph glyph-name="f" unicode="f" horiz-adv-x="1024" 
d="M968 1168h-292v-1168h-444v1168h-216v320h216v120q0 261 153 396.5t411 135.5q57 0 110.5 -8t101.5 -20v-340q-48 12 -116 12q-102 0 -159 -44.5t-57 -131.5v-120h292v-320z" />
    <glyph glyph-name="g" unicode="g" horiz-adv-x="1536" 
d="M1464 60q0 -208 -93.5 -352.5t-261 -220t-389.5 -75.5q-96 0 -200 26t-197 76t-155 122l188 272q60 -63 147 -107.5t201 -44.5q153 0 234.5 80t81.5 224q3 22 4 69q-64 -74 -150 -115.5t-198 -41.5q-186 0 -321.5 98t-209 269t-73.5 389v28q0 226 73.5 397t210 267
t324.5 96q126 0 215.5 -42.5t151.5 -118.5l17 133h400v-1428zM512 756v-28q0 -168 67.5 -282t208.5 -114q153 0 220.5 94.5t67.5 253.5v108q0 180 -67 276t-217 96q-138 0 -209 -115t-71 -289z" />
    <glyph glyph-name="h" unicode="h" horiz-adv-x="1536" 
d="M552 796v-796h-444v2112h416l12 -776h16q66 84 173 132t239 48q138 0 243.5 -55t165 -182t59.5 -343v-936h-444v940q0 132 -57.5 176t-162.5 44q-114 0 -165 -104t-51 -260z" />
    <glyph glyph-name="hcedilla" unicode="&#x1e29;" horiz-adv-x="1536" 
d="M812 -308q0 -153 -127 -246.5t-373 -93.5l-12 256q57 0 94.5 23.5t37.5 80.5q0 54 -44.5 74t-143.5 26l41 188h-181v2112h416l12 -776h16q66 84 173 132t239 48q138 0 243.5 -55t165 -182t59.5 -343v-936h-444v940q0 132 -57.5 176t-162.5 44q-114 0 -165 -104t-51 -260
v-780h76l-16 -88q75 -12 139.5 -65.5t64.5 -170.5z" />
    <glyph glyph-name="i" unicode="i" horiz-adv-x="768" 
d="M140 1872q0 99 66.5 161.5t177.5 62.5t179.5 -62.5t68.5 -161.5t-68.5 -161.5t-179.5 -62.5t-177.5 62.5t-66.5 161.5zM608 1488v-1488h-444v1488h444z" />
    <glyph glyph-name="idieresisacute" unicode="&#x1e2f;" horiz-adv-x="1280" 
d="M439 2092l271 432h472l-383 -432h-360zM90 1849q0 77 58.5 130t143.5 53t143.5 -53t58.5 -130t-58.5 -130t-143.5 -53t-143.5 53t-58.5 130zM790 1849q0 77 58.5 130t143.5 53t143.5 -53t58.5 -130t-58.5 -130t-143.5 -53t-143.5 53t-58.5 130zM852 1488v-1488h-444v1488
h444z" />
    <glyph glyph-name="itildebelow" unicode="&#x1e2d;" horiz-adv-x="1280" 
d="M444 1872q0 99 66.5 161.5t177.5 62.5t179.5 -62.5t68.5 -161.5t-68.5 -161.5t-179.5 -62.5t-177.5 62.5t-66.5 161.5zM912 1488v-1488h-444v1488h444zM920 -144l248 -16q0 -100 -40.5 -185.5t-112 -138t-163.5 -52.5q-86 0 -144.5 29t-112 58t-123.5 29
q-45 0 -76.5 -30.5t-31.5 -93.5l-252 12q0 98 40.5 184t112 139t163.5 53q72 0 133.5 -28t121 -56t125.5 -28q45 0 78.5 30.5t33.5 93.5z" />
    <glyph glyph-name="j" unicode="j" horiz-adv-x="896" 
d="M288 1872q0 99 68.5 161.5t179.5 62.5t177.5 -62.5t66.5 -161.5t-66.5 -161.5t-177.5 -62.5t-179.5 62.5t-68.5 161.5zM324 1488h444v-1536q0 -186 -77.5 -303.5t-212 -173t-306.5 -55.5h-168v360h96q93 0 158.5 48t65.5 132v1528z" />
    <glyph glyph-name="k" unicode="k" horiz-adv-x="1536" 
d="M1048 0l-323 533l-153 -184v-349h-444v2112h444v-1108h20l392 484h532l-521 -628l561 -860h-508z" />
    <glyph glyph-name="l" unicode="l" horiz-adv-x="768" 
d="M604 2104v-2104h-444v2104h444z" />
    <glyph glyph-name="lslash" unicode="&#x142;" horiz-adv-x="1024" 
d="M920 1084l-192 -61v-1023h-444v880l-176 -56v248l176 56v976h444v-833l192 61v-248z" />
    <glyph glyph-name="m" unicode="m" horiz-adv-x="2432" 
d="M1424 928v-928h-428v936q0 141 -63.5 182.5t-156.5 41.5q-72 0 -128 -48t-56 -168v-944h-444v1488h432v-152h12q66 81 162.5 130.5t237.5 49.5q132 0 230 -53t146 -155h16q63 93 174 150.5t258 57.5q138 0 243.5 -55t165 -182t59.5 -343v-936h-444v936q0 138 -55 181
t-145 43q-93 0 -154.5 -54.5t-61.5 -177.5z" />
    <glyph glyph-name="n" unicode="n" horiz-adv-x="1664" 
d="M592 796v-796h-444v1488h396l12 -152h16q66 84 173 132t239 48q138 0 255.5 -55t189 -182t71.5 -343v-936h-444v920q0 120 -71 180t-161 60q-129 0 -180.5 -104t-51.5 -260z" />
    <glyph glyph-name="o" unicode="o" horiz-adv-x="1536" 
d="M772 -24q-128 0 -251.5 44t-224 136.5t-160.5 239t-60 352.5q0 198 60 343t160.5 239t224 140t251.5 46q126 0 248.5 -46t221.5 -140t158.5 -239t59.5 -343q0 -206 -59.5 -352.5t-158.5 -239t-221.5 -136.5t-248.5 -44zM772 332q99 0 177.5 98.5t78.5 317.5
q0 216 -78.5 314t-177.5 98t-177.5 -98t-78.5 -314q0 -219 77 -317.5t179 -98.5z" />
    <glyph glyph-name="oslash" unicode="&#xf8;" 
d="M768 -24q-110 0 -212 30l-100 -206h-236l145 298q-128 89 -210.5 249t-82.5 401q0 198 60 343t160.5 239t224 140t251.5 46q137 0 262 -51l102 211h236l-156 -322q108 -94 176 -244.5t68 -361.5q0 -206 -59.5 -352.5t-158.5 -239t-221.5 -136.5t-248.5 -44zM512 748
q0 -81 11.5 -145t32.5 -112l312 643q-46 26 -100 26q-99 0 -177.5 -98t-78.5 -314zM1024 748q0 100 -20 180l-286 -590q24 -6 50 -6q99 0 177.5 98.5t78.5 317.5z" />
    <glyph glyph-name="ohorn" unicode="&#x1a1;" 
d="M1436 748q0 -206 -59.5 -352.5t-158.5 -239t-221.5 -136.5t-248.5 -44q-128 0 -251.5 44t-224 136.5t-160.5 239t-60 352.5q0 198 60 343t160.5 239t224.5 140t251 46q142 0 279.5 -58.5t237.5 -178.5q70 40 94.5 127.5t24.5 213.5h252q0 -190 -65.5 -319t-205.5 -185
q34 -76 52.5 -168t18.5 -200zM748 332q99 0 177.5 98.5t78.5 317.5q0 216 -78.5 314t-177.5 98t-177.5 -98t-78.5 -314q0 -219 77 -317.5t179 -98.5z" />
    <glyph glyph-name="p" unicode="p" horiz-adv-x="1536" 
d="M872 -28q-111 0 -196 41.5t-148 113.5v-703h-444v2064h412l16 -140q64 79 152 123.5t204 44.5q285 0 432.5 -206.5t147.5 -545.5q0 -232 -65.5 -410.5t-194 -280t-316.5 -101.5zM1008 764q0 171 -57 283.5t-195 112.5q-150 0 -211 -92.5t-61 -275.5v-112
q0 -156 61.5 -252t214.5 -96q138 0 193 121.5t55 310.5z" />
    <glyph glyph-name="q" unicode="q" horiz-adv-x="1536" 
d="M1452 1488v-2060h-444v704q-65 -75 -150 -117.5t-194 -42.5q-188 0 -317.5 99.5t-196 276t-66.5 408.5q0 226 67 397t197 267t320 96q117 0 207 -50t156 -138l37 160h384zM528 756q0 -189 53.5 -306.5t194.5 -117.5q138 0 207 94.5t69 253.5v108q0 180 -67 276t-205 96
t-195 -115t-57 -289z" />
    <glyph glyph-name="r" unicode="r" horiz-adv-x="1024" 
d="M976 1504v-428q-15 3 -44.5 3.5t-47.5 0.5q-120 0 -206 -53.5t-86 -182.5v-844h-444v1488h444v-192h12q33 78 118.5 147t181.5 69q12 0 34.5 -1t37.5 -7z" />
    <glyph glyph-name="s" unicode="s" horiz-adv-x="1408" 
d="M132 1072q0 112 73.5 212.5t204 164t302.5 63.5q189 0 343 -63.5t241 -192.5l-332 -236q-12 16 -40.5 45.5t-75 54t-112.5 24.5q-81 0 -116.5 -25.5t-35.5 -58.5q0 -57 53 -77.5t143 -50.5l80 -28q210 -72 317 -181.5t107 -286.5q0 -154 -86 -257t-219 -155t-275 -52
q-183 0 -346.5 63t-277.5 225l332 236q16 -22 48.5 -58t86 -65t133.5 -29q69 0 116.5 27t47.5 69q0 57 -67.5 91.5t-196.5 76.5l-72 24q-171 57 -273.5 158.5t-102.5 281.5z" />
    <glyph glyph-name="t" unicode="t" horiz-adv-x="1024" 
d="M968 12q-109 -40 -256 -40q-213 0 -334.5 106.5t-121.5 349.5v740h-196v320h196v372h444v-372h248v-320h-248v-684q0 -87 34 -117.5t118 -30.5q36 0 64 2.5t52 5.5v-332z" />
    <glyph glyph-name="u" unicode="u" horiz-adv-x="1536" 
d="M988 692v796h444v-1488h-416l-12 152h-16q-66 -84 -173 -132t-239 -48q-138 0 -243.5 55t-165 182t-59.5 343v936h444v-940q0 -132 57.5 -176t162.5 -44q114 0 165 104t51 260z" />
    <glyph glyph-name="uhorn" unicode="&#x1b0;" 
d="M904 152q-66 -84 -173 -132t-239 -48q-138 0 -243.5 55t-165 182t-59.5 343v936h444v-940q0 -132 57.5 -176t162.5 -44q114 0 165 104t51 260v796h444v-194q112 27 142 109t30 221h248q0 -235 -92 -369t-328 -163v-1092h-416l-12 152h-16z" />
    <glyph glyph-name="v" unicode="v" horiz-adv-x="1536" 
d="M1480 1488l-488 -1488h-448l-488 1488h464l240 -928v-16h16v16l240 928h464z" />
    <glyph glyph-name="w" unicode="w" horiz-adv-x="2176" 
d="M2080 1488l-360 -1488h-372l-248 852h-24l-244 -852h-372l-360 1488h424l152 -872h20l236 872h312l236 -864h20l156 864h424z" />
    <glyph glyph-name="x" unicode="x" horiz-adv-x="1536" 
d="M548 1488l220 -408l228 408h464l-404 -724l420 -764h-464l-244 440l-240 -440h-468l420 764l-400 724h468z" />
    <glyph glyph-name="y" unicode="y" horiz-adv-x="1536" 
d="M900 -220q-26 -76 -76.5 -164.5t-148 -152t-263.5 -63.5q-63 0 -97 5t-91 23v328h60q114 0 164.5 34.5t71.5 97.5l40 103l-520 1497h476l249 -863l255 863h476z" />
    <glyph glyph-name="z" unicode="z" horiz-adv-x="1536" 
d="M168 1128v360h1212v-260l-662 -868h678v-360h-1256v260l662 868h-634z" />
    <glyph glyph-name="ae" unicode="&#xe6;" horiz-adv-x="2560" 
d="M2348 140q-78 -66 -229 -117t-331 -51q-171 0 -303 50t-223 140q-75 -75 -204 -132.5t-318 -57.5q-279 0 -425.5 130t-146.5 346t178 334t526 118h200v64q0 90 -51.5 143t-144.5 53q-105 0 -160.5 -41.5t-55.5 -98.5l-440 24q0 136 81 242.5t230 168t353 61.5
q280 0 440 -132q83 64 194 98.5t250 33.5q291 0 459.5 -181.5t168.5 -490.5v-244h-892q16 -120 96 -194t244 -74q138 0 225 26.5t171 65.5zM1768 1160q-128 0 -187.5 -75.5t-74.5 -196.5h454v36q0 111 -48 173.5t-144 62.5zM824 292q65 0 133 27t115 65v236h-200
q-129 0 -196.5 -54t-67.5 -126q0 -69 52.5 -108.5t163.5 -39.5z" />
    <glyph glyph-name="oe" unicode="&#x153;" horiz-adv-x="2560" 
d="M2412 140q-87 -66 -237 -117t-339 -51q-156 0 -282 49.5t-218 136.5q-90 -88 -215.5 -137t-284.5 -49q-232 0 -391.5 99t-242 270t-82.5 387v32q0 216 82 387t241 270t389 99q158 0 283 -47.5t215 -133.5q84 86 202 134t268 47q306 0 475 -181.5t169 -490.5v-244h-875
q23 -112 102 -190t221 -78q147 0 232.5 26.5t175.5 65.5zM1800 1160q-107 0 -160.5 -77.5t-70.5 -194.5h439v36q0 111 -48.5 173.5t-159.5 62.5zM564 760v-32q0 -168 58 -282t214 -114q153 0 210.5 114t57.5 282v32q0 108 -24.5 199t-84 146t-163.5 55q-102 0 -160.5 -55
t-83 -146t-24.5 -199z" />
    <glyph glyph-name="eth" unicode="&#xf0;" 
d="M1616 816q0 -250 -95.5 -440t-262 -297t-378.5 -107q-210 0 -368.5 90.5t-247 243t-88.5 338.5q0 306 160.5 491t463.5 185q180 0 321 -89q-36 104 -92.5 188.5t-127.5 151.5l-249 -155l-108 164l189 117q-79 47 -164 81.5t-173 57.5l140 336q325 -66 571 -243l225 139
l108 -160l-178 -111q166 -167 260 -393t94 -500v-88zM620 644q0 -135 71 -223.5t197 -88.5q144 0 214 122.5t70 305.5v139q-38 39 -106.5 66t-169.5 27q-141 0 -208.5 -93t-67.5 -255z" />
    <glyph glyph-name="thorn" unicode="&#xfe;" 
d="M1004 -28q-111 0 -196 40.5t-148 112.5v-697h-444v2684h444v-743q63 70 147 108.5t193 38.5q282 0 431 -206.5t149 -545.5v-32q0 -216 -66.5 -388t-195 -272t-314.5 -100zM888 1160q-166 0 -228 -121v-583q31 -58 87.5 -91t144.5 -33q92 0 145.5 54t76 145t22.5 201v32
q0 171 -55 283.5t-193 112.5z" />
    <glyph glyph-name="alpha" unicode="&#x3b1;" 
d="M1644 0q-45 -18 -84.5 -23t-87.5 -5q-269 0 -376 234q-60 -108 -150 -171t-218 -63q-188 0 -317.5 95t-196 262t-66.5 383v28q0 228 67 403t197 274t320 99q112 0 195 -54t142 -148l31 174h388v-980q0 -99 24 -137.5t72 -38.5q20 0 24 4zM596 712q0 -165 51.5 -272.5
t192.5 -107.5q138 0 204 93v625q-66 110 -200 110q-92 0 -146.5 -56.5t-78 -152t-23.5 -211.5v-28z" />
    <glyph glyph-name="beta" unicode="&#x3b2;" 
d="M1004 -28q-94 0 -193 24.5t-187 76.5v-645h-444v1972q0 196 92.5 337.5t248 218t343.5 76.5q300 0 482 -138.5t182 -405.5q0 -141 -70.5 -256.5t-194.5 -183.5q168 -57 258.5 -180.5t90.5 -303.5q0 -282 -160 -437t-448 -155zM888 860h-112v320h84q120 0 172 67.5
t52 196.5q0 93 -53 160.5t-167 67.5q-105 0 -172.5 -71.5t-67.5 -200.5v-1009q104 -59 268 -59q132 0 206 69t74 171q0 153 -73 220.5t-211 67.5z" />
    <glyph glyph-name="gamma" unicode="&#x3b3;" horiz-adv-x="1536" 
d="M992 0h-4v-572h-440v572l-492 1488h468l252 -986l240 986h464z" />
    <glyph glyph-name="delta" unicode="&#x3b4;" 
d="M344 1712q0 216 155 336t425 120q108 0 181 -16.5t175 -43.5v-332q-51 15 -132.5 37.5t-171.5 22.5q-99 0 -157.5 -31t-58.5 -85q0 -36 32.5 -79t155.5 -85q330 -114 499 -310t169 -490v-28q0 -214 -85 -385t-245 -271t-386 -100q-230 0 -392 96t-247 261t-85 371v28
q0 154 58.5 280.5t155 212t210.5 115.5l-4 8q-111 63 -181.5 152.5t-70.5 215.5zM616 780v-24q0 -116 30 -213.5t93 -156t161 -58.5q96 0 157 58.5t90 156t29 213.5v24q0 88 -33 175t-95 151t-148 82q-96 0 -159 -57t-94 -150t-31 -201z" />
    <glyph glyph-name="epsilon" unicode="&#x3b5;" 
d="M904 904h244v-284h-244q-114 0 -185 -34.5t-71 -121.5q0 -60 60.5 -110t183.5 -50q129 0 190.5 39.5t61.5 96.5h440q0 -162 -97.5 -265.5t-249 -153t-313.5 -49.5q-202 0 -364 53.5t-257 154t-95 240.5q0 128 74.5 215.5t210.5 131.5q-121 48 -191 130.5t-70 182.5
q0 142 89 239t245 147t358 50q174 0 319.5 -55t233 -158t87.5 -247h-444q0 66 -64 97t-160 31q-117 0 -168.5 -46.5t-51.5 -97.5q0 -63 60 -99.5t168 -36.5z" />
    <glyph glyph-name="zeta" unicode="&#x3b6;" horiz-adv-x="1536" 
d="M144 1648v356h1248v-248l-504 -596q-86 -98 -144 -181.5t-87 -172t-29 -202.5q0 -126 62 -176t170 -80l84 -24q124 -36 217.5 -80.5t145 -114t49.5 -181.5q0 -82 -52 -174.5t-131 -176t-161 -137.5l-224 168q66 63 96.5 125.5t27.5 98.5q3 48 -26 79t-110 49l-92 28
q-252 66 -374 192t-122 324q0 172 44.5 306t127 256t196.5 258l252 304h-664z" />
    <glyph glyph-name="eta" unicode="&#x3b7;" horiz-adv-x="1536" 
d="M1432 952v-1524h-444v1524q0 102 -51 155t-141 53q-81 0 -143.5 -28t-104.5 -77v-1055h-440v1488h412l16 -185q76 100 184 156.5t240 56.5q210 0 341 -129t131 -435z" />
    <glyph glyph-name="theta" unicode="&#x3b8;" 
d="M1588 1184v-364q0 -290 -87 -478t-242 -279t-359 -91q-206 0 -363 91t-245 279t-88 478v364q0 288 88 476t244 280t360 92t360 -92t244 -280t88 -476zM648 1244v-64h496v64q0 240 -65.5 334t-182.5 94t-182.5 -94t-65.5 -334zM648 764q0 -246 67.5 -339t184.5 -93
q114 0 179 93t65 339v76h-496v-76z" />
    <glyph glyph-name="iota" unicode="&#x3b9;" horiz-adv-x="1024" 
d="M160 1488h444l-4 -988q0 -90 35.5 -121t116.5 -31q39 0 65.5 2.5t50.5 5.5v-332q-57 -18 -119 -29t-137 -11q-213 0 -332.5 106.5t-119.5 349.5v1048z" />
    <glyph glyph-name="lambda" unicode="&#x3bb;" 
d="M1672 -20q-33 -6 -73 -7t-91 -1q-186 0 -287 92.5t-149 227.5l-201 570l-275 -862h-476l522 1471l-82 189q-27 66 -73 93t-115 27q-18 0 -37.5 -0.5t-46.5 -3.5l-12 332q51 15 123 23.5t129 8.5q150 0 244.5 -63t139.5 -177l564 -1408q24 -54 58 -107t94 -53h44v-352z
" />
    <glyph glyph-name="xi" unicode="&#x3be;" horiz-adv-x="1536" 
d="M956 1320h212v-372h-196q-201 0 -306.5 -79t-105.5 -229q0 -132 92.5 -193.5t227.5 -94.5l128 -32q189 -45 302 -125t110 -251q0 -82 -52 -173.5t-131 -174t-161 -136.5l-224 164q66 66 95 128.5t29 95.5q0 39 -31.5 73.5t-100.5 58.5l-92 32q-153 50 -271.5 93.5
t-199.5 103.5t-123 156.5t-42 250.5q0 190 105 320t301 195q-131 48 -204.5 135.5t-73.5 217.5q0 255 177.5 401.5t474.5 146.5q150 0 240.5 -18.5t195.5 -57.5l-68 -344q-78 20 -127 31.5t-90 16t-95 4.5q-264 0 -264 -176q0 -69 62 -118.5t206 -49.5z" />
    <glyph glyph-name="pi" unicode="&#x3c0;" horiz-adv-x="2048" 
d="M164 1156v332h1704v-332h-248v-656q0 -90 34 -121t118 -31q36 0 64 2.5t52 5.5v-332q-57 -18 -120.5 -29t-135.5 -11q-213 0 -334.5 106.5t-121.5 349.5v716h-324v-1156h-444v1156h-244z" />
    <glyph glyph-name="rho" unicode="&#x3c1;" 
d="M1000 -28q-113 0 -198 44.5t-146 122.5v-711h-444v1368q0 202 82 365t239 259t383 96q216 0 364 -99t224 -274t76 -403v-28q0 -216 -66.5 -383t-196 -262t-317.5 -95zM656 748v-316q71 -104 236 -104q138 0 191 109.5t53 274.5v28q0 116 -23.5 211.5t-78 152t-146.5 56.5
q-123 0 -177.5 -114.5t-54.5 -297.5z" />
    <glyph glyph-name="sigma1" unicode="&#x3c2;" horiz-adv-x="1536" 
d="M808 1516q279 0 449.5 -157t170.5 -439h-416q0 99 -49.5 169.5t-154.5 70.5q-102 0 -157.5 -55t-77 -146t-21.5 -199v-32q0 -124 33.5 -196t101 -113t169.5 -71q142 -42 234.5 -83.5t140 -108t53.5 -184.5q0 -82 -50 -174.5t-127 -176t-159 -137.5l-232 168
q66 66 97 128.5t31 95.5q0 101 -124 132q-306 87 -459 249t-153 471v32q0 214 79 385t235 271t386 100z" />
    <glyph glyph-name="sigma" unicode="&#x3c3;" 
d="M1544 672q0 -200 -79.5 -358.5t-232 -250t-372.5 -91.5q-232 0 -391.5 99t-242 270t-82.5 387v32q0 208 82 372.5t241 260t389 95.5h792v-356h-335q98 -79 164.5 -191.5t66.5 -240.5v-28zM588 760v-32q0 -168 58 -284t214 -116q138 0 189 116t51 284v32q0 100 -22 184.5
t-75 136t-147 51.5q-100 0 -158.5 -51.5t-84 -136t-25.5 -184.5z" />
    <glyph glyph-name="tau" unicode="&#x3c4;" horiz-adv-x="1536" 
d="M80 1132v356h1380v-356h-488v-648q0 -84 30.5 -118t93.5 -34q48 0 74 5t62 11l36 -340q-66 -21 -123.5 -28.5t-132.5 -7.5q-228 0 -356 127t-128 385v648h-448z" />
    <glyph glyph-name="upsilon" unicode="&#x3c5;" horiz-adv-x="1536" 
d="M143 1488h443v-924q0 -136 41.5 -185.5t98.5 -49.5q88 0 148.5 66t92 169.5t31.5 213.5q-3 183 -37.5 361.5t-91.5 348.5h414q63 -127 110 -305t47 -405q0 -230 -72 -412.5t-226 -288.5t-402 -106q-269 0 -433 143t-164 453v921z" />
    <glyph glyph-name="phi" unicode="&#x3c6;" horiz-adv-x="2304" 
d="M2148 776q0 -182 -72.5 -350.5t-241.5 -288t-458 -153.5v-640h-444v643q-290 38 -460 163.5t-243 305t-73 380.5q0 216 88 397t208 283l316 -220q-81 -93 -124.5 -218t-43.5 -242q0 -183 71 -309.5t261 -173.5v727q0 128 61 226.5t162 154t221 55.5q208 0 355.5 -67.5
t239 -178t134.5 -240.5t43 -254zM1376 1092v-744q190 41 261 156.5t71 271.5q-3 180 -72.5 282t-195.5 102q-51 0 -57.5 -23.5t-6.5 -44.5z" />
    <glyph glyph-name="psi" unicode="&#x3c8;" horiz-adv-x="2304" 
d="M2136 836q0 -203 -72.5 -384.5t-241.5 -306.5t-458 -161v-640h-444v643q-344 45 -548 242t-204 579v680h444v-684q0 -205 86.5 -309.5t221.5 -140.5v1134h444v-1136q185 47 258.5 173.5t73.5 310.5q-3 168 -43.5 332t-100.5 320h400q75 -117 129.5 -281t54.5 -371z" />
    <glyph glyph-name="omega" unicode="&#x3c9;" horiz-adv-x="2560" 
d="M1044 688v512h472v-512q0 -198 57.5 -277t138.5 -79q72 0 113 65.5t58 168t17 214.5q-6 183 -54.5 360t-129.5 348h416q84 -126 148 -304.5t64 -403.5q0 -230 -57.5 -413t-193 -289t-369.5 -106q-301 0 -444 284q-143 -284 -444 -284q-234 0 -368.5 106t-191 289
t-56.5 413q0 225 64 403.5t148 304.5h412q-81 -171 -129.5 -348t-54.5 -360q0 -112 17 -214.5t59 -168t116 -65.5q78 0 135 79t57 277z" />
    <glyph glyph-name="tonos" unicode="&#x384;" horiz-adv-x="1024" 
d="M256 1728l112 476h400l-248 -476h-264z" />
    <glyph glyph-name="becyrillic" unicode="&#x431;" 
d="M1607 676q0 -202 -81.5 -361t-240 -251t-390.5 -92q-230 0 -389 102t-241 279t-82 403v28v5v23q0 368 82 609t232 375t354 180q150 33 205 66t55 102h356q0 -130 -42.5 -227.5t-159 -166t-338.5 -110.5q-159 -32 -252.5 -127t-129.5 -275q95 87 201.5 126.5t232.5 39.5
q204 0 344 -91t212 -249t72 -360v-28zM895 1048q-153 0 -212.5 -101.5t-59.5 -242.5v-28q0 -147 58 -247.5t214 -100.5q153 0 212.5 100.5t59.5 247.5v28q0 141 -58 242.5t-214 101.5z" />
    <glyph glyph-name="vecyrillic" unicode="&#x432;" 
d="M1572 424q0 -210 -160 -317t-460 -107h-728v1488h632q291 0 459.5 -103t168.5 -313q0 -102 -70.5 -184.5t-203.5 -125.5q188 -34 275 -126t87 -212zM664 1132v-240h204q96 0 136 29t40 83q0 72 -47.5 100t-140.5 28h-192zM1128 476q0 57 -37 94.5t-139 37.5h-288v-252
h288q93 0 134.5 30t41.5 90z" />
    <glyph glyph-name="gecyrillic" unicode="&#x433;" horiz-adv-x="1280" 
d="M1160 1488v-356h-596v-1132h-444v1488h1040z" />
    <glyph glyph-name="gheupturncyrillic" unicode="&#x491;" horiz-adv-x="1536" 
d="M1332 1924v-792h-680v-1132h-444v1488h680v436h444z" />
    <glyph glyph-name="uni04FB" unicode="&#x4fb;" horiz-adv-x="1536" 
d="M1108 652h-280v-652h-444v652h-268v264h268v572h1040v-356h-596v-216h280v-264zM900 392h444v-428q0 -282 -147 -431t-405 -149q-57 0 -106 4t-106 16l20 352q33 -9 62 -12.5t74 -3.5q164 0 164 224v428z" />
    <glyph glyph-name="decyrillic" unicode="&#x434;" horiz-adv-x="2048" 
d="M520 1020l8 468h1140v-1128h220v-812h-444v452h-828v-452h-456v812h132q106 110 153.5 206.5t60 204t14.5 249.5zM964 1020q-4 -216 -43.5 -379t-106.5 -281h414v772h-262z" />
    <glyph glyph-name="zhecyrillic" unicode="&#x436;" horiz-adv-x="2560" 
d="M1056 0v520h-177l-263 -520h-528l451 784l-463 704h552l292 -536h136v536h444v-536h140l292 536h552l-456 -694l456 -794h-540l-263 520h-181v-520h-444z" />
    <glyph glyph-name="zhedescendercyrillic" unicode="&#x497;" horiz-adv-x="2816" 
d="M2736 308v-800h-444v492h-300l-263 520h-181v-520h-444v520h-177l-263 -520h-528l451 784l-463 704h552l292 -536h136v536h444v-536h140l292 536h552l-456 -694l279 -486h381z" />
    <glyph glyph-name="zecyrillic" unicode="&#x437;" horiz-adv-x="1536" 
d="M772 628h-200v268h200q93 0 134.5 40.5t41.5 103.5q0 51 -33 97.5t-135 46.5q-87 0 -139.5 -31t-52.5 -97h-444q0 144 82 247t220 158t306 55q288 0 462 -111.5t174 -324.5q0 -99 -60.5 -181.5t-169.5 -131.5q258 -88 258 -347q0 -140 -85 -240.5t-235 -154t-344 -53.5
q-156 0 -301 49.5t-238 153t-93 265.5h444q0 -57 51 -96.5t165 -39.5q108 0 150 50t42 110q0 87 -50.5 125.5t-149.5 38.5z" />
    <glyph glyph-name="iicyrillic" unicode="&#x438;" horiz-adv-x="1536" 
d="M552 624l436 864h444v-1488h-444v868l-436 -868h-444v1488h444v-864z" />
    <glyph glyph-name="uni048B" unicode="&#x48b;" horiz-adv-x="2048" 
d="M1048 2116h308q0 -186 -134.5 -305t-365.5 -119q-228 0 -362 119t-134 305h304q0 -69 43.5 -122.5t148.5 -53.5t148.5 53.5t43.5 122.5zM596 624l436 864h444v-1488h-444v868l-436 -868h-444v1488h444v-864zM1852 300v-292q0 -168 -80 -331t-200 -265l-224 112
q30 62 63.5 126t57 143t23.5 187v320h360z" />
    <glyph glyph-name="kacyrillic" unicode="&#x43a;" 
d="M1024 0l-263 520h-149v-520h-440v1488h440v-536h136l264 536h568l-452 -701l496 -787h-600z" />
    <glyph glyph-name="kahookcyrillic" unicode="&#x4c4;" 
d="M1588 204q4 -114 -49 -236.5t-165 -230t-286 -177.5l-204 284q117 66 189 147t75 213q0 162 -102.5 239t-285.5 77h-124v-520h-444v1488h444v-536h120l280 536h564l-439 -669q197 -69 312 -221t115 -394z" />
    <glyph glyph-name="kadescendercyrillic" unicode="&#x49b;" horiz-adv-x="2048" 
d="M1884 308v-800h-444v492h-376l-263 520h-149v-520h-440v1488h440v-536h136l264 536h568l-452 -701l302 -479h414z" />
    <glyph glyph-name="kaverticalstrokecyrillic" unicode="&#x49d;" 
d="M660 296v224h-100v-520h-444v1488h444v-536h100v252h204v-252h68l168 536h564l-380 -703l396 -785h-572l-178 520h-66v-224h-204z" />
    <glyph glyph-name="kabashkircyrillic" unicode="&#x4a1;" horiz-adv-x="2048" 
d="M28 1128v360h980v-536h136l264 536h568l-452 -701l496 -787h-600l-263 520h-149v-520h-440v1128h-540z" />
    <glyph glyph-name="elcyrillic" unicode="&#x43b;" horiz-adv-x="1536" 
d="M304 856l24 632h1160v-1488h-444v1132h-301l-23 -408q-14 -266 -80 -425t-179 -229t-269 -70h-136l-4 356l48 4q99 12 145.5 126.5t58.5 369.5z" />
    <glyph glyph-name="uni04C6" unicode="&#x4c6;" horiz-adv-x="2048" 
d="M428 856l24 632h1160v-1188h324v-292q0 -168 -80 -331t-200 -265l-224 112q30 62 63.5 126t57 143t23.5 187v20h-408v1132h-301l-23 -408q-14 -266 -80 -425t-179 -229t-269 -70h-136l-4 356l48 4q99 12 145.5 126.5t58.5 369.5z" />
    <glyph glyph-name="uni0513" unicode="&#x513;" horiz-adv-x="2048" 
d="M368 856l24 632h1160v-1488h-444v1132h-301l-23 -408q-14 -266 -80 -425t-179 -229t-269 -70h-136l-4 356l48 4q99 12 145.5 126.5t58.5 369.5zM1676 408h444v-428q0 -282 -147 -431t-405 -149q-57 0 -106 4t-106 16l20 352q33 -9 62 -12.5t74 -3.5q164 0 164 224v428z
" />
    <glyph glyph-name="uni052F" unicode="&#x52f;" horiz-adv-x="2048" 
d="M420 1488h1160v-1180h328v-800h-444v492h-328v1132h-300l-24 -408q-14 -266 -80 -425t-179 -229t-269 -70h-136l-4 356l48 4q99 12 145.5 126.5t58.5 369.5z" />
    <glyph glyph-name="emcyrillic" unicode="&#x43c;" horiz-adv-x="2048" 
d="M1016 512l356 976h552v-1488h-440v856l-320 -856h-296l-300 815v-815h-444v1488h544z" />
    <glyph glyph-name="uni04CE" unicode="&#x4ce;" horiz-adv-x="2560" 
d="M1088 512l356 976h552v-1488h-440v856l-320 -856h-296l-300 815v-815h-444v1488h544zM2396 300v-292q0 -168 -80 -331t-200 -265l-224 112q30 62 63.5 126t57 143t23.5 187v320h360z" />
    <glyph glyph-name="encyrillic" unicode="&#x43d;" horiz-adv-x="1536" 
d="M984 0v552h-432v-552h-444v1488h444v-580h432v580h444v-1488h-444z" />
    <glyph glyph-name="endescendercyrillic" unicode="&#x4a3;" horiz-adv-x="2048" 
d="M1904 308v-800h-444v492h-396v552h-432v-552h-444v1488h444v-580h432v580h444v-1180h396z" />
    <glyph glyph-name="enghecyrillic" unicode="&#x4a5;" horiz-adv-x="2048" 
d="M568 1488v-580h432v580h924v-356h-480v-1132h-444v552h-432v-552h-444v1488h444z" />
    <glyph glyph-name="enhookcyrillic" unicode="&#x4c8;" horiz-adv-x="1536" 
d="M108 1488h444v-580h432v580h444v-1508q0 -282 -146.5 -431t-401.5 -149q-57 0 -108 4t-108 16l20 352q36 -9 65.5 -12.5t74.5 -3.5q160 0 160 224v572h-432v-552h-444v1488z" />
    <glyph glyph-name="uni04CA" unicode="&#x4ca;" horiz-adv-x="2048" 
d="M1068 0v552h-432v-552h-444v1488h444v-580h432v580h444v-1488h-444zM1888 300v-292q0 -168 -80 -331t-200 -265l-224 112q30 62 63.5 126t57 143t23.5 187v320h360z" />
    <glyph glyph-name="fitacyrillic" unicode="&#x473;" 
d="M768 -24q-128 0 -251.5 44t-224 136.5t-160.5 239t-60 352.5q0 198 60 343t160.5 239t224 140t251.5 46q126 0 248.5 -46t221.5 -140t158.5 -239t59.5 -343q0 -206 -59.5 -352.5t-158.5 -239t-221.5 -136.5t-248.5 -44zM768 1160q-84 0 -155 -70t-93 -222h496
q-22 152 -93 222t-155 70zM768 332q81 0 150 65t94 207h-489q25 -142 93.5 -207t151.5 -65z" />
    <glyph glyph-name="pecyrillic" unicode="&#x43f;" horiz-adv-x="1536" 
d="M108 0v1488h1324v-1488h-444v1132h-440v-1132h-440z" />
    <glyph glyph-name="uni0525" unicode="&#x525;" horiz-adv-x="2048" 
d="M1852 308v-800h-444v492h-328v1132h-436v-1132h-444v1488h1324v-1180h328z" />
    <glyph glyph-name="uni048F" unicode="&#x48f;" 
d="M872 -28q-111 0 -196 41.5t-148 113.5v-703h-444v2064h412l16 -140q64 79 152 123.5t204 44.5q285 0 432.5 -206.5t147.5 -545.5q0 -354 -144 -566l164 -202l-140 -112l-148 184q-130 -96 -308 -96zM484 680q0 -156 61.5 -252t214.5 -96q96 0 155 65l-135 167l136 112
l77 -95q15 79 15 183q0 171 -57 283.5t-195 112.5q-150 0 -211 -92.5t-61 -275.5v-112z" />
    <glyph glyph-name="tecyrillic" unicode="&#x442;" horiz-adv-x="1536" 
d="M80 1132v356h1380v-356h-472v-1132h-444v1132h-464z" />
    <glyph glyph-name="efcyrillic" unicode="&#x444;" horiz-adv-x="2304" 
d="M1552 -28q-99 0 -180 36v-580h-440v580q-81 -36 -180 -36q-178 0 -301 95t-187 262t-64 383v28q0 228 64 403t187 274t301 99q99 0 180 -38v634h440v-634q81 38 180 38q180 0 303 -99t186 -274t63 -403v-28q0 -216 -63 -383t-186 -262t-303 -95zM1440 1160q-36 0 -68 -6
v-817q32 -5 68 -5q126 0 173 107.5t47 272.5v28q0 174 -50 297t-170 123zM644 712q0 -165 47 -272.5t173 -107.5q36 0 68 5v817q-32 6 -68 6q-120 0 -170 -123t-50 -297v-28z" />
    <glyph glyph-name="uni04FD" unicode="&#x4fd;" 
d="M1764 -20q0 -282 -147 -431t-405 -149q-57 0 -106 4t-106 16l20 352q33 -9 62 -12.5t74 -3.5q164 0 164 224v20h-340l-244 440l-240 -440h-468l420 764l-400 724h468l220 -408l228 408h464l-404 -724l296 -538v182h444v-428z" />
    <glyph glyph-name="hadescendercyrillic" unicode="&#x4b3;" 
d="M1692 308v-800h-444v492h-112l-244 440l-240 -440h-468l420 764l-400 724h468l220 -408l228 408h464l-404 -724l251 -456h261z" />
    <glyph glyph-name="tsecyrillic" unicode="&#x446;" 
d="M1676 356l-24 -796h-416v440h-1120v1488h444v-1128h436v1128h444v-1132h236z" />
    <glyph glyph-name="dzhecyrillic" unicode="&#x45f;" horiz-adv-x="1536" 
d="M1432 0h-444v-496h-440v496h-440v1488h440v-1128h440v1128h444v-1488z" />
    <glyph glyph-name="checyrillic" unicode="&#x447;" horiz-adv-x="1536" 
d="M1432 1488v-1488h-444v449q-93 -17 -160 -17q-339 0 -529.5 136.5t-190.5 439.5v480h440v-480q0 -135 63.5 -175.5t216.5 -40.5q78 0 160 16v680h444z" />
    <glyph glyph-name="chedescendercyrillic" unicode="&#x4b7;" horiz-adv-x="2048" 
d="M1892 308v-800h-444v492h-376v449q-93 -17 -160 -17q-339 0 -529.5 136.5t-190.5 439.5v480h440v-480q0 -135 63.5 -175.5t216.5 -40.5q78 0 160 16v680h444v-1180h376z" />
    <glyph glyph-name="cheverticalstrokecyrillic" unicode="&#x4b9;" horiz-adv-x="1536" 
d="M1424 1488v-1488h-444v449q-48 -9 -92 -13v-216h-236v221q-262 30 -407 167t-145 400v480h440v-480q0 -88 26 -134t86 -65v347h236v-361q45 4 92 13v680h444z" />
    <glyph glyph-name="shacyrillic" unicode="&#x448;" horiz-adv-x="2304" 
d="M120 1488h444v-1128h368v1128h444v-1128h364v1128h444v-1488h-2064v1488z" />
    <glyph glyph-name="shchacyrillic" unicode="&#x449;" horiz-adv-x="2816" 
d="M2604 356l-28 -796h-416v440h-1960v1488h444v-1128h368v1128h444v-1128h364v1128h444v-1132h340z" />
    <glyph glyph-name="softsigncyrillic" unicode="&#x44c;" 
d="M1580 536q0 -237 -178.5 -386.5t-493.5 -149.5h-696v1488h444v-408h252q315 0 493.5 -150.5t178.5 -393.5zM656 356h252q123 0 177.5 52.5t54.5 127.5q0 84 -54.5 136t-177.5 52h-252v-368z" />
    <glyph glyph-name="hardsigncyrillic" unicode="&#x44a;" horiz-adv-x="2048" 
d="M132 1128v360h908v-408h252q315 0 493.5 -150.5t178.5 -393.5q0 -237 -178.5 -386.5t-493.5 -149.5h-696v1128h-464zM1040 356h252q123 0 177.5 52.5t54.5 127.5q0 84 -54.5 136t-177.5 52h-252v-368z" />
    <glyph glyph-name="yericyrillic" unicode="&#x44b;" horiz-adv-x="2304" 
d="M1528 536q0 -237 -178.5 -386.5t-493.5 -149.5h-696v1488h444v-408h252q315 0 493.5 -150.5t178.5 -393.5zM2144 1488v-1488h-444v1488h444zM604 356h252q123 0 177.5 52.5t54.5 127.5q0 84 -54.5 136t-177.5 52h-252v-368z" />
    <glyph glyph-name="uni048D" unicode="&#x48d;" 
d="M1680 556q0 -249 -178.5 -402.5t-493.5 -153.5h-696v1740h-200v264h200v200h444v-200h320v-264h-320v-632h252q210 0 360.5 -70.5t231 -195t80.5 -286.5zM756 356h252q123 0 177.5 58t54.5 142t-54.5 140t-177.5 56h-252v-396z" />
    <glyph glyph-name="yatcyrillic" unicode="&#x463;" 
d="M1680 556q0 -249 -178.5 -402.5t-493.5 -153.5h-696v1488h-200v264h200v396h444v-396h320v-264h-320v-380h252q210 0 360.5 -70.5t231 -195t80.5 -286.5zM756 356h252q123 0 177.5 58t54.5 142t-54.5 140t-177.5 56h-252v-396z" />
    <glyph glyph-name="ljecyrillic" unicode="&#x459;" horiz-adv-x="2560" 
d="M352 856l28 632h1160v-436h248q318 0 495 -146.5t177 -377.5q0 -237 -177 -382.5t-495 -145.5h-692v1132h-303l-21 -408q-21 -399 -158 -561.5t-374 -162.5h-132l-8 356l52 4q96 12 142 126.5t58 369.5zM1540 356h248q123 0 177.5 50t54.5 122t-54.5 120t-177.5 48h-248
v-340z" />
    <glyph glyph-name="njecyrillic" unicode="&#x45a;" horiz-adv-x="2560" 
d="M1036 0v552h-432v-552h-444v1488h444v-580h432v580h444v-436h248q318 0 497 -146.5t179 -377.5q0 -237 -179 -382.5t-497 -145.5h-692zM1480 356h248q123 0 177.5 50t54.5 122t-54.5 120t-177.5 48h-248v-340z" />
    <glyph glyph-name="ereversedcyrillic" unicode="&#x44d;" horiz-adv-x="1536" 
d="M1428 728q0 -216 -79 -387t-235 -270t-386 -99q-276 0 -448 157t-172 439h416q0 -99 49.5 -167.5t154.5 -68.5q127 0 182.5 82t68.5 206h-351v252h351q-13 124 -68 206t-183 82q-102 0 -153 -53.5t-51 -146.5h-416q0 166 81 291t221 195t318 70q230 0 386 -100t235 -271
t79 -385v-32z" />
    <glyph glyph-name="iucyrillic" unicode="&#x44e;" horiz-adv-x="2304" 
d="M2072 748q0 -206 -59.5 -352.5t-158.5 -239t-221.5 -136.5t-248.5 -44q-151 0 -296 62t-250 195.5t-138 346.5h-176v-580h-444v1488h444v-548h181q38 197 143 324.5t246.5 189.5t289.5 62q126 0 248.5 -46t221.5 -140t158.5 -239t59.5 -343zM1384 332q99 0 177.5 98.5
t78.5 317.5q0 216 -78.5 314t-177.5 98t-177.5 -98t-78.5 -314q0 -219 77 -317.5t179 -98.5z" />
    <glyph glyph-name="iacyrillic" unicode="&#x44f;" horiz-adv-x="1536" 
d="M1004 0v492h-208l-264 -492h-440l306 570q-131 63 -202.5 168.5t-71.5 237.5q0 148 80 263.5t228 182t352 66.5h664v-1488h-444zM784 792h220v340h-220q-111 0 -163.5 -56t-52.5 -116t52.5 -114t163.5 -54z" />
    <glyph glyph-name="ghemiddlehookcyrillic" unicode="&#x495;" horiz-adv-x="1536" 
d="M1416 248q4 -112 -49 -233.5t-165 -229t-286 -177.5l-204 284q117 63 189 143.5t75 212.5q0 165 -96 242.5t-264 77.5h-56v-568h-444v1488h1040v-356h-596v-208h56q236 0 416.5 -71.5t282 -221t101.5 -383.5z" />
    <glyph glyph-name="pemiddlehookcyrillic" unicode="&#x4a7;" horiz-adv-x="2560" 
d="M148 0v1488h1324v-548h112q244 0 430.5 -72.5t292 -222t105.5 -381.5q4 -114 -49 -236.5t-166 -230t-289 -177.5l-200 284q117 66 189 147t75 213q0 162 -104 239t-284 77h-112v-580h-444v1132h-440v-1132h-440z" />
    <glyph glyph-name="djecyrillic" unicode="&#x452;" horiz-adv-x="1536" 
d="M1560 -20q0 -282 -146.5 -431t-401.5 -149q-57 0 -106 4t-106 16l16 352q36 -9 65.5 -12.5t74.5 -3.5q160 0 160 224v20h-20v940q0 132 -57.5 176t-162.5 44q-114 0 -165 -104t-51 -260v-796h-444v1628h-240v264h240v220h416l3 -220h333v-264h-329l5 -292h16
q66 84 173 132t239 48q138 0 243.5 -55t165 -182t59.5 -343v-280h20v-676z" />
    <glyph glyph-name="tshecyrillic" unicode="&#x45b;" horiz-adv-x="1536" 
d="M664 796v-796h-444v1652h-228v264h228v196h416l3 -196h345v-264h-341l5 -316h16q66 84 173 132t239 48q138 0 243.5 -55t165 -182t59.5 -343v-936h-444v940q0 132 -57.5 176t-162.5 44q-114 0 -165 -104t-51 -260z" />
    <glyph glyph-name="uni0527" unicode="&#x527;" horiz-adv-x="2048" 
d="M1852 308v-800h-444v492h-328v928q0 135 -57.5 183.5t-162.5 48.5q-81 0 -133.5 -28t-82.5 -76v-1056h-444v2112h444v-784q69 87 166.5 137.5t217.5 50.5q146 0 258 -58t175 -188t63 -346v-616h328z" />
    <glyph glyph-name="ecyrillic" unicode="&#x454;" horiz-adv-x="1536" 
d="M1460 532q-4 -174 -94.5 -299.5t-238 -193t-323.5 -67.5q-232 0 -393.5 99.5t-246 274t-84.5 398.5q0 222 84 396.5t245 275t391 100.5q186 0 334 -80.5t235 -216t91 -299.5h-416q-9 87 -64.5 163.5t-187.5 76.5q-129 0 -192 -88t-79 -224h383v-252h-376
q20 -118 83.5 -191t184.5 -73q123 0 182.5 61t65.5 139h416z" />
    <glyph glyph-name="haabkhasiancyrillic" unicode="&#x4a9;" horiz-adv-x="2048" 
d="M1864 184v-228q-148 0 -272 19t-227 54q-165 -57 -361 -57q-244 0 -427.5 96.5t-286 263t-102.5 376.5v156q0 186 78.5 333.5t219 233t326.5 85.5v-368q-152 -32 -152 -284v-156q0 -145 77.5 -244t213.5 -117q-91 157 -91 361v240q0 158 60 287t168 205t252 76
q152 0 266.5 -85t178 -231t63.5 -328v-224q0 -130 -50 -244t-141 -202q97 -18 207 -18zM1160 684q0 -155 100 -275q148 93 148 267v228q0 102 -35 171t-89 69q-57 0 -90.5 -63t-33.5 -153v-244z" />
    <glyph glyph-name="tetsecyrillic" unicode="&#x4b5;" horiz-adv-x="2048" 
d="M104 1128v360h972v-360h-264v-768h436v1128h444v-1132h236l-24 -796h-416v440h-1120v1128h-264z" />
    <glyph glyph-name="cheabkhasiancyrillic" unicode="&#x4bd;" 
d="M1748 236q-69 -99 -218.5 -181.5t-365.5 -82.5q-218 0 -378 85t-255 231t-117 330q-200 42 -309 191t-109 379h260q0 -215 166 -280q45 270 221 439t473 169q318 0 495 -197.5t177 -530.5v-188h-928q27 -133 114 -200.5t218 -67.5q99 0 164.5 35.5t131.5 116.5z
M1112 1160q-113 0 -172.5 -74t-79.5 -198h500q0 64 -26 126.5t-81 104t-141 41.5z" />
    <glyph glyph-name="dzeabkhasiancyrillic" unicode="&#x4e1;" 
d="M816 420h-180v268l452 444h-844v356h1352v-296l-476 -502q243 -52 375.5 -217t132.5 -429q0 -186 -97 -317.5t-266 -201t-385 -69.5q-132 0 -259.5 34t-230.5 105t-164.5 181.5t-61.5 263.5h444q0 -96 73 -162t199 -66q144 0 224 71t80 173q0 198 -94 281t-274 83z" />
    <glyph glyph-name="izhitsacyrillic" unicode="&#x475;" horiz-adv-x="1536" 
d="M1236 996l-292 -996h-444l-464 1488h468l188 -876l27 -153l25 153l100 400q69 237 190.5 370.5t325.5 133.5q39 0 74.5 -4t65.5 -16l-36 -352q-3 0 -30 2t-42 2q-57 0 -99 -46t-57 -106z" />
    <glyph glyph-name="dz" unicode="&#x2a3;" horiz-adv-x="2816" 
d="M2720 360v-360h-1648l-21 161q-67 -88 -157.5 -138.5t-209.5 -50.5q-188 0 -317.5 99.5t-196 276t-66.5 408.5q0 226 67 397t197 267t320 96q107 0 191.5 -42t148.5 -118v756h444v-624h1232v-248l-664 -880h680zM548 756q0 -189 53.5 -306.5t194.5 -117.5q138 0 207 94.5
t69 253.5v108q0 180 -67 276t-205 96t-195 -115t-57 -289zM1472 1132v-862l657 862h-657z" />
    <glyph glyph-name="Dzcaron" unicode="&#x1c5;" horiz-adv-x="3328" 
d="M2288 2100l176 -184l176 184h376v-20l-396 -356h-312l-400 360v16h380zM136 0v2004h692q204 0 376.5 -73.5t299.5 -207t197.5 -312.5t70.5 -391q0 -332 -123.5 -559.5t-337 -344t-483.5 -116.5h-692zM804 1604h-204v-1224h208q142 0 253 59t175 199t64 382
q0 288 -140 436t-356 148zM1852 1132v356h1208v-248l-664 -880h684v-360h-1256v260l665 872h-637z" />
    <glyph glyph-name="dzcaron" unicode="&#x1c6;" horiz-adv-x="3072" 
d="M1152 0l-30 168q-67 -91 -160 -143.5t-214 -52.5q-186 0 -314.5 98t-195 269t-66.5 389v28q0 226 66.5 397t196 267t317.5 96q106 0 190.5 -41.5t149.5 -116.5v786h444v-2144h-384zM2112 2100l176 -184l176 184h376v-20l-396 -356h-312l-396 360v16h376zM1676 1132v356
h1212v-248l-664 -880h680v-360h-1256v260l665 872h-637zM612 728q0 -168 55 -282t193 -114q163 0 232 132v561q-66 135 -228 135q-138 0 -195 -115t-57 -289v-28z" />
    <glyph glyph-name="germandbls" unicode="&#xdf;" horiz-adv-x="2048" 
d="M696 1504v-1504h-444v1512q0 315 185.5 475.5t506.5 160.5q162 0 297.5 -59.5t217 -176t81.5 -288.5q0 -99 -20.5 -155t-47.5 -96.5t-47.5 -89.5t-20.5 -135q0 -48 39.5 -95.5t98 -101t117 -117.5t98 -144t39.5 -182q0 -249 -163 -392.5t-481 -143.5q-102 0 -208.5 19.5
t-163.5 52.5l80 348q42 -21 117.5 -40.5t174.5 -19.5q90 0 147 44t57 128q0 64 -39.5 113.5t-98 96.5t-117 102.5t-98 129.5t-39.5 178q0 96 20.5 154.5t47.5 102t47.5 93.5t20.5 130q0 81 -56.5 134.5t-143.5 53.5q-93 0 -148.5 -61.5t-55.5 -226.5z" />
    <glyph glyph-name="dotlessi" unicode="&#x131;" horiz-adv-x="768" 
d="M608 1488v-1488h-444v1488h444z" />
    <glyph glyph-name="dotlessj" unicode="&#x237;" horiz-adv-x="768" 
d="M324 1488h444v-1508q0 -282 -147 -431t-405 -149q-57 0 -106 4t-106 16l20 352q59 -16 136 -16q164 0 164 224v1508z" />
    <glyph glyph-name="dollar" unicode="$" 
d="M1584 536q0 -252 -159.5 -397t-420.5 -163l-4 -236h-180l4 236q-158 16 -301 86.5t-233 212t-90 369.5h444q0 -144 53 -214t131 -94l4 504q-164 70 -289.5 148t-196 191t-70.5 289q0 237 156.5 386.5t411.5 173.5l4 280h184l-4 -280q255 -27 409.5 -196t154.5 -448h-444
q0 114 -33.5 181.5t-90.5 94.5l-8 -488q166 -72 294 -151.5t201 -194t73 -290.5zM720 1468q0 -66 25 -114.5t91 -93.5l4 408q-63 -24 -91.5 -77.5t-28.5 -122.5zM1144 532q0 81 -31.5 133t-100.5 91l-4 -420q69 21 102.5 74t33.5 122z" />
    <glyph glyph-name="cent" unicode="&#xa2;" horiz-adv-x="1536" 
d="M1459 532q-4 -155 -77 -272t-195 -189t-272 -92v-315h-276v323q-271 51 -415.5 257t-144.5 500q0 292 145 499.5t415 258.5v310h276v-305q156 -24 277.5 -108t192 -208.5t74.5 -270.5h-416q-9 87 -64.5 163.5t-187.5 76.5q-153 0 -214.5 -121t-61.5 -295
q0 -177 62 -294.5t218 -117.5q123 0 182.5 61t65.5 139h416z" />
    <glyph glyph-name="yen" unicode="&#xa5;" horiz-adv-x="1536" 
d="M1372 364h-380v-364h-460v364h-416v260h416v136h-416v260h333l-425 984h472l274 -729l274 729h472l-428 -984h284v-260h-380v-136h380v-260z" />
    <glyph glyph-name="sterling" unicode="&#xa3;" 
d="M164 0v372h140q60 15 74 76.5t14 139.5l-6 184h-226v360h214l-10 296q0 285 171 442.5t453 157.5q312 0 478 -162t166 -426h-436q0 123 -58 169.5t-142 46.5q-78 0 -125 -55.5t-47 -172.5l12 -296h424v-360h-410l6 -156q0 -76 -18 -136t-59 -108h853v-372h-1468z" />
    <glyph glyph-name="florin" unicode="&#x192;" horiz-adv-x="1280" 
d="M1120 1488v-320h-292v-1216q0 -270 -139 -411t-385 -141q-54 0 -104.5 4t-107.5 16l20 352q21 -6 59 -11t65 -5q90 0 119 50t29 146v1216h-216v320h216v120q0 261 153 396.5t423 135.5q60 0 115.5 -8t112.5 -20l-32 -340q-33 6 -64 9t-76 3q-188 0 -188 -176v-120h292z
" />
    <glyph glyph-name="uni20BA" unicode="&#x20ba;" 
d="M1672 960q0 -306 -112 -527.5t-309 -341t-451 -119.5q-141 0 -254.5 8t-197.5 20v886l-224 -62v304l224 62v148l-224 -62v304l224 63v361h460v-232l240 68v-308l-240 -66v-148l240 66v-304l-240 -66v-666q194 3 295 159t101 453v88h468v-88z" />
    <glyph glyph-name="uni20BD" unicode="&#x20bd;" horiz-adv-x="2048" 
d="M1272 232h-432v-232h-460v232h-272v372h272v76h-272v372h272v952h792q238 0 411 -87t267 -239t94 -346q0 -204 -96.5 -350t-270 -224t-405.5 -78h-332v-76h432v-372zM840 1628v-576h316q180 0 250 78t70 198q0 126 -75.5 213t-228.5 87h-332z" />
    <glyph glyph-name="Euro" unicode="&#x20ac;" 
d="M1596 16q-84 -21 -173.5 -32.5t-182.5 -11.5q-231 0 -412.5 82t-288.5 244t-115 402h-228v220h228v168h-228v216h232q19 238 130.5 399t296 243t421.5 82q81 0 161.5 -11t158.5 -29l-56 -372q-51 18 -113.5 29t-122.5 11q-179 0 -285.5 -80.5t-126.5 -271.5h432v-216
h-436v-168h436v-220h-435q5 -143 57 -220t141 -106.5t205 -29.5q66 0 128.5 9.5t119.5 30.5z" />
    <glyph glyph-name="uni20B9" unicode="&#x20b9;" horiz-adv-x="1536" 
d="M80 1628l84 376h1296l-76 -292h-277q58 -96 76 -220h273l-72 -288h-205q-33 -189 -152 -310t-343 -186l572 -688v-20h-496l-644 756v264h320q113 0 182.5 51t97.5 133h-636l72 288h552q-31 63 -96 99.5t-172 36.5h-356z" />
    <glyph glyph-name="tenge" unicode="&#x20b8;" 
d="M1728 2004v-376h-1660v376h1660zM68 1092v376h1660v-376h-608v-1092h-460v1092h-592z" />
    <glyph glyph-name="peseta" unicode="&#x20a7;" horiz-adv-x="2560" 
d="M2392 12q-109 -40 -256 -40q-213 0 -334.5 106.5t-121.5 349.5v740h-160q-56 -216 -243.5 -348t-492.5 -132h-100v-688h-472v2004h572q325 0 516 -144.5t233 -371.5h147v372h444v-372h248v-320h-248v-684q0 -87 34 -117.5t118 -30.5q36 0 64 2.5t52 5.5v-332zM684 1612
v-532h100q156 0 222 85.5t66 190.5q0 99 -66 177.5t-222 78.5h-100z" />
    <glyph glyph-name="peso" unicode="&#x20b1;" horiz-adv-x="2304" 
d="M1160 680h-332v-680h-460v1068h-220v220h220v76h-220v220h220v420h792q274 0 461 -115t263 -305h272v-220h-225q1 -20 1 -40q0 -18 -1 -36h225v-220h-274q-76 -180 -262.5 -284t-459.5 -104zM828 1628v-44h508q-72 44 -176 44h-332zM1464 1320q0 23 -2 44h-634v-76h635
q1 16 1 32zM1160 1052q71 0 126 16h-458v-16h332z" />
    <glyph glyph-name="kip" unicode="&#x20ad;" horiz-adv-x="2304" 
d="M1528 0l-430 719l-226 -300v-419h-464v816h-236v388h236v800h464v-800h52l116 172l456 628h568l-601 -800h633v-388h-530l506 -816h-544z" />
    <glyph glyph-name="won" unicode="&#x20a9;" horiz-adv-x="2560" 
d="M2400 1092h-315l-205 -1092h-472l-135 891l-133 -891h-472l-205 1092h-303v220h262l-29 152h-233v220h192l-60 320h460l41 -320h243l44 320h388l45 -320h246l41 320h456l-60 -320h204v-220h-245l-29 -152h274v-220zM841 1312h145l20 152h-185zM1565 1312h147l19 152h-188
zM869 1092l42 -327l45 327h-87zM1595 1092l47 -333l42 333h-89z" />
    <glyph glyph-name="lira" unicode="&#x20a4;" 
d="M164 0v372h136q63 15 75.5 76.5t12.5 139.5l-2 56h-222v232h216l-4 144h-212v232h205l-5 176q0 285 169.5 442.5t454.5 157.5q309 0 476.5 -162t167.5 -426h-436q0 123 -60 169.5t-144 46.5q-75 0 -123.5 -55.5t-48.5 -172.5l8 -176h372v-232h-362l6 -144h356v-232h-345
l1 -28q0 -76 -18 -136t-59 -108h849v-372h-1464z" />
    <glyph glyph-name="hryvnia" unicode="&#x20b4;" horiz-adv-x="2048" 
d="M1816 1372v-292h-1580v292h930q66 62 66 160q0 60 -49.5 96t-142.5 36q-192 0 -204 -156h-464q42 524 660 524q318 0 489 -128t171 -332q0 -57 -21 -107t-54 -93h199zM1748 524q-21 -291 -188.5 -421.5t-527.5 -130.5q-351 0 -521.5 131t-170.5 353q0 54 18 105t49 95
h-171v288h1580v-288h-951q-65 -70 -65 -160q0 -78 63.5 -119t168.5 -41q108 0 173.5 41.5t74.5 146.5h468z" />
    <glyph glyph-name="naira" unicode="&#x20a6;" horiz-adv-x="2560" 
d="M1624 0l-421 704h-323v-704h-464v704h-236v220h236v236h-236v220h236v624h460l372 -624h368v624h464v-624h300v-220h-300v-236h300v-220h-300v-704h-456zM880 924h191l-141 236h-50v-236zM1519 924h97v236h-237z" />
    <glyph glyph-name="guarani" unicode="&#x20b2;" horiz-adv-x="2048" 
d="M1875 704q0 -224 -90 -379.5t-244 -242.5t-346 -105v-149h-360v175q-287 75 -455.5 327t-168.5 674q0 426 171 678t453 323v139h360v-118q223 -22 366 -113.5t218.5 -236.5t95.5 -328h-444q-17 121 -71.5 197.5t-164.5 102.5v-576h680v-368zM679 1000q0 -407 156 -557
v1123q-75 -75 -115.5 -214.5t-40.5 -351.5zM1431 740h-236v-390q116 21 176 114.5t60 275.5z" />
    <glyph glyph-name="coloncurrency" unicode="&#x20a1;" horiz-adv-x="2048" 
d="M679 -172l58 179q-60 17 -114 43l-72 -222h-316l136 422q-105 132 -160.5 321.5t-55.5 432.5q0 315 97.5 540.5t275 350t417.5 136.5l42 129h320l-51 -158q59 -14 112 -36l63 194h320l-122 -375q83 -93 130.5 -213.5t59.5 -259.5h-343l-303 -936q87 33 131 110t55 194
h460q-12 -204 -108 -360.5t-266 -247.5t-403 -99l-47 -145h-316zM758 467q44 -52 101 -80l386 1196q-45 38 -107 55zM800 1580q-171 -139 -177 -548z" />
    <glyph glyph-name="cedi" unicode="&#x20b5;" horiz-adv-x="2048" 
d="M1820 680q-16 -289 -200 -479t-500 -223v-150h-356v172q-289 73 -448.5 330.5t-159.5 673.5q0 410 163.5 667t444.5 332v141h356v-118q327 -34 501 -231t199 -483h-456q-13 134 -71 219.5t-173 110.5v-1281q115 23 171 104t69 215h460zM624 1004q0 -385 140 -543v1084
q-140 -156 -140 -541z" />
    <glyph glyph-name="cruzeiro" unicode="&#x20a2;" horiz-adv-x="2048" 
d="M1908 680q-12 -210 -113.5 -369.5t-281 -249t-425.5 -89.5q-396 0 -620 268.5t-224 763.5q0 326 104 556t293 351t443 121q258 0 435 -93.5t274 -256t115 -370.5h-456q-15 159 -95 249.5t-245 90.5q-400 0 -400 -648q0 -363 124 -524v732h416l12 -186q55 101 137.5 157.5
t190.5 56.5q33 0 67 -3.5t61 -12.5l-8 -432q-30 6 -74 9t-74 3q-224 0 -288 -140v-282q80 35 120.5 110.5t51.5 187.5h460z" />
    <glyph glyph-name="tugrik" unicode="&#x20ae;" 
d="M84 1620v384h1660v-384h-600v-246l192 54v-288l-192 -53v-168l192 53v-284l-192 -54v-634h-464v503l-268 -75v288l268 74v168l-268 -74v284l268 75v377h-596z" />
    <glyph glyph-name="mill" unicode="&#x20a5;" horiz-adv-x="2304" 
d="M992 0v148l-128 -320h-312l440 1095v13q0 141 -63.5 182.5t-156.5 41.5q-72 0 -128 -48t-56 -168v-944h-444v1488h432v-152h12q66 81 162.5 130.5t237.5 49.5q128 0 222 -49l118 293h308l-132 -330q61 40 139 63t169 23q138 0 243.5 -55t165 -182t59.5 -343v-936h-444
v936q0 138 -55 181t-145 43q-93 0 -154.5 -54.5t-61.5 -177.5v-928h-428z" />
    <glyph glyph-name="afii57636" unicode="&#x20aa;" horiz-adv-x="2560" 
d="M148 1488h1116q210 0 327.5 -63t165 -189t47.5 -316v-412h-444v412q0 100 -31 144.5t-85 56t-124 11.5h-528v-1132h-444v1488zM1520 0h-760v984h444v-624h524q72 0 126 10.5t84 54t30 143.5v920h444v-920q0 -142 -79.5 -249t-210.5 -177.5t-288.5 -106t-313.5 -35.5z" />
    <glyph glyph-name="manat" unicode="&#x20bc;" horiz-adv-x="2048" 
d="M575 228v-228h-440v224q0 258 85 457t235.5 327t347.5 175v305h444v-306q196 -47 347 -175.5t236 -327t85 -455.5v-224h-444v228q0 205 -60 346t-164 212v-786h-444v790q-106 -70 -167 -212t-61 -350z" />
    <glyph glyph-name="rupee" unicode="&#x20a8;" horiz-adv-x="3328" 
d="M1288 0l-354 708h-282v-708h-464v2004h772q232 0 400.5 -81t260 -219t91.5 -308q0 -231 -95 -362t-254 -205l421 -809v-20h-496zM652 1620v-532h308q147 0 219.5 69t72.5 195q0 129 -74 198.5t-218 69.5h-308zM1828 1072q0 112 73.5 212.5t204 164t302.5 63.5
q189 0 343 -63.5t241 -192.5l-332 -236q-12 16 -40.5 45.5t-75 54t-112.5 24.5q-81 0 -116.5 -25.5t-35.5 -58.5q0 -57 53 -77.5t143 -50.5l80 -28q210 -72 317 -181.5t107 -286.5q0 -154 -86 -257t-219 -155t-275 -52q-183 0 -346.5 63t-277.5 225l332 236q16 -22 48.5 -58
t86 -65t133.5 -29q69 0 116.5 27t47.5 69q0 57 -67.5 91.5t-196.5 76.5l-72 24q-171 57 -273.5 158.5t-102.5 281.5z" />
    <glyph glyph-name="lari" unicode="&#x20be;" horiz-adv-x="2048" 
d="M1887 360v-360h-1724v360h193q-96 120 -148.5 271.5t-52.5 324.5q0 332 156.5 555t419.5 303v218h228v-178q32 2 64 2q34 0 68 -2v178h232v-221q258 -84 413 -310.5t155 -564.5h-440q0 169 -33 280t-95 175v-455h-232v557q-32 3 -68 3q-34 0 -64 -3v-557h-228v469
q-67 -61 -101.5 -171.5t-34.5 -281.5q0 -279 111 -435.5t321 -156.5h860z" />
    <glyph glyph-name="zero" unicode="0" horiz-adv-x="1664" 
d="M1560 1180v-332q0 -296 -95.5 -490.5t-260 -290t-372.5 -95.5q-210 0 -374.5 95.5t-259 290t-94.5 490.5v332q0 280 95.5 470.5t260 288t372.5 97.5t372.5 -97.5t260 -288t95.5 -470.5zM1108 788v452q0 225 -78 326.5t-198 101.5t-198 -101.5t-78 -326.5v-452
q0 -249 78 -346.5t198 -97.5q117 0 196.5 97.5t79.5 346.5z" />
    <glyph glyph-name="one" unicode="1" horiz-adv-x="1536" 
d="M1156 2004v-2004h-464v1480l-568 -196v360l992 360h40z" />
    <glyph glyph-name="two" unicode="2" horiz-adv-x="1664" 
d="M1536 384v-384h-1408v328l664 652q141 141 192.5 247t51.5 181q0 129 -60.5 196.5t-171.5 67.5q-120 0 -188 -90t-68 -222h-444q0 184 88.5 336.5t248 244t371.5 91.5q327 0 497.5 -153.5t170.5 -426.5q0 -210 -126 -393.5t-342 -402.5l-208 -212q-21 -21 -35.5 -32.5
t-44.5 -23.5l8 -20q30 12 48 14t48 2h708z" />
    <glyph glyph-name="three" unicode="3" horiz-adv-x="1664" 
d="M812 824h-220v384h220q268 0 268 240q0 90 -61 157t-187 67q-93 0 -166.5 -48.5t-73.5 -135.5h-444q0 170 92 292t244 187t332 65q315 0 509.5 -146.5t194.5 -425.5q0 -138 -81 -252t-222 -179q159 -57 247 -175t88 -290q0 -188 -96.5 -320.5t-263 -202t-376.5 -69.5
q-124 0 -247.5 34t-225 105t-162.5 181.5t-61 263.5h444q0 -96 78.5 -160t189.5 -64q132 0 206 69t74 171q0 153 -79.5 202.5t-220.5 49.5z" />
    <glyph glyph-name="four" unicode="4" 
d="M1664 400h-304v-400h-464v400h-812v308l812 1296h464v-1220h304v-384zM512 784h384v616l-28 -48z" />
    <glyph glyph-name="five" unicode="5" horiz-adv-x="1664" 
d="M532 892l-352 88l120 1024h1156v-384h-796l-48 -420h8q27 39 99.5 77.5t204.5 38.5q168 0 303 -78t214 -228t79 -366q0 -172 -73.5 -325.5t-226 -250t-388.5 -96.5q-176 0 -335.5 72.5t-260 206t-100.5 317.5h444q9 -108 74.5 -172t173.5 -64q96 0 151 47.5t78 126
t23 170.5q0 147 -72 233.5t-228 86.5q-102 0 -160 -34t-88 -70z" />
    <glyph glyph-name="six" unicode="6" horiz-adv-x="1664" 
d="M1524 664q0 -196 -86 -352.5t-240 -248t-358 -91.5q-212 0 -376.5 104t-258 305t-93.5 491v76q-4 330 62.5 574.5t228 379t441.5 134.5q200 0 337 -76t219 -207t116 -297h-428q-36 114 -88 163t-160 49q-125 0 -197 -125t-84 -358q70 73 172 120t233 47q184 0 308.5 -91
t188 -247t63.5 -350zM556 712q0 -195 71.5 -287.5t200.5 -92.5q117 0 188.5 94t71.5 238q0 153 -74.5 242.5t-197.5 89.5q-135 0 -197.5 -83.5t-62.5 -176.5v-24z" />
    <glyph glyph-name="seven" unicode="7" horiz-adv-x="1664" 
d="M1536 2004v-248l-732 -1756h-468l700 1620h-908v384h1408z" />
    <glyph glyph-name="eight" unicode="8" 
d="M1588 552q0 -192 -89.5 -321t-245 -194t-353.5 -65t-355.5 65t-249 194t-91.5 321q0 167 85 289.5t228 191.5q-125 67 -197 179t-72 256q0 184 83.5 309.5t230 190t334.5 64.5q192 0 339 -64.5t230 -190t83 -309.5q0 -144 -71.5 -256.5t-196.5 -179.5q142 -69 225 -191.5
t83 -288.5zM1104 1444q0 105 -53 166.5t-155 61.5q-99 0 -151.5 -60t-52.5 -168t53 -174t155 -66t153 66t51 174zM1144 588q0 123 -68.5 191.5t-179.5 68.5q-108 0 -178 -68.5t-70 -191.5q0 -120 70.5 -188t181.5 -68t177.5 68t66.5 188z" />
    <glyph glyph-name="nine" unicode="9" 
d="M1604 1053q4 -329 -64 -566.5t-230 -371t-439 -149.5q-200 0 -337 75.5t-218.5 206.5t-115.5 297h430q35 -113 86.5 -163t161.5 -49q124 1 195.5 126.5t84.5 356.5q-71 -73 -173 -120t-233 -47q-184 0 -310.5 91t-192 247t-65.5 350q0 196 88 352.5t244 248t360 91.5
q212 0 376.5 -104t258 -304.5t93.5 -489.5v-78zM628 1337q0 -153 74.5 -242.5t197.5 -89.5q135 0 197.5 83.5t62.5 176.5v24q0 195 -71.5 287.5t-200.5 92.5q-117 0 -188.5 -94t-71.5 -238z" />
    <glyph glyph-name="ampersand" unicode="&#x26;" horiz-adv-x="2048" 
d="M1404 0l-95 108q-114 -69 -236 -102.5t-273 -33.5q-202 0 -348 73t-225 201t-79 294q0 174 98.5 287.5t256.5 223.5q-84 117 -131.5 223t-47.5 218q0 158 69 280t195 191t296 69q158 0 274 -66t179 -175t63 -239q0 -138 -75 -250.5t-189 -193.5l-122 -86l317 -364
q38 74 59.5 160t21.5 182h372q0 -187 -42.5 -352.5t-142.5 -297.5l305 -350h-500zM708 1496q0 -58 30 -116.5t81 -123.5l93 60q87 57 109.5 106t22.5 94q0 57 -43 106.5t-121 49.5q-84 0 -128 -50.5t-44 -125.5zM592 568q0 -105 68.5 -172.5t167.5 -67.5q122 0 237 59
l-363 414l-18 -13q-54 -54 -73 -105.5t-19 -114.5z" />
    <glyph glyph-name="exclam" unicode="!" horiz-adv-x="768" 
d="M624 2004l-56 -1368h-360l-56 1368h472zM140 208q0 99 66.5 165.5t177.5 66.5t179.5 -66.5t68.5 -165.5t-68.5 -165.5t-179.5 -66.5t-177.5 66.5t-66.5 165.5z" />
    <glyph glyph-name="exclamdown" unicode="&#xa1;" horiz-adv-x="768" 
d="M384 1092q-111 0 -177.5 66.5t-66.5 165.5t66.5 165.5t177.5 66.5t179.5 -66.5t68.5 -165.5t-68.5 -165.5t-179.5 -66.5zM568 896l56 -1368h-472l56 1368h360z" />
    <glyph glyph-name="question" unicode="?" horiz-adv-x="1536" 
d="M936 636h-380q0 178 41 288t102 178t122 118t102 104.5t41 139.5q0 208 -192 208q-75 0 -134 -52t-62 -172h-444q2 206 87.5 335t230 189t322.5 60q297 0 466.5 -140.5t169.5 -407.5q0 -131 -46.5 -219t-116 -154t-139 -130t-118.5 -145t-52 -200zM504 216
q0 99 68.5 165.5t179.5 66.5q108 0 176 -66.5t68 -165.5t-68 -165.5t-176 -66.5q-111 0 -179.5 66.5t-68.5 165.5z" />
    <glyph glyph-name="questiondown" unicode="&#xbf;" horiz-adv-x="1536" 
d="M752 1064q-111 0 -179.5 66.5t-68.5 165.5t68.5 165.5t179.5 66.5q108 0 176 -66.5t68 -165.5t-68 -165.5t-176 -66.5zM556 876h380q3 -119 52 -200t118.5 -145t139 -130t116 -154t46.5 -219q0 -267 -169.5 -407.5t-466.5 -140.5q-178 0 -322.5 60t-230 189t-87.5 335
h444q3 -120 62 -172t134 -52q192 0 192 208q0 85 -41 139.5t-102 104.5t-122 118t-102 178t-41 288z" />
    <glyph glyph-name="parenleft" unicode="(" horiz-adv-x="1024" 
d="M892 -384h-300q-114 148 -202.5 341.5t-139 416t-50.5 458.5t50.5 458.5t140 416t205.5 341.5h300q-180 -306 -260 -594.5t-80 -621.5q0 -321 79.5 -615.5t256.5 -600.5z" />
    <glyph glyph-name="parenright" unicode=")" horiz-adv-x="1024" 
d="M432 -384h-300q177 306 256.5 600.5t79.5 615.5q0 333 -80 621.5t-260 594.5h300q116 -148 205.5 -341.5t140 -416t50.5 -458.5t-50.5 -458.5t-139 -416t-202.5 -341.5z" />
    <glyph glyph-name="bracketleft" unicode="[" horiz-adv-x="1024" 
d="M820 2348v-340h-172v-2152h172v-336h-616v2828h616z" />
    <glyph glyph-name="bracketright" unicode="]" horiz-adv-x="768" 
d="M76 2008v340h616v-2828h-616v336h176v2152h-176z" />
    <glyph glyph-name="braceleft" unicode="{" horiz-adv-x="1024" 
d="M340 424q0 123 -54.5 197.5t-177.5 74.5v312q123 0 177.5 72.5t54.5 195.5v280q0 144 44.5 270.5t152 222t295.5 147.5l84 -240q-111 -42 -149.5 -150.5t-38.5 -249.5v-280q0 -136 -61.5 -247.5t-194.5 -176.5q133 -65 194.5 -177.5t61.5 -250.5v-276q0 -141 38.5 -249.5
t149.5 -150.5l-84 -244q-188 54 -295.5 149.5t-152 222t-44.5 272.5v276z" />
    <glyph glyph-name="braceright" unicode="}" horiz-adv-x="1024" 
d="M688 1276q0 -123 54 -195.5t174 -72.5v-312q-120 0 -174 -74.5t-54 -197.5v-276q0 -146 -45 -272.5t-153 -222t-298 -149.5l-84 244q114 42 153 150.5t39 249.5v276q0 138 60.5 250.5t192.5 177.5q-132 65 -192.5 176.5t-60.5 247.5v280q0 141 -39 249.5t-153 150.5
l84 240q190 -52 298 -147.5t153 -222t45 -270.5v-280z" />
    <glyph glyph-name="at" unicode="@" horiz-adv-x="2816" 
d="M1456 2052q603 0 907.5 -285.5t304.5 -882.5q0 -346 -50 -548t-169 -289t-325 -87q-90 0 -157.5 9t-110 53t-56.5 150h-20q-40 -92 -110.5 -134.5t-156 -54t-169.5 -11.5q-291 0 -453.5 191.5t-162.5 572.5q0 244 87.5 401t228 235t300.5 84q12 0 66 -2t122.5 -14.5
t126 -42t77.5 -85.5h24v112h328v-1048q0 -51 21 -53.5t39 -2.5q58 0 92 53t49 177t15 338q0 324 -94 501t-285 246t-481 69t-496 -118.5t-315 -340t-109 -529.5q0 -471 247 -717.5t721 -246.5q156 0 309 27.5t303 72.5l-8 -352q-147 -60 -298.5 -80t-313.5 -20
q-651 0 -995.5 339.5t-344.5 984.5q0 416 157 713.5t451 456t704 158.5zM1384 1100q-132 0 -210 -99.5t-78 -252.5q-3 -186 54.5 -299t225.5 -113t264 104t96 308q0 138 -47 215.5t-127 108t-178 28.5z" />
    <glyph glyph-name="numbersign" unicode="#" 
d="M844 0l95 564h-236l-95 -564h-264l95 564h-311v252h353l61 364h-310v252h352l96 572h264l-96 -572h236l96 572h268l-96 -572h312v-252h-354l-61 -364h311v-252h-353l-95 -564h-268zM745 816h236l61 364h-236z" />
    <glyph glyph-name="currency" unicode="&#xa4;" horiz-adv-x="2048" 
d="M1896 164l-196 -200l-179 184q-104 -83 -230.5 -129.5t-266.5 -46.5t-266.5 45.5t-230.5 128.5l-179 -182l-192 200l186 188q-66 103 -102 225.5t-36 258.5q0 142 39.5 269t110.5 232l-198 203l192 200l199 -201q100 74 222 115.5t255 41.5t255 -42t223 -118l198 204
l196 -200l-203 -206q69 -104 108 -230.5t39 -267.5q0 -135 -35.5 -256.5t-99.5 -224.5zM460 836q0 -168 75 -303t203 -214t286 -79q154 0 281 79t203 214t76 303q0 170 -76 305t-203 213t-281 78q-158 0 -286 -78t-203 -213t-75 -305z" />
    <glyph glyph-name="slash" unicode="/" horiz-adv-x="1152" 
d="M1072 2048l-596 -2356h-396l596 2356h396z" />
    <glyph glyph-name="bar" unicode="|" horiz-adv-x="768" 
d="M508 2004v-2376h-248v2376h248z" />
    <glyph glyph-name="brokenbar" unicode="&#xa6;" horiz-adv-x="768" 
d="M580 2004v-1044h-388v1044h388zM580 -372h-388v1096h388v-1096z" />
    <glyph glyph-name="backslash" unicode="\" horiz-adv-x="1152" 
d="M80 2048h396l596 -2356h-396z" />
    <glyph glyph-name="hyphenbullet" unicode="&#x2043;" horiz-adv-x="1280" 
d="M1128 1312v-576h-976v576h976z" />
    <glyph glyph-name="hyphen" unicode="-" horiz-adv-x="1280" 
d="M1148 1028v-328h-1020v328h1020z" />
    <glyph glyph-name="endash" unicode="&#x2013;" 
d="M1664 1024v-320h-1536v320h1536z" />
    <glyph glyph-name="figuredash" unicode="&#x2012;" 
d="M1792 1024v-320h-1792v320h1792z" />
    <glyph glyph-name="emdash" unicode="&#x2014;" horiz-adv-x="2560" 
d="M2560 1024v-320h-2560v320h2560z" />
    <glyph glyph-name="bullet" unicode="&#x2022;" horiz-adv-x="1024" 
d="M896 1024q0 -177 -103.5 -280.5t-280.5 -103.5t-280.5 103.5t-103.5 280.5t103.5 280.5t280.5 103.5t280.5 -103.5t103.5 -280.5z" />
    <glyph glyph-name="quoteleft" unicode="&#x2018;" horiz-adv-x="640" 
d="M96 1408v224q0 92 35.5 188t93 181t123.5 143l196 -112q-45 -78 -80.5 -173t-35.5 -227v-224h-332z" />
    <glyph glyph-name="quoteright" unicode="&#x2019;" horiz-adv-x="640" 
d="M544 2048v-224q0 -92 -35.5 -188t-93 -181t-123.5 -143l-196 112q45 78 80.5 173t35.5 227v224h332z" />
    <glyph glyph-name="primetripl1" unicode="&#x2034;" horiz-adv-x="2304" 
d="M128 1664l284 484h472l-396 -484h-360zM776 1664l280 484h472l-392 -484h-360zM1420 1664l284 484h472l-392 -484h-364z" />
    <glyph glyph-name="quotesingle" unicode="'" horiz-adv-x="512" 
d="M412 2048v-792h-316v792h316z" />
    <glyph glyph-name="quotedbl" unicode="&#x22;" horiz-adv-x="1024" 
d="M412 2048v-792h-316v792h316zM924 2048v-792h-316v792h316z" />
    <glyph glyph-name="quotedblleft" unicode="&#x201c;" horiz-adv-x="1152" 
d="M96 1408v224q0 92 35.5 188t93 181t123.5 143l196 -112q-45 -78 -80.5 -173t-35.5 -227v-224h-332zM596 1408v224q0 92 35.5 188t93 181t123.5 143l196 -112q-45 -78 -80.5 -173t-35.5 -227v-224h-332z" />
    <glyph glyph-name="quotedblright" unicode="&#x201d;" horiz-adv-x="1152" 
d="M556 2048v-224q0 -92 -35.5 -188t-93 -181t-123.5 -143l-196 112q45 78 80.5 173t35.5 227v224h332zM1052 2048v-224q0 -92 -35.5 -188t-93 -181t-123.5 -143l-196 112q45 78 80.5 173t35.5 227v224h332z" />
    <glyph glyph-name="quotedblbase" unicode="&#x201e;" horiz-adv-x="1152" 
d="M556 256v-224q0 -92 -35.5 -188t-93 -181t-123.5 -143l-196 112q45 78 80.5 173t35.5 227v224h332zM1052 256v-224q0 -92 -35.5 -188t-93 -181t-123.5 -143l-196 112q45 78 80.5 173t35.5 227v224h332z" />
    <glyph glyph-name="quotesinglbase" unicode="&#x201a;" horiz-adv-x="640" 
d="M544 256v-224q0 -92 -35.5 -188t-93 -181t-123.5 -143l-196 112q45 78 80.5 173t35.5 227v224h332z" />
    <glyph glyph-name="comma" unicode="," horiz-adv-x="768" 
d="M592 348v-292q0 -168 -80 -331t-200 -265l-224 112q30 62 63.5 126t57 143t23.5 187v320h360z" />
    <glyph glyph-name="period" unicode="." horiz-adv-x="768" 
d="M136 216q0 99 68.5 167.5t179.5 68.5t179.5 -68.5t68.5 -167.5t-68.5 -165.5t-179.5 -66.5t-179.5 66.5t-68.5 165.5z" />
    <glyph glyph-name="ellipsis" unicode="&#x2026;" horiz-adv-x="2048" 
d="M112 216q0 99 68.5 167.5t179.5 68.5t179.5 -68.5t68.5 -167.5t-68.5 -165.5t-179.5 -66.5t-179.5 66.5t-68.5 165.5zM776 216q0 99 68.5 167.5t179.5 68.5t179.5 -68.5t68.5 -167.5t-68.5 -165.5t-179.5 -66.5t-179.5 66.5t-68.5 165.5zM1436 216q0 99 68.5 167.5
t179.5 68.5t179.5 -68.5t68.5 -167.5t-68.5 -165.5t-179.5 -66.5t-179.5 66.5t-68.5 165.5z" />
    <glyph glyph-name="colon" unicode=":" horiz-adv-x="768" 
d="M132 1312q0 99 68.5 167.5t179.5 68.5t179.5 -68.5t68.5 -167.5t-68.5 -165.5t-179.5 -66.5t-179.5 66.5t-68.5 165.5zM132 216q0 99 68.5 167.5t179.5 68.5t179.5 -68.5t68.5 -167.5t-68.5 -165.5t-179.5 -66.5t-179.5 66.5t-68.5 165.5z" />
    <glyph glyph-name="semicolon" unicode=";" horiz-adv-x="768" 
d="M140 1312q0 99 68.5 167.5t179.5 68.5t179.5 -68.5t68.5 -167.5t-68.5 -165.5t-179.5 -66.5t-179.5 66.5t-68.5 165.5zM644 348v-292q0 -168 -80 -331t-200 -265l-224 112q30 62 63.5 126t57 143t23.5 187v320h360z" />
    <glyph glyph-name="guilsinglleft" unicode="&#x2039;" horiz-adv-x="1024" 
d="M564 160l-376 536v28l376 536h276l-324 -550l324 -550h-276z" />
    <glyph glyph-name="guilsinglright" unicode="&#x203a;" horiz-adv-x="1024" 
d="M460 1256l380 -536v-24l-380 -536h-272l319 548l-319 548h272z" />
    <glyph glyph-name="guillemotleft" unicode="&#xab;" horiz-adv-x="1536" 
d="M580 160l-376 536v28l376 536h276l-324 -550l324 -550h-276zM1136 160l-376 536v28l376 536h276l-324 -550l324 -550h-276z" />
    <glyph glyph-name="guillemotright" unicode="&#xbb;" horiz-adv-x="1536" 
d="M516 1256l380 -536v-24l-380 -536h-272l319 548l-319 548h272zM1076 1256l380 -536v-24l-380 -536h-272l319 548l-319 548h272z" />
    <glyph glyph-name="less" unicode="&#x3c;" horiz-adv-x="1536" 
d="M1372 584v-420l-1208 492v368l1208 496v-424l-760 -256z" />
    <glyph glyph-name="greater" unicode="&#x3e;" horiz-adv-x="1536" 
d="M164 1516l1208 -492v-368l-1208 -496v424l763 258l-763 254v420z" />
    <glyph glyph-name="lessequal" unicode="&#x2264;" horiz-adv-x="1536" 
d="M1368 769v-340l-1208 398v298l1208 402v-343l-760 -208zM1368 332v-332h-1200v332h1200z" />
    <glyph glyph-name="greaterequal" unicode="&#x2265;" horiz-adv-x="1536" 
d="M168 1524l1208 -399v-298l-1208 -401v343l763 209l-763 206v340zM1368 332v-332h-1200v332h1200z" />
    <glyph glyph-name="equal" unicode="=" horiz-adv-x="1536" 
d="M192 1376h1152v-352h-1152v352zM192 732h1152v-352h-1152v352z" />
    <glyph glyph-name="notequal" unicode="&#x2260;" horiz-adv-x="1536" 
d="M1300 380h-679l-145 -276l-172 88l98 188h-254v352h437l152 292h-589v352h773l127 244l176 -88l-82 -156h158v-352h-342l-153 -292h495v-352z" />
    <glyph glyph-name="plus" unicode="+" horiz-adv-x="1536" 
d="M1456 660h-492v-496h-384v496h-496v384h496v492h384v-492h492v-384z" />
    <glyph glyph-name="minus" unicode="&#x2212;" horiz-adv-x="1536" 
d="M1368 1160v-364h-1200v364h1200z" />
    <glyph glyph-name="multiply" unicode="&#xd7;" horiz-adv-x="1536" 
d="M1432 524l-256 -252l-408 416l-408 -416l-256 252l412 420l-412 420l256 252l408 -416l408 416l256 -252l-412 -420z" />
    <glyph glyph-name="divide" unicode="&#xf7;" 
d="M648 1492q0 99 68.5 163.5t179.5 64.5t179.5 -64.5t68.5 -163.5t-68.5 -161.5t-179.5 -62.5t-179.5 62.5t-68.5 161.5zM1612 1112v-336h-1428v336h1428zM648 380q0 99 68.5 163.5t179.5 64.5t179.5 -64.5t68.5 -163.5t-68.5 -161.5t-179.5 -62.5t-179.5 62.5t-68.5 161.5
z" />
    <glyph glyph-name="plusminus" unicode="&#xb1;" horiz-adv-x="1536" 
d="M1460 1300v-388h-496v-400h-384v400h-496v388h496v400h384v-400h496zM1456 396v-396h-1372v396h1372z" />
    <glyph glyph-name="approxequal" unicode="&#x2248;" horiz-adv-x="1536" 
d="M108 916v344q63 69 154.5 108.5t181.5 39.5q111 3 187.5 -27.5t160.5 -72.5t155 -69t173 -27q90 0 168 45.5t144 126.5v-344q-66 -66 -136 -105t-160 -39q-102 0 -174.5 27t-153.5 69q-87 42 -163.5 72.5t-184.5 27.5q-90 0 -189.5 -46t-162.5 -130zM108 340v344
q63 69 148.5 106.5t175.5 37.5q108 3 184.5 -26t163.5 -74q81 -39 153.5 -65.5t174.5 -26.5q90 0 174 45.5t150 126.5v-344q-66 -69 -144 -106.5t-168 -37.5q-102 0 -173 26.5t-155 65.5q-84 45 -160.5 74t-187.5 26q-90 0 -181.5 -45.5t-154.5 -126.5z" />
    <glyph glyph-name="asciitilde" unicode="~" 
d="M1340 1100h316q0 -279 -127.5 -437.5t-328.5 -158.5q-111 0 -195.5 43.5t-180.5 136.5q-54 54 -102 81t-102 27q-75 0 -121.5 -68.5t-46.5 -167.5l-316 8q0 279 127.5 433.5t328.5 154.5q108 0 198.5 -45t177.5 -135q108 -108 204 -108q72 0 120 68.5t48 167.5z" />
    <glyph glyph-name="logicalnot" unicode="&#xac;" horiz-adv-x="1536" 
d="M196 1108h1148v-592h-276v356h-872v236z" />
    <glyph glyph-name="periodcentered" unicode="&#xb7;" horiz-adv-x="768" 
d="M136 940q0 99 68.5 167.5t179.5 68.5t179.5 -68.5t68.5 -167.5t-68.5 -165.5t-179.5 -66.5t-179.5 66.5t-68.5 165.5z" />
    <glyph glyph-name="anoteleia" unicode="&#x387;" horiz-adv-x="768" 
d="M84 940q0 99 68.5 167.5t179.5 68.5t179.5 -68.5t68.5 -167.5t-68.5 -165.5t-179.5 -66.5t-179.5 66.5t-68.5 165.5z" />
    <glyph glyph-name="questiongreek" unicode="&#x37e;" horiz-adv-x="768" 
d="M152 1312q0 99 68.5 167.5t179.5 68.5t179.5 -68.5t68.5 -167.5t-68.5 -165.5t-179.5 -66.5t-179.5 66.5t-68.5 165.5zM660 348v-292q0 -168 -80 -331t-200 -265l-224 112q30 62 63.5 126t57 143t23.5 187v320h360z" />
    <glyph glyph-name="underscore" unicode="_" horiz-adv-x="1280" 
d="M1264 0v-344h-1248v344h1248z" />
    <glyph glyph-name="dagger" unicode="&#x2020;" horiz-adv-x="1536" 
d="M1448 1116h-460v-1116h-444v1116h-456v372h456v516h444v-516h460v-372z" />
    <glyph glyph-name="daggerdbl" unicode="&#x2021;" horiz-adv-x="1536" 
d="M1448 0h-460v-572h-444v572h-456v360h456v772h-456v356h456v516h444v-516h460v-356h-460v-772h460v-360z" />
    <glyph glyph-name="asciicircum" unicode="^" horiz-adv-x="1280" 
d="M68 1004l408 1000h328l412 -1000h-340l-236 617l-236 -617h-336z" />
    <glyph glyph-name="asterisk" unicode="*" horiz-adv-x="1536" 
d="M276 940l308 376l-440 124l84 260l436 -180l-32 484h288l-36 -496l424 176l88 -260l-452 -124l300 -364l-232 -164l-252 404l-252 -392z" />
    <glyph glyph-name="registered" unicode="&#xae;" horiz-adv-x="2304" 
d="M176 1004q0 218 76 404.5t211 327t311.5 218.5t377.5 78q202 0 379 -78t311.5 -218.5t210 -327t75.5 -404.5q0 -219 -75.5 -407t-210 -328t-311.5 -218.5t-379 -78.5q-201 0 -377.5 78.5t-311.5 218.5t-211 328t-76 407zM344 1004q0 -183 63 -339.5t174.5 -273.5
t258 -182t312.5 -65q168 0 314.5 65t257.5 182t173.5 273.5t62.5 339.5q0 182 -62.5 337.5t-173.5 272t-257.5 181.5t-314.5 65q-166 0 -312.5 -65t-258 -181.5t-174.5 -272t-63 -337.5zM1172 900h-216v-464h-208v1168h384q207 0 327.5 -93.5t120.5 -270.5q0 -149 -149 -233
q81 -44 113 -122.5t32 -176.5v-76q0 -110 24 -176v-20h-212q-15 33 -17.5 99.5t-2.5 96.5v76q0 96 -44 144t-152 48zM956 1420v-336h176q96 0 170 39.5t74 120.5q0 99 -54.5 137.5t-189.5 38.5h-176z" />
    <glyph glyph-name="trademark" unicode="&#x2122;" 
d="M1424 1256v464l-140 -464h-108l-140 468v-468h-196v748h240l148 -492l168 492h220v-748h-192zM748 2004v-160h-168v-584h-220v584h-184v160h572z" />
    <glyph glyph-name="servicemark" unicode="&#x2120;" 
d="M560 1464q0 30 -25 51.5t-103 36.5q-147 24 -211.5 81t-64.5 159q0 90 74 159t218 69q147 0 221.5 -66.5t74.5 -177.5h-196q0 36 -21.5 58t-78.5 22q-54 0 -75 -20t-21 -44q0 -30 23.5 -51.5t116.5 -36.5q132 -24 198 -79t66 -157q0 -99 -80.5 -167.5t-227.5 -68.5
q-165 0 -244.5 74t-79.5 182h200q0 -51 33.5 -67.5t90.5 -16.5q66 0 89 18t23 42zM1288 1512l148 492h232v-748h-192v380l-132 -380h-112l-136 391v-391h-196v748h240z" />
    <glyph glyph-name="degree" unicode="&#xb0;" horiz-adv-x="1024" 
d="M516 1228q-114 0 -210.5 55.5t-155 150t-58.5 210.5t58.5 213.5t155 156t210.5 58.5t207.5 -58.5t149 -156t55.5 -213.5t-55.5 -210.5t-149 -150t-207.5 -55.5zM516 1472q69 0 118.5 48.5t49.5 123.5t-49.5 125.5t-118.5 50.5t-120.5 -50.5t-51.5 -125.5q0 -72 51.5 -122
t120.5 -50z" />
    <glyph glyph-name="ordfeminine" unicode="&#xaa;" horiz-adv-x="1280" 
d="M840 968q-14 48 -22 96q-42 -46 -110.5 -79t-167.5 -33q-165 0 -252.5 85.5t-87.5 226.5q0 153 115.5 234.5t352.5 81.5h140v72q0 176 -160 176q-188 0 -188 -136l-240 16q0 141 116.5 232.5t311.5 91.5q180 0 290 -95.5t110 -284.5v-432q0 -69 7.5 -130.5t28.5 -121.5
h-244zM600 1148q56 0 113.5 26t94.5 62v184h-140q-120 0 -174 -46t-54 -106q0 -54 38 -87t122 -33z" />
    <glyph glyph-name="ordmasculine" unicode="&#xba;" horiz-adv-x="1280" 
d="M164 1436v104q0 216 128.5 354t347.5 138q222 0 349 -138t127 -354v-104q0 -213 -126.5 -350.5t-345.5 -137.5q-222 0 -351 137.5t-129 350.5zM404 1540v-104q0 -123 60 -203.5t180 -80.5q117 0 174.5 80.5t57.5 203.5v104q0 123 -58 205.5t-178 82.5
q-117 0 -176.5 -82.5t-59.5 -205.5z" />
    <glyph glyph-name="isuperior" unicode="&#x2071;" horiz-adv-x="768" 
d="M204 2172q0 72 49.5 118t130.5 46t132.5 -46t51.5 -118q0 -75 -51.5 -121.5t-132.5 -46.5t-130.5 46.5t-49.5 121.5zM540 1884v-1112h-308v1112h308z" />
    <glyph glyph-name="nsuperior" unicode="&#x207f;" horiz-adv-x="1280" 
d="M644 1748q-66 0 -109 -25.5t-67 -69.5v-753h-308v1104h244l46 -170q50 86 128 134t182 48q171 0 267.5 -99t96.5 -321v-696h-308v588q0 147 -42.5 203.5t-129.5 56.5z" />
    <glyph glyph-name="paragraph" unicode="&#xb6;" horiz-adv-x="1280" 
d="M1192 0h-312v716h-112q-220 0 -370.5 83.5t-228 229t-77.5 331.5q0 184 77.5 329.5t228 230t370.5 84.5h424v-2004z" />
    <glyph glyph-name="section" unicode="&#xa7;" 
d="M1624 -84q0 -252 -198.5 -384t-525.5 -132q-141 0 -275.5 27.5t-243.5 91t-173 172.5t-64 273h440q0 -88 46.5 -132.5t119 -60t150.5 -15.5q280 0 280 160q0 75 -76.5 125.5t-295.5 110.5q-208 54 -356.5 125t-228 179t-79.5 272q0 124 56 218t159 155q-91 69 -139 165
t-48 234q0 160 89.5 279.5t252 186t382.5 66.5q339 0 533.5 -151.5t194.5 -436.5h-444q0 96 -70 162t-214 66q-150 0 -215 -49.5t-65 -118.5q0 -58 28.5 -96.5t108 -71t231.5 -72.5q212 -52 361.5 -123.5t228 -180t78.5 -272.5q0 -126 -56 -218.5t-158 -152.5
q91 -69 138.5 -166t47.5 -235zM956 516q97 -25 172 -50q88 60 88 170q0 84 -80.5 140.5t-299.5 119.5q-46 13 -89.5 27t-84.5 28q-78 -56 -78 -171q0 -64 29.5 -105.5t110 -77t232.5 -81.5z" />
    <glyph glyph-name="copyright" unicode="&#xa9;" horiz-adv-x="2304" 
d="M176 1004q0 218 76 404.5t211 327t311.5 218.5t377.5 78q202 0 379 -78t311.5 -218.5t210 -327t75.5 -404.5q0 -219 -75.5 -407t-210 -328t-311.5 -218.5t-379 -78.5q-201 0 -377.5 78.5t-311.5 218.5t-211 328t-76 407zM344 1004q0 -183 63 -339.5t174.5 -273.5
t258 -182t312.5 -65q168 0 314.5 65t257.5 182t173.5 273.5t62.5 339.5q0 182 -62.5 337.5t-173.5 272t-257.5 181.5t-314.5 65q-166 0 -312.5 -65t-258 -181.5t-174.5 -272t-63 -337.5zM1380 820h216q0 -216 -125.5 -324t-338.5 -108q-219 0 -349.5 147.5t-130.5 384.5v164
q0 237 130.5 384.5t349.5 147.5q213 0 338.5 -108t125.5 -324h-216q0 132 -62.5 190t-185.5 58q-132 0 -198 -97.5t-66 -250.5v-164q0 -153 66 -250.5t198 -97.5q123 0 185.5 56.5t62.5 191.5z" />
    <glyph glyph-name="infinity" unicode="&#x221e;" horiz-adv-x="3072" 
d="M2892 732q0 -216 -86.5 -388t-248 -272t-385.5 -100q-154 0 -274 57t-209.5 150t-152.5 203q-62 -110 -151 -203t-209.5 -150t-275.5 -57q-222 0 -383.5 100t-249 272t-87.5 388v24q0 216 87.5 388t249 272t383.5 100q155 0 275.5 -54t209.5 -143.5t152 -195.5
q62 106 152 195.5t211 143.5t276 54q222 0 382.5 -100t247 -272t86.5 -388v-24zM608 756v-24q0 -168 82 -278t238 -110q98 0 169.5 52.5t119 124.5t72 135t27.5 84v32q-3 21 -27 80.5t-71 126.5t-119 116t-171 49q-153 0 -236.5 -113t-83.5 -275zM2464 732v24
q0 162 -81.5 275t-234.5 113q-100 0 -173 -49t-120.5 -116t-71.5 -126.5t-27 -80.5v-32q3 -21 27.5 -84t72 -135t119 -124.5t169.5 -52.5q153 0 236.5 110t83.5 278z" />
    <glyph glyph-name="partialdiff" unicode="&#x2202;" 
d="M840 1432q108 0 200 -33t176 -111q-45 222 -155.5 355t-284.5 133q-74 0 -121.5 -7t-90 -23t-100.5 -42l-80 312q75 36 175 74t253 38q363 0 580 -286.5t220 -853.5v-80q0 -262 -83 -474t-243 -337t-390 -125t-389 94.5t-241 259t-82 374.5v32q0 202 75.5 360t222 249
t358.5 91zM900 1076q-104 0 -164.5 -51.5t-86 -136t-25.5 -184.5v-28q0 -147 59.5 -247.5t212.5 -100.5q104 0 163.5 58.5t84 154t24.5 207.5v180q-36 60 -102.5 104t-165.5 44z" />
    <glyph glyph-name="summation" unicode="&#x2211;" horiz-adv-x="2048" 
d="M200 1796v208h1624v-360h-995l599 -788v-52l-608 -820h1028v-356h-1648v208l764 992z" />
    <glyph glyph-name="product" unicode="&#x220f;" horiz-adv-x="2048" 
d="M1780 2004v-2376h-448v2028h-616v-2028h-448v2376h1512z" />
    <glyph glyph-name="integral" unicode="&#x222b;" horiz-adv-x="1024" 
d="M716 -36q0 -282 -147 -423t-405 -141q-57 0 -106 4t-106 16l20 352q30 -6 54.5 -11t69.5 -5q87 0 131.5 48.5t44.5 159.5v1648q0 258 151.5 395t424.5 137q57 0 112 -8.5t112 -23.5l-32 -340q-33 6 -62 9t-74 3q-188 0 -188 -172v-1648z" />
    <glyph glyph-name="radical" unicode="&#x221a;" 
d="M172 668v360h560l172 -620l388 1596h332l-516 -2004h-384l-229 668h-323z" />
    <glyph glyph-name="lozenge" unicode="&#x25ca;" horiz-adv-x="1536" 
d="M84 1000l492 1004h388l488 -1004l-488 -1000h-388zM520 1000l250 -536l246 536l-246 540z" />
    <glyph glyph-name="fraction" unicode="&#x2044;" horiz-adv-x="1280" 
d="M1232 1716l-976 -1564l-208 108l976 1564z" />
    <glyph glyph-name="zerosub" unicode="&#x2080;" horiz-adv-x="1280" 
d="M1072 164v-240q0 -222 -119.5 -329t-308.5 -107q-192 0 -314 107t-122 329v240q0 222 121.5 331t310.5 109t310.5 -109t121.5 -331zM772 -84v256q0 108 -36 150t-96 42t-94 -42t-34 -150v-256q0 -108 34.5 -146t97.5 -38q57 0 92.5 38t35.5 146z" />
    <glyph glyph-name="oneinferior" unicode="&#x2081;" horiz-adv-x="1024" 
d="M784 584v-1080h-296v732l-248 -48v228l520 168h24z" />
    <glyph glyph-name="twosub" unicode="&#x2082;" horiz-adv-x="1280" 
d="M1080 -256v-240h-860v204l392 348q72 60 106 118.5t34 85.5q0 104 -120 104q-69 0 -102.5 -43t-33.5 -97h-300q0 104 51.5 190.5t146 138t222.5 51.5q207 0 321.5 -88t114.5 -256q0 -126 -75 -213t-237 -207l-124 -96h464z" />
    <glyph glyph-name="threesub" unicode="&#x2083;" horiz-adv-x="1280" 
d="M760 -40h-124v196h124q72 0 106 30.5t34 81.5q0 33 -29 64.5t-107 31.5q-51 0 -89.5 -18t-38.5 -54h-300q0 106 59 175t155 103t206 34q198 0 321 -79.5t123 -232.5q0 -85 -51 -142.5t-133 -88.5q91 -24 147.5 -83.5t56.5 -169.5q0 -150 -133 -235t-331 -85
q-102 0 -203.5 33.5t-169 110t-67.5 204.5h304q0 -39 40.5 -71.5t115.5 -32.5q78 0 111 35t33 77q0 63 -42.5 89.5t-117.5 26.5z" />
    <glyph glyph-name="foursub" unicode="&#x2084;" horiz-adv-x="1280" 
d="M1088 -280h-112v-216h-300v216h-464l-20 200l484 668h300v-624h112v-244zM476 -36h200v263l-20 -31z" />
    <glyph glyph-name="fivesub" unicode="&#x2085;" horiz-adv-x="1280" 
d="M468 -32l-236 60l76 560h700v-232h-456l-28 -172q18 6 68.5 21t107.5 15q183 0 277.5 -90t94.5 -258q0 -96 -46 -184t-141 -144t-241 -56q-110 0 -210 40.5t-163 114t-63 173.5h304q0 -48 36 -66t96 -18q81 0 104.5 43t23.5 97q0 144 -152 144q-69 0 -103 -18t-49 -30z
" />
    <glyph glyph-name="sixinferior" unicode="&#x2086;" horiz-adv-x="1280" 
d="M1084 -132q0 -108 -56.5 -194t-155 -136t-224.5 -50q-128 0 -231.5 44.5t-164 143t-60.5 260.5v68q0 174 55.5 292t148.5 188t208.5 101t235.5 31h52v-248h-16q-87 0 -165 -13.5t-134 -60t-76 -145.5q43 37 101.5 60t133.5 23q165 0 256.5 -99.5t91.5 -264.5zM492 -120
q0 -78 35 -113t113 -35q60 0 100 41.5t40 98.5q0 66 -39 93t-105 27q-52 0 -89 -17t-55 -38v-57z" />
    <glyph glyph-name="sevensub" unicode="&#x2087;" horiz-adv-x="1280" 
d="M1216 588v-168l-448 -916h-316l448 844h-572v240h888z" />
    <glyph glyph-name="eightsub" unicode="&#x2088;" horiz-adv-x="1280" 
d="M1072 -196q0 -159 -121 -237.5t-307 -78.5t-311 78.5t-125 237.5q0 91 48.5 156.5t130.5 102.5q-70 37 -110.5 96t-40.5 137q0 153 115 230.5t289 77.5q180 0 294 -77.5t114 -230.5q0 -79 -40 -138t-111 -96q81 -38 128 -102.5t47 -155.5zM748 276q0 88 -108 88
q-104 0 -104 -88q0 -42 27 -69t81 -27t79 27t25 69zM772 -164q0 54 -36 77t-96 23q-57 0 -92.5 -23t-35.5 -77q0 -48 36 -76t96 -28q57 0 92.5 28t35.5 76z" />
    <glyph glyph-name="nineinferior" unicode="&#x2089;" horiz-adv-x="1280" 
d="M1192 80q0 -182 -51 -298t-139 -181.5t-202 -91t-240 -25.5h-20v240h16q88 0 157.5 10.5t114 51t58.5 130.5q-89 -68 -194 -68q-165 0 -264.5 87t-99.5 273q0 108 56.5 198t154 144t221.5 54q114 0 212.5 -42.5t159 -140t60.5 -261.5v-80zM632 204q0 -136 144 -136
q43 0 71.5 13.5t44.5 29.5v113q0 78 -33 109t-99 31q-60 0 -94 -47t-34 -113z" />
    <glyph glyph-name="plussub" unicode="&#x208a;" horiz-adv-x="1280" 
d="M1172 -120h-320v-356h-276v356h-324v260h324v360h276v-360h320v-260z" />
    <glyph glyph-name="minussub" unicode="&#x208b;" horiz-adv-x="1280" 
d="M1172 140v-260h-808v260h808z" />
    <glyph glyph-name="equalsub" unicode="&#x208c;" horiz-adv-x="1280" 
d="M1044 360v-260h-808v260h808zM1044 -80v-260h-808v260h808z" />
    <glyph glyph-name="parenleftinferior" unicode="&#x208d;" horiz-adv-x="768" 
d="M124 12v20q0 206 59 362t149 256t184 138l132 -188q-52 -52 -97.5 -121t-74 -175t-28.5 -268v-24q0 -160 29 -266.5t75 -175t96 -114.5l-132 -184q-94 36 -184 134t-149 251t-59 355z" />
    <glyph glyph-name="parenrightsub" unicode="&#x208e;" horiz-adv-x="768" 
d="M648 48v-24q0 -206 -59 -362t-149 -255t-184 -135l-132 184q48 46 93 116.5t74 180t29 271.5v24q0 158 -27.5 262t-72 172t-96.5 118l132 188q94 -36 184 -134t149 -251t59 -355z" />
    <glyph glyph-name="zerosuperior" unicode="&#x2070;" horiz-adv-x="1280" 
d="M1072 1576v-240q0 -222 -119.5 -329t-308.5 -107q-192 0 -314 107t-122 329v240q0 222 121.5 331t310.5 109t310.5 -109t121.5 -331zM772 1328v256q0 108 -36 150t-96 42t-94 -42t-34 -150v-256q0 -108 34.5 -146t97.5 -38q57 0 92.5 38t35.5 146z" />
    <glyph glyph-name="onesuperior" unicode="&#xb9;" horiz-adv-x="1024" 
d="M784 1996v-1080h-296v732l-248 -48v228l520 168h24z" />
    <glyph glyph-name="twosuperior" unicode="&#xb2;" horiz-adv-x="1280" 
d="M1208 1156v-240h-860v204l392 348q72 60 106 118.5t34 85.5q0 104 -120 104q-69 0 -102.5 -43t-33.5 -97h-300q0 104 51.5 190.5t146 138t222.5 51.5q207 0 321.5 -88t114.5 -256q0 -126 -75 -213t-237 -207l-124 -96h464z" />
    <glyph glyph-name="threesuperior" unicode="&#xb3;" horiz-adv-x="1280" 
d="M632 1372h-124v196h124q72 0 106 30.5t34 81.5q0 33 -29 64.5t-107 31.5q-51 0 -89.5 -18t-38.5 -54h-300q0 106 59 175t155 103t206 34q198 0 321 -79.5t123 -232.5q0 -85 -51 -142.5t-133 -88.5q91 -24 147.5 -83.5t56.5 -169.5q0 -150 -133 -235t-331 -85
q-102 0 -203.5 33.5t-169 110t-67.5 204.5h304q0 -39 40.5 -71.5t115.5 -32.5q78 0 111 35t33 77q0 63 -42.5 89.5t-117.5 26.5z" />
    <glyph glyph-name="foursuperior" unicode="&#x2074;" horiz-adv-x="1280" 
d="M1208 1132h-112v-216h-300v216h-464l-20 200l484 668h300v-624h112v-244zM596 1376h200v263l-20 -31z" />
    <glyph glyph-name="fivesuperior" unicode="&#x2075;" horiz-adv-x="1280" 
d="M588 1380l-236 60l76 560h700v-232h-456l-28 -172q18 6 68.5 21t107.5 15q183 0 277.5 -90t94.5 -258q0 -96 -46 -184t-141 -144t-241 -56q-110 0 -210 40.5t-163 114t-63 173.5h304q0 -48 36 -66t96 -18q81 0 104.5 43t23.5 97q0 144 -152 144q-69 0 -103 -18t-49 -30z
" />
    <glyph glyph-name="sixsuperior" unicode="&#x2076;" horiz-adv-x="1280" 
d="M1084 1280q0 -108 -56.5 -194t-155 -136t-224.5 -50q-128 0 -231.5 44.5t-164 143t-60.5 260.5v68q0 174 55.5 292t148.5 188t208.5 101t235.5 31h52v-248h-16q-87 0 -165 -13.5t-134 -60t-76 -145.5q43 37 101.5 60t133.5 23q165 0 256.5 -99.5t91.5 -264.5zM492 1292
q0 -78 35 -113t113 -35q60 0 100 41.5t40 98.5q0 66 -39 93t-105 27q-52 0 -89 -17t-55 -38v-57z" />
    <glyph glyph-name="sevensuperior" unicode="&#x2077;" horiz-adv-x="1280" 
d="M1216 2000v-168l-448 -916h-316l448 844h-572v240h888z" />
    <glyph glyph-name="eightsuperior" unicode="&#x2078;" horiz-adv-x="1280" 
d="M1188 1216q0 -159 -121 -237.5t-307 -78.5t-311 78.5t-125 237.5q0 91 48.5 156.5t130.5 102.5q-70 37 -110.5 96t-40.5 137q0 153 115 230.5t289 77.5q180 0 294 -77.5t114 -230.5q0 -79 -40 -138t-111 -96q81 -38 128 -102.5t47 -155.5zM864 1688q0 88 -108 88
q-104 0 -104 -88q0 -42 27 -69t81 -27t79 27t25 69zM888 1248q0 54 -36 77t-96 23q-57 0 -92.5 -23t-35.5 -77q0 -48 36 -76t96 -28q57 0 92.5 28t35.5 76z" />
    <glyph glyph-name="ninesuperior" unicode="&#x2079;" horiz-adv-x="1280" 
d="M1072 1492q0 -182 -51 -298t-139 -181.5t-202 -91t-240 -25.5h-20v240h16q88 0 157.5 10.5t114 51t58.5 130.5q-89 -68 -194 -68q-165 0 -264.5 87t-99.5 273q0 108 56.5 198t154 144t221.5 54q114 0 212.5 -42.5t159 -140t60.5 -261.5v-80zM512 1616q0 -136 144 -136
q43 0 71.5 13.5t44.5 29.5v113q0 78 -33 109t-99 31q-60 0 -94 -47t-34 -113z" />
    <glyph glyph-name="plussuperior" unicode="&#x207a;" horiz-adv-x="1280" 
d="M1100 1256h-320v-356h-276v356h-324v260h324v360h276v-360h320v-260z" />
    <glyph glyph-name="minussuperior" unicode="&#x207b;" horiz-adv-x="1280" 
d="M1044 1516v-260h-808v260h808z" />
    <glyph glyph-name="equalsuperior" unicode="&#x207c;" horiz-adv-x="1280" 
d="M1044 1736v-260h-808v260h808zM1044 1296v-260h-808v260h808z" />
    <glyph glyph-name="parenleftsuperior" unicode="&#x207d;" horiz-adv-x="768" 
d="M124 1304v24q0 216 59 380t149 269t184 143l132 -184q-52 -58 -97.5 -132.5t-74 -188t-28.5 -287.5v-24q0 -174 29 -290.5t75 -192t96 -125.5l-132 -188q-94 40 -184 145.5t-149 270t-59 380.5z" />
    <glyph glyph-name="parenrightsuperior" unicode="&#x207e;" horiz-adv-x="768" 
d="M648 1328v-24q0 -216 -59 -380.5t-149 -270t-184 -145.5l-132 188q48 50 93 125.5t74 192t29 290.5v24q0 174 -27.5 287.5t-72 188t-96.5 132.5l132 184q94 -38 184 -143t149 -269t59 -380z" />
    <glyph glyph-name="onehalf" unicode="&#xbd;" horiz-adv-x="2304" 
d="M768 2004v-1080h-296v732l-248 -48v228l520 168h24zM1632 1728l-976 -1564l-208 108l976 1564zM2208 240v-240h-860v204l392 348q72 60 106 118.5t34 85.5q0 104 -120 104q-69 0 -102.5 -43t-33.5 -97h-300q0 104 51.5 190.5t146 138t222.5 51.5q207 0 321.5 -88
t114.5 -256q0 -126 -75 -213t-237 -207l-124 -96h464z" />
    <glyph glyph-name="onequarter" unicode="&#xbc;" horiz-adv-x="2048" 
d="M660 1992v-1080h-296v732l-248 -48v228l520 168h24zM1552 1728l-976 -1564l-208 108l976 1564zM1932 216h-112v-216h-300v216h-464l-20 200l484 668h300v-624h112v-244zM1320 460h200v263l-20 -31z" />
    <glyph glyph-name="threequarters" unicode="&#xbe;" horiz-adv-x="2304" 
d="M712 1372h-124v196h124q72 0 106 30.5t34 81.5q0 33 -29 64.5t-107 31.5q-51 0 -89.5 -18t-38.5 -54h-300q0 106 59 175t155 103t206 34q198 0 321 -79.5t123 -232.5q0 -85 -51 -142.5t-133 -88.5q91 -24 147.5 -83.5t56.5 -169.5q0 -150 -133 -235t-331 -85
q-102 0 -203.5 33.5t-169 110t-67.5 204.5h304q0 -39 40.5 -71.5t115.5 -32.5q78 0 111 35t33 77q0 63 -42.5 89.5t-117.5 26.5zM1888 1728l-976 -1564l-208 108l976 1564zM2280 216h-112v-216h-300v216h-464l-20 200l484 668h300v-624h112v-244zM1668 460h200v263l-20 -31z
" />
    <glyph glyph-name="percent" unicode="%" horiz-adv-x="2304" 
d="M196 1556v108q0 126 52 231.5t152 169t244 63.5q146 0 246 -63.5t151 -169t51 -231.5v-108q0 -126 -52 -230.5t-152 -167t-244 -62.5q-146 0 -246 62.5t-151 167t-51 230.5zM2056 2100l-1476 -2152h-356l1476 2152h356zM500 1664v-108q0 -69 30 -128.5t114 -59.5
t114 59.5t30 128.5v108q0 69 -28.5 130.5t-115.5 61.5q-84 0 -114 -61.5t-30 -130.5zM1216 384v108q0 126 52 231.5t152 169t244 63.5q146 0 246 -63.5t151 -169t51 -231.5v-108q0 -126 -52 -231.5t-152 -169t-244 -63.5q-146 0 -246 63.5t-151 169t-51 231.5zM1520 492
v-108q0 -69 30 -128.5t114 -59.5t114 59.5t30 128.5v108q0 69 -28.5 130.5t-115.5 61.5q-84 0 -114 -61.5t-30 -130.5z" />
    <glyph glyph-name="perthousand" unicode="&#x2030;" horiz-adv-x="2816" 
d="M164 1512v104q0 114 49.5 208.5t142 151t220.5 56.5q140 0 239.5 -56.5t152 -151t52.5 -208.5v-104q0 -112 -52.5 -205.5t-151 -150t-236.5 -56.5q-130 0 -223 56.5t-143 150t-50 205.5zM1676 1716l-980 -1564l-208 108l976 1564zM424 1616v-104q0 -63 37.5 -111.5
t118.5 -48.5q78 0 115 48.5t37 111.5v104q0 66 -39 115t-117 49t-115 -49t-37 -115zM2656 384q0 -112 -52.5 -205.5t-151 -150t-236.5 -56.5q-106 0 -185.5 38.5t-130.5 102.5q-51 -64 -129.5 -102.5t-182.5 -38.5q-138 0 -237.5 56.5t-153 150t-53.5 205.5v108
q0 112 53.5 205.5t153 150t237.5 56.5q105 0 183.5 -38t129.5 -102q51 64 129.5 102t181.5 38q140 0 239.5 -56.5t152 -150t52.5 -205.5v-108zM1432 492v-108q0 -63 45 -111.5t111 -48.5q96 0 124 48.5t28 111.5v108q0 63 -37 111.5t-115 48.5q-81 0 -118.5 -48.5
t-37.5 -111.5zM2056 492v-108q0 -63 45.5 -111.5t114.5 -48.5q96 0 124 48.5t28 111.5v108q0 63 -39 111.5t-117 48.5t-117 -48.5t-39 -111.5z" />
    <glyph glyph-name="numero" unicode="&#x2116;" horiz-adv-x="2816" 
d="M1728 1444v80q0 140 58 253.5t165 180t253 66.5q148 0 254.5 -66.5t164 -180t57.5 -253.5v-80q0 -142 -57.5 -255t-164 -179t-254.5 -66q-146 0 -253 66t-165 179t-58 255zM1576 2004v-2004h-488l-504 1220v-1220h-448v2004h488l508 -1220v1220h444zM1968 1524v-80
q0 -120 58 -210t178 -90t178 90t58 210v80q0 120 -58 208t-178 88t-178 -88t-58 -208zM2604 780v-200h-812v200h812z" />
    <glyph glyph-name="acute" unicode="&#xb4;" horiz-adv-x="1024" 
d="M140 1680l272 432h472l-380 -432h-364z" />
    <glyph glyph-name="hungarumlaut" unicode="&#x2dd;" horiz-adv-x="1280" 
d="M560 1700l308 412h372l-364 -412h-316zM40 1700l268 412h372l-324 -412h-316z" />
    <glyph glyph-name="grave" unicode="`" horiz-adv-x="1024" 
d="M612 2112l272 -432h-360l-384 432h472z" />
    <glyph glyph-name="dieresis" unicode="&#xa8;" horiz-adv-x="1280" 
d="M96 1876q0 78 54.5 131t141.5 53q84 0 138 -53t54 -131q0 -75 -54 -127.5t-138 -52.5q-87 0 -141.5 52.5t-54.5 127.5zM796 1876q0 78 54.5 131t141.5 53q84 0 138 -53t54 -131q0 -75 -54 -127.5t-138 -52.5q-87 0 -141.5 52.5t-54.5 127.5z" />
    <glyph glyph-name="circumflex" unicode="&#x2c6;" horiz-adv-x="1536" 
d="M892 2112l440 -384v-20h-352l-216 188l-216 -188h-340v24l432 380h252z" />
    <glyph glyph-name="tilde" unicode="&#x2dc;" horiz-adv-x="1280" 
d="M920 2124l248 -16q0 -100 -40.5 -185.5t-112 -138t-163.5 -52.5q-86 0 -144.5 29t-112 58t-123.5 29q-45 0 -76.5 -30.5t-31.5 -93.5l-252 12q0 98 40.5 184t112 139t163.5 53q72 0 133.5 -28t121 -56t125.5 -28q45 0 78.5 30.5t33.5 93.5z" />
    <glyph glyph-name="macron" unicode="&#xaf;" horiz-adv-x="1536" 
d="M1244 2004v-236h-952v236h952z" />
    <glyph glyph-name="breve" unicode="&#x2d8;" horiz-adv-x="1280" 
d="M832 2116h308q0 -186 -134.5 -305t-365.5 -119q-228 0 -362 119t-134 305h304q0 -69 43.5 -122.5t148.5 -53.5t148.5 53.5t43.5 122.5z" />
    <glyph glyph-name="dotaccent" unicode="&#x2d9;" horiz-adv-x="768" 
d="M164 1896q0 87 60.5 143.5t159.5 56.5t159.5 -56.5t60.5 -143.5t-60.5 -143.5t-159.5 -56.5t-159.5 56.5t-60.5 143.5z" />
    <glyph glyph-name="ring" unicode="&#x2da;" horiz-adv-x="1024" 
d="M204 1780q0 114 86.5 197t221.5 83t221.5 -83t86.5 -197t-86.5 -193t-221.5 -79t-221.5 79t-86.5 193zM368 1780q0 -60 39 -102t105 -42t105 42t39 102t-39 102t-105 42t-105 -42t-39 -102z" />
    <glyph glyph-name="caron" unicode="&#x2c7;" horiz-adv-x="1536" 
d="M568 2112l204 -184l200 184h376v-12l-436 -392h-284l-440 392v12h380z" />
    <glyph glyph-name="dieresistonos" unicode="&#x385;" horiz-adv-x="1536" 
d="M652 1960l56 488h388l-236 -488h-208zM132 1876q0 78 60 131t144 53t144 -53t60 -131q0 -75 -60 -127.5t-144 -52.5t-144 52.5t-60 127.5zM1000 1876q0 78 58.5 131t145.5 53q84 0 142 -53t58 -131q0 -75 -58 -127.5t-142 -52.5q-87 0 -145.5 52.5t-58.5 127.5z" />
    <glyph glyph-name="cedilla" unicode="&#xb8;" horiz-adv-x="1024" 
d="M272 16h336l-16 -88q75 -12 139.5 -65.5t64.5 -170.5q0 -153 -127 -246.5t-373 -93.5l-12 256q57 0 94.5 23.5t37.5 80.5q0 54 -44.5 74t-143.5 26z" />
    <glyph glyph-name="ogonek" unicode="&#x2db;" horiz-adv-x="768" 
d="M392 84l240 -84q-108 -57 -156 -105.5t-48 -114.5q0 -39 20 -63.5t68 -24.5q36 0 57 9t39 15l52 -228q-36 -21 -91.5 -40.5t-136.5 -19.5q-138 0 -233 74t-95 218q0 99 58 192.5t226 171.5z" />
    <glyph glyph-name="commaaccent" unicode="&#xf6c3;" horiz-adv-x="512" 
d="M460 392v-96q0 -138 -59 -273.5t-137 -222.5l-212 108q45 75 74.5 156.5t29.5 207.5v120h304z" />
    <glyph glyph-name="acutecomb" unicode="&#x301;" horiz-adv-x="0" 
d="M-946 1680l271 432h471l-382 -432h-360z" />
    <glyph glyph-name="acutedblnosp" unicode="&#x30b;" horiz-adv-x="0" 
d="M-1510 1680l272 432h472l-380 -432h-364zM-823 1680l272 432h472l-380 -432h-364z" />
    <glyph glyph-name="gravecomb" unicode="&#x300;" horiz-adv-x="0" 
d="M-774 2112l273 -432h-360l-385 432h472z" />
    <glyph glyph-name="dblgravecmb" unicode="&#x30f;" horiz-adv-x="0" 
d="M-1042 2087l337 -365h-359l-394 365h416zM-481 2087l280 -365h-359l-337 365h416z" />
    <glyph glyph-name="macroncomb" unicode="&#x304;" horiz-adv-x="0" 
d="M-316 2005v-238h-953v238h953z" />
    <glyph glyph-name="dieresisnosp" unicode="&#x308;" horiz-adv-x="0" 
d="M-1416 1876q0 78 54.5 131t141.5 53q84 0 138 -53t54 -131q0 -75 -54 -127.5t-138 -52.5q-87 0 -141.5 52.5t-54.5 127.5zM-716 1876q0 78 54.5 131t141.5 53q84 0 138 -53t54 -131q0 -75 -54 -127.5t-138 -52.5q-87 0 -141.5 52.5t-54.5 127.5z" />
    <glyph glyph-name="brevenosp" unicode="&#x306;" horiz-adv-x="0" 
d="M-601 2115h307q0 -187 -134.5 -304.5t-363.5 -117.5q-230 0 -364.5 117.5t-134.5 304.5h305q0 -68 44 -121.5t150 -53.5q105 0 148 53.5t43 121.5z" />
    <glyph glyph-name="breveinvnosp" unicode="&#x311;" horiz-adv-x="0" 
d="M-294 1580h-307q0 68 -43 121.5t-148 53.5q-106 0 -150 -53.5t-44 -121.5h-305q0 187 134.5 304.5t364.5 117.5q229 0 363.5 -117.5t134.5 -304.5z" />
    <glyph glyph-name="hook" unicode="&#x309;" horiz-adv-x="0" 
d="M-682 1755h-336l-27 173q100 4 144 25t44 61q0 55 -52.5 73t-135.5 18l10 200q275 0 417 -72t142 -199q0 -91 -65 -137.5t-141 -56.5v-85z" />
    <glyph glyph-name="circumflexnosp" unicode="&#x302;" horiz-adv-x="0" 
d="M-608 2112l440 -384v-20h-352l-216 188l-216 -188h-340v24l432 380h252z" />
    <glyph glyph-name="caroncmb" unicode="&#x30c;" horiz-adv-x="0" 
d="M-230 2094l-438 -386h-255l-431 381v23h342l216 -187l217 187h349v-18z" />
    <glyph glyph-name="tildecomb" unicode="&#x303;" horiz-adv-x="0" 
d="M-529 2124l248 -16q0 -100 -40.5 -185.5t-112 -138t-163.5 -52.5q-86 0 -144.5 29t-112 58t-123.5 29q-45 0 -76.5 -30.5t-31.5 -93.5l-252 12q0 98 40.5 184t112 139t163.5 53q72 0 133.5 -28t121 -56t125.5 -28q45 0 78.5 30.5t33.5 93.5z" />
    <glyph glyph-name="dotnosp" unicode="&#x307;" horiz-adv-x="0" 
d="M-1038 1871q0 99 68 162.5t178 63.5t178 -63.5t68 -162.5t-68 -162t-178 -63t-178 63t-68 162z" />
    <glyph glyph-name="ringnosp" unicode="&#x30a;" horiz-adv-x="0" 
d="M-1058 1780q0 114 86.5 197t221.5 83t221.5 -83t86.5 -197t-86.5 -193t-221.5 -79t-221.5 79t-86.5 193zM-894 1780q0 -60 39 -102t105 -42t105 42t39 102t-39 102t-105 42t-105 -42t-39 -102z" />
    <glyph glyph-name="hornnosp" unicode="&#x31b;" horiz-adv-x="0" 
d="M-162 2200v-278q0 -97 -35.5 -198.5t-93 -190.5t-123.5 -150l-212 110q29 71 49 133.5t32.5 136t18 178t5.5 259.5h359z" />
    <glyph glyph-name="ogoneknosp" unicode="&#x328;" horiz-adv-x="0" 
d="M-810 83l209 -83q-107 -56 -155 -105t-48 -116q0 -37 19 -61.5t66 -24.5q36 0 58.5 8.5t40.5 16.5l49 -231q-34 -20 -89.5 -40t-138.5 -20q-136 0 -231.5 74.5t-95.5 219.5q0 100 74 193t242 169z" />
    <glyph glyph-name="cedillanosp" unicode="&#x327;" horiz-adv-x="0" 
d="M-1005 14h335l-15 -84q77 -14 141.5 -67t64.5 -171q0 -154 -127.5 -247.5t-375.5 -93.5l-9 256q58 0 95 24.5t37 81.5q0 53 -44.5 73.5t-144.5 26.5z" />
    <glyph glyph-name="circumflexsubnosp" unicode="&#x32d;" horiz-adv-x="0" 
d="M-608 -113l440 -384v-20h-352l-216 188l-216 -188h-340v24l432 380h252z" />
    <glyph glyph-name="brevesubnosp" unicode="&#x32e;" horiz-adv-x="0" 
d="M-602 -113h306q0 -187 -134 -304.5t-363 -117.5q-230 0 -365 117.5t-135 304.5h306q0 -68 43.5 -121t150.5 -53q105 0 148 53t43 121z" />
    <glyph glyph-name="dotbelow" unicode="&#x323;" horiz-adv-x="0" 
d="M-1068 -316q0 88 68 146.5t178 58.5t178 -58.5t68 -146.5t-68 -146.5t-178 -58.5t-178 58.5t-68 146.5z" />
    <glyph glyph-name="commabelowcmb" unicode="&#x326;" horiz-adv-x="0" 
d="M-586 -194v-91q0 -131 -59 -261t-137 -212l-212 105q45 70 74.5 147.5t29.5 196.5v115h304z" />
    <glyph glyph-name="dotdblsubnosp" unicode="&#x324;" horiz-adv-x="0" 
d="M-1423 -316q0 77 58.5 130t143.5 53t143.5 -53t58.5 -130t-58.5 -130t-143.5 -53t-143.5 53t-58.5 130zM-723 -316q0 77 58.5 130t143.5 53t143.5 -53t58.5 -130t-58.5 -130t-143.5 -53t-143.5 53t-58.5 130z" />
    <glyph glyph-name="ringsubnosp" unicode="&#x325;" horiz-adv-x="0" 
d="M-1060 -398q0 114 86.5 197t221.5 83t221.5 -83t86.5 -197t-86.5 -193t-221.5 -79t-221.5 79t-86.5 193zM-896 -398q0 -60 39 -102t105 -42t105 42t39 102t-39 102t-105 42t-105 -42t-39 -102z" />
    <glyph glyph-name="underscorenosp" unicode="&#x332;" horiz-adv-x="0" 
d="M-151 -209v-344h-1248v344h1248z" />
    <glyph glyph-name="tildesubnosp" unicode="&#x330;" horiz-adv-x="0" 
d="M-557 -159l248 -16q0 -100 -40.5 -185.5t-112 -138t-163.5 -52.5q-86 0 -144.5 29t-112 58t-123.5 29q-45 0 -76.5 -30.5t-31.5 -93.5l-252 12q0 98 40.5 184t112 139t163.5 53q72 0 133.5 -28t121 -56t125.5 -28q45 0 78.5 30.5t33.5 93.5z" />
    <glyph glyph-name="enquad" unicode="&#x2000;" horiz-adv-x="1536" 
 />
    <glyph glyph-name="emquad" unicode="&#x2001;" horiz-adv-x="3072" 
 />
    <glyph glyph-name="enspace" unicode="&#x2002;" horiz-adv-x="1536" 
 />
    <glyph glyph-name="emspace" unicode="&#x2003;" horiz-adv-x="3072" 
 />
    <glyph glyph-name="thirdemspace" unicode="&#x2004;" horiz-adv-x="1024" 
 />
    <glyph glyph-name="quarteremspace" unicode="&#x2005;" horiz-adv-x="768" 
 />
    <glyph glyph-name="sixthemspace" unicode="&#x2006;" horiz-adv-x="512" 
 />
    <glyph glyph-name="figurespace" unicode="&#x2007;" 
 />
    <glyph glyph-name="punctuationspace" unicode="&#x2008;" horiz-adv-x="1024" 
 />
    <glyph glyph-name="thinspace" unicode="&#x2009;" horiz-adv-x="768" 
 />
    <glyph glyph-name="hairspace" unicode="&#x200a;" horiz-adv-x="512" 
 />
    <glyph glyph-name="zerowidthspace" unicode="&#x200b;" horiz-adv-x="0" 
 />
    <glyph glyph-name="arrowleft" unicode="&#x2190;" horiz-adv-x="3072" 
d="M1092 -24l-856 856l856 856l276 -272l-392 -392h1840v-384h-1840l388 -388z" />
    <glyph glyph-name="arrowup" unicode="&#x2191;" 
d="M44 1212l856 856l856 -856l-272 -276l-392 392v-1840h-384v1840l-388 -388z" />
    <glyph glyph-name="arrowright" unicode="&#x2192;" horiz-adv-x="3072" 
d="M1980 1688l856 -856l-856 -856l-276 272l392 392h-1840v384h1840l-388 388z" />
    <glyph glyph-name="arrowdown" unicode="&#x2193;" 
d="M1756 324l-856 -856l-856 856l272 276l392 -392v1840h384v-1840l388 388z" />
    <glyph glyph-name="triagrt" unicode="&#x25ba;" horiz-adv-x="2560" 
d="M256 -256v2560l2176 -1280z" />
    <glyph glyph-name="triagdn" unicode="&#x25bc;" horiz-adv-x="2560" 
d="M0 2048h2560l-1280 -2176z" />
    <glyph glyph-name="triagup" unicode="&#x25b2;" horiz-adv-x="2560" 
d="M0 0l1280 2176l1280 -2176h-2560z" />
    <glyph glyph-name="blackleftpointingtriangle" unicode="&#x25c0;" horiz-adv-x="2560" 
d="M2304 -256l-2176 1280l2176 1280v-2560z" />
    <glyph glyph-name="mu" unicode="&#xb5;" 
d="M868 -28q-124 0 -216 53v-597h-444v2060h444v-852q0 -186 62 -243t170 -57q97 0 159 33t97 91v1028h444v-1488h-416l-6 78q-121 -106 -294 -106z" />
    <glyph glyph-name="uni2009.fra" horiz-adv-x="512" 
 />
    <glyph glyph-name="overscoredblnosp" unicode="&#x33f;" horiz-adv-x="0" 
d="M-171 2690v-208h-1245v208h1245zM-171 2283v-208h-1245v208h1245z" />
    <glyph glyph-name="uni215A" unicode="&#x215a;" horiz-adv-x="2560" 
d="M596 1376l-236 60l76 560h700v-232h-456l-28 -172q18 6 68.5 21t107.5 15q183 0 277.5 -90t94.5 -258q0 -96 -46 -184t-141 -144t-241 -56q-110 0 -210 40.5t-163 114t-63 173.5h304q0 -48 36 -66t96 -18q81 0 104.5 43t23.5 97q0 144 -152 144q-69 0 -103 -18t-49 -30z
M1888 1716l-976 -1564l-208 108l976 1564zM2452 364q0 -108 -56.5 -194t-155 -136t-224.5 -50q-128 0 -231.5 44.5t-164 143t-60.5 260.5v68q0 174 55.5 292t148.5 188t208.5 101t235.5 31h52v-248h-16q-87 0 -165 -13.5t-134 -60t-76 -145.5q43 37 101.5 60t133.5 23
q165 0 256.5 -99.5t91.5 -264.5zM1860 376q0 -78 35 -113t113 -35q60 0 100 41.5t40 98.5q0 66 -39 93t-105 27q-52 0 -89 -17t-55 -38v-57z" />
    <glyph glyph-name="uni02E5_uni02E7_uni02E8" 
d="M1708 0h-444v360l-592 512l-584 944l300 188l588 -940l288 -252v1192h444v-2004z" />
    <glyph glyph-name="uni215F" unicode="&#x215f;" 
d="M756 1992v-1080h-296v732l-248 -48v228l520 168h24zM1644 1716l-976 -1564l-208 108l976 1564z" />
    <glyph glyph-name="tturn" unicode="&#x287;" horiz-adv-x="1024" 
d="M968 372h-200v-372h-444v372h-244v320h244v680q0 90 -33.5 121t-114.5 31q-39 0 -67 -2.5t-49 -5.5v328q109 40 252 40q216 0 336 -106t120 -346v-740h200v-320z" />
    <glyph glyph-name="uni2DEA" unicode="&#x2dea;" horiz-adv-x="0" 
d="M-791 1632q-176 0 -270 109.5t-94 275.5v15q0 166 93.5 276.5t269.5 110.5q177 0 270.5 -110.5t93.5 -276.5v-15q0 -166 -93.5 -275.5t-269.5 -109.5zM-791 1815q79 0 108.5 58.5t29.5 143.5v15q0 84 -29.5 144.5t-109.5 60.5q-77 0 -107.5 -60.5t-30.5 -144.5v-15
q0 -85 30 -143.5t109 -58.5z" />
    <glyph glyph-name="uni2DEB" unicode="&#x2deb;" horiz-adv-x="0" 
d="M-1130 1651v759h675v-759h-227v577h-223v-577h-225z" />
    <glyph glyph-name="uni2DEC" unicode="&#x2dec;" horiz-adv-x="0" 
d="M-741 1641q-105 0 -175 79v-398h-227v1087h197l15 -87q34 46 81.5 73t109.5 27q143 0 218.5 -109t75.5 -274v-15q0 -173 -75.5 -278t-219.5 -105zM-798 2239q-83 0 -118 -67v-286q33 -69 117 -69q70 0 99 59t29 148v15q0 84 -28 142t-99 58z" />
    <glyph glyph-name="uni2DED" unicode="&#x2ded;" horiz-adv-x="0" 
d="M-774 1632q-178 0 -266.5 110t-88.5 275v17q0 164 88.5 274.5t264.5 110.5q142 0 230.5 -80t88.5 -224h-211q0 50 -28 86t-85 36q-79 0 -100.5 -61t-21.5 -142v-17q0 -85 21.5 -143.5t101.5 -58.5q112 0 112 102h211q0 -128 -91 -206.5t-226 -78.5z" />
    <glyph glyph-name="uni2DEE" unicode="&#x2dee;" horiz-adv-x="0" 
d="M-1144 2229v181h704v-181h-241v-578h-227v578h-236z" />
    <glyph glyph-name="macronacutecomb" horiz-adv-x="0" 
d="M-917 2023l176 253h300l-247 -253h-229zM-316 1953v-238h-953v238h953z" />
    <glyph glyph-name="uni1D91" unicode="&#x1d91;" 
d="M1604 1868q-54 0 -108.5 -15.5t-91 -56t-36.5 -116.5v-1320h40v-440q0 -76 37.5 -115.5t92 -54t106.5 -14.5q30 0 55.5 2.5t52.5 5.5v-296q-32 -8 -80.5 -12.5t-91 -6t-56.5 -1.5q-146 0 -273 39.5t-205 146t-78 306.5v171l-14 79q-67 -92 -159.5 -145t-214.5 -53
q-188 0 -317.5 98t-196 269t-66.5 389v28q0 226 67 397t197 267t320 96q107 0 191.5 -42t148.5 -118v324q0 166 52 265.5t136 149t181 65.5t187 16q75 0 129.5 -6t102.5 -18v-296q-60 12 -108 12zM444 728q0 -168 53.5 -282t194.5 -114q162 0 232 134v559q-66 135 -228 135
q-138 0 -195 -115t-57 -289v-28z" />
    <glyph glyph-name="uni1D90" unicode="&#x1d90;" horiz-adv-x="2048" 
d="M1432 508q0 -99 24 -137.5t72 -38.5h84v-412q0 -76 37.5 -115.5t92 -54t106.5 -14.5q27 0 54 2.5t54 5.5v-296q-48 -12 -90 -16t-90 -4q-219 0 -343.5 127.5t-124.5 364.5v63q-189 40 -268 224q-60 -108 -150 -171.5t-218 -63.5q-188 0 -317.5 95t-196 262t-66.5 383v28
q0 228 67 403t197 274t320 99q112 0 195 -54t142 -148l31 174h388v-980zM536 712q0 -165 53.5 -272.5t194.5 -107.5q143 0 207 98q-3 37 -3 78v541q-64 111 -204 111q-135 0 -191.5 -123t-56.5 -297v-28z" />
    <glyph glyph-name="uni1D93" unicode="&#x1d93;" 
d="M796 304q129 0 190.5 39.5t61.5 96.5h440q0 -70 -20 -129.5t-56 -107.5v-283q0 -76 37.5 -115.5t92 -54t106.5 -14.5q30 0 56 2.5t56 5.5v-296q-48 -12 -92 -16t-92 -4q-219 0 -343.5 127.5t-124.5 364.5v90q-131 -38 -280 -38q-202 0 -364 53.5t-257 154t-95 240.5
q0 128 74.5 215.5t210.5 131.5q-121 48 -191 130.5t-70 182.5q0 142 89 239t245 147t358 50q174 0 319.5 -55t233 -158t87.5 -247h-444q0 66 -64 97t-160 31q-117 0 -168.5 -46.5t-51.5 -97.5q0 -63 60 -99.5t168 -36.5h244v-284h-244q-114 0 -185 -34.5t-71 -121.5
q0 -60 60.5 -110t183.5 -50z" />
    <glyph glyph-name="uni1D92" unicode="&#x1d92;" 
d="M1740 -552q-48 -12 -90 -16t-90 -4q-219 0 -343.5 127.5t-124.5 364.5v99q-61 -22 -131.5 -34.5t-148.5 -12.5q-240 0 -410 99.5t-260 264t-90 360.5v52q0 216 81.5 390t240 276t390.5 102q318 0 493 -197.5t175 -530.5v-188h-927q24 -124 111 -196t224 -72
q99 0 190.5 35.5t157.5 116.5l208 -248v-316q0 -76 36.5 -115.5t91 -54t108.5 -14.5q27 0 52.5 2.5t55.5 5.5v-296zM760 1160q-119 0 -177.5 -77.5t-76.5 -194.5h494v36q0 111 -61.5 173.5t-178.5 62.5z" />
    <glyph glyph-name="uni1D95" unicode="&#x1d95;" horiz-adv-x="2304" 
d="M2196 -552q-48 -12 -90 -16t-90 -4q-219 0 -343.5 127.5t-124.5 364.5v680h-69q-24 -181 -111.5 -323t-235.5 -223.5t-352 -81.5q-321 0 -496.5 197.5t-175.5 530.5v192h926q-25 123 -111.5 195.5t-222.5 72.5q-99 0 -190.5 -36t-157.5 -120l-204 252q69 96 218.5 178
t365.5 82q218 0 379 -84.5t255.5 -227t115.5 -316.5h370v-968q0 -76 36.5 -115.5t91 -54t108.5 -14.5q27 0 52.5 2.5t55.5 5.5v-296zM780 332q121 0 179 76t76 192h-491v-36q0 -111 59.5 -171.5t176.5 -60.5z" />
    <glyph glyph-name="uni1D94" unicode="&#x1d94;" horiz-adv-x="1536" 
d="M764 620h-248v284h248q105 0 164.5 36.5t59.5 99.5q0 51 -49.5 97.5t-166.5 46.5q-99 0 -161.5 -31t-62.5 -97h-444q0 144 86.5 247t232 158t321.5 55q200 0 355.5 -50t244 -147t88.5 -239q0 -100 -69.5 -182.5t-190.5 -131.5q136 -43 210 -130.5t74 -215.5
q0 -140 -94.5 -240.5t-256 -154t-361.5 -53.5q-93 0 -185.5 16t-174.5 50v-118q0 -76 37.5 -115.5t92 -54t106.5 -14.5q27 0 54 2.5t54 5.5v-296q-48 -12 -90 -16t-90 -4q-219 0 -343.5 127.5t-124.5 364.5v520h444q0 -57 61 -96.5t187 -39.5q123 0 183.5 50t60.5 110
q0 87 -70.5 121.5t-181.5 34.5z" />
    <glyph glyph-name="uni1D97" unicode="&#x1d97;" horiz-adv-x="1536" 
d="M108 -80v612h416q0 -96 59 -148t161 -52q104 0 155.5 53t68 143t16.5 200v32q0 108 -17.5 199t-69 146t-153.5 55q-111 0 -165.5 -70.5t-54.5 -169.5h-416q0 188 80.5 321.5t222 204t325.5 70.5q230 0 384 -100t231 -271t77 -385v-32q0 -216 -77.5 -387t-232 -270
t-386.5 -99q-178 0 -320 79v-131q0 -76 37.5 -115.5t92 -54t106.5 -14.5q30 0 56 2.5t56 5.5v-296q-51 -12 -93.5 -16t-90.5 -4q-219 0 -343.5 127.5t-124.5 364.5z" />
    <glyph glyph-name="uni1D96" unicode="&#x1d96;" horiz-adv-x="1280" 
d="M144 1872q0 99 66.5 161.5t177.5 62.5t179.5 -62.5t68.5 -161.5t-68.5 -161.5t-179.5 -62.5t-177.5 62.5t-66.5 161.5zM1140 -552q-48 -12 -90 -16t-90 -4q-219 0 -343.5 127.5t-124.5 364.5v80h-324v1488h444v-1048h184v-520q0 -76 37.5 -115.5t92 -54t106.5 -14.5
q30 0 55.5 2.5t52.5 5.5v-296z" />
    <glyph glyph-name="uni1D99" unicode="&#x1d99;" horiz-adv-x="2048" 
d="M1956 -552q-48 -12 -90.5 -16t-93.5 -4q-216 0 -340 127.5t-124 364.5v80h-328l-12 152h-16q-66 -84 -173 -132t-239 -48q-138 0 -243.5 55t-165 182t-59.5 343v936h444v-940q0 -132 57.5 -176t162.5 -44q114 0 165 104t51 260v796h444v-1048h216v-520q0 -76 36.5 -115.5
t90 -54t105.5 -14.5q30 0 56 2.5t56 5.5v-296z" />
    <glyph glyph-name="uni1D98" unicode="&#x1d98;" horiz-adv-x="1280" 
d="M1076 1816q-212 0 -212 -172v-1196q0 -234 -126 -369t-346 -158v-29q0 -74 37.5 -114t92 -55t106.5 -15q27 0 54 2.5t54 5.5v-296q-48 -12 -90 -16t-90 -4q-219 0 -343.5 127.5t-124.5 364.5v396q48 -12 116 -12q216 0 216 172v1196q0 258 151 395t409 137
q60 0 112.5 -8.5t103.5 -23.5v-340q-27 6 -54 9t-66 3z" />
    <glyph glyph-name="uniA659" unicode="&#xa659;" 
d="M40 0l612 1488h492l612 -1488h-1716zM788 748h213l-107 283zM626 316h538l-45 120h-448z" />
    <glyph glyph-name="uniA658" unicode="&#xa658;" horiz-adv-x="2048" 
d="M68 0l740 2004h432l740 -2004h-1912zM866 952h316l-158 491zM678 368h692l-71 220h-550z" />
    <glyph glyph-name="crossbar" horiz-adv-x="1280" 
d="M1136 1160v-264h-992v264h992z" />
    <glyph glyph-name="uniA653" unicode="&#xa653;" horiz-adv-x="2304" 
d="M764 0v1468h-148v-1468h-444v2104h444v-280h148v320h444v-320h436v-356h-436v-388h248q318 0 497 -150.5t179 -393.5q0 -237 -179 -386.5t-497 -149.5h-692zM1208 356h248q123 0 177.5 52.5t54.5 127.5q0 84 -54.5 136t-177.5 52h-248v-368z" />
    <glyph glyph-name="uniA652" unicode="&#xa652;" horiz-adv-x="2560" 
d="M788 0v1468h-140v-1468h-464v2004h464v-172h140v172h460v-172h440v-364h-440v-156h276q240 0 417 -80.5t274 -226t97 -341.5t-97 -345.5t-274 -234t-417 -84.5h-736zM1248 372h276q159 0 243.5 86.5t84.5 209.5q0 117 -84.5 196.5t-243.5 79.5h-276v-572z" />
    <glyph glyph-name="austral" unicode="&#x20b3;" horiz-adv-x="2048" 
d="M1476 0l-107 376h-618l-107 -376h-512l132 388h-228v360h350l55 164h-405v356h526l250 736h496l250 -736h382v-356h-261l55 -164h206v-360h-84l132 -388h-512zM1048 1424l-44 -156h112l-44 156h-24zM856 748h408l-47 164h-314z" />
    <glyph glyph-name="uniA651" unicode="&#xa651;" horiz-adv-x="2560" 
d="M2500 1488v-1488h-444v1488h444zM1924 536q0 -237 -179 -386.5t-497 -149.5h-692v1128h-420v360h864v-408h248q318 0 497 -150.5t179 -393.5zM1000 356h248q123 0 177.5 52.5t54.5 127.5q0 84 -54.5 136t-177.5 52h-248v-368z" />
    <glyph glyph-name="uniA650" unicode="&#xa650;" horiz-adv-x="2816" 
d="M2716 2004v-2004h-464v2004h464zM144 1644v360h1012v-692h272q242 0 419 -80.5t273 -226t96 -341.5t-96 -345.5t-273 -234t-419 -84.5h-736v1644h-548zM1156 372h272q162 0 245 86.5t83 209.5q0 117 -83 196.5t-245 79.5h-272v-572z" />
    <glyph glyph-name="uniA657" unicode="&#xa657;" horiz-adv-x="2304" 
d="M1680 0q-25 53 -40 130q-56 -66 -143 -112t-221 -46q-155 0 -279 70.5t-182 189.5h-191v-232h-444v1488h444v-920h168q49 163 215.5 251.5t456.5 88.5h156v80q0 93 -45 148.5t-147 55.5q-180 0 -180 -160h-444q0 138 79.5 247.5t225 173t343.5 63.5q174 0 312.5 -59
t219 -177t80.5 -296v-608q0 -144 15 -219.5t45 -132.5v-24h-444zM1380 304q91 0 153 38t87 85v233h-152q-141 0 -198.5 -66t-57.5 -150q0 -63 46.5 -101.5t121.5 -38.5z" />
    <glyph glyph-name="uniA656" unicode="&#xa656;" horiz-adv-x="2816" 
d="M832 0l128 376h-368v-376h-464v2004h464v-1256h494l426 1256h496l680 -2004h-512l-107 376h-618l-107 -376h-512zM1748 1424l-192 -676h408l-192 676h-24z" />
    <glyph glyph-name="uniA655" unicode="&#xa655;" horiz-adv-x="2304" 
d="M1712 0v580h-200q-32 -213 -136 -346.5t-247 -195.5t-293 -62q-128 0 -251.5 44t-224 136.5t-160.5 239t-60 352.5q0 198 60 343t160.5 239t224 140t251.5 46q146 0 286 -62t244 -189.5t141 -324.5h205v548h444v-1488h-444zM836 332q99 0 177.5 98.5t78.5 317.5
q0 216 -78.5 314t-177.5 98t-177.5 -98t-78.5 -314q0 -219 77 -317.5t179 -98.5z" />
    <glyph glyph-name="uniA65C" unicode="&#xa65c;" horiz-adv-x="2816" 
d="M1904 2004l744 -2004h-1912l216 588h-360v-588h-464v2004h464v-1052h494l386 1052h432zM1534 952h312l-156 485zM1346 368h688l-71 220h-546z" />
    <glyph glyph-name="uniA65B" unicode="&#xa65b;" horiz-adv-x="2048" 
d="M127 260q0 282 139.5 418t391.5 163l-379 647h1512l-380 -649q241 -30 374.5 -166t133.5 -413v-260h-444v152h-224v-152h-440v152h-240v-152h-444v260zM885 1212l152 -331l149 331h-301zM803 512q-72 0 -121.5 -18.5t-77.5 -65.5h839q-27 47 -75.5 65.5t-120.5 18.5h-444
z" />
    <glyph glyph-name="uniA65A" unicode="&#xa65a;" horiz-adv-x="2560" 
d="M872 1092h18l-506 912h1808l-506 -912h38q178 0 327 -62.5t239 -204t90 -377.5v-448h-460v212h-388v-212h-456v212h-436v-212h-460v448q0 236 87 377.5t243 204t362 62.5zM1073 1624l217 -435l217 435h-434zM904 716q-99 0 -161 -30.5t-87 -109.5h1249
q-24 79 -85.5 109.5t-163.5 30.5h-752z" />
    <glyph glyph-name="uniA65F" unicode="&#xa65f;" horiz-adv-x="2048" 
d="M148 256q178 170 306 344t219 387t159 501h440l628 -1488h-464l-160 530v-1102h-444v1076q-69 -142 -173.5 -277t-258.5 -255z" />
    <glyph glyph-name="uniA65E" unicode="&#xa65e;" horiz-adv-x="2304" 
d="M108 244q174 156 320 326.5t262.5 376.5t203 465t142.5 592h472l688 -2004h-464l-224 788v-1360h-444v1368q-113 -239 -277 -453.5t-355 -370.5z" />
    <glyph glyph-name="uniA65D" unicode="&#xa65d;" horiz-adv-x="2560" 
d="M1792 1488l608 -1488h-1716l179 436h-259v-436h-444v1488h444v-740h388l304 740h496zM1436 748h213l-107 283zM1274 316h538l-45 120h-448z" />
    <glyph glyph-name="uni1D9A" unicode="&#x1d9a;" 
d="M816 496h-136v264l384 372h-820v356h1352v-296l-460 -429q235 -45 363.5 -180t128.5 -351q0 -192 -97 -327t-266 -206t-385 -71q-108 0 -214 22t-198 69q3 -70 40.5 -106t91 -48.5t104.5 -12.5q30 0 56 2.5t56 5.5v-296q-48 -12 -92 -16t-92 -4q-219 0 -343.5 123.5
t-124.5 360.5v484h444q0 -96 73 -162t199 -66q144 0 224 75.5t80 180.5q0 138 -94 197t-274 59z" />
    <glyph glyph-name="uni1D9C" unicode="&#x1d9c;" horiz-adv-x="1280" 
d="M660 1140q158 0 176 148h292q0 -124 -61 -216.5t-166 -144t-237 -51.5q-170 0 -284 73t-171 199t-57 284v24q0 160 57 286.5t171 200t284 73.5q207 0 335.5 -115t128.5 -325h-292q-9 78 -52.5 127t-127.5 49q-111 0 -153.5 -88t-42.5 -208v-24q0 -120 41.5 -206
t158.5 -86z" />
    <glyph glyph-name="uni1D9B" unicode="&#x1d9b;" horiz-adv-x="1280" 
d="M1184 1456q0 -252 -111 -412t-321 -160q-83 0 -144.5 39.5t-105.5 109.5l-22 -129h-264v724q0 75 -19.5 103.5t-52.5 28.5q-6 0 -11.5 -2t-8.5 -2l-24 248q33 15 62.5 17.5t65.5 2.5q192 0 257 -167q45 77 111.5 122t159.5 45q207 0 317.5 -154t110.5 -394v-20zM520 1628
v-397q47 -83 152 -83q99 0 153.5 89.5t54.5 218.5v20q0 126 -51.5 205t-156.5 79q-106 0 -154 -75q2 -27 2 -57z" />
    <glyph glyph-name="uni006A.ccmp" horiz-adv-x="768" 
d="M452 1488h444v-1508q0 -282 -147 -431t-405 -149q-57 0 -106 4t-106 16l20 352q59 -16 136 -16q164 0 164 224v1508z" />
    <glyph glyph-name="uni1D9D" unicode="&#x1d9d;" horiz-adv-x="1280" 
d="M752 876q-172 0 -293 68l-159 -200l-208 144l195 232q-71 131 -71 312v24q0 160 56 286.5t169 200t283 73.5q207 0 335.5 -115t128.5 -325h-292q-9 78 -52 127t-124 49q-114 0 -157 -88t-43 -208v-24q0 -34 3 -65q86 73 166.5 105t178.5 32q177 0 248.5 -88t71.5 -196
q0 -110 -60 -187t-159 -117t-217 -40zM840 1268q-77 0 -202 -122q54 -34 130 -34q60 0 104 22.5t44 73.5q0 60 -76 60z" />
    <glyph glyph-name="uni1D9F" unicode="&#x1d9f;" horiz-adv-x="1280" 
d="M620 876q-118 0 -230 36t-185 112t-73 196h300q0 -42 49 -71t163 -29q108 0 154 37t46 79q0 66 -57.5 91t-150.5 25h-184v212h184q188 0 188 100q0 39 -41 73.5t-143 34.5q-87 0 -139.5 -24t-52.5 -72h-300q0 108 64.5 184t172 116t235.5 40q225 0 368.5 -82t143.5 -238
q0 -75 -51 -135.5t-141 -96.5q99 -33 155.5 -98t56.5 -158q0 -104 -70.5 -178.5t-191 -114t-270.5 -39.5z" />
    <glyph glyph-name="acutedotcomb.lc" horiz-adv-x="0" 
d="M-971 2449q0 89 60.5 145.5t159.5 56.5t159.5 -56.5t60.5 -145.5q0 -88 -60.5 -144.5t-159.5 -56.5t-159.5 56.5t-60.5 144.5zM-954 1680l271 432h471l-382 -432h-360z" />
    <glyph glyph-name="uni2DE9" unicode="&#x2de9;" horiz-adv-x="0" 
d="M-682 1651v282h-221v-282h-226v759h226v-295h221v295h227v-759h-227z" />
    <glyph glyph-name="tildedieresiscomb.lc" horiz-adv-x="0" 
d="M-1346 2408q0 77 58.5 130t143.5 53t143.5 -53t58.5 -130t-58.5 -130t-143.5 -53t-143.5 53t-58.5 130zM-646 2408q0 77 58.5 130t143.5 53t143.5 -53t58.5 -130t-58.5 -130t-143.5 -53t-143.5 53t-58.5 130zM-513 2122l248 -15q0 -101 -40.5 -186.5t-112 -137.5
t-164.5 -52q-86 0 -144.5 29t-112 58t-124.5 29q-45 0 -76.5 -30.5t-31.5 -93.5l-249 14q0 97 40.5 183t111.5 139t163 53q72 0 133 -28.5t120.5 -57t127.5 -28.5q45 0 78 30.5t33 93.5z" />
    <glyph glyph-name="uni2DE0" unicode="&#x2de0;" horiz-adv-x="0" 
d="M-791 1638q-177 0 -271 113.5t-94 287.5v26q1 283 93 422t249 174q75 17 103.5 33.5t28.5 52.5h181q0 -101 -52.5 -163t-222.5 -95q-161 -30 -195 -206q93 86 222 86q155 0 238 -101.5t83 -255.5v-15q0 -155 -94 -257t-269 -102zM-791 1821q77 0 106.5 51t29.5 125v15
q0 71 -29.5 123.5t-108.5 52.5q-78 0 -107.5 -52.5t-29.5 -123.5v-15q0 -74 29.5 -125t109.5 -51z" />
    <glyph glyph-name="uni2DE1" unicode="&#x2de1;" horiz-adv-x="0" 
d="M-448 1869q0 -109 -82 -163.5t-235 -54.5h-372v759h323q148 0 235 -52t87 -161q0 -112 -141 -157q95 -18 140 -64.5t45 -106.5zM-910 2229v-122h104q88 0 88 56q0 66 -96 66h-96zM-675 1895q0 29 -18.5 47.5t-71.5 18.5h-145v-128h145q90 0 90 62z" />
    <glyph glyph-name="uni2DE2" unicode="&#x2de2;" horiz-adv-x="0" 
d="M-529 2410v-182h-304v-577h-226v759h530z" />
    <glyph glyph-name="uni2DE3" unicode="&#x2de3;" horiz-adv-x="0" 
d="M-1045 2171v239h582v-577h111v-413h-226v231h-423v-231h-231v414h47v0h19q80 85 100 157t21 180zM-820 2171q-4 -110 -25 -193.5t-56 -143.5l212 -1v395h-131v-57z" />
    <glyph glyph-name="uni2DE4" unicode="&#x2de4;" horiz-adv-x="0" 
d="M-906 1651v267h-89l-128 -267h-292l247 404l-224 357h274l142 -272h70v272h225v-272h72l141 272h275l-225 -358l247 -403h-291l-128 267h-91v-267h-225z" />
    <glyph glyph-name="uni2DE5" unicode="&#x2de5;" horiz-adv-x="0" 
d="M-792 1970h-102v138h102q91 0 91 73q0 27 -17.5 50.5t-69.5 23.5q-44 0 -71 -16t-27 -49h-225q0 111 90.5 172t218.5 61q148 0 237 -56.5t89 -163.5q0 -108 -116 -161q129 -46 129 -176q0 -108 -95.5 -168t-243.5 -60q-79 0 -152.5 25t-120.5 78t-47 135h225
q0 -29 26 -50t84 -21q56 0 77.5 26t21.5 56q0 83 -104 83z" />
    <glyph glyph-name="uni2DE6" unicode="&#x2de6;" horiz-adv-x="0" 
d="M-707 1651l-135 264h-75v-264h-226v758h226v-272h69l134 272h289l-230 -357l252 -401h-304z" />
    <glyph glyph-name="uni2DE7" unicode="&#x2de7;" horiz-adv-x="0" 
d="M-1030 2087l14 323h597v-759h-226v577h-152l-7 -179q-8 -187 -80 -292.5t-250 -105.5h-32v183l16 3q62 11 88 60t32 190z" />
    <glyph glyph-name="drthook" unicode="&#x256;" 
d="M1752 -580q-48 -9 -102.5 -14.5t-129.5 -5.5q-90 0 -187 16t-181 65t-136 147.5t-52 263.5v231q-64 -71 -147.5 -111t-188.5 -40q-188 0 -317.5 99.5t-196 276t-66.5 408.5q0 226 67 397t197 267t320 96q107 0 191.5 -42t148.5 -118v756h444v-2112h-8v-108
q0 -74 36.5 -114t91 -55t108.5 -15q27 0 52.5 2.5t55.5 5.5v-296zM492 756q0 -189 53.5 -306.5t194.5 -117.5q138 0 207 94.5t69 253.5v108q0 180 -67 276t-205 96t-195 -115t-57 -289z" />
    <glyph glyph-name="qhook" unicode="&#x2a0;" 
d="M1644 1648q-52 0 -106.5 -15.5t-92 -56t-37.5 -116.5v-2032h-444v699q-63 -73 -148 -114t-196 -41q-188 0 -317.5 99t-196 271t-66.5 390v28q0 226 66.5 396t196 265t317.5 95q111 0 196 -40t148 -112v96q0 166 52 265.5t136 149t181 65.5t187 16q75 0 129.5 -6
t102.5 -18v-296q-54 12 -108 12zM484 732q0 -168 53.5 -284t194.5 -116q88 0 144.5 33t87.5 92v580q-63 123 -232 123q-138 0 -193 -113t-55 -287v-28z" />
    <glyph glyph-name="underscoredbl" unicode="&#x2017;" horiz-adv-x="1280" 
d="M1264 0v-208h-1248v208h1248zM1264 -368v-204h-1248v204h1248z" />
    <glyph glyph-name="uni2151" unicode="&#x2151;" horiz-adv-x="2304" 
d="M776 1992v-1080h-296v732l-248 -48v228l520 168h24zM1660 1716l-976 -1564l-208 108l976 1564zM2236 576q0 -182 -51 -298t-139 -181.5t-202 -91t-240 -25.5h-20v240h16q88 0 157.5 10.5t114 51t58.5 130.5q-89 -68 -194 -68q-165 0 -264.5 87t-99.5 273q0 108 56.5 198
t154 144t221.5 54q114 0 212.5 -42.5t159 -140t60.5 -261.5v-80zM1676 700q0 -136 144 -136q43 0 71.5 13.5t44.5 29.5v113q0 78 -33 109t-99 31q-60 0 -94 -47t-34 -113z" />
    <glyph glyph-name="uni2150" unicode="&#x2150;" horiz-adv-x="2560" 
d="M844 1992v-1080h-296v732l-248 -48v228l520 168h24zM1728 1716l-976 -1564l-208 108l976 1564zM2436 1084v-168l-448 -916h-316l448 844h-572v240h888z" />
    <glyph glyph-name="uni2152" unicode="&#x2152;" horiz-adv-x="3072" 
d="M788 1992v-1080h-296v732l-248 -48v228l520 168h24zM1676 1716l-976 -1564l-208 108l976 1564zM2988 660v-240q0 -222 -119.5 -329t-308.5 -107q-192 0 -314 107t-122 329v240q0 222 121.5 331t310.5 109t310.5 -109t121.5 -331zM1928 1080v-1080h-296v732l-248 -48v228
l520 168h24zM2688 412v256q0 108 -36 150t-96 42t-94 -42t-34 -150v-256q0 -108 34.5 -146t97.5 -38q57 0 92.5 38t35.5 146z" />
    <glyph glyph-name="uni2155" unicode="&#x2155;" horiz-adv-x="2560" 
d="M860 1992v-1080h-296v732l-248 -48v228l520 168h24zM1744 1716l-976 -1564l-208 108l976 1564zM1808 464l-236 60l76 560h700v-232h-456l-28 -172q18 6 68.5 21t107.5 15q183 0 277.5 -90t94.5 -258q0 -96 -46 -184t-141 -144t-241 -56q-110 0 -210 40.5t-163 114
t-63 173.5h304q0 -48 36 -66t96 -18q81 0 104.5 43t23.5 97q0 144 -152 144q-69 0 -103 -18t-49 -30z" />
    <glyph glyph-name="romanone" unicode="&#x2160;" horiz-adv-x="768" 
d="M580 2004v-2004h-464v2004h464z" />
    <glyph glyph-name="uni2157" unicode="&#x2157;" horiz-adv-x="2560" 
d="M684 1368h-124v196h124q72 0 106 30.5t34 81.5q0 33 -29 64.5t-107 31.5q-51 0 -89.5 -18t-38.5 -54h-300q0 106 59 175t155 103t206 34q198 0 321 -79.5t123 -232.5q0 -85 -51 -142.5t-133 -88.5q91 -24 147.5 -83.5t56.5 -169.5q0 -150 -133 -235t-331 -85
q-102 0 -203.5 33.5t-169 110t-67.5 204.5h304q0 -39 40.5 -71.5t115.5 -32.5q78 0 111 35t33 77q0 63 -42.5 89.5t-117.5 26.5zM1896 1716l-976 -1564l-208 108l976 1564zM1964 464l-236 60l76 560h700v-232h-456l-28 -172q18 6 68.5 21t107.5 15q183 0 277.5 -90
t94.5 -258q0 -96 -46 -184t-141 -144t-241 -56q-110 0 -210 40.5t-163 114t-63 173.5h304q0 -48 36 -66t96 -18q81 0 104.5 43t23.5 97q0 144 -152 144q-69 0 -103 -18t-49 -30z" />
    <glyph glyph-name="uni2156" unicode="&#x2156;" horiz-adv-x="2560" 
d="M1108 1152v-240h-860v204l392 348q72 60 106 118.5t34 85.5q0 104 -120 104q-69 0 -102.5 -43t-33.5 -97h-300q0 104 51.5 190.5t146 138t222.5 51.5q207 0 321.5 -88t114.5 -256q0 -126 -75 -213t-237 -207l-124 -96h464zM1912 1716l-976 -1564l-208 108l976 1564z
M1980 464l-236 60l76 560h700v-232h-456l-28 -172q18 6 68.5 21t107.5 15q183 0 277.5 -90t94.5 -258q0 -96 -46 -184t-141 -144t-241 -56q-110 0 -210 40.5t-163 114t-63 173.5h304q0 -48 36 -66t96 -18q81 0 104.5 43t23.5 97q0 144 -152 144q-69 0 -103 -18t-49 -30z" />
    <glyph glyph-name="nrthook" unicode="&#x273;" horiz-adv-x="2048" 
d="M1860 -580q-51 -9 -106 -14.5t-130 -5.5q-90 0 -186.5 16t-179.5 65t-134.5 147.5t-51.5 263.5v404h48v624q0 120 -71 180t-161 60q-129 0 -180.5 -104t-51.5 -260v-796h-444v1488h396l12 -152h16q66 84 173 132t239 48q138 0 255.5 -55t189 -182t71.5 -343v-936h-48
v-108q0 -74 36.5 -114t90 -55t105.5 -15q30 0 56 2.5t56 5.5v-296z" />
    <glyph glyph-name="estimated" unicode="&#x212e;" 
d="M1424 272v-144q-114 -72 -243.5 -114t-264.5 -42q-148 0 -278.5 60.5t-230 166.5t-155.5 246t-56 299t61 299t164 246t231.5 166.5t263.5 60.5q188 0 342.5 -97t246 -265t91.5 -382v-64h-1056v-452q78 -69 174.5 -110.5t201.5 -41.5q129 0 257 40.5t251 127.5zM916 1388
q-102 0 -198.5 -46.5t-177.5 -121.5v-384h744v396q-72 72 -167.5 114t-200.5 42z" />
    <glyph glyph-name="hturn" unicode="&#x265;" 
d="M1560 1488v-2060h-444v731q-71 -88 -168.5 -137.5t-215.5 -49.5q-148 0 -259.5 58t-174 188t-62.5 346v924h444v-928q0 -135 57.5 -181.5t162.5 -46.5q81 0 133 26t83 72v1058h444z" />
    <glyph glyph-name="degreecentigrade" unicode="&#x2103;" horiz-adv-x="2560" 
d="M424 1228q-114 0 -210.5 55.5t-155 150t-58.5 210.5t58.5 213.5t155 156t210.5 58.5t207.5 -58.5t149 -156t55.5 -213.5t-55.5 -210.5t-149 -150t-207.5 -55.5zM2000 680h460q-12 -210 -113.5 -369.5t-281 -249t-425.5 -89.5q-396 0 -620 268.5t-224 763.5q0 326 104 556
t293 351t443 121q258 0 435 -93.5t274 -256t115 -370.5h-456q-15 159 -95 249.5t-245 90.5q-400 0 -400 -648q0 -652 400 -652q165 0 243 84.5t93 243.5zM424 1472q69 0 118.5 48.5t49.5 123.5t-49.5 125.5t-118.5 50.5t-120.5 -50.5t-51.5 -125.5q0 -72 51.5 -122
t120.5 -50z" />
    <glyph glyph-name="dieresisacutecomb.lc" horiz-adv-x="0" 
d="M-997 2120l271 432h472l-383 -432h-360zM-1346 1877q0 77 58.5 130t143.5 53t143.5 -53t58.5 -130t-58.5 -130t-143.5 -53t-143.5 53t-58.5 130zM-646 1877q0 77 58.5 130t143.5 53t143.5 -53t58.5 -130t-58.5 -130t-143.5 -53t-143.5 53t-58.5 130z" />
    <glyph glyph-name="uni2DEF" unicode="&#x2def;" horiz-adv-x="0" 
d="M-905 2419l113 -209l115 209h237l-205 -376l215 -392h-238l-124 227l-124 -227h-238l215 392l-204 376h238z" />
    <glyph glyph-name="uniAB59" unicode="&#xab59;" 
d="M804 -312v-260h-784v260h160l596 1076l-400 724h468l220 -408l224 408h464l-400 -724l420 -764h-468l-240 440l-416 -752h156z" />
    <glyph glyph-name="uniAB58" unicode="&#xab58;" horiz-adv-x="2048" 
d="M992 440l-560 -1012h-468l740 1336l-400 724h468l220 -408l228 408h464l-404 -724l23 -41q62 67 147 106t182 39q124 0 226.5 -60.5t164 -162t61.5 -225.5t-62 -225.5t-168 -162t-238 -60.5q-201 0 -332.5 90.5t-227.5 261.5zM1636 264q60 0 104 39.5t44 120.5
q0 78 -44 119t-104 41q-66 0 -111 -41t-45 -119q0 -81 45 -120.5t111 -39.5z" />
    <glyph glyph-name="uniAB57" unicode="&#xab57;" 
d="M836 1488l220 -408l224 408h464l-400 -724l420 -764h-464l-244 440l-560 -1012h-468l740 1336l-400 724h468z" />
    <glyph glyph-name="uniAB56" unicode="&#xab56;" horiz-adv-x="2048" 
d="M1924 420q0 -124 -61 -225.5t-163 -162t-224 -60.5q-213 0 -348 90.5t-228 261.5l-68 116l-240 -440h-468l420 764l-400 724h468l220 -408l228 408h464l-400 -724l22 -41q61 67 146.5 106t183.5 39q122 0 224 -60.5t163 -162t61 -225.5zM1476 264q63 0 107.5 39.5
t44.5 120.5q0 78 -44.5 119t-107.5 41t-107.5 -41t-44.5 -119q0 -81 44.5 -120.5t107.5 -39.5z" />
    <glyph glyph-name="Gbar" unicode="&#x1e4;" horiz-adv-x="2048" 
d="M1976 452h-256q-76 -240 -281 -360t-467 -120q-264 0 -462 116.5t-308 346t-110 569.5q0 338 109 567t301 345t442 116q270 0 441.5 -87.5t260 -242t110.5 -354.5h-444q-21 150 -101.5 231t-254.5 81q-183 0 -289.5 -156t-106.5 -504q0 -342 107.5 -499t332.5 -157
q168 0 244 108h-260v212h325q3 36 3 76h-364v332h808v-368q0 -20 -1 -40h221v-212z" />
    <glyph glyph-name="uniAB54" unicode="&#xab54;" horiz-adv-x="2048" 
d="M1948 -152q0 -124 -61.5 -225.5t-164 -162t-226.5 -60.5q-255 0 -395.5 133.5t-236.5 394.5l-56 148l-240 -648h-464l416 1056l-396 1004h464l220 -624l224 624h464l-400 -1004l115 -293q58 49 131 77t154 28q124 0 226.5 -60.5t164 -162t61.5 -225.5zM1500 -308
q63 0 107.5 39t44.5 117q0 81 -44.5 122.5t-107.5 41.5q-66 0 -109 -41.5t-43 -122.5q0 -78 43 -117t109 -39z" />
    <glyph glyph-name="uniAB53" unicode="&#xab53;" horiz-adv-x="1536" 
d="M548 1488l220 -624l224 624h464l-400 -1004l420 -1056h-468l-240 648l-240 -648h-464l416 1056l-396 1004h464z" />
    <glyph glyph-name="uniAB52" unicode="&#xab52;" 
d="M288 1516q258 0 403 -149t145 -431v-412q0 -99 51.5 -145.5t144.5 -46.5q94 0 153 32.5t91 88.5v1035h444v-1488h-416l-12 160q-70 -89 -170 -138.5t-230 -49.5q-222 0 -359 129t-137 423v412q0 220 -192 220q-62 0 -128 -12v348q57 15 106 19.5t106 4.5z" />
    <glyph glyph-name="uniAB51" unicode="&#xab51;" horiz-adv-x="2304" 
d="M788 1156q-74 0 -128 -32.5t-88 -88.5v-1035h-444v1488h416l15 -170q73 93 180 145.5t245 52.5q131 0 231 -54t154 -172q71 106 181 166t258 60q140 0 245.5 -55t164 -182t58.5 -343v-936h-444v936q0 138 -51 179t-141 41q-77 0 -131 -35t-86 -95q1 -17 1 -34v-444h-444
v384q0 141 -51 182.5t-141 41.5zM1448 196q0 -99 -68.5 -161.5t-179.5 -62.5q-108 0 -176 62.5t-68 161.5t68 161.5t176 62.5q111 0 179.5 -62.5t68.5 -161.5z" />
    <glyph glyph-name="uniAB50" unicode="&#xab50;" horiz-adv-x="2304" 
d="M908 1292q0 99 68.5 161.5t179.5 62.5q108 0 176 -62.5t68 -161.5t-68 -161.5t-176 -62.5q-111 0 -179.5 62.5t-68.5 161.5zM1812 0l-15 170q-73 -93 -180 -145.5t-245 -52.5q-131 0 -231 54t-154 172q-71 -106 -181 -166t-258 -60q-140 0 -245.5 55t-164 182t-58.5 343
v936h444v-936q0 -138 51 -179t141 -41q77 0 131 35t86 95q-1 17 -1 34v444h444v-384q0 -141 51 -182.5t141 -41.5q74 0 128 32.5t88 88.5v1035h444v-1488h-416z" />
    <glyph glyph-name="carondotcomb.lc" horiz-adv-x="0" 
d="M-1013 2421q0 89 60.5 146t159.5 57t159.5 -57t60.5 -146q0 -87 -60.5 -143.5t-159.5 -56.5t-159.5 56.5t-60.5 143.5zM-994 2113l202 -184l202 184h377v-15l-437 -389h-284l-440 392v12h380z" />
    <glyph glyph-name="uni02E6_uni02E9_uni02E6" 
d="M1596 0h-444v804l-352 -804l-604 1452l332 140l300 -736l324 736v412h444v-2004z" />
    <glyph glyph-name="uniAB5F" unicode="&#xab5f;" horiz-adv-x="1280" 
d="M240 2016q102 0 178.5 -31t119 -115t42.5 -242v-212q0 -147 44 -203.5t128 -56.5q69 0 113 27t67 73v748h308v-1104h-244l-46 170q-50 -86 -128 -134t-182 -48q-171 0 -267.5 99t-96.5 321v284q0 63 -35.5 103.5t-116.5 40.5q-18 0 -39 -2.5t-45 -5.5v272q51 9 103 12.5
t97 3.5z" />
    <glyph glyph-name="uniAB5E" unicode="&#xab5e;" horiz-adv-x="1024" 
d="M687 1668q-26 0 -52 4v-772h-308v833q-32 -34 -32 -89l-172 48q0 94 55.5 165t148.5 75v680h308v-768h12q33 0 56.5 34t23.5 82l176 -52q0 -96 -60 -168t-156 -72z" />
    <glyph glyph-name="uniAB5D" unicode="&#xab5d;" horiz-adv-x="1024" 
d="M708 1384q-34 0 -68 18v-502h-308v946q-14 10 -32 10q-39 0 -59.5 -33.5t-20.5 -90.5q0 -144 80 -144v-196q-93 0 -164.5 85.5t-71.5 250.5q0 171 72 261.5t180 90.5q8 0 16 -1v533h308v-910q45 -98 92 -98q36 0 56 35.5t20 92.5q0 45 -17.5 72.5t-50.5 27.5v232
q111 0 167.5 -93.5t56.5 -258.5q0 -156 -72.5 -242t-183.5 -86z" />
    <glyph glyph-name="uniAB5C" unicode="&#xab5c;" horiz-adv-x="1280" 
d="M1124 856q0 -158 -42.5 -242t-119 -115t-178.5 -31q-48 0 -100 5t-100 11v276q48 -12 80 -12q84 0 118 42t34 102v284h20v312q0 147 -44 203.5t-128 56.5q-66 0 -109 -25.5t-67 -69.5v-753h-308v1712h308v-748q50 71 122.5 111.5t165.5 40.5q174 0 271 -99t97 -321v-696
h-20v-44z" />
    <glyph glyph-name="uniAB5B" unicode="&#xab5b;" horiz-adv-x="1280" 
d="M832 2004h308q0 -189 -134.5 -306.5t-365.5 -117.5q-228 0 -362 117.5t-134 306.5h304q0 -69 43.5 -122.5t148.5 -53.5t148.5 53.5t43.5 122.5zM832 988q0 69 -43.5 122.5t-148.5 53.5t-148.5 -53.5t-43.5 -122.5h-304q0 189 134 306.5t362 117.5q231 0 365.5 -117.5
t134.5 -306.5h-308z" />
    <glyph glyph-name="uniAB5A" unicode="&#xab5a;" horiz-adv-x="1536" 
d="M956 -220q-28 -76 -78.5 -164.5t-147 -152t-262.5 -63.5q-63 0 -97 5t-91 23v328h60q114 0 163 34.5t73 97.5l40 103l-520 1497h476l232 -832l10 -58l166 558h460z" />
    <glyph glyph-name="uni02E7_uni02E6_uni02E6" 
d="M1248 1592v412h444v-2004h-444v1232h-444l-472 -408l-228 256l588 512h556z" />
    <glyph glyph-name="aturn_uni02DE" horiz-adv-x="2304" 
d="M1496 460q0 -138 -79.5 -248.5t-225 -175t-343.5 -64.5q-174 0 -312.5 59.5t-219 178t-80.5 294.5v608q0 147 -15 222.5t-45 129.5v24h444q25 -53 40 -130q56 66 143 112t221 46q140 0 254.5 -57t182 -158t67.5 -233v-3l476 111q22 -144 38.5 -243t51 -150t110.5 -51
q21 0 39.5 0.5t36.5 3.5l60 -288q-48 -27 -106.5 -43.5t-121.5 -16.5q-130 0 -201 54t-109 148t-70 214l-296 -76v56q-79 -98 -228.5 -151t-371.5 -53h-156v-80q0 -93 45 -148.5t147 -55.5q180 0 180 164h444zM924 1184q-94 0 -156.5 -38t-87.5 -85v-233h152q141 0 198.5 66
t57.5 150q0 63 -46 101.5t-118 38.5z" />
    <glyph glyph-name="uni02E9_uni02E5_uni02E5" 
d="M1252 1644h-304l-516 -1644l-332 104l596 1900h1000v-2004h-444v1644z" />
    <glyph glyph-name="uni02E9_uni02E5_uni02E6" 
d="M792 2000l360 -312v316h444v-2004h-444v1232l-184 164l-440 -1396l-332 104z" />
    <glyph glyph-name="uni02E9_uni02E5_uni02E7" 
d="M1584 2004v-2004h-444v824l-228 352l-368 -1176l-332 104l596 1896l332 -520v524h444z" />
    <glyph glyph-name="uni1FFD" unicode="&#x1ffd;" horiz-adv-x="768" 
d="M164 1560v40l152 428h288v-28l-316 -440h-124z" />
    <glyph glyph-name="uni1FFE" unicode="&#x1ffe;" horiz-adv-x="768" 
d="M216 1920v136h232v-128q0 -78 23.5 -137.5t80.5 -98.5l-116 -132q-93 45 -156.5 138t-63.5 222z" />
    <glyph glyph-name="uni02E9_uni02E5_uni02E8" 
d="M1592 2004v-2004h-444v412l-284 644l-332 -1056l-332 104l600 1900l348 -804v804h444z" />
    <glyph glyph-name="uni02E9_uni02E5_uni02E9" 
d="M1584 2004v-2004h-444l-312 908l-284 -908l-332 104l596 1900l332 -972v972h444z" />
    <glyph glyph-name="uni02E6_uni02E9_uni02E8" 
d="M1156 0v316l-360 -316l-604 1452l332 140l412 -1012l220 188v1236h444v-2004h-444z" />
    <glyph glyph-name="oopen" unicode="&#x254;" horiz-adv-x="1536" 
d="M108 532h416q0 -96 59 -148t161 -52q104 0 155.5 53t68 143t16.5 200v32q0 108 -17.5 199t-69 146t-153.5 55q-111 0 -165.5 -70.5t-54.5 -169.5h-416q0 188 80.5 321.5t222 204t325.5 70.5q230 0 384 -100t231 -271t77 -385v-32q0 -216 -77.5 -387t-232 -270t-386.5 -99
q-176 0 -317.5 70t-224 196t-82.5 294z" />
    <glyph glyph-name="Gsmallcaphook" unicode="&#x29b;" horiz-adv-x="2048" 
d="M1632 224q-54 -58 -136.5 -115t-215 -95t-336.5 -38q-220 0 -388.5 83.5t-264 232t-95.5 344.5v224q0 196 92.5 343.5t256 230t375.5 82.5q235 0 392 -71q110 235 416 235q48 0 90 -6t90 -18v-296q-27 3 -52.5 7.5t-55.5 4.5q-50 0 -103.5 -14.5t-91 -52.5t-41.5 -108
q43 -93 56 -213h-440q-21 99 -80.5 139.5t-179.5 40.5q-135 0 -207.5 -84t-72.5 -216v-228q0 -132 77 -218t227 -86q123 0 179.5 11.5t92.5 32.5v148h-284v292h700v-592z" />
    <glyph glyph-name="uni0346" unicode="&#x346;" horiz-adv-x="0" 
d="M-1288 1639v558h991v-558h-276v297h-439v-297h-276z" />
    <glyph glyph-name="anglesupnosp" unicode="&#x31a;" horiz-adv-x="0" 
d="M-1176 2020v261h937v-517h-275v256h-662z" />
    <glyph glyph-name="uniFFFC" unicode="&#xfffc;" horiz-adv-x="3072" 
d="M2276 1840h-380v160h380v-160zM1728 1840h-380v160h380v-160zM1176 1840h-380v160h380v-160zM2716 1840h-272v160h424v-392h-152v232zM360 1608h-156v392h424v-160h-268v-232zM2868 1436v-344h-152v344h152zM360 1436v-344h-156v344h156zM2400 584v520h124v-520
q0 -108 -72.5 -172t-183.5 -64q-120 0 -196 57t-76 171h128q0 -63 39 -93.5t105 -30.5q54 0 93 36t39 96zM1212 800v-156q0 -135 -87 -217.5t-225 -82.5q-144 0 -232 82.5t-88 217.5v156q0 132 87.5 216t228.5 84t228.5 -84t87.5 -216zM1880 560q0 -105 -73 -158.5
t-199 -53.5h-304v752h260q135 0 213.5 -49.5t78.5 -154.5q0 -112 -115 -160q68 -18 103.5 -67t35.5 -109zM1088 644v156q0 93 -52.5 146.5t-139.5 53.5t-139.5 -53.5t-52.5 -146.5v-156q0 -96 53 -150t143 -54q87 0 137.5 54t50.5 150zM1436 988v-208h128q160 0 160 108
q0 57 -39.5 78.5t-120.5 21.5h-128zM2868 920v-348h-152v348h152zM360 920v-348h-156v348h156zM1752 564q0 54 -36 87t-108 33h-172v-232h172q144 0 144 112zM360 400v-344h-156v344h156zM2868 400v-344h-152v344h152zM628 -548h-424v432h156v-276h268v-156zM2868 -548h-424
v156h272v276h152v-432zM1728 -548h-380v156h380v-156zM1176 -548h-380v156h380v-156zM2276 -548h-380v156h380v-156z" />
    <glyph glyph-name="uniFFFD" unicode="&#xfffd;" horiz-adv-x="2816" 
d="M1416 2968v8h4v-8h-4zM92 884l1316 1340l1316 -1340l-1316 -1340zM1244 552h276q0 72 17.5 114t74.5 78q93 51 160.5 140.5t67.5 203.5q0 174 -116 279t-320 105q-174 0 -295.5 -86.5t-124.5 -281.5h280q3 75 44.5 109.5t95.5 34.5q78 0 117 -45.5t39 -114.5
q0 -72 -37 -126t-91 -90q-64 -44 -105.5 -83.5t-62 -94t-20.5 -142.5zM1520 196v232h-276v-232h276zM1416 -764v4h8v-4h-8z" />
    <glyph glyph-name="uni02E7_uni02E9" horiz-adv-x="1280" 
d="M1180 2004v-2004h-444l-632 996l300 184l332 -516v1340h444z" />
    <glyph glyph-name="uni02E7_uni02E8" horiz-adv-x="1280" 
d="M1156 2004v-2004h-444v412l-588 512l228 256l360 -312v1136h444z" />
    <glyph glyph-name="uni02E7_uni02E5" horiz-adv-x="1280" 
d="M1180 0h-444v1340l-332 -516l-300 184l632 996h444v-2004z" />
    <glyph glyph-name="uni02E7_uni02E6" horiz-adv-x="1280" 
d="M1156 0h-444v1136l-360 -312l-228 256l588 512v412h444v-2004z" />
    <glyph glyph-name="tildesubnosp_uni1ABD" horiz-adv-x="0" 
d="M-1418 -677q-96 22 -181 96.5t-85 195.5q0 118 85 193t181 96l29 -108q-58 -25 -103 -64.5t-45 -115.5q0 -81 47.5 -121.5t100.5 -62.5zM-165 -677l-29 109q54 22 101.5 62.5t47.5 121.5q0 79 -45.5 117t-103.5 63l29 108q96 -21 181.5 -95.5t85.5 -193.5
q0 -121 -85.5 -195.5t-181.5 -96.5zM-513 -161l248 -15q0 -100 -40.5 -185.5t-112 -137.5t-164.5 -52q-86 0 -144.5 29t-112 57.5t-124.5 28.5q-45 0 -76.5 -30.5t-31.5 -93.5l-249 14q0 98 40.5 183.5t111.5 138.5t163 53q72 0 133 -28.5t120.5 -57t127.5 -28.5
q45 0 78 30.5t33 93.5z" />
    <glyph glyph-name="ringacute" horiz-adv-x="1024" 
d="M268 2124l280 296h388l-392 -296h-276zM88 1808q0 111 84.5 187.5t207.5 76.5t205.5 -76.5t82.5 -187.5q0 -114 -82.5 -187t-205.5 -73t-207.5 73t-84.5 187zM256 1808q0 -54 35 -89t89 -35t87 35t33 89q0 57 -33 90.5t-87 33.5t-89 -33.5t-35 -90.5z" />
    <glyph glyph-name="ubar" unicode="&#x289;" horiz-adv-x="2048" 
d="M1220 152q-66 -84 -173 -132t-239 -48q-138 0 -243.5 55t-165 182t-59.5 343v100h-252v264h252v572h444v-572h436v572h444v-572h296v-264h-296v-652h-416l-12 152h-16zM784 548q0 -132 57.5 -176t162.5 -44q107 0 158 91.5t57 232.5h-435v-104z" />
    <glyph glyph-name="uni2E3F" unicode="&#x2e3f;" horiz-adv-x="2048" 
d="M1100 552q-26 0 -52 1v-925h-248v958q-165 39 -297.5 122t-209.5 208.5t-77 291.5v32q0 168 77 294t209.5 209.5t297.5 122.5v138h248v-105q26 1 52 1h44v104h248v-121q143 -20 246.5 -69.5t197.5 -141.5l-256 -252q-32 32 -81.5 54t-106.5 37v-570q59 12 110 30t82 41
l228 -268q-73 -52 -175 -97.5t-245 -70.5v-948h-248v924h-44zM1088 1544q-20 0 -40 -1v-634q22 -1 44 -1q24 0 52 1v634q-28 1 -56 1zM656 1208q0 -84 40 -141.5t104 -93.5v503q-64 -37 -104 -95.5t-40 -140.5v-32z" />
    <glyph glyph-name="uni1DD8" unicode="&#x1dd8;" horiz-adv-x="0" 
d="M-402 2085q0 -132 -52 -232.5t-142 -156.5t-202 -56q-174 0 -280 100t-106 243q0 155 92 250.5t260 95.5q105 0 185 -54q-35 115 -117.5 180t-176.5 93l72 170q205 -44 336 -199t131 -390v-44zM-958 1983q0 -69 43 -115t120 -46q80 0 124 75.5t44 187.5v22
q-21 22 -61.5 37.5t-100.5 15.5q-85 0 -127 -47t-42 -130z" />
    <glyph glyph-name="uni1DD9" unicode="&#x1dd9;" horiz-adv-x="0" 
d="M-402 2085q0 -132 -52 -232.5t-142 -156.5t-202 -56q-174 0 -280 100t-106 243q0 155 92 250.5t260 95.5q105 0 185 -54q-17 54 -45 96.5t-63 75.5l-153 -83l-55 82l118 64q-45 23 -96 38l72 170q127 -27 227 -98l139 75l53 -82l-112 -61q75 -78 117.5 -185t42.5 -238
v-44zM-958 1983q0 -69 43 -115t120 -46q80 0 124 75.5t44 187.5v22q-21 22 -61.5 37.5t-100.5 15.5q-85 0 -127 -47t-42 -130z" />
    <glyph glyph-name="uniA73D" unicode="&#xa73d;" horiz-adv-x="2560" 
d="M832 -600q-72 0 -123.5 5t-108.5 23v328h60q63 0 150 9t174 51l16 8l-16 288q-54 -60 -137.5 -100t-206.5 -40q-140 0 -255.5 57t-184 158t-68.5 233q0 231 171 359.5t525 128.5h152v80q0 93 -44.5 148.5t-143.5 55.5q-180 0 -180 -160h-444q0 138 79.5 247.5t225 173
t343.5 63.5q170 0 305 -59t213 -177t78 -296v-664l548 1168h468l-928 -1692q-126 -225 -302.5 -310.5t-365.5 -85.5zM740 304q93 0 156.5 38t87.5 86v232h-152q-141 0 -198.5 -66t-57.5 -150q0 -63 46 -101.5t118 -38.5z" />
    <glyph glyph-name="uniA73E" unicode="&#xa73e;" horiz-adv-x="2048" 
d="M192 692h460q9 -168 89.5 -254t278.5 -86q186 0 277 137.5t91 458.5v108q0 321 -84 458.5t-288 137.5q-174 0 -264.5 -78t-99.5 -246h-456q10 208 111 366.5t281 248t428 89.5q264 0 452 -118t288 -337t100 -521v-108q0 -300 -104 -519t-292 -338t-440 -119
q-258 0 -436 94t-276 257t-116 369zM764 1004q0 87 68.5 145.5t179.5 58.5t177.5 -58.5t66.5 -145.5t-66.5 -145.5t-177.5 -58.5t-179.5 58.5t-68.5 145.5z" />
    <glyph glyph-name="uniA73F" unicode="&#xa73f;" horiz-adv-x="1536" 
d="M108 532h416q0 -96 59 -148t161 -52q104 0 155.5 53t68 143t16.5 200v32q0 108 -17.5 199t-69 146t-153.5 55q-111 0 -165.5 -70.5t-54.5 -169.5h-416q0 188 80.5 321.5t222 204t325.5 70.5q230 0 384 -100t231 -271t77 -385v-32q0 -216 -77.5 -387t-232 -270t-386.5 -99
q-176 0 -317.5 70t-224 196t-82.5 294zM520 732q0 81 54.5 132.5t141.5 51.5q90 0 143 -51.5t53 -132.5q0 -78 -53 -131t-143 -53q-87 0 -141.5 53t-54.5 131z" />
    <glyph glyph-name="uni1DD2" unicode="&#x1dd2;" horiz-adv-x="0" 
d="M-851 1959q-92 0 -173.5 32t-132 102.5t-50.5 184.5q0 158 113 256t283 98q197 0 321 -115.5t124 -327.5q0 -156 -52.5 -262.5t-137 -174.5t-181.5 -108t-187 -63l-84 171q91 31 187.5 78t163 133.5t66.5 233.5q0 143 -59.5 204.5t-141.5 61.5q-80 0 -135.5 -44
t-55.5 -132q0 -97 48 -130.5t111 -33.5q81 0 132 25l35 -136q-35 -24 -81 -38.5t-113 -14.5z" />
    <glyph glyph-name="uni1DD3" unicode="&#x1dd3;" horiz-adv-x="0" 
d="M-1000 1807q95 0 95 100h212q0 -41 23 -70.5t72 -29.5q95 0 95 100h225q0 -135 -90 -202t-230 -67q-63 0 -111.5 17.5t-82.5 47.5q-70 -65 -208 -65q-143 0 -231.5 81.5t-88.5 187.5h225q0 -41 23.5 -70.5t71.5 -29.5z" />
    <glyph glyph-name="uni1DD0" unicode="&#x1dd0;" horiz-adv-x="0" 
d="M-956 -81h245l-122 -321q55 33 94 43.5t80 10.5q51 0 95.5 -23t86 -45.5t84.5 -22.5q36 0 70.5 21.5t51.5 77.5l184 -60q-13 -130 -79.5 -214.5t-196.5 -84.5q-77 0 -144 26t-130 52t-129 26q-50 0 -107 -17.5t-117 -61.5l-171 74z" />
    <glyph glyph-name="uni1DD1" unicode="&#x1dd1;" horiz-adv-x="0" 
d="M-624 1745q71 0 71 87q0 45 -23 74.5t-80 30.5v175q94 0 178.5 -70.5t84.5 -205.5q0 -125 -68 -198t-170 -73q-105 0 -161 57.5t-81 169.5q-19 80 -41.5 101t-48.5 21q-33 0 -53.5 -22t-20.5 -56q0 -84 92 -84v-187q-111 0 -180.5 72.5t-69.5 198.5q0 122 73 189.5
t170 67.5q101 0 156.5 -59.5t80.5 -162.5q19 -78 41.5 -102t49.5 -24z" />
    <glyph glyph-name="circumflexgravecomb" horiz-adv-x="1536" 
d="M364 2276l236 -376h-236l-324 376h324zM1112 2036l388 -300h-300l-200 160l-200 -160h-300l388 300h224z" />
    <glyph glyph-name="uni1DD4" unicode="&#x1dd4;" horiz-adv-x="0" 
d="M-203 1766q-36 -51 -112.5 -92.5t-186.5 -41.5q-113 0 -196 45t-131 118q-27 -55 -85 -106t-164 -51q-108 0 -175.5 62t-67.5 166q0 116 87 182.5t267 66.5h79v40q0 100 -101 100q-89 0 -89 -78h-226q0 106 90 176.5t239 70.5q144 0 228 -72q90 67 221 67
q163 0 252.5 -100t89.5 -272v-96h-474q13 -63 57 -99.5t114 -36.5q51 0 98 18t80 60zM-528 2237q-60 0 -90 -39t-40 -98h253v18q0 119 -123 119zM-1012 1805q58 0 93 29.5t44 64.5q-12 44 -13 91h-77q-71 0 -101 -34t-30 -78q0 -32 23 -52.5t61 -20.5z" />
    <glyph glyph-name="uni1DD5" unicode="&#x1dd5;" horiz-adv-x="0" 
d="M-185 2017q0 -166 -93.5 -275.5t-269.5 -109.5q-108 0 -185.5 43t-121.5 117q-28 -54 -85.5 -104t-162.5 -50q-108 0 -175.5 62t-67.5 166q0 116 87 182.5t268 66.5h78v40q0 100 -100 100q-90 0 -90 -78h-225q0 106 89.5 176.5t238.5 70.5q144 0 228 -72q91 67 223 67
q177 0 270.5 -110.5t93.5 -276.5v-15zM-548 1815q79 0 108.5 58.5t29.5 143.5v15q0 84 -30 144.5t-109 60.5q-77 0 -107.5 -60.5t-30.5 -144.5v-15q0 -85 29.5 -143.5t109.5 -58.5zM-1037 1805q56 0 89 27.5t50 63.5q-11 44 -13 94h-79q-71 0 -101 -34t-30 -78
q0 -32 23.5 -52.5t60.5 -20.5z" />
    <glyph glyph-name="dieresiscaroncomb" horiz-adv-x="0" 
d="M-965 2380l174 -150l175 150h377v-22l-396 -320h-311l-399 323v19h380zM-1277 1836q0 69 53.5 117t139.5 48q88 0 142 -48t54 -117q0 -70 -54 -117.5t-142 -47.5q-86 0 -139.5 47.5t-53.5 117.5zM-697 1836q0 69 53.5 117t141.5 48q87 0 140.5 -48t53.5 -117
q0 -70 -53.5 -117.5t-140.5 -47.5q-88 0 -141.5 47.5t-53.5 117.5z" />
    <glyph glyph-name="eng" unicode="&#x14b;" horiz-adv-x="1536" 
d="M1432 -20q0 -282 -147 -431t-405 -149q-57 0 -106 4t-106 16l20 352q33 -9 62 -12.5t74 -3.5q164 0 164 224v916q0 150 -51 207t-141 57q-81 0 -143.5 -28t-104.5 -77v-1055h-440v1488h412l19 -211q72 112 179.5 175.5t241.5 63.5q140 0 246.5 -61t166 -197t59.5 -362
v-916z" />
    <glyph glyph-name="breveinvsubnosp" unicode="&#x32f;" horiz-adv-x="0" 
d="M-296 -549h-306q0 68 -43 121.5t-148 53.5q-107 0 -150.5 -53.5t-43.5 -121.5h-306q0 187 135 304.5t365 117.5q229 0 363 -117.5t134 -304.5z" />
    <glyph glyph-name="uni02E9_uni02E9_uni02E5" 
d="M1576 2004v-2004h-444v844l-264 -844h-652v360h400l516 1644h444z" />
    <glyph glyph-name="uni02E9_uni02E9_uni02E6" 
d="M1576 2004v-2004h-444v644l-272 -644h-644v360h408l508 1232v412h444z" />
    <glyph glyph-name="uni02E9_uni02E9_uni02E7" 
d="M1576 2004v-2004h-444v516l-328 -516h-588v360h392l524 820v824h444z" />
    <glyph glyph-name="commaturnsupnosp" unicode="&#x312;" horiz-adv-x="0" 
d="M-975 1383v278q0 97 35.5 198.5t93.5 191t123 149.5l211 -110q-45 -83 -74.5 -185t-29.5 -245v-277h-359z" />
    <glyph glyph-name="uniA730" unicode="&#xa730;" horiz-adv-x="1280" 
d="M1100 508h-548v-508h-444v1488h1040v-356h-596v-316h548v-308z" />
    <glyph glyph-name="uniA731" unicode="&#xa731;" horiz-adv-x="1536" 
d="M196 1072q0 112 73.5 212.5t204 164t302.5 63.5q189 0 343 -63.5t241 -192.5l-332 -236q-12 16 -40.5 45.5t-75 54t-112.5 24.5q-81 0 -116.5 -25.5t-35.5 -58.5q0 -57 53 -77.5t143 -50.5l80 -28q210 -72 317 -181.5t107 -286.5q0 -154 -86 -257t-219 -155t-275 -52
q-183 0 -346.5 63t-277.5 225l332 236q16 -22 48.5 -58t86 -65t133.5 -29q69 0 116.5 27t47.5 69q0 57 -67.5 91.5t-196.5 76.5l-72 24q-171 57 -273.5 158.5t-102.5 281.5z" />
    <glyph glyph-name="uniA732" unicode="&#xa732;" horiz-adv-x="3072" 
d="M1408 0l-107 376h-618l-107 -376h-512l680 2004h496l307 -904l305 904h496l680 -2004h-512l-107 376h-617l128 -376h-512zM2088 1424l-192 -676h408l-192 676h-24zM980 1424l-192 -676h408l-192 676h-24z" />
    <glyph glyph-name="uniA733" unicode="&#xa733;" horiz-adv-x="2560" 
d="M1940 0q-26 54 -42 131q-56 -67 -143.5 -113t-222.5 -46q-140 0 -257 59.5t-182 161.5q-55 -87 -150 -154t-259 -67q-140 0 -254.5 57t-182 158t-67.5 233q0 231 170.5 359.5t521.5 128.5h156v80q0 93 -45 148.5t-147 55.5q-180 0 -180 -160h-444q0 138 79.5 247.5
t225 173t343.5 63.5q248 0 409 -112q84 54 193 83t238 29q180 0 320 -59t220 -177t80 -296v-608q0 -144 17 -219.5t47 -132.5v-24h-444zM1472 976v-89q113 21 252 21h152v80q0 93 -44.5 148.5t-155.5 55.5q-96 0 -150 -48t-54 -168zM1636 304q88 0 150 36t90 81v239h-152
q-138 0 -195 -66t-57 -150q0 -63 46 -101.5t118 -38.5zM788 304q91 0 153 38t87 85v233h-152q-141 0 -198.5 -66t-57.5 -150q0 -63 46.5 -101.5t121.5 -38.5z" />
    <glyph glyph-name="uniA734" unicode="&#xa734;" horiz-adv-x="3072" 
d="M68 0l740 2004h432l166 -505q102 257 306 395t476 138q254 0 450 -122t307 -353t111 -557t-110 -556t-305 -351t-449 -121q-236 0 -423.5 104t-300.5 300h-787l-121 -376h-492zM2588 1000q0 330 -104 491t-296 161q-400 0 -400 -652t404 -652q192 0 294 164t102 488z
M800 748h445l-221 695z" />
    <glyph glyph-name="uniA735" unicode="&#xa735;" horiz-adv-x="2560" 
d="M1684 -24q-146 0 -286.5 57t-242.5 180q-64 -101 -193 -171t-314 -70q-140 0 -254.5 57t-182 158t-67.5 233q0 231 170.5 359.5t521.5 128.5h156v80q0 93 -45 148.5t-147 55.5q-180 0 -180 -160h-444q0 138 79.5 247.5t225 173t343.5 63.5q133 0 246.5 -34t195.5 -103
q92 69 200 103t218 34q126 0 248.5 -46t221.5 -140t158.5 -239t59.5 -343q0 -206 -59.5 -352.5t-158.5 -239t-221.5 -136.5t-248.5 -44zM1428 748q0 -219 77 -317.5t179 -98.5q99 0 177.5 98.5t78.5 317.5q0 216 -78.5 314t-177.5 98q-84 0 -155 -70t-93 -223v-63h-6
q-2 -27 -2 -56zM768 304q93 0 153 41t102 128q-24 88 -32 187h-151q-141 0 -198.5 -66t-57.5 -150q0 -63 48.5 -101.5t135.5 -38.5z" />
    <glyph glyph-name="uniA736" unicode="&#xa736;" horiz-adv-x="3072" 
d="M132 0l1032 2004h656v-1308q0 -150 103.5 -237t268.5 -87q162 0 263 87t101 237v1308h464v-1308q0 -234 -104.5 -395.5t-291 -245t-432.5 -83.5q-301 0 -513.5 123t-286.5 357h-533l-215 -452h-512zM1036 824h320v674z" />
    <glyph glyph-name="uniA737" unicode="&#xa737;" horiz-adv-x="2304" 
d="M748 1516q174 0 311.5 -59t217 -177t79.5 -296v-460q0 -99 53 -145.5t143 -46.5q94 0 153 32.5t91 88.5v1035h444v-1488h-416l-12 158q-69 -88 -169 -137t-231 -49q-126 0 -226 40t-166 127q-72 -73 -185 -120t-263 -47q-140 0 -254.5 57t-182 158t-67.5 233
q0 231 170.5 359.5t521.5 128.5h156v80q0 93 -45 148.5t-147 55.5q-180 0 -180 -160h-444q0 138 79.5 247.5t225 173t343.5 63.5zM692 304q152 0 229 121q-5 47 -5 99v136h-152q-141 0 -198.5 -66t-57.5 -150q0 -63 48.5 -101.5t135.5 -38.5z" />
    <glyph glyph-name="uni1DDB" unicode="&#x1ddb;" horiz-adv-x="0" 
d="M-784 1638q-168 0 -274.5 93t-106.5 241v170q0 150 104 242t265 92q158 0 250 -65t109 -207h-227q-10 51 -40 71.5t-92 20.5q-68 0 -105.5 -42t-37.5 -110v-172q0 -68 40 -111t115 -43q63 0 92.5 6t46.5 17v102h-144v148h370v-328q-41 -44 -125 -84.5t-240 -40.5z" />
    <glyph glyph-name="uni1DDC" unicode="&#x1ddc;" horiz-adv-x="0" 
d="M-630 1651l-175 294l-67 -70v-224h-227v1095h227v-594l28 37l184 221h260l-262 -308l292 -451h-260z" />
    <glyph glyph-name="ringrighthalfsubnosp" unicode="&#x339;" horiz-adv-x="0" 
d="M-936 -614v128q57 0 90.5 36t33.5 96t-33.5 96t-90.5 36v132q123 0 205.5 -76.5t82.5 -187.5q0 -114 -82.5 -187t-205.5 -73z" />
    <glyph glyph-name="uni1DDF" unicode="&#x1ddf;" horiz-adv-x="0" 
d="M-798 1913l181 557h283v-819h-226v470l-162 -470h-151l-156 455v-455h-225v819h278z" />
    <glyph glyph-name="uni1DDD" unicode="&#x1ddd;" horiz-adv-x="0" 
d="M-905 2738h226v-1087h-226v1087z" />
    <glyph glyph-name="uni1DDE" unicode="&#x1dde;" horiz-adv-x="0" 
d="M-468 1833v-182h-555v819h225v-637h330z" />
    <glyph glyph-name="romanten" unicode="&#x2169;" 
d="M680 2004l328 -640l9 -18t3 -18h8q0 20 8 36l328 640h524l-564 -996l580 -1008h-532l-336 652q-8 16 -8 36h-8q0 -12 -3 -18l-9 -18l-340 -652h-532l580 1008l-564 996h528z" />
    <glyph glyph-name="degreefarenheit" unicode="&#x2109;" horiz-adv-x="2560" 
d="M512 1228q-114 0 -210.5 55.5t-155 150t-58.5 210.5t58.5 213.5t155 156t210.5 58.5t207.5 -58.5t149 -156t55.5 -213.5t-55.5 -210.5t-149 -150t-207.5 -55.5zM960 0v2004h1368v-384h-904v-412h764v-384h-764v-824h-464zM512 1472q69 0 118.5 48.5t49.5 123.5
t-49.5 125.5t-118.5 50.5t-120.5 -50.5t-51.5 -125.5q0 -72 51.5 -122t120.5 -50z" />
    <glyph glyph-name="uni1D9E" unicode="&#x1d9e;" horiz-adv-x="1280" 
d="M1198 1525q0 -191 -71 -336.5t-195.5 -227t-286.5 -81.5q-169 0 -295 67t-196.5 180t-70.5 251q0 226 134 364t377 138q153 0 268 -78q-24 78 -64 139.5t-92 108.5l-221 -121l-79 120l169 92q-64 34 -138 55l103 249q176 -38 321 -148l210 115l79 -121l-177 -96
q104 -113 164.5 -266.5t60.5 -338.5v-65zM388 1378q0 -101 70 -167t191 -66q116 0 179 109t63 271v34q-31 31 -90 53t-144 22q-124 0 -196.5 -69t-72.5 -187z" />
    <glyph glyph-name="Upsilon2" unicode="&#x1b1;" 
d="M1176 908q0 336 -60 497t-156 215v384h712v-376h-303q141 -122 236 -306.5t95 -413.5v-100q0 -244 -101.5 -432.5t-282 -296t-416.5 -107.5q-238 0 -419 107.5t-283 296t-102 432.5v100q0 229 94.5 414t234.5 306h-301v376h700v-384q-87 -54 -147.5 -216.5t-60.5 -495.5
v-104q0 -225 76 -340.5t208 -115.5q129 0 202.5 115.5t73.5 340.5v104z" />
    <glyph glyph-name="degreekelvin" unicode="&#x212a;" horiz-adv-x="2048" 
d="M1280 0l-430 719l-226 -300v-419h-464v2004h464v-878l168 250l456 628h568l-677 -900l685 -1104h-544z" />
    <glyph glyph-name="uniA64A" unicode="&#xa64a;" horiz-adv-x="2048" 
d="M760 520q0 -78 60 -133t204 -55q147 0 207.5 55t60.5 133q0 72 -58.5 124t-109.5 88l-99 73l-85 -61q-57 -42 -118.5 -95.5t-61.5 -128.5zM1740 468q0 -228 -190 -362t-526 -134q-333 0 -524.5 134t-191.5 362q0 116 52.5 209.5t132 168t159.5 134.5l72 56
q-116 103 -222 244t-178 336l-144 388h488l112 -328q43 -122 105.5 -218.5t139.5 -174.5q76 78 138.5 174.5t104.5 218.5l116 328h484l-140 -388q-72 -194 -178.5 -335t-222.5 -245l77 -60q86 -64 163 -139t125 -166t48 -203z" />
    <glyph glyph-name="uniA64B" unicode="&#xa64b;" horiz-adv-x="2048" 
d="M760 520q0 -78 60 -133t204 -55q147 0 205.5 55t58.5 133q0 39 -19 79t-61 73l-182 149l-190 -153q-76 -64 -76 -148zM1736 468q0 -228 -188 -362t-524 -134q-333 0 -520.5 134t-187.5 362q0 135 58 232.5t154 175.5l218 178q-126 118 -245.5 281t-204.5 389l-144 388
h484l116 -324q54 -156 123 -276t151 -212q81 91 150 211.5t124 276.5l116 324h480l-144 -388q-82 -227 -202 -389.5t-246 -281.5l240 -197q87 -72 139.5 -165.5t52.5 -222.5z" />
    <glyph glyph-name="uniA64C" unicode="&#xa64c;" horiz-adv-x="3328" 
d="M3100 820q0 -242 -113 -434t-315 -303t-468 -111q-152 0 -292 40t-247 122q-107 -82 -247 -122t-290 -40q-268 0 -469.5 111t-314 303t-112.5 434v360q0 244 112.5 436.5t314 304t469.5 111.5v-380q-138 0 -236.5 -62t-151 -168t-52.5 -238v-364q0 -134 52.5 -244
t151 -175t236.5 -65q147 0 227.5 73.5t80.5 202.5v468h460v-468q0 -129 79 -202.5t229 -73.5q136 0 233.5 65t150 175t52.5 244v364q0 132 -52.5 238t-150 168t-233.5 62v380q266 0 468 -111.5t315 -304t113 -436.5v-360z" />
    <glyph glyph-name="uniA64D" unicode="&#xa64d;" horiz-adv-x="2560" 
d="M2424 716q0 -198 -89.5 -367.5t-261 -273t-417.5 -103.5q-224 0 -374 89q-152 -89 -378 -89q-246 0 -416.5 103.5t-259 273t-88.5 367.5v56q0 198 85.5 367.5t250 273t400.5 103.5v-364q-104 0 -168.5 -57.5t-94 -145t-29.5 -177.5v-56q0 -90 31.5 -177.5t102 -145
t186.5 -57.5q90 0 123 36.5t33 99.5v432h444v-432q0 -63 32.5 -99.5t119.5 -36.5q116 0 187.5 57.5t104 145t32.5 177.5v56q0 90 -30.5 177.5t-96 145t-169.5 57.5v364q236 0 401.5 -103.5t252 -273t86.5 -367.5v-56z" />
    <glyph glyph-name="uniA64E" unicode="&#xa64e;" horiz-adv-x="2304" 
d="M116 1644v360h1012v-692h272q242 0 419 -80.5t273 -226t96 -341.5t-96 -345.5t-273 -234t-419 -84.5h-736v1644h-548zM1128 372h272q162 0 245 86.5t83 209.5q0 117 -83 196.5t-245 79.5h-272v-572z" />
    <glyph glyph-name="uniA64F" unicode="&#xa64f;" horiz-adv-x="2048" 
d="M1920 536q0 -237 -179 -386.5t-497 -149.5h-692v1128h-420v360h864v-408h248q318 0 497 -150.5t179 -393.5zM996 356h248q123 0 177.5 52.5t54.5 127.5q0 84 -54.5 136t-177.5 52h-248v-368z" />
    <glyph glyph-name="uni1D8F" unicode="&#x1d8f;" 
d="M1788 -552q-48 -12 -90 -16t-90 -4q-219 0 -343.5 127.5t-124.5 364.5v80h-224q-26 54 -42 131q-56 -67 -143.5 -113t-222.5 -46q-138 0 -252.5 57t-183 158t-68.5 233q0 231 171 359.5t525 128.5h152v80q0 93 -45 148.5t-147 55.5q-84 0 -132 -39.5t-48 -120.5h-440
q0 138 79.5 247.5t224 173t340.5 63.5q176 0 314.5 -59t218 -177t79.5 -296v-608v-16h148v-440q0 -76 37.5 -115.5t92 -54t106.5 -14.5q27 0 54 2.5t54 5.5v-296zM612 304q88 0 150 36t90 81v239h-152q-138 0 -195 -66t-57 -150q0 -63 46 -101.5t118 -38.5z" />
    <glyph glyph-name="uni1D8D" unicode="&#x1d8d;" horiz-adv-x="1536" 
d="M1496 -80q0 -237 -124.5 -364.5t-343.5 -127.5q-48 0 -92 4t-92 16v296q30 -3 56 -5.5t56 -2.5q52 0 106.5 14.5t92 54t37.5 115.5v80h-160l-244 440l-240 -440h-468l420 764l-400 724h468l220 -408l228 408h464l-404 -724l222 -404h198v-440z" />
    <glyph glyph-name="uni1D8E" unicode="&#x1d8e;" horiz-adv-x="1536" 
d="M1428 1228l-662 -868h678v-360h-48v-80q0 -237 -124.5 -364.5t-343.5 -127.5q-48 0 -90 4t-90 16v296q27 -3 52.5 -5.5t55.5 -2.5q52 0 106.5 14.5t92 54t37.5 115.5v80h-904v260l662 868h-634v360h1212v-260z" />
    <glyph glyph-name="uni1D8B" unicode="&#x1d8b;" horiz-adv-x="1536" 
d="M1088 1784q-212 0 -212 -176v-1248h620v-440q0 -237 -124.5 -364.5t-343.5 -127.5q-48 0 -90.5 4t-93.5 16v277q-55 -159 -193.5 -242t-338.5 -83q-57 0 -110.5 8t-101.5 20v340q24 -6 50.5 -9t65.5 -3q102 0 157 46t55 130v1676q0 261 153 396.5t411 135.5q60 0 112 -8
t100 -20v-340q-24 6 -50.5 9t-65.5 3zM876 -68q0 -103 -26 -189q28 -2 53 -4.5t53 -2.5q52 0 106.5 14.5t92 54t37.5 115.5v80h-316v-68z" />
    <glyph glyph-name="uni1D8C" unicode="&#x1d8c;" horiz-adv-x="1536" 
d="M1068 -80v80h-476l-488 1488h464l240 -928v-16h16v16l240 928h464l-370 -1128h210v-440q0 -237 -124 -364.5t-340 -127.5q-51 0 -93.5 4t-90.5 16v296q30 -3 56 -5.5t56 -2.5q52 0 106.5 14.5t92 54t37.5 115.5z" />
    <glyph glyph-name="uni1D8A" unicode="&#x1d8a;" horiz-adv-x="1536" 
d="M1416 -80q0 -237 -124.5 -364.5t-343.5 -127.5q-48 0 -90 4t-90 16v296q30 -3 55.5 -5.5t52.5 -2.5q54 0 108.5 14.5t91 54t36.5 115.5v136q-76 -42 -165 -63t-179 -21q-183 0 -346.5 63t-277.5 225l332 236q16 -22 48.5 -58t86 -65t133.5 -29q69 0 116.5 27t47.5 69
q0 57 -67.5 91.5t-196.5 76.5l-72 24q-171 57 -273.5 158.5t-102.5 281.5q0 112 73.5 212.5t204 164t302.5 63.5q189 0 343 -63.5t241 -192.5l-332 -236q-12 16 -40.5 45.5t-75 54t-112.5 24.5q-81 0 -116.5 -25.5t-35.5 -58.5q0 -57 53 -77.5t143 -50.5l80 -28
q210 -72 317 -181.5t107 -286.5v-4h68v-512z" />
    <glyph glyph-name="uni02AE" unicode="&#x2ae;" 
d="M296 1516q90 0 187 -15.5t181 -64t136 -147.5t52 -265v-392q0 -183 57.5 -241.5t162.5 -58.5q81 0 133 26t83 72v1058h444v-2060h-444v731q-71 -88 -168.5 -137.5t-215.5 -49.5q-222 0 -359 154.5t-137 505.5v392q0 76 -37.5 115.5t-92 54t-106.5 14.5q-27 0 -54 -2.5
t-54 -5.5v296q48 12 102.5 16t129.5 4z" />
    <glyph glyph-name="uni02AB" unicode="&#x2ab;" horiz-adv-x="2048" 
d="M620 2104v-616h1236v-248l-704 -880h720v-360h-1696v2104h444zM620 1132v-829l655 829h-655z" />
    <glyph glyph-name="uni02AC" unicode="&#x2ac;" horiz-adv-x="1536" 
d="M1376 2004l-212 -804h-240l-155 426l-157 -426h-240l-212 804h296l76 -376l124 376h220l129 -371l75 371h296zM1376 804l-212 -804h-240l-154 427l-158 -427h-240l-212 804h296l76 -373l124 373h220l128 -370l76 370h296z" />
    <glyph glyph-name="uni1FCD" unicode="&#x1fcd;" horiz-adv-x="1280" 
d="M1056 1624v-36h-124l-320 440v28h292zM564 2056v-136q0 -129 -64 -222t-160 -138l-116 132q60 39 82 98.5t22 137.5v128h236z" />
    <glyph glyph-name="uni2DE8" unicode="&#x2de8;" horiz-adv-x="0" 
d="M-792 1913l180 497h283v-759h-225v438l-162 -438h-152l-155 420v-420h-226v759h278z" />
    <glyph glyph-name="kappa1" unicode="&#x3f0;" horiz-adv-x="2048" 
d="M1916 -8q-39 -9 -106 -14.5t-118 -5.5q-176 0 -267.5 64.5t-124 176t-32.5 251.5v361l-628 -825h-320l111 151l-3 877q0 96 -58 128t-130 32q-27 0 -53.5 -2.5t-50.5 -5.5l-4 316q42 9 109.5 14.5t118.5 5.5q176 0 267.5 -64.5t124 -175t32.5 -248.5v-400l636 860h352
l-152 -200v-828q0 -96 58.5 -126t133.5 -30q24 0 50.5 0.5t53.5 3.5v-316z" />
    <glyph glyph-name="uni02A9" unicode="&#x2a9;" horiz-adv-x="2560" 
d="M1952 1516q219 0 357.5 -153t138.5 -507v-964q0 -165 -52 -263.5t-136 -147.5t-181 -65t-187 -16q-75 0 -129.5 5.5t-102.5 14.5v296q30 -3 56 -5.5t56 -2.5q52 0 105.5 15t90 55t36.5 114v968q0 180 -57.5 240t-162.5 60q-81 0 -133 -26.5t-83 -73.5v-1060h-444v1168
h-348v-1168h-444v1168h-220v320h220v120q0 261 151 396.5t409 135.5q57 0 111 -8t105 -20v-340q-27 6 -54 9t-66 3q-212 0 -212 -176v-120h792v-156q72 87 169 135.5t215 48.5z" />
    <glyph glyph-name="onethird" unicode="&#x2153;" horiz-adv-x="2304" 
d="M764 1992v-1080h-296v732l-248 -48v228l520 168h24zM1648 1716l-976 -1564l-208 108l976 1564zM1796 456h-124v196h124q72 0 106 30.5t34 81.5q0 33 -29 64.5t-107 31.5q-51 0 -89.5 -18t-38.5 -54h-300q0 106 59 175t155 103t206 34q198 0 321 -79.5t123 -232.5
q0 -85 -51 -142.5t-133 -88.5q91 -24 147.5 -83.5t56.5 -169.5q0 -150 -133 -235t-331 -85q-102 0 -203.5 33.5t-169 110t-67.5 204.5h304q0 -39 40.5 -71.5t115.5 -32.5q78 0 111 35t33 77q0 63 -42.5 89.5t-117.5 26.5z" />
    <glyph glyph-name="uni1D88" unicode="&#x1d88;" 
d="M944 -28q-111 0 -196 41.5t-148 113.5v-703h-444v2064h412l16 -140q64 79 152 123.5t204 44.5q285 0 432.5 -206.5t147.5 -545.5q0 -229 -63 -404h31v-440q0 -237 -124.5 -364.5t-343.5 -127.5q-48 0 -90 4t-90 16v296q30 -3 56 -5.5t56 -2.5q52 0 105.5 14.5t90 54
t36.5 115.5v106q-107 -54 -240 -54zM1080 764q0 171 -57 283.5t-195 112.5q-150 0 -211 -92.5t-61 -275.5v-112q0 -156 61.5 -252t214.5 -96q138 0 193 121.5t55 310.5z" />
    <glyph glyph-name="uni1D89" unicode="&#x1d89;" horiz-adv-x="1280" 
d="M864 -80q0 -237 -124.5 -364.5t-343.5 -127.5q-48 0 -90 4t-90 16v296q27 -3 54 -5.5t54 -2.5q52 0 106.5 14.5t92 54t37.5 115.5v80h-352v1488h444v-192h12q33 78 118.5 147t181.5 69q12 0 34.5 -1t37.5 -7v-428q-15 3 -44.5 3.5t-47.5 0.5q-120 0 -206 -53.5
t-86 -182.5v-484h212v-440z" />
    <glyph glyph-name="uni1D86" unicode="&#x1d86;" horiz-adv-x="2816" 
d="M2596 -80q0 -237 -124.5 -364.5t-343.5 -127.5q-48 0 -92 4t-92 16v296q30 -3 56 -5.5t56 -2.5q52 0 106.5 14.5t92 54t37.5 115.5v80h-368v936q0 138 -55 181t-145 43q-93 0 -154.5 -54.5t-61.5 -177.5v-928h-428v936q0 141 -63.5 182.5t-156.5 41.5q-72 0 -128 -48
t-56 -168v-944h-444v1488h432v-152h12q66 81 162.5 130.5t237.5 49.5q132 0 230 -53t146 -155h16q63 93 174 150.5t258 57.5q138 0 243.5 -55t165 -182t59.5 -343v-576h228v-440z" />
    <glyph glyph-name="uni1D87" unicode="&#x1d87;" 
d="M1672 -80q0 -237 -124.5 -364.5t-343.5 -127.5q-48 0 -90 4t-90 16v296q27 -3 52.5 -5.5t55.5 -2.5q52 0 106.5 14.5t92 54t37.5 115.5v80h-320v920q0 120 -71 180t-161 60q-129 0 -180.5 -104t-51.5 -260v-796h-444v1488h396l12 -152h16q66 84 173 132t239 48
q138 0 255.5 -55t189 -182t71.5 -343v-576h180v-440z" />
    <glyph glyph-name="uni1D84" unicode="&#x1d84;" 
d="M1660 -80q0 -237 -124.5 -364.5t-343.5 -127.5q-48 0 -90 4t-90 16v296q27 -3 54 -5.5t54 -2.5q52 0 106.5 14.5t92 54t37.5 115.5v80h-232l-323 533l-153 -184v-349h-444v2112h444v-1108h20l392 484h532l-521 -628l326 -500h263v-440z" />
    <glyph glyph-name="uni1D85" unicode="&#x1d85;" horiz-adv-x="1024" 
d="M844 -80q0 -237 -124.5 -364.5t-343.5 -127.5q-48 0 -90 4t-90 16v296q27 -3 54 -5.5t54 -2.5q52 0 106.5 14.5t92 54t37.5 115.5v80h-364v2104h444v-1744h224v-440z" />
    <glyph glyph-name="uni1D82" unicode="&#x1d82;" horiz-adv-x="1024" 
d="M900 -80q0 -237 -124.5 -364.5t-343.5 -127.5q-48 0 -90 4t-90 16v296q27 -3 54 -5.5t54 -2.5q52 0 106.5 14.5t92 54t37.5 115.5v80h-372v1168h-216v320h216v120q0 261 153 396.5t411 135.5q57 0 110.5 -8t101.5 -20v-340q-48 12 -116 12q-102 0 -159 -44.5t-57 -131.5
v-120h292v-320h-292v-808h232v-440z" />
    <glyph glyph-name="vturn" unicode="&#x28c;" horiz-adv-x="1536" 
d="M56 0l492 1488h444l488 -1488h-464l-248 956l-248 -956h-464z" />
    <glyph glyph-name="uni1D81" unicode="&#x1d81;" 
d="M1692 -80q0 -237 -124.5 -364.5t-343.5 -127.5q-48 0 -90.5 4t-93.5 16v296q30 -3 56 -5.5t56 -2.5q52 0 106.5 14.5t92 54t37.5 115.5v80h-312l-21 161q-67 -88 -157.5 -138.5t-209.5 -50.5q-188 0 -317.5 99.5t-196 276t-66.5 408.5q0 226 67 397t197 267t320 96
q107 0 191.5 -42t148.5 -118v756h444v-1752h216v-440zM552 756q0 -189 53.5 -306.5t194.5 -117.5q138 0 207 94.5t69 253.5v108q0 180 -67 276t-205 96t-195 -115t-57 -289z" />
    <glyph glyph-name="uniA648" unicode="&#xa648;" 
d="M896 868l-384 -868h-500l587 1156h-311v264h376v584h468v-584h368v-264h-303l583 -1156h-500z" />
    <glyph glyph-name="uniA649" unicode="&#xa649;" horiz-adv-x="1536" 
d="M1048 0l-278 620l-278 -620h-480l480 896h-248v264h300v328h440v-328h308v-264h-248l480 -896h-476z" />
    <glyph glyph-name="uniA640" unicode="&#xa640;" 
d="M120 1628v376h1540v-248l-949 -1384h961v-372v0q-1 -259 -100.5 -391.5t-311.5 -132.5q-112 0 -210.5 30t-186 60t-167.5 30q-84 0 -146 -39t-122 -93l-200 252q105 99 217.5 155.5t238.5 56.5q110 0 197 -30t166 -60t165 -30q66 0 105 48t39 144h-1232v256l954 1372
h-958z" />
    <glyph glyph-name="uniA641" unicode="&#xa641;" horiz-adv-x="1536" 
d="M168 1132v356h1212v-248l-664 -880h680v-360v0q-1 -259 -77.5 -391.5t-258.5 -132.5q-94 0 -183 30t-173 60t-164 30q-60 0 -104 -29.5t-104 -86.5l-188 236q96 102 187.5 157t196.5 55q78 0 154.5 -30t150 -60t143.5 -30q66 0 83 48t17 144h-936v260l665 872h-637z" />
    <glyph glyph-name="uniA642" unicode="&#xa642;" 
d="M120 1628v376h1540v-248l-409 -596h65v-264h-246l-359 -524h961v-372v0q-1 -259 -100.5 -391.5t-311.5 -132.5q-112 0 -210.5 30t-186 60t-167.5 30q-84 0 -146 -39t-122 -93l-200 252q105 99 217.5 155.5t238.5 56.5q110 0 197 -30t166 -60t165 -30q66 0 105 48t39 144
h-1232v256l445 640h-245v264h429l325 468h-958z" />
    <glyph glyph-name="uniA643" unicode="&#xa643;" horiz-adv-x="1536" 
d="M168 1132v356h1212v-248l-278 -368h62v-264h-261l-187 -248h680v-360v0q-1 -259 -77.5 -391.5t-258.5 -132.5q-94 0 -183 30t-173 60t-164 30q-60 0 -104 -29.5t-104 -86.5l-188 236q96 102 187.5 157t196.5 55q78 0 154.5 -30t150 -60t143.5 -30q66 0 83 48t17 144h-936
v260l265 348h-233v264h434l199 260h-637z" />
    <glyph glyph-name="uniA644" unicode="&#xa644;" 
d="M848 -28q-333 0 -532.5 147t-199.5 417q0 252 172 406.5t496 253.5q177 57 276.5 117.5t99.5 150.5q0 81 -74 140.5t-218 59.5q-150 0 -223 -71t-73 -185h-456q0 190 94.5 330t262 217t387.5 77t391.5 -69.5t270 -196t98.5 -298.5q0 -180 -96 -301t-251 -202t-333 -141
q-154 -50 -232 -93t-105 -90t-27 -109q0 -81 64 -138.5t208 -57.5q174 0 271 69t97 243h464q0 -177 -71.5 -305t-191.5 -210t-268 -121.5t-301 -39.5z" />
    <glyph glyph-name="uniA645" unicode="&#xa645;" horiz-adv-x="1536" 
d="M764 -28q-196 0 -340.5 60t-224 164t-79.5 236q0 158 79 252t209 145t284 79q138 24 197 62t59 98q0 66 -51.5 105t-132.5 39q-105 0 -152.5 -48t-47.5 -132h-444q0 142 78.5 251t223 171t342.5 62q192 0 328 -65.5t208 -173t72 -233.5q0 -130 -70.5 -220.5t-190 -148
t-267.5 -87.5q-177 -39 -236.5 -75t-59.5 -93q0 -63 52.5 -101.5t151.5 -38.5q105 0 175 47t73 149h416q0 -118 -74.5 -234t-220 -193t-357.5 -77z" />
    <glyph glyph-name="uniA646" unicode="&#xa646;" horiz-adv-x="1024" 
d="M156 2112h444v-1628q0 -87 34 -117.5t118 -30.5q39 0 65.5 2.5t50.5 5.5v-332q-109 -40 -256 -40q-213 0 -334.5 106.5t-121.5 349.5v1684z" />
    <glyph glyph-name="uniA647" unicode="&#xa647;" horiz-adv-x="1024" 
d="M156 1488h444l-4 -988q0 -90 35.5 -121t116.5 -31q39 0 65.5 2.5t50.5 5.5v-332q-57 -18 -119 -29t-137 -11q-213 0 -332.5 106.5t-119.5 349.5v1048z" />
    <glyph glyph-name="uniAB4D" unicode="&#xab4d;" horiz-adv-x="1024" 
d="M908 1784q-188 0 -188 -176v-1104q0 -258 -151 -395t-409 -137q-60 0 -112.5 8t-103.5 20v344q48 -12 120 -12q102 0 159 44t57 128v1104q0 261 151 396.5t421 135.5q60 0 115.5 -8t112.5 -20l-32 -340q-33 6 -64 9t-76 3z" />
    <glyph glyph-name="uniAB4E" unicode="&#xab4e;" horiz-adv-x="1536" 
d="M1016 0l-12 158q-69 -88 -169 -137t-231 -49q-222 0 -359 129t-137 423v964h440v-964q0 -99 53 -145.5t143 -46.5q94 0 153 32.5t91 88.5v623h444v-1076h-416z" />
    <glyph glyph-name="uniAB4F" unicode="&#xab4f;" 
d="M1124 0l-12 158q-69 -88 -169 -137t-231 -49q-222 0 -359 129t-137 423v200h-136v264h136v500h440v-500h440v88h444v-88h176v-264h-176v-724h-416zM656 524q0 -99 53 -145.5t143 -46.5q94 0 153 32.5t91 88.5v271h-440v-200z" />
    <glyph glyph-name="uniAB4A" unicode="&#xab4a;" 
d="M1210 1079q-56 0 -111 -36t-86 -108v-190h376v-299h-379q-9 -133 -60.5 -240.5t-156.5 -170.5t-277 -63q-238 0 -349.5 108.5t-111.5 282.5t121 278t307 104h88v743h415l13 -174q48 95 113 148t137 53q111 0 178 -89q66 89 158 89q108 0 179 -71v-406q-44 20 -75.5 30.5
t-63.5 10.5q-66 0 -99 -66h-191q-25 32 -52 49t-73 17zM484 250q61 0 74 41t13 113v42h-65q-110 0 -110 -101q0 -47 26 -71t62 -24z" />
    <glyph glyph-name="uniAB4B" unicode="&#xab4b;" 
d="M768 1240q135 0 198.5 68.5t81.5 179.5h460v-980q0 -99 24 -137.5t72 -38.5q9 0 13.5 2t10.5 2l36 -336q-51 -18 -94 -23t-94 -5q-198 0 -313 133t-115 403v540q-80 -80 -186 -124t-234 -44q-222 0 -359 139t-137 469h460q0 -248 176 -248z" />
    <glyph glyph-name="uniAB4C" unicode="&#xab4c;" horiz-adv-x="2304" 
d="M2136 496q0 -144 -71 -263t-190 -190t-263 -71t-263 71t-190 190t-71 263v552q-80 -80 -186 -124t-234 -44q-222 0 -359 139t-137 469h460q0 -248 176 -248q135 0 198.5 68.5t81.5 179.5h460v-472q32 4 64 4q144 0 263 -71t190 -190t71 -263zM1612 308q72 0 124 47.5
t52 140.5t-52 140.5t-124 47.5q-75 0 -127.5 -47.5t-52.5 -140.5t52.5 -140.5t127.5 -47.5z" />
    <glyph glyph-name="uni2DF5" unicode="&#x2df5;" horiz-adv-x="0" 
d="M-602 1651v578h-438q-78 0 -100 -57t-22 -138v-17q0 -85 22 -143.5t102 -58.5q111 0 111 102h212q0 -128 -91.5 -206.5t-226.5 -78.5q-177 0 -265.5 110t-88.5 275v17q0 164 88.5 270t264.5 106h899v-181h-240v-578h-227z" />
    <glyph glyph-name="uni2DF4" unicode="&#x2df4;" horiz-adv-x="0" 
d="M-791 1632q-176 0 -270 109.5t-94 275.5v15q0 166 93.5 276.5t269.5 110.5q177 0 270.5 -110.5t93.5 -276.5v-15q0 -166 -93.5 -275.5t-269.5 -109.5zM-792 2237q-57 0 -88 -35t-43 -89h263q-11 54 -42 89t-90 35zM-791 1815q58 0 88.5 32.5t41.5 84.5h-261
q11 -52 42 -84.5t89 -32.5z" />
    <glyph glyph-name="uni2DF7" unicode="&#x2df7;" horiz-adv-x="0" 
d="M-459 1766q-36 -51 -112.5 -92.5t-186.5 -41.5q-182 0 -284 109.5t-102 259.5v26q0 166 92.5 279t269.5 113q163 0 252.5 -100t89.5 -272v-96h-474q13 -63 57 -99.5t114 -36.5q51 0 98 18t80 60zM-784 2237q-60 0 -90 -39t-40 -98h253v18q0 119 -123 119z" />
    <glyph glyph-name="uni2DF6" unicode="&#x2df6;" horiz-adv-x="0" 
d="M-672 1651q-14 29 -22 71q-31 -35 -80 -59.5t-120 -24.5q-108 0 -175.5 62t-67.5 166q0 116 87 182.5t268 66.5h78v40q0 100 -100 100q-90 0 -90 -78h-225q0 106 89.5 176.5t238.5 70.5q134 0 223 -68t89 -203v-310q0 -73 9 -114t23 -78h-225zM-828 1805q48 0 79.5 20
t44.5 45v120h-77q-71 0 -101 -34t-30 -78q0 -32 23.5 -52.5t60.5 -20.5z" />
    <glyph glyph-name="uni2DF1" unicode="&#x2df1;" horiz-adv-x="0" 
d="M-506 2410v-759h-227v230q-47 -8 -81 -8q-172 0 -269.5 68.5t-97.5 224.5v244h225v-244q0 -69 32.5 -90.5t109.5 -21.5q39 0 81 9v347h227z" />
    <glyph glyph-name="uni2DF0" unicode="&#x2df0;" horiz-adv-x="0" 
d="M-393 1833l-15 -406h-212v224h-571v759h227v-576h223v576h225v-577h123z" />
    <glyph glyph-name="uni2DF3" unicode="&#x2df3;" horiz-adv-x="0" 
d="M-432 1427v224h-947v759h225v-577h187v577h227v-577h187v577h226v-577h122l-15 -406h-212z" />
    <glyph glyph-name="uni2DF2" unicode="&#x2df2;" horiz-adv-x="0" 
d="M-267 2410v-759h-1052v759h226v-577h187v577h227v-577h187v577h225z" />
    <glyph glyph-name="uni2DF9" unicode="&#x2df9;" horiz-adv-x="0" 
d="M-432 1891q0 -117 -94.5 -185t-265.5 -68t-265.5 68t-94.5 185q0 104 65.5 166t153.5 131q-65 61 -126 144t-104 199l-73 198h242l58 -166q28 -79 65 -139t79 -106q42 46 79 106t65 139l58 166h242l-73 -198q-43 -116 -104 -199t-126 -144q88 -69 153.5 -131t65.5 -166z
M-928 1917q0 -39 31 -67.5t105 -28.5t105 28.5t31 67.5t-38.5 74.5t-97.5 80.5q-59 -45 -97.5 -80.5t-38.5 -74.5z" />
    <glyph glyph-name="uni2DF8" unicode="&#x2df8;" horiz-adv-x="0" 
d="M-650 1651l-142 327l-142 -327h-243l218 418h-164v182h215v159h227v-159h220v-182h-164l218 -418h-243z" />
    <glyph glyph-name="uni2159" unicode="&#x2159;" horiz-adv-x="2304" 
d="M776 1992v-1080h-296v732l-248 -48v228l520 168h24zM1660 1716l-976 -1564l-208 108l976 1564zM2224 364q0 -108 -56.5 -194t-155 -136t-224.5 -50q-128 0 -231.5 44.5t-164 143t-60.5 260.5v68q0 174 55.5 292t148.5 188t208.5 101t235.5 31h52v-248h-16
q-87 0 -165 -13.5t-134 -60t-76 -145.5q43 37 101.5 60t133.5 23q165 0 256.5 -99.5t91.5 -264.5zM1632 376q0 -78 35 -113t113 -35q60 0 100 41.5t40 98.5q0 66 -39 93t-105 27q-52 0 -89 -17t-55 -38v-57z" />
    <glyph glyph-name="uni2158" unicode="&#x2158;" horiz-adv-x="2816" 
d="M1236 1128h-112v-216h-300v216h-464l-20 200l484 668h300v-624h112v-244zM2048 1716l-976 -1564l-208 108l976 1564zM624 1372h200v263l-20 -31zM2112 464l-236 60l76 560h700v-232h-456l-28 -172q18 6 68.5 21t107.5 15q183 0 277.5 -90t94.5 -258q0 -96 -46 -184
t-141 -144t-241 -56q-110 0 -210 40.5t-163 114t-63 173.5h304q0 -48 36 -66t96 -18q81 0 104.5 43t23.5 97q0 144 -152 144q-69 0 -103 -18t-49 -30z" />
    <glyph glyph-name="uniA68B" unicode="&#xa68b;" horiz-adv-x="2048" 
d="M1424 996q219 0 357.5 -154.5t138.5 -505.5v-444q0 -165 -52 -263.5t-136 -147.5t-181 -65t-187 -16q-75 0 -129.5 5.5t-102.5 14.5v296q27 -3 54 -5.5t54 -2.5q52 0 106.5 15t92 55t37.5 114v444q0 183 -59 241.5t-161 58.5q-80 0 -132.5 -25.5t-83.5 -71.5v-539h-444
v1132h-464v356h1380v-356h-472v-321q72 87 169 136t215 49z" />
    <glyph glyph-name="uniA68C" unicode="&#xa68c;" 
d="M1728 1628h-608v-1076q0 -88 44 -134.5t108 -64t124 -17.5q36 0 66 3t66 9v-352q-57 -15 -114 -19.5t-114 -4.5q-172 0 -317.5 66.5t-234 196t-88.5 317.5v1076h-592v376h1660v-376z" />
    <glyph glyph-name="uni214F" unicode="&#x214f;" horiz-adv-x="3328" 
d="M3116 332v-360q-270 0 -483 101q-213 -101 -485 -101q-270 0 -483 101q-213 -101 -485 -101q-270 0 -483 101q-213 -101 -485 -101v360q93 0 168 8q-62 91 -95 200.5t-33 235.5q0 201 99 328.5t345 127.5t345 -127.5t99 -328.5q0 -126 -33 -235.5t-94 -200.5
q74 -8 167 -8t168 8q-62 91 -95 200.5t-33 235.5q0 201 99 328.5t345 127.5t345 -127.5t99 -328.5q0 -126 -33 -235.5t-94 -200.5q74 -8 167 -8t168 8q-62 91 -95 200.5t-33 235.5q0 201 99 328.5t345 127.5t345 -127.5t99 -328.5q0 -126 -33 -235.5t-94 -200.5
q74 -8 167 -8zM2576 768q0 -86 11.5 -156t45.5 -123q35 53 47 123t12 156q0 48 -13.5 78t-46.5 30t-44.5 -30t-11.5 -78zM1608 768q0 -86 11.5 -156t45.5 -123q35 53 47 123t12 156q0 48 -13.5 78t-46.5 30t-44.5 -30t-11.5 -78zM640 768q0 -86 11.5 -156t45.5 -123
q35 53 47 123t12 156q0 48 -13.5 78t-46.5 30t-44.5 -30t-11.5 -78z" />
    <glyph glyph-name="uni214D" unicode="&#x214d;" horiz-adv-x="2816" 
d="M88 1100l448 1200h248l444 -1200h-268l-80 236h-445l-79 -236h-268zM506 1548h302l-152 448zM2084 1716l-976 -1564l-208 108l976 1564zM2456 316q0 69 -42.5 103t-153.5 73q-132 40 -233 88t-158 121t-57 187q0 156 129.5 250t330.5 94q204 0 330 -104.5t126 -275.5
h-272q0 72 -46 120t-142 48q-93 0 -138.5 -39t-45.5 -93q0 -57 55 -90t181 -78q192 -57 300 -145t108 -259q0 -165 -122 -254.5t-326 -89.5q-124 0 -239.5 43t-190 134t-74.5 235h272q0 -111 60.5 -153.5t171.5 -42.5q96 0 136 37t40 91z" />
    <glyph glyph-name="OEsmallcap" unicode="&#x276;" horiz-adv-x="2304" 
d="M2184 356v-356h-824q-140 0 -224.5 -7t-150 -14t-149.5 -7q-230 0 -390 99t-243 270t-83 387v32q0 216 83 387t242 270t387 99q86 0 153.5 -7t152 -14t222.5 -7h824v-356h-676v-208h556v-356h-556v-212h676zM564 728q0 -168 58 -282t214 -114q54 0 107 4.5t121 9.5v798
q-67 6 -121 11t-111 5q-100 0 -158.5 -55t-84 -146t-25.5 -199v-32z" />
    <glyph glyph-name="tackupsubnosp" unicode="&#x31d;" horiz-adv-x="0" 
d="M-393 -412v-264h-688v264h204v340h280v-340h204z" />
    <glyph glyph-name="uni2DFE" unicode="&#x2dfe;" horiz-adv-x="0" 
d="M-1249 1785q0 143 70 212.5t196 83.5l-194 329h770l-194 -329q125 -14 195 -83.5t70 -212.5v-134h-225v134q0 74 -29.5 103t-87.5 29h-3v-266h-227v266q-58 0 -86.5 -29t-28.5 -103v-134h-226v134zM-862 2250l70 -157l70 157h-140z" />
    <glyph glyph-name="uni2DFD" unicode="&#x2dfd;" horiz-adv-x="0" 
d="M-1191 1651l279 759h241l278 -759h-230l-61 185h-48v-185h-132v185h-36l-60 -185h-231zM-815 2097l-40 -122h126l-40 122l-23 102z" />
    <glyph glyph-name="uni2DFF" unicode="&#x2dff;" horiz-adv-x="0" 
d="M-1426 2410v-325h440l-191 325h770l-194 -329q125 -14 195 -83.5t70 -212.5v-134h-225v134q0 74 -29.5 103t-87.5 29h-3v-266h-227v266q-58 0 -86.5 -29t-28.5 -103v-134h-226v134q0 76 21 132h-198v-266h-225v759h225zM-862 2250l70 -157l70 157h-140z" />
    <glyph glyph-name="uni2DFA" unicode="&#x2dfa;" horiz-adv-x="0" 
d="M-403 1933q0 -125 -90.5 -203.5t-251.5 -78.5h-355v758h-102v133h102v204h227v-204h163v-133h-163v-194h128q161 0 251.5 -78t90.5 -204zM-873 1832h128q61 0 89 30t28 73q0 42 -28 70.5t-89 28.5h-128v-202z" />
    <glyph glyph-name="uni2DFC" unicode="&#x2dfc;" horiz-adv-x="0" 
d="M-397 1651q-14 29 -22 71q-31 -35 -80 -59.5t-120 -24.5q-96 0 -161 49.5t-79 135.5h-152v-172h-225v759h225v-405h192q82 110 312 110h78v40q0 100 -100 100q-90 0 -90 -78h-225q0 106 89.5 176.5t238.5 70.5q134 0 223 -68t89 -203v-310q0 -73 9 -114t23 -78h-225z
M-553 1805q48 0 79.5 20t44.5 45v120h-77q-71 0 -101 -34t-30 -78q0 -32 23.5 -52.5t60.5 -20.5z" />
    <glyph glyph-name="uni2DFB" unicode="&#x2dfb;" horiz-adv-x="0" 
d="M-153 2017q0 -166 -93.5 -275.5t-269.5 -109.5q-153 0 -244.5 84t-112.5 217h-165v-282h-226v759h226v-295h164q22 134 113 219t244 85q177 0 270.5 -110.5t93.5 -276.5v-15zM-516 1815q79 0 108.5 58.5t29.5 143.5v15q0 84 -30 144.5t-109 60.5q-77 0 -107.5 -60.5
t-30.5 -144.5v-15q0 -85 29.5 -143.5t109.5 -58.5z" />
    <glyph glyph-name="uniAB48" unicode="&#xab48;" horiz-adv-x="1536" 
d="M812 1080q-55 0 -109.5 -33.5t-86.5 -102.5v-944h-444v1488h416l13 -171q48 94 112 146.5t135 52.5q115 0 180 -88q65 88 160 88q110 0 176 -72v-404q-42 18 -74 29t-62 11q-36 0 -59 -14.5t-41 -53.5h-192q-24 33 -51.5 50.5t-72.5 17.5z" />
    <glyph glyph-name="uniAB49" unicode="&#xab49;" horiz-adv-x="1536" 
d="M1312 1080q-221 0 -284 -138v-198h376v-296h-379q-9 -133 -60.5 -241t-157.5 -171.5t-279 -63.5q-237 0 -348.5 109t-111.5 283t121 277t307 103h88v744h416l14 -185q55 100 137.5 156.5t188.5 56.5q33 0 68.5 -3.5t59.5 -12.5l-8 -432q-27 3 -72.5 7.5t-75.5 4.5z
M496 252q63 0 75.5 40t12.5 112v44h-64q-51 0 -81.5 -23.5t-30.5 -80.5q0 -45 26 -68.5t62 -23.5z" />
    <glyph glyph-name="uniAB44" unicode="&#xab44;" horiz-adv-x="2560" 
d="M1640 -24q-63 0 -125 10l-63 -158h-312l88 219q-70 -35 -152 -55t-176 -20q-232 0 -391.5 99t-242 270t-82.5 387v32q0 216 82.5 387t242 270t391.5 99v-356q-104 0 -163.5 -55t-84 -146t-24.5 -199v-32q0 -168 59.5 -282t212.5 -114q32 0 62.5 8t57.5 21q-36 78 -56 175
t-20 212q0 198 60 343t160.5 239t224 140t251.5 46q86 0 170 -21l106 265h308l-157 -392q115 -93 188 -247t73 -373q0 -206 -59.5 -352.5t-158.5 -239t-221.5 -136.5t-248.5 -44zM1384 748q0 -134 33 -230l257 639q-17 3 -34 3q-99 0 -177.5 -98t-78.5 -314zM1896 748
q0 85 -14 155l-228 -571q95 7 168.5 106t73.5 310z" />
    <glyph glyph-name="uniAB45" unicode="&#xab45;" 
d="M628 28v-28h-444v28q0 270 126 468t366 264v728h440v-728q242 -65 369 -263t127 -469v-28h-444v28q0 110 -24.5 201t-84 145t-163.5 54q-102 0 -160.5 -54t-83 -145t-24.5 -201z" />
    <glyph glyph-name="uniAB46" unicode="&#xab46;" 
d="M1576 -556v-16h-456q-12 18 -17 68t-6 100t-1 68v592q0 208 -244 208h-192v-464h-444v1488h656q300 0 480 -115.5t180 -352.5q0 -176 -61 -262.5t-164 -140.5q130 -51 181.5 -145.5t51.5 -215.5v-592q0 -8 2.5 -54t10 -96t23.5 -70zM660 1132v-340h212q216 0 216 172
q0 87 -57 127.5t-159 40.5h-212z" />
    <glyph glyph-name="uniAB47" unicode="&#xab47;" horiz-adv-x="1024" 
d="M824 1072q-133 -25 -180 -129v-943h-444v1488h416l14 -186q75 137 194 186v-416z" />
    <glyph glyph-name="uniAB40" unicode="&#xab40;" horiz-adv-x="2560" 
d="M2468 700q0 -333 -175 -530.5t-493 -197.5q-157 0 -280.5 49t-211.5 137q-90 -88 -215.5 -137t-284.5 -49q-232 0 -391.5 99t-242 270t-82.5 387v32q0 216 82 387t241 270t389 99q163 0 291 -51t218 -141q96 89 231 140.5t304 51.5q216 0 365.5 -82t218.5 -178l-208 -252
q-66 84 -157.5 120t-190.5 36q-133 0 -220.5 -72.5t-113.5 -195.5h926v-192zM536 760v-32q0 -168 58 -282t214 -114q153 0 210.5 114t57.5 282v32q0 108 -24.5 199t-84 146t-163.5 55q-102 0 -160.5 -55t-83 -146t-24.5 -199zM2036 600h-494q18 -116 76.5 -192t177.5 -76
q120 0 180 60.5t60 171.5v36z" />
    <glyph glyph-name="uniAB41" unicode="&#xab41;" horiz-adv-x="2560" 
d="M1724 -24q-75 0 -144 12l-64 -160h-308l108 269q-45 32 -83 72q-83 -92 -199.5 -143t-265.5 -50q-306 0 -473 181.5t-167 490.5v244h871q-23 112 -102 190t-221 78q-147 0 -232.5 -26.5t-175.5 -65.5l-112 284q87 66 237.5 117t342.5 51q154 0 278.5 -53t212.5 -145
q87 93 210.5 145.5t282.5 52.5q85 0 162 -14l102 254h308l-146 -362q143 -100 216.5 -265t73.5 -369v-32q0 -216 -82 -387t-241 -270t-389 -99zM1452 732q0 -60 7 -116t24 -104l260 647q-11 1 -23 1q-153 0 -210.5 -114t-57.5 -282v-32zM1992 764q0 53 -5 102.5t-17 91.5
l-252 -626h6q102 0 160.5 55t83 146t24.5 199v32zM768 332q107 0 160.5 77.5t70.5 194.5h-439v-36q0 -111 48.5 -173.5t159.5 -62.5z" />
    <glyph glyph-name="glottalstopbarinv" unicode="&#x1be;" horiz-adv-x="1536" 
d="M1416 432q0 -132 -78.5 -236t-222 -164t-339.5 -60q-214 0 -360 77t-221 193t-75 234h416q6 -111 82 -153.5t166 -42.5q93 0 148.5 35.5t55.5 104.5q0 65 -51 106t-126 82t-150 102t-126 162.5t-51 267.5v28h-196v320h196v372h444v-372h248v-320h-248v-36q0 -99 35 -159
t91 -98t118 -70.5t118 -75.5t91 -113t35 -184z" />
    <glyph glyph-name="uniAB43" unicode="&#xab43;" horiz-adv-x="2560" 
d="M1640 -24q-94 0 -188 23.5t-177 73.5q-78 -47 -171.5 -74t-203.5 -27q-232 0 -391.5 99t-242 270t-82.5 387v32q0 216 82.5 387t242 270t391.5 99v-356q-104 0 -163.5 -55t-84 -146t-24.5 -199v-32q0 -168 59.5 -282t212.5 -114q32 0 62.5 8t57.5 21q-36 78 -56 175
t-20 212q0 198 60 343t160.5 239t224 140t251.5 46q126 0 248.5 -46t221.5 -140t158.5 -239t59.5 -343q0 -206 -59.5 -352.5t-158.5 -239t-221.5 -136.5t-248.5 -44zM1640 332q99 0 177.5 98.5t78.5 317.5q0 216 -78.5 314t-177.5 98t-177.5 -98t-78.5 -314
q0 -219 77 -317.5t179 -98.5z" />
    <glyph glyph-name="seagullsubnosp" unicode="&#x33c;" horiz-adv-x="0" 
d="M-557 -340q-69 0 -110 -41t-41 -109h-161q0 68 -43 109t-115 41q-69 0 -112.5 -41t-43.5 -109h-156q0 148 87.5 248t224.5 100q71 0 132 -29.5t105 -81.5q42 52 101.5 81.5t131.5 29.5q135 0 227 -100t92 -248h-161q0 68 -43 109t-115 41z" />
    <glyph glyph-name="uni02EC" unicode="&#x2ec;" horiz-adv-x="1536" 
d="M568 -184l200 -184l204 184h376v-12l-436 -392h-284l-440 392v12h380z" />
    <glyph glyph-name="afii300" unicode="&#x200f;" horiz-adv-x="0" 
d="M-822 2133l-182 -222h612v-2186h-316v1898h-296l182 -222h-336l-269 366l269 366h336z" />
    <glyph glyph-name="caronnosp" horiz-adv-x="0" 
d="M-967 2101l175 -187l175 187h376v-22l-396 -357h-310l-399 360v19h379z" />
    <glyph glyph-name="uni02E7_uni02E9_uni02E8" 
d="M1616 2004v-2004h-444v316l-364 -316l-632 996l304 184l416 -652l276 240v1236h444z" />
    </font>
</defs>
</svg>
