<?xml version="1.0" standalone="no"?>
<!DOCTYPE svg PUBLIC "-//W3C//DTD SVG 1.1//EN" "http://www.w3.org/Graphics/SVG/1.1/DTD/svg11.dtd" >
<svg xmlns="http://www.w3.org/2000/svg" xmlns:xlink="http://www.w3.org/1999/xlink" version="1.1">
<metadata>
Created by FontForge 20170731 at Wed Aug 23 02:39:35 2017
 By DOTA
Copyright 2017 The Interface project authors
</metadata>
<defs>
<font id="Interface-Medium" horiz-adv-x="0" >
  <font-face 
    font-family="Interface"
    font-weight="500"
    font-stretch="normal"
    units-per-em="2816"
    panose-1="2 0 0 0 0 0 0 0 0 0"
    ascent="2252"
    descent="-564"
    x-height="1496"
    cap-height="2004"
    bbox="-2554 -764 5507 2976"
    underline-thickness="128"
    underline-position="-320"
    unicode-range="U+0002-1F16B"
  />
<missing-glyph horiz-adv-x="2795" 
d="M246 2176v512h2304v-512h-2304zM246 1472v512h2304v-512h-2304zM246 768v512h2304v-512h-2304zM246 64v512h2304v-512h-2304zM246 -640v512h2304v-512h-2304z" />
    <glyph glyph-name="longst" unicode="&#x17f;t" horiz-adv-x="1861" 
d="M1799 7q-40 -13 -78.5 -19t-110.5 -6q-108 0 -206.5 43t-161 134t-62.5 235v870h-229v255h229v192h-37v118q-34 17 -105.5 30t-138.5 13q-109 0 -166.5 -63.5t-57.5 -179.5v-1629h-332v1243h-227v245h227v141q0 249 135.5 380t372.5 131q157 0 325 -41.5t302 -101.5v-134
h11v-344h300v-255h-300v-809q0 -93 32 -135t80.5 -53.5t96.5 -11.5q32 0 52.5 2.5t48.5 5.5v-256z" />
    <glyph glyph-name=".notdef" horiz-adv-x="2795" 
d="M246 2176v512h2304v-512h-2304zM246 1472v512h2304v-512h-2304zM246 768v512h2304v-512h-2304zM246 64v512h2304v-512h-2304zM246 -640v512h2304v-512h-2304z" />
    <glyph glyph-name=".null" 
 />
    <glyph glyph-name="space" unicode=" " horiz-adv-x="768" 
 />
    <glyph glyph-name="A" unicode="A" horiz-adv-x="1882" 
d="M1456 0l-154 488h-721l-155 -488h-351l696 2033h340l695 -2033h-350zM929 1583l-261 -822h547l-260 822h-26z" />
    <glyph glyph-name="Lambda" unicode="&#x39b;" horiz-adv-x="1882" 
d="M426 0h-351l696 2033h340l695 -2033h-350l-501 1583h-26z" />
    <glyph glyph-name="B" unicode="B" horiz-adv-x="1792" 
d="M1647 584q0 -286 -192.5 -435t-516.5 -149h-736v2033h686q218 0 373 -71.5t237.5 -195.5t82.5 -284q0 -143 -75.5 -264.5t-219.5 -186.5q178 -41 269.5 -164t91.5 -283zM524 1758v-606h22l392 2q143 14 232 100t89 208q0 115 -92 205.5t-279 90.5h-364zM1329 587
q0 152 -100 232t-277 80h-428v-626h414q170 0 280.5 81t110.5 233z" />
    <glyph glyph-name="C" unicode="C" horiz-adv-x="1915" 
d="M1430 581h341q-23 -172 -120.5 -310t-264.5 -218.5t-396 -80.5q-246 0 -431 129t-287.5 364t-102.5 552q0 313 98.5 548t282 365.5t438.5 130.5q240 0 406 -81.5t261 -220.5t121 -312h-344q-23 148 -130.5 241.5t-303.5 93.5q-160 0 -274 -96t-174.5 -268t-60.5 -401
q0 -219 60 -390.5t173.5 -270t275.5 -98.5q204 0 305 95t127 228z" />
    <glyph glyph-name="D" unicode="D" horiz-adv-x="1899" 
d="M190 0v2033h630q270 0 484.5 -124.5t338.5 -351.5t124 -532q0 -324 -124.5 -553.5t-342.5 -350.5t-498 -121h-612zM801 1750h-287v-1474h270q297 0 475.5 192t178.5 557q0 221 -80.5 383.5t-224 252t-332.5 89.5z" />
    <glyph glyph-name="E" unicode="E" horiz-adv-x="1656" 
d="M201 0v2033h1282v-278h-959v-594h842v-277h-842v-607h969v-277h-1292z" />
    <glyph glyph-name="F" unicode="F" horiz-adv-x="1641" 
d="M201 0v2033h1277v-278h-954v-594h819v-277h-819v-884h-323z" />
    <glyph glyph-name="G" unicode="G" horiz-adv-x="1993" 
d="M1826 1036v-275q0 -235 -97.5 -412.5t-281.5 -277t-444 -99.5q-234 0 -424.5 119t-303.5 352t-113 574q0 343 109.5 575.5t299 350.5t430.5 118q244 0 417 -85t273 -231.5t125 -331.5h-333q-21 97 -80.5 182t-157.5 137.5t-235 52.5q-233 0 -380.5 -195t-147.5 -574
q0 -279 79.5 -447.5t204.5 -243.5t262 -75q230 0 353 138.5t123 387.5h-442v260h764z" />
    <glyph glyph-name="H" unicode="H" horiz-adv-x="2016" 
d="M1492 0v884h-968v-884h-323v2033h323v-872h968v872h323v-2033h-323z" />
    <glyph glyph-name="Hcedilla" unicode="&#x1e28;" horiz-adv-x="2027" 
d="M713 -308q0 -137 -113.5 -223t-334.5 -86l-10 191q80 0 133.5 27.5t53.5 92.5q0 64 -48.5 87t-157.5 31l43 188h-85v2033h323v-872h968v872h323v-2033h-323v884h-968v-878h5l-16 -78q77 -12 142 -65.5t65 -170.5z" />
    <glyph glyph-name="Hbar" unicode="&#x126;" horiz-adv-x="2027" 
d="M1503 0v884h-968v-884h-323v1426h-149v222h149v385h323v-385h968v385h323v-385h172v-222h-172v-1426h-323zM535 1161h968v265h-968v-265z" />
    <glyph glyph-name="Enhookcyrillic" unicode="&#x4c7;" horiz-adv-x="2027" 
d="M228 2004h346v-878h879v878h348v-2084q0 -251 -131.5 -385.5t-363.5 -134.5q-47 0 -88.5 4t-89.5 16l20 277q26 -9 67 -14t70 -5q80 0 124 63t44 179v929h-879v-849h-346v2004z" />
    <glyph glyph-name="Endescendercyrillic" unicode="&#x4a2;" horiz-adv-x="2283" 
d="M2055 251v-746h-335v495h-235v884h-968v-884h-323v2033h323v-872h968v872h323v-1782h247z" />
    <glyph glyph-name="uni04C9" unicode="&#x4c9;" horiz-adv-x="2283" 
d="M1458 0v884h-968v-884h-323v2033h323v-872h968v872h323v-2033h-323zM2104 206v-224q-2 -145 -61 -282t-151 -249l-209 65q49 110 89 216t40 237v237h292z" />
    <glyph glyph-name="Enghecyrillic" unicode="&#x4a4;" horiz-adv-x="2795" 
d="M1448 0v884h-967v-884h-324v2033h324v-872h967v872h324v-29h833v-269h-833v-1735h-324z" />
    <glyph glyph-name="I" unicode="I" horiz-adv-x="747" 
d="M522 2033v-2033h-323v2033h323z" />
    <glyph glyph-name="Idieresisacute" unicode="&#x1e2e;" horiz-adv-x="1024" 
d="M401 2434l175 292h268l-250 -292h-193zM31 2318q0 67 44.5 112.5t125.5 45.5q82 0 127 -45.5t45 -112.5q0 -64 -45 -109t-127 -45q-81 0 -125.5 45t-44.5 109zM652 2317q0 66 45 111.5t127 45.5q81 0 126 -45.5t45 -111.5q0 -65 -45 -110t-126 -45q-82 0 -127 45t-45 110
zM651 2033v-2033h-323v2033h323z" />
    <glyph glyph-name="Itildebelow" unicode="&#x1e2c;" horiz-adv-x="1101" 
d="M708 2033v-2033h-323v2033h323zM844 -142l204 -16q0 -154 -88 -253.5t-220 -99.5q-90 0 -144 31t-103 62t-123 31q-52 0 -87.5 -39.5t-35.5 -102.5l-208 9q0 152 88 255t220 103q75 0 132 -30.5t112.5 -61t125.5 -30.5q53 0 90 39.5t37 102.5z" />
    <glyph glyph-name="J" unicode="J" horiz-adv-x="1453" 
d="M961 599v1434h322v-1434q0 -199 -80 -339t-222.5 -214t-329.5 -74q-175 0 -315.5 66.5t-223.5 194t-83 311.5h319q0 -152 90.5 -225.5t222.5 -73.5q77 0 145.5 33.5t111.5 111t43 209.5z" />
    <glyph glyph-name="K" unicode="K" horiz-adv-x="1754" 
d="M1264 0l-517 836l-223 -293v-543h-323v2033h323v-963l72 75l669 888h392l-712 -936l701 -1097h-382z" />
    <glyph glyph-name="Kabashkircyrillic" unicode="&#x4a0;" horiz-adv-x="2539" 
d="M1839 0l-516 837l-223 -293v-544h-324v1735h-637v269h637v29h324v-963l72 75l669 888h391l-711 -935l701 -1098h-383z" />
    <glyph glyph-name="Kadescendercyrillic" unicode="&#x49a;" horiz-adv-x="2117" 
d="M1919 251v-746h-335v495h-336l-517 836l-223 -293v-543h-323v2033h323v-963l72 75l669 888h392l-712 -936l655 -1025v179h335z" />
    <glyph glyph-name="L" unicode="L" horiz-adv-x="1536" 
d="M1412 277v-277h-1211v2033h323v-1756h888z" />
    <glyph glyph-name="Lslash" unicode="&#x141;" horiz-adv-x="1605" 
d="M1483 277v-277h-1212v894l-185 -56v203l185 56v936h324v-838l342 103v-204l-342 -103v-714h888z" />
    <glyph glyph-name="M" unicode="M" horiz-adv-x="2362" 
d="M201 2033h406l561 -1531h24l562 1531h407v-2033h-315v1449h-17l-521 -1439h-257l-518 1442h-16v-1452h-316v2033z" />
    <glyph glyph-name="uni04CD" unicode="&#x4cd;" horiz-adv-x="2795" 
d="M196 2033h406l561 -1531h24l562 1531h407v-2033h-315v1449h-17l-521 -1439h-257l-518 1442h-16v-1452h-316v2033zM2589 206v-224q-2 -145 -61 -282t-151 -249l-209 65q49 110 89 216t40 237v237h292z" />
    <glyph glyph-name="N" unicode="N" horiz-adv-x="2014" 
d="M1813 2033v-2033h-316l-954 1468h-19v-1468h-323v2033h317l955 -1474h19v1474h321z" />
    <glyph glyph-name="afii10026" unicode="&#x418;" horiz-adv-x="2014" 
d="M1813 2033v-2033h-321v1474h-19l-955 -1474h-317v2033h323v-1468h19l954 1468h316z" />
    <glyph glyph-name="uni048A" unicode="&#x48a;" horiz-adv-x="2283" 
d="M1168 2515h251q0 -170 -119.5 -279t-325.5 -109q-203 0 -322.5 109t-119.5 279h250q0 -75 43.5 -132t148.5 -57t149.5 57t44.5 132zM1766 2033v-2033h-321v1474h-19l-955 -1474h-317v2033h323v-1468h19l954 1468h316zM2060 206v-224q-2 -145 -61 -282t-151 -249l-209 65
q49 110 89 216t40 237v237h292z" />
    <glyph glyph-name="O" unicode="O" horiz-adv-x="2038" 
d="M1869 1016q0 -326 -108.5 -560t-300 -359t-440.5 -125q-250 0 -441.5 125t-300.5 359t-109 560q0 324 108.5 558.5t300.5 360.5t441 126t440.5 -126t300.5 -360.5t109 -558.5zM1549 1016q0 364 -148.5 566.5t-386.5 202.5q-232 0 -378.5 -194.5t-146.5 -574.5
q0 -245 71 -415t192.5 -258.5t272.5 -88.5t269 88.5t186.5 258.5t68.5 415z" />
    <glyph glyph-name="Oslash" unicode="&#xd8;" horiz-adv-x="2038" 
d="M1020 -28q-256 0 -452 132l-126 -207h-233l208 342q-117 134 -182.5 330.5t-65.5 446.5q0 324 108.5 558.5t300.5 360.5t441 126q242 0 432 -121l108 177h229l-185 -304q125 -136 195.5 -337.5t70.5 -459.5q0 -326 -108.5 -560t-300 -359t-440.5 -125zM489 1016
q0 -150 27.5 -272t77.5 -214l705 1160q-122 95 -285 95q-232 0 -378.5 -194.5t-146.5 -574.5zM1549 1016q0 160 -30 290t-86 226l-708 -1168q129 -110 300 -110q151 0 269 88.5t186.5 258.5t68.5 415z" />
    <glyph glyph-name="Ohorn" unicode="&#x1a0;" horiz-adv-x="2038" 
d="M1843 1016q0 -326 -108.5 -560t-299.5 -359t-440 -125t-441 125t-301 359t-109 560q0 324 108.5 558.5t300 360.5t441.5 126q352 0 581 -245q86 34 121.5 126.5t35.5 233.5h258q0 -206 -70.5 -344.5t-214.5 -198.5q66 -123 102 -278.5t36 -338.5zM1524 1016
q0 364 -148.5 566.5t-387.5 202.5q-231 0 -377.5 -194.5t-146.5 -574.5q0 -245 71 -415t192 -258.5t273 -88.5q150 0 268.5 88.5t187 258.5t68.5 415z" />
    <glyph glyph-name="P" unicode="P" horiz-adv-x="1779" 
d="M941 740h-417v-740h-323v2033h722q237 0 395 -88t236.5 -237.5t78.5 -334.5q0 -194 -91.5 -336t-248.5 -219.5t-352 -77.5zM524 1755v-739h375q211 1 312 107.5t101 256.5q0 164 -88.5 270t-300.5 105h-399z" />
    <glyph glyph-name="Q" unicode="Q" horiz-adv-x="2038" 
d="M1786 -120l-231 -176l-234 322q-140 -54 -301 -54q-250 0 -441.5 125t-300.5 359t-109 560q0 324 108.5 558.5t300.5 360.5t441 126t440.5 -126t300.5 -360.5t109 -558.5q0 -276 -79.5 -487t-219.5 -345zM489 1016q0 -245 71 -415t192.5 -258.5t272.5 -88.5q62 0 119 15
l-155 213l240 183l161 -227q75 97 117 242.5t42 335.5q0 364 -148.5 566.5t-386.5 202.5q-232 0 -378.5 -194.5t-146.5 -574.5z" />
    <glyph glyph-name="R" unicode="R" horiz-adv-x="1800" 
d="M1337 0l-394 765h-419v-765h-323v2033h696q229 0 391.5 -79.5t248.5 -221t86 -328.5q0 -201 -99 -342t-270 -216l439 -829v-17h-356zM524 1755v-714h373q188 0 295 102t107 245q0 172 -92.5 269.5t-309.5 97.5h-373z" />
    <glyph glyph-name="response" unicode="&#x211f;" horiz-adv-x="1889" 
d="M1360 0l-382 740l-424 -1236h-235l168 496h-264v2033h697q132 0 246 -28l33 99l-271 114l102 231l461 -212l-110 -322q265 -170 265 -511q0 -201 -99 -342t-271 -216l439 -829v-17h-355zM547 1755v-714h292l236 697q-68 17 -155 17h-373zM1321 1388q0 130 -48 213
l-182 -532q109 40 169.5 126t60.5 193zM547 765v-587l199 587h-199z" />
    <glyph glyph-name="S" unicode="S" horiz-adv-x="1795" 
d="M1305 1481q-19 139 -122.5 218.5t-274.5 79.5q-178 0 -281 -78.5t-103 -205.5q0 -110 94 -177t284 -123l155 -43q301 -87 445 -220.5t144 -362.5q0 -190 -93 -324.5t-261 -206t-392 -71.5q-208 0 -377.5 71t-272.5 207.5t-111 332.5h322q18 -155 136.5 -242t318.5 -87
q179 0 292 86t113 212q0 115 -93.5 195t-310.5 138l-178 51q-271 73 -407 199t-136 361q0 171 92 299t254.5 199.5t374.5 71.5q202 0 360 -73.5t251.5 -204.5t99.5 -302h-323z" />
    <glyph glyph-name="Germandbls" unicode="&#x1e9e;" horiz-adv-x="1944" 
d="M520 0h-317v1316q0 716 662 716q237 0 422 -92t352 -233l-447 -539q285 -27 440.5 -180.5t155.5 -419.5q0 -193 -90.5 -326t-246 -201.5t-349.5 -68.5q-118 0 -222 19.5t-196 54.5l95 260q52 -22 128.5 -44t173.5 -22q178 0 275 91.5t97 234.5q0 198 -105.5 283.5
t-307.5 85.5h-193v233l388 470q-68 47 -154.5 86t-215.5 39q-187 0 -266 -125t-79 -322v-1316z" />
    <glyph glyph-name="T" unicode="T" horiz-adv-x="1792" 
d="M107 1755v278h1579v-278h-628v-1755h-324v1755h-627z" />
    <glyph glyph-name="U" unicode="U" horiz-adv-x="2016" 
d="M1492 2033h323v-1334q0 -229 -111.5 -391.5t-296 -249t-404.5 -86.5q-227 0 -408.5 86.5t-287.5 249t-106 391.5v1334h323v-1334q0 -131 65 -230t174 -154t243 -55q132 0 242.5 55t177 154t66.5 230v1334z" />
    <glyph glyph-name="Uhorn" unicode="&#x1af;" horiz-adv-x="2269" 
d="M1754 699q0 -229 -111.5 -391.5t-296.5 -249t-405 -86.5q-227 0 -408.5 86.5t-287.5 249t-106 391.5v1334h324v-1334q0 -131 64.5 -230t173.5 -154t243 -55q132 0 242.5 55t177 154t66.5 230v1334h324v-281q133 30 174 132.5t41 266.5h247q0 -268 -103.5 -425
t-358.5 -188v-839z" />
    <glyph glyph-name="V" unicode="V" horiz-adv-x="1882" 
d="M75 2033h351l503 -1583h26l501 1583h350l-695 -2033h-340z" />
    <glyph glyph-name="W" unicode="W" horiz-adv-x="2560" 
d="M432 2033l300 -1538h16l387 1538h292l387 -1539h16l299 1539h302l-435 -2033h-316l-392 1469h-16l-390 -1469h-316l-437 2033h303z" />
    <glyph glyph-name="X" unicode="X" horiz-adv-x="1804" 
d="M463 2033l422 -763q9 -15 9 -36h13q0 23 8 36l427 763h365l-584 -1015l590 -1018h-368l-430 756q-8 13 -8 36h-13q0 -21 -9 -36l-426 -756h-368l590 1018l-585 1015h367z" />
    <glyph glyph-name="Hadescendercyrillic" unicode="&#x4b2;" horiz-adv-x="1882" 
d="M1807 251v-746h-335v495h-127l-430 756q-8 13 -8 36h-13q0 -21 -9 -36l-426 -756h-368l590 1018l-585 1015h367l422 -763q9 -15 9 -36h13q0 23 8 36l427 763h365l-584 -1015l445 -767h239z" />
    <glyph glyph-name="uni04FC" unicode="&#x4fc;" horiz-adv-x="1902" 
d="M1870 -62q0 -248 -129 -380t-355 -132q-47 0 -87.5 4t-85.5 16l20 274q23 -9 64 -14t69 -5q80 0 126 60.5t46 176.5v62h-238l-430 756q-8 13 -8 36h-13q0 -21 -9 -36l-426 -756h-368l590 1018l-585 1015h367l422 -763q9 -15 9 -36h13q0 23 8 36l427 763h365l-584 -1015
l460 -794v85h332v-371z" />
    <glyph glyph-name="Y" unicode="Y" horiz-adv-x="1798" 
d="M420 2033l479 -969l479 969h347l-664 -1295v-738h-324v738l-663 1295h346z" />
    <glyph glyph-name="Z" unicode="Z" horiz-adv-x="1688" 
d="M146 1758v275h1381v-222l-984 -1538h999v-273h-1384v227l987 1531h-999z" />
    <glyph glyph-name="AE" unicode="&#xc6;" horiz-adv-x="2795" 
d="M2697 270v-270h-1214l-21 517h-711l-280 -517h-373l1149 2033h1366v-271h-889l24 -592h753v-269h-742l26 -631h912zM897 788h553l-39 951z" />
    <glyph glyph-name="OE" unicode="&#x152;" horiz-adv-x="2699" 
d="M2531 277v-277h-1174q-90 -12 -190.5 -20t-205.5 -8q-237 0 -417 104t-281 289t-101 427v420q0 242 100.5 427t280 289t418.5 104q71 0 141 -5t136 -11v17h1283v-278h-959v-594h842v-277h-842v-607h969zM494 792q0 -274 127.5 -412.5t339.5 -138.5q73 0 142.5 5t134.5 14
v1484q-65 9 -135 14t-142 5q-215 0 -341 -138.5t-126 -412.5v-420z" />
    <glyph glyph-name="Thorn" unicode="&#xde;" horiz-adv-x="1771" 
d="M870 413h-339v-413h-335v2004h335v-385h339q228 0 385 -78.5t238.5 -214.5t81.5 -310t-81.5 -310t-238.5 -214.5t-385 -78.5zM531 1352v-672h339q132 0 213.5 47.5t119 123.5t37.5 161q0 87 -37.5 164.5t-119 126.5t-213.5 49h-339z" />
    <glyph glyph-name="Gamma" unicode="&#x393;" horiz-adv-x="1771" 
d="M1524 2004v-282h-927v-1722h-346v2004h1273z" />
    <glyph glyph-name="Delta" unicode="&#x2206;" horiz-adv-x="2117" 
d="M88 0l821 2004h334l790 -2004h-1945zM556 278h1013l-496 1314z" />
    <glyph glyph-name="Delta" unicode="&#x394;" horiz-adv-x="2117" 
d="M88 0l821 2004h334l790 -2004h-1945zM556 278h1013l-496 1314z" />
    <glyph glyph-name="Theta" unicode="&#x398;" horiz-adv-x="2027" 
d="M1858 1016q0 -326 -108.5 -560t-300 -359t-439.5 -125q-250 0 -441.5 125t-300.5 359t-109 560q0 324 108.5 558.5t299.5 360.5t441 126q249 0 440.5 -126t300.5 -360.5t109 -558.5zM1538 1016q0 364 -148 566.5t-387 202.5q-231 0 -378 -194.5t-147 -574.5
q0 -245 71 -415t193 -258.5t273 -88.5q150 0 268.5 88.5t186.5 258.5t68 415zM1286 1139v-267h-616v267h616z" />
    <glyph glyph-name="Xi" unicode="&#x39e;" horiz-adv-x="1605" 
d="M158 1722v282h1268v-282h-1268zM280 889v275h1042v-275h-1042zM140 0v278h1324v-278h-1324z" />
    <glyph glyph-name="Pi" unicode="&#x3a0;" horiz-adv-x="2027" 
d="M1801 2004v-2004h-348v1722h-879v-1722h-348v2004h1575z" />
    <glyph glyph-name="Sigma" unicode="&#x3a3;" horiz-adv-x="1771" 
d="M179 1793v211h1365v-282h-907l538 -706v-24l-540 -711h957v-281h-1413v208l629 795z" />
    <glyph glyph-name="Phi" unicode="&#x3a6;" horiz-adv-x="2117" 
d="M2007 993q0 -224 -97.5 -392t-272 -264t-405.5 -103v-234h-344v234q-233 6 -408.5 101t-273.5 263t-98 391q0 227 99 398t275 268.5t406 103.5v245h344v-245q228 -6 403 -102.5t273.5 -267t98.5 -396.5zM1666 993q0 220 -112 345t-322 132v-945q215 8 324.5 132
t109.5 336zM450 989q0 -213 112 -335t326 -130v946q-212 -8 -325 -134.5t-113 -346.5z" />
    <glyph glyph-name="Psi" unicode="&#x3a8;" horiz-adv-x="2117" 
d="M1955 1319q0 -237 -91.5 -408.5t-254.5 -272t-379 -123.5v-515h-346v514q-215 21 -377.5 121t-253 272.5t-90.5 411.5v685h345v-685q0 -225 101.5 -356.5t274.5 -164.5v1206h346v-1207q180 31 279 163t99 359v685h347v-685z" />
    <glyph glyph-name="Omega" unicode="&#x2126;" horiz-adv-x="1771" 
d="M476 1032q0 -344 91.5 -525t246.5 -219v-288h-695v280h297q-140 134 -226 332.5t-86 419.5v138q0 253 98.5 447t274.5 304t409 110q232 0 408 -110t275.5 -304t99.5 -447v-138q0 -221 -85.5 -419.5t-225.5 -332.5h292v-280h-682v288q151 40 240.5 222t89.5 522v139
q0 287 -111 432t-301 145t-300 -145t-110 -432v-139z" />
    <glyph glyph-name="Omega" unicode="&#x3a9;" horiz-adv-x="1771" 
d="M476 1032q0 -344 91.5 -525t246.5 -219v-288h-695v280h297q-140 134 -226 332.5t-86 419.5v138q0 253 98.5 447t274.5 304t409 110q232 0 408 -110t275.5 -304t99.5 -447v-138q0 -221 -85.5 -419.5t-225.5 -332.5h292v-280h-682v288q151 40 240.5 222t89.5 522v139
q0 287 -111 432t-301 145t-300 -145t-110 -432v-139z" />
    <glyph glyph-name="afii10018" unicode="&#x411;" horiz-adv-x="1771" 
d="M129 0v2004h1305v-282h-927v-485h379q340 0 529 -167.5t189 -444.5q0 -185 -85 -325.5t-245.5 -220t-387.5 -79.5h-757zM886 957h-379v-679h379q192 0 282 105.5t90 245.5q0 137 -90 232.5t-282 95.5z" />
    <glyph glyph-name="afii10050" unicode="&#x490;" horiz-adv-x="1771" 
d="M583 1722v-1722h-346v2004h912v483h335v-483h25v-282h-926z" />
    <glyph glyph-name="uni04FA" unicode="&#x4fa;" horiz-adv-x="1771" 
d="M1000 948h-253v-948h-346v948h-320v235h320v821h1273v-282h-927v-539h253v-235zM833 283h332v-371q0 -248 -128.5 -380t-355.5 -132q-47 0 -87.5 4t-85.5 16l20 274q23 -9 64 -14t69 -5q80 0 126 60.5t46 176.5v371z" />
    <glyph glyph-name="afii10021" unicode="&#x414;" horiz-adv-x="2283" 
d="M583 1183l50 821h1261v-1726h253l-15 -770h-330v492h-1321v-495h-334l-11 773h162q50 50 109.5 151t109 282.5t66.5 471.5zM931 1183q-18 -327 -83.5 -546t-156.5 -359h857v1444h-584z" />
    <glyph glyph-name="afii10024" unicode="&#x416;" horiz-adv-x="2885" 
d="M1277 0v865h-234l-492 -865h-432l646 1068l-602 936h421l477 -837h216v837h346v-837h209l471 837h422l-597 -934l639 -1070h-433l-485 865h-226v-865h-346z" />
    <glyph glyph-name="Zhedescendercyrillic" unicode="&#x496;" horiz-adv-x="2974" 
d="M2869 251v-746h-335v495h-154l-485 865h-226v-865h-346v865h-234l-492 -865h-432l646 1068l-602 936h421l477 -837h216v837h346v-837h209l471 837h422l-597 -934l489 -819h206z" />
    <glyph glyph-name="afii10025" unicode="&#x417;" horiz-adv-x="1771" 
d="M892 886h-233v272h233q191 0 274 83t83 217q0 119 -90.5 205.5t-286.5 86.5q-148 0 -249.5 -78t-101.5 -203h-348q0 175 96 301t255.5 193.5t347.5 67.5q329 0 527 -146t198 -425q0 -138 -84 -252t-232 -179q167 -57 256 -175.5t89 -293.5q0 -186 -97 -317.5t-267 -201
t-390 -69.5q-134 0 -263 34t-234 105t-167.5 181.5t-62.5 263.5h347q0 -125 105.5 -215.5t274.5 -90.5q195 0 302 89t107 223q0 170 -99.5 247t-289.5 77z" />
    <glyph glyph-name="Kaverticalstrokecyrillic" unicode="&#x49c;" horiz-adv-x="1861" 
d="M582 536v318h-120v-854h-348v2004h348v-844h120v348h225v-348h76l389 844h420l-531 -932l587 -1072h-438l-409 854h-94v-318h-225z" />
    <glyph glyph-name="Kahookcyrillic" unicode="&#x4c3;" horiz-adv-x="1861" 
d="M1695 342q0 -216 -73.5 -394.5t-229.5 -284.5t-406 -106l-3 266q151 0 230 75t107 192t26 243q2 259 -120 393.5t-361 134.5h-346v1h-12v-862h-349v2004h349v-830h156l594 830h422l-658 -868q315 -40 494.5 -241t179.5 -553z" />
    <glyph glyph-name="afii10029" unicode="&#x41b;" horiz-adv-x="2027" 
d="M546 1092l34 912h1293v-2004h-348v1722h-612l-34 -720q-16 -360 -80 -580.5t-197.5 -321t-357.5 -100.5h-90v278l59 4q119 11 187.5 89.5t101 252t44.5 468.5z" />
    <glyph glyph-name="uni04C5" unicode="&#x4c5;" horiz-adv-x="2283" 
d="M602 1092l34 912h1293v-1798h247v-224q-2 -145 -61 -282t-151 -249l-209 65q49 110 89 216t40 237v31h-303v1722h-612l-34 -720q-16 -360 -80 -580.5t-197.5 -321t-357.5 -100.5h-90v278l59 4q119 11 187.5 89.5t101 252t44.5 468.5z" />
    <glyph glyph-name="uni052E" unicode="&#x52e;" horiz-adv-x="2283" 
d="M577 2004h1293v-1753h262v-746h-332v495h-279v1722h-613l-32 -720q-18 -360 -82 -580.5t-197 -321t-358 -100.5h-88v278l56 4q120 11 189 89.5t102 252t44 468.5z" />
    <glyph glyph-name="uni0512" unicode="&#x512;" horiz-adv-x="2381" 
d="M649 1092l34 912h1293v-2004h-348v1722h-612l-34 -720q-16 -360 -80 -580.5t-197.5 -321t-357.5 -100.5h-90v278l59 4q119 11 187.5 89.5t101.5 252t44 468.5zM2033 283h332v-371q0 -248 -128.5 -380t-355.5 -132q-47 0 -87.5 4t-85.5 16l20 274q23 -9 64 -14t69 -5
q80 0 126 60.5t46 176.5v371z" />
    <glyph glyph-name="afii10147" unicode="&#x472;" horiz-adv-x="2027" 
d="M1858 1016q0 -326 -108.5 -560t-300 -359t-439.5 -125q-250 0 -441.5 125t-300.5 359t-109 560q0 324 108.5 558.5t299.5 360.5t441 126q249 0 440.5 -126t300.5 -360.5t109 -558.5zM1495 877h-1010q30 -302 177.5 -462.5t352.5 -160.5q150 0 268.5 88.5t186.5 258.5
t68 415q0 364 -148 566.5t-387 202.5q-216 0 -359.5 -169.5t-162.5 -502.5h1014v-236z" />
    <glyph glyph-name="uni0524" unicode="&#x524;" horiz-adv-x="2283" 
d="M2065 251v-746h-335v495h-280v1722h-882v-1722h-346v2004h1573v-1753h270z" />
    <glyph glyph-name="afii10145" unicode="&#x40f;" horiz-adv-x="2027" 
d="M1803 0h-602v-496h-346v496h-629v2004h348v-1726h882v1726h347v-2004z" />
    <glyph glyph-name="uni048E" unicode="&#x48e;" horiz-adv-x="1938" 
d="M906 740h-416v-740h-324v2033h722q238 0 395.5 -88t236.5 -237.5t79 -334.5q0 -117 -35 -216t-97 -176l206 -228l-151 -137l-209 231q-175 -107 -407 -107zM490 1755v-739h375q144 1 244 57l-142 156l150 138l130 -143q31 70 31 156q0 164 -88.5 270t-301.5 105h-398z
" />
    <glyph glyph-name="afii10037" unicode="&#x423;" horiz-adv-x="1771" 
d="M1014 361q-46 -103 -105 -192t-157 -143t-257 -54q-31 0 -76 2t-65 3l2 277q16 -1 57.5 -2.5t60.5 -1.5q116 0 162 57.5t77 139.5l41 99l-686 1458h380l468 -1048l400 1048h387z" />
    <glyph glyph-name="afii10038" unicode="&#x424;" horiz-adv-x="2373" 
d="M1386 180h-30v-264h-335v264h-33q-233 0 -418 101.5t-292.5 284t-107.5 425.5q0 246 108 431t293 288.5t417 103.5h33v270h335v-270h30q233 0 419 -102.5t294 -287t108 -431.5q0 -243 -108 -426t-294 -285t-419 -102zM988 459h33v1076h-33q-230 0 -360 -143.5
t-130 -400.5q0 -251 130 -391.5t360 -140.5zM1388 1535h-32v-1076h32q230 0 358.5 141.5t128.5 392.5q0 256 -128.5 399t-358.5 143z" />
    <glyph glyph-name="afii10040" unicode="&#x426;" horiz-adv-x="2283" 
d="M2051 282l-26 -766h-319v484h-1472v2004h349v-1726h879v1726h349v-1722h240z" />
    <glyph glyph-name="Tetsecyrillic" unicode="&#x4b4;" horiz-adv-x="2539" 
d="M98 1735v269h1316v-269h-450v-1457h879v1726h349v-1722h240l-26 -766h-319v484h-1472v1735h-517z" />
    <glyph glyph-name="afii10041" unicode="&#x427;" horiz-adv-x="2027" 
d="M1784 2004v-2004h-346v789q-102 -26 -221 -41t-245 -15q-337 0 -532 148.5t-195 492.5v630h348v-630q0 -212 94 -286t285 -74q112 0 236 14.5t230 40.5v935h346z" />
    <glyph glyph-name="Chedescendercyrillic" unicode="&#x4b6;" horiz-adv-x="2283" 
d="M2013 251v-746h-335v495h-226v789q-102 -26 -221 -41t-245 -15q-337 0 -532 148.5t-195 492.5v630h348v-630q0 -212 94 -286t285 -74q112 0 236 14.5t230 40.5v935h346v-1753h215z" />
    <glyph glyph-name="Cheverticalstrokecyrillic" unicode="&#x4b8;" horiz-adv-x="1938" 
d="M1727 2004v-2004h-345v789q-156 -40 -334 -52v-319h-225v318q-296 18 -465.5 168.5t-169.5 469.5v630h348v-630q0 -184 71 -262.5t216 -93.5v405h225v-404q180 12 334 50v935h345z" />
    <glyph glyph-name="Shhacyrillic" unicode="&#x4ba;" horiz-adv-x="2027" 
d="M1055 990q-110 0 -234.5 -15t-230.5 -41v-934h-345v2004h345v-791q101 26 220 42t245 16q339 0 534 -150.5t195 -491.5v-629h-346v629q0 212 -95.5 286.5t-287.5 74.5z" />
    <glyph glyph-name="uni0526" unicode="&#x526;" horiz-adv-x="2283" 
d="M580 0h-348v2004h348v-793q105 26 220.5 43t243.5 17q338 0 534 -150.5t196 -491.5v-378h277v-746h-333v495h-292v629q0 212 -94.5 286.5t-287.5 74.5q-112 0 -233 -15t-231 -41v-934z" />
    <glyph glyph-name="afii10060" unicode="&#x40b;" horiz-adv-x="2194" 
d="M114 1722v282h1544v-282h-684v-489q86 17 182.5 26.5t196.5 9.5q336 0 532 -149.5t196 -491.5v-628h-346v628q0 213 -95 287.5t-287 74.5q-89 0 -188 -10.5t-191 -28.5v-951h-346v1722h-514z" />
    <glyph glyph-name="afii10042" unicode="&#x428;" horiz-adv-x="2629" 
d="M186 2004h349v-1726h610v1726h346v-1726h606v1726h349v-2004h-2260v2004z" />
    <glyph glyph-name="afii10043" unicode="&#x429;" horiz-adv-x="2885" 
d="M2689 268l-28 -751h-304v483h-2185v2004h350v-1726h610v1726h345v-1726h607v1726h348v-1736h257z" />
    <glyph glyph-name="afii10044" unicode="&#x42a;" horiz-adv-x="2117" 
d="M71 1735v269h841v-767h408q340 0 529 -167.5t189 -444.5q0 -185 -85 -325.5t-245.5 -220t-387.5 -79.5h-756v1735h-493zM912 278h408q193 0 283 105.5t90 245.5q0 137 -90 232.5t-283 95.5h-408v-679z" />
    <glyph glyph-name="afii10045" unicode="&#x42b;" horiz-adv-x="2539" 
d="M2263 2033v-2033h-323v2033h323zM1717 625q0 -185 -85 -325.5t-245.5 -220t-387.5 -79.5h-757v2004h348v-767h409q341 0 529.5 -167.5t188.5 -444.5zM590 278h409q192 0 282 105.5t90 245.5q0 137 -90 232.5t-282 95.5h-409v-679z" />
    <glyph glyph-name="afii10046" unicode="&#x42c;" horiz-adv-x="1771" 
d="M1624 625q0 -185 -85 -325.5t-245.5 -220t-387.5 -79.5h-757v2004h348v-767h409q340 0 529 -167.5t189 -444.5zM497 278h409q192 0 282 105.5t90 245.5q0 137 -90 232.5t-282 95.5h-409v-679z" />
    <glyph glyph-name="afii10058" unicode="&#x409;" horiz-adv-x="3051" 
d="M494 1092l35 912h1293v-726h408q227 0 387.5 -83t245.5 -227.5t85 -329.5q0 -184 -85 -328t-245.5 -227t-387.5 -83h-756v1722h-612l-34 -720q-17 -360 -81 -580.5t-197 -321t-357 -100.5h-89v278l55 4q121 11 190 89.5t101.5 252t43.5 468.5zM1822 278h408
q129 0 211.5 52t122 135t39.5 176q0 91 -39.5 173.5t-122 134t-211.5 51.5h-408v-722z" />
    <glyph glyph-name="afii10059" unicode="&#x40a;" horiz-adv-x="3051" 
d="M1403 0v873h-879v-873h-348v2004h348v-853h879v853h347v-769h409q227 0 388 -78.5t245.5 -216.5t84.5 -317t-84.5 -320t-245.5 -222t-388 -81h-756zM1750 287h409q193 0 282.5 102t89.5 238q0 131 -89.5 231t-282.5 100h-409v-671z" />
    <glyph glyph-name="afii10047" unicode="&#x42d;" horiz-adv-x="1861" 
d="M1726 918q0 -288 -98.5 -500.5t-279.5 -329t-428 -116.5q-245 0 -413 88.5t-260.5 242.5t-110.5 350h348q24 -193 118.5 -298.5t317.5 -105.5q232 0 341.5 168t119.5 443h-711v279h711q-11 292 -131 451.5t-344 159.5q-218 0 -309 -109t-114 -302h-348q20 201 111 357.5
t255.5 246t404.5 89.5q251 0 435 -117.5t284.5 -331t100.5 -502.5v-163z" />
    <glyph glyph-name="afii10048" unicode="&#x42e;" horiz-adv-x="2629" 
d="M2493 1016q0 -326 -108.5 -560t-300 -359t-440.5 -125q-229 0 -409.5 105.5t-294 304t-140.5 476.5h-302v258h298q17 295 129 506.5t297 325t421 113.5q249 0 440.5 -126t300.5 -360.5t109 -558.5zM467 2033v-2033h-323v2033h323zM1133 858h-11q33 -293 179 -448.5
t348 -155.5q151 0 269 88.5t186.5 258.5t68.5 415q0 364 -148.5 566.5t-386.5 202.5q-216 0 -359 -169t-163 -500h17v-258z" />
    <glyph glyph-name="afii10049" unicode="&#x42f;" horiz-adv-x="1682" 
d="M1241 0v751h-386l-387 -751h-374l448 852q-170 80 -260 214.5t-90 326.5q0 297 195 454t530 157h672v-2004h-348zM917 1019h324v703h-324q-192 0 -286 -91.5t-94 -252.5q0 -170 95.5 -264.5t284.5 -94.5z" />
    <glyph glyph-name="Ghemiddlehookcyrillic" unicode="&#x494;" horiz-adv-x="1771" 
d="M1370 2004v-282h-927v-1722h-346v2004h1273zM488 870v277h337q384 0 606 -206t222 -593q0 -225 -73.5 -402t-228 -279.5t-397.5 -102.5l-3 258q149 0 228.5 73.5t110 191.5t30.5 251q-5 532 -495 532h-337z" />
    <glyph glyph-name="Pemiddlehookcyrillic" unicode="&#x4a6;" horiz-adv-x="3051" 
d="M1728 2004v-2004h-348v1722h-879v-1722h-348v2004h1575zM1736 869v277h337q384 0 606 -206t222 -593q0 -225 -73.5 -402t-228 -279.5t-397.5 -102.5l-3 258q149 0 228.5 73.5t110 191.5t30.5 251q-5 532 -495 532h-337z" />
    <glyph glyph-name="afii10053" unicode="&#x404;" horiz-adv-x="1861" 
d="M1726 653q-17 -196 -109.5 -350t-261 -242.5t-413.5 -88.5q-247 0 -428 116.5t-280 329t-99 500.5v163q0 289 101 502.5t285.5 331t437.5 117.5q239 0 402.5 -89.5t254 -246t110.5 -357.5h-344q-22 193 -115 302t-308 109q-226 0 -344.5 -157.5t-130.5 -446.5h697v-278
h-697q8 -278 116.5 -448.5t341.5 -170.5q223 0 318.5 105.5t119.5 298.5h346z" />
    <glyph glyph-name="Haabkhasiancyrillic" unicode="&#x4a8;" horiz-adv-x="2283" 
d="M2098 246v-276q-155 0 -294 25t-260 73q-99 -46 -213 -71t-240 -25q-271 0 -475 125t-317.5 339.5t-113.5 481.5v259q0 241 84.5 435t236 307t353.5 113v-292q-99 0 -169.5 -73.5t-108 -200t-37.5 -286.5v-262q0 -188 66 -336.5t188.5 -234.5t292.5 -86q63 0 121 10
q-148 133 -228.5 315.5t-80.5 401.5v285q0 214 72.5 385t202.5 271t305 100q179 0 314.5 -101.5t211 -279.5t75.5 -409v-283q0 -201 -67 -376t-189 -306q125 -28 270 -28zM1237 985q0 -182 70.5 -329.5t205.5 -245.5q108 94 166 235.5t58 310.5v308q0 239 -67 357.5
t-187 118.5q-114 0 -180 -121t-66 -342v-292z" />
    <glyph glyph-name="Cheabkhasiancyrillic" unicode="&#x4bc;" horiz-adv-x="2283" 
d="M2023 89q-43 -27 -181.5 -74t-367.5 -47q-288 0 -485 111t-298 307t-101 450v93q-216 33 -329 181t-113 378h250q0 -116 46.5 -196.5t145.5 -110.5q1 248 106 440t282.5 300.5t395.5 106.5q252 0 421.5 -114.5t255.5 -324t86 -492.5v-187h-1199v-74q0 -158 53 -288.5
t171 -208t312 -77.5q171 0 290.5 34t192.5 64zM938 1179v-6h851v44q0 143 -39 260.5t-130 187t-246 69.5q-142 0 -239.5 -75t-147 -201t-49.5 -279z" />
    <glyph glyph-name="Schwacyrillic" unicode="&#x4d8;" horiz-adv-x="2027" 
d="M1860 919q0 -279 -113 -493.5t-305 -335t-427 -118.5q-417 0 -631 251t-214 679v197h1341q-3 177 -63 321t-188.5 229t-339.5 85q-182 0 -307 -32t-202 -62l-68 271q43 25 189 73t388 48q306 0 515.5 -122.5t317 -338t107.5 -494.5v-158zM1015 266q146 0 251.5 74
t166 200.5t74.5 285.5h-991v-43q0 -145 47 -262t156.5 -186t295.5 -69z" />
    <glyph glyph-name="Dzeabkhasiancyrillic" unicode="&#x4e0;" horiz-adv-x="1605" 
d="M741 948h-193v238l492 536h-854v282h1254l2 -226l-520 -593q274 -34 423 -194.5t149 -430.5q0 -186 -91 -317.5t-251 -201t-366 -69.5q-166 0 -321 61t-254.5 190t-99.5 333h345q0 -125 90.5 -215.5t239.5 -90.5q172 0 268 89t96 223q0 205 -105 295.5t-304 90.5z" />
    <glyph glyph-name="uni0510" unicode="&#x510;" horiz-adv-x="1861" 
d="M929 1158h265v-272h-265q-215 0 -327.5 -77t-112.5 -247q0 -134 120.5 -223t341.5 -89q191 0 306.5 90.5t115.5 215.5h349q0 -153 -66.5 -263.5t-177.5 -181.5t-248.5 -105t-278.5 -34q-235 0 -418.5 69.5t-288.5 201t-105 317.5q0 175 97.5 293.5t277.5 175.5
q-160 65 -251.5 179t-91.5 252q0 186 97 313.5t272.5 193t410.5 65.5q201 0 370 -68t271 -194t102 -301h-349q0 125 -114 203.5t-280 78.5q-225 0 -327.5 -87t-102.5 -206q0 -134 95.5 -217t312.5 -83z" />
    <glyph glyph-name="afii10148" unicode="&#x474;" horiz-adv-x="1861" 
d="M1586 1558l-494 -1558h-338l-684 2004h372l444 -1460l38 -159l37 156l313 1043q71 225 175 334.5t281 109.5l61 -1l-1 -295h-30q-63 0 -104.5 -44t-69.5 -130z" />
    <glyph glyph-name="afii10051" unicode="&#x402;" horiz-adv-x="2283" 
d="M157 1722v282h1559v-282h-677v-545q91 23 185.5 37.5t174.5 14.5q335 0 532.5 -159t197.5 -466q0 -177 -75 -318.5t-235 -223.5t-416 -82l-3 265q157 0 239 49t112 128t31 170q0 164 -100 257t-293 93q-95 0 -181.5 -11.5t-168.5 -32.5v-898h-349v1722h-533z" />
    <glyph glyph-name="a" unicode="a" horiz-adv-x="1515" 
d="M1065 0v171h-12q-50 -73 -151.5 -138.5t-250.5 -65.5q-157 0 -277.5 54.5t-189.5 154t-69 234.5q0 193 96.5 297.5t277.5 146.5t433 46l135 3v46q0 198 -86.5 271t-217.5 73q-95 0 -184 -45.5t-134 -173.5l-295 54q34 140 128 231.5t224 137t272 45.5q162 0 299 -60
t220 -188.5t83 -332.5v-961h-301zM1057 686l-134 -3q-114 -3 -229.5 -20.5t-192.5 -68.5t-77 -155q0 -101 71 -159.5t213 -58.5q100 0 176.5 45.5t122 109.5t50.5 120v190z" />
    <glyph glyph-name="b" unicode="b" horiz-adv-x="1598" 
d="M1479 769q0 -231 -72.5 -411t-205 -283t-311.5 -103q-147 0 -250.5 58.5t-172.5 157.5l-19 -188h-273v2070h309v-722q69 89 167.5 141.5t234.5 52.5q182 0 315.5 -99t205.5 -273.5t72 -400.5zM1167 769q0 133 -39 247t-120 183.5t-208 69.5q-113 0 -185.5 -60
t-109.5 -150.5t-44 -180.5q-10 -54 -10 -132t10 -126q9 -84 49 -173t115 -150t187 -61q118 0 197 72t118.5 193t39.5 268z" />
    <glyph glyph-name="c" unicode="c" horiz-adv-x="1578" 
d="M1447 1021h-299q-22 103 -104 181t-231 78q-185 0 -284 -148t-99 -372q0 -230 99 -377t283 -147q140 0 226.5 66t109.5 175h299q-15 -149 -98 -263.5t-220 -179.5t-315 -65q-215 0 -371 101t-240 279.5t-84 410.5q0 227 83.5 403.5t239.5 277.5t371 101
q182 0 319.5 -70.5t218.5 -189t96 -261.5z" />
    <glyph glyph-name="d" unicode="d" horiz-adv-x="1598" 
d="M1156 0l-18 219q-71 -113 -179 -180t-264 -67q-179 0 -311.5 102.5t-205.5 282t-73 409.5q0 228 72.5 403t206 274t315.5 99q149 0 254 -64t175 -172v764h308v-2070h-280zM419 766q0 -146 39 -266.5t117.5 -192t197.5 -71.5q109 0 184 60.5t117 149.5t51 174
q10 50 10 126t-10 130q-7 90 -45 181t-111 151.5t-184 60.5q-127 0 -208 -69.5t-119.5 -183.5t-38.5 -250z" />
    <glyph glyph-name="dcroat" unicode="&#x111;" horiz-adv-x="1771" 
d="M1140 0l-19 192q-71 -101 -175 -160.5t-251 -59.5q-179 0 -311.5 102.5t-205.5 282t-73 409.5q0 228 72.5 403t206 274t315.5 99q139 0 239.5 -56.5t170.5 -152.5v352h-370v234h370v193h309v-193h243v-234h-243v-1685h-278zM419 766q0 -146 39 -266.5t117.5 -192
t197.5 -71.5q92 0 159.5 44t111.5 113t65 144v438q-29 113 -108.5 203.5t-215.5 90.5q-127 0 -208 -69.5t-119.5 -183.5t-38.5 -250z" />
    <glyph glyph-name="e" unicode="e" horiz-adv-x="1578" 
d="M1428 288q-65 -132 -214 -225.5t-375 -93.5q-225 0 -386.5 101.5t-247.5 278.5t-86 404q0 229 83 407t237.5 280t369.5 102q191 0 340.5 -80.5t235 -250t85.5 -436.5v-131h-1031q24 -189 130.5 -298.5t278.5 -109.5q127 0 211.5 52t136.5 149zM810 1280q-156 0 -251 -111
t-119 -291h727q0 182 -104.5 292t-252.5 110z" />
    <glyph glyph-name="f" unicode="f" horiz-adv-x="1003" 
d="M916 1264h-323v-1264h-309v1264h-237v255h237v110q0 228 141.5 348.5t354.5 120.5q47 0 86.5 -6t68.5 -14v-254q-24 4 -43.5 6.5t-67.5 2.5t-102 -18.5t-91.5 -62.5t-37.5 -123v-110h326z" />
    <glyph glyph-name="g" unicode="g" horiz-adv-x="1598" 
d="M1441 0q0 -184 -91.5 -314t-249.5 -198t-357 -68q-206 0 -352.5 77t-225.5 181l181 186q32 -36 81.5 -79.5t125 -75t185.5 -31.5q178 0 285 87.5t109 268.5q1 29 1 72.5t1 98.5q-70 -93 -173.5 -146t-250.5 -53q-178 0 -313 94t-210.5 260.5t-75.5 383.5v28
q0 226 75 399.5t210.5 272t317.5 98.5q151 0 254 -59.5t172 -160.5l7 192h294v-1514zM424 772v-28q0 -200 93 -337t271 -137q112 0 188 52t117 132.5t51 165.5q10 50 10 126.5t-10 129.5q-6 90 -44.5 181t-112.5 151.5t-187 60.5q-127 0 -210.5 -68.5t-124.5 -181.5
t-41 -247z" />
    <glyph glyph-name="h" unicode="h" horiz-adv-x="1598" 
d="M492 882v-882h-309v2070h299l5 -744h16q60 86 170.5 151t269.5 65q121 0 232.5 -60.5t182.5 -188.5t71 -331v-962h-311v963q0 156 -80 231t-213 75q-83 0 -159.5 -42.5t-125 -128.5t-48.5 -216z" />
    <glyph glyph-name="hcedilla" unicode="&#x1e29;" horiz-adv-x="1682" 
d="M706 -308q0 -137 -114 -223t-334 -86l-10 191q80 0 133.5 27.5t53.5 92.5q0 64 -48.5 87t-157.5 31l43 188h-80v2070h299l5 -744h16q60 86 170.5 151t269.5 65q121 0 232.5 -60.5t182.5 -188.5t71 -331v-962h-311v963q0 156 -80 231t-213 75q-84 0 -160 -42.5
t-124.5 -128.5t-48.5 -216v-876h14l-16 -78q77 -12 142 -65.5t65 -170.5z" />
    <glyph glyph-name="i" unicode="i" horiz-adv-x="747" 
d="M179 1903q0 73 52.5 128t142.5 55q89 0 142.5 -55t53.5 -128q0 -77 -53.5 -129.5t-142.5 -52.5q-90 0 -142.5 52.5t-52.5 129.5zM527 1519v-1519h-308v1519h308z" />
    <glyph glyph-name="idieresisacute" unicode="&#x1e2f;" horiz-adv-x="1114" 
d="M386 2100l268 415h381l-381 -415h-268zM69 1869q0 68 46.5 115.5t127.5 47.5q80 0 127 -47.5t47 -115.5t-47 -115t-127 -47q-81 0 -127.5 47t-46.5 115zM698 1867q0 68 46 116t127 48q80 0 127 -48t47 -116t-47 -115t-127 -47q-81 0 -127 47t-46 115zM699 1519v-1519
h-312v1519h312z" />
    <glyph glyph-name="itildebelow" unicode="&#x1e2d;" horiz-adv-x="1101" 
d="M408 1903q0 73 52.5 128t142.5 55q89 0 142.5 -55t53.5 -128q0 -77 -53.5 -129.5t-142.5 -52.5q-90 0 -142.5 52.5t-52.5 129.5zM756 1519v-1519h-308v1519h308zM844 -136l204 -16q0 -154 -88 -253.5t-220 -99.5q-90 0 -144 31t-103 62t-123 31q-52 0 -87.5 -39.5
t-35.5 -102.5l-208 9q0 152 88 255t220 103q75 0 132 -30.5t112.5 -61t125.5 -30.5q53 0 90 39.5t37 102.5z" />
    <glyph glyph-name="j" unicode="j" horiz-adv-x="771" 
d="M223 1903q0 73 53.5 128t142.5 55t142 -55t53 -128q0 -77 -53 -129.5t-142 -52.5t-142.5 52.5t-53.5 129.5zM267 1519h309v-1609q0 -236 -130 -363t-365 -127h-90v269h62q103 0 158.5 59.5t55.5 164.5v1606z" />
    <glyph glyph-name="k" unicode="k" horiz-adv-x="1515" 
d="M1136 0l-460 647l-177 -195v-452h-309v2070h309v-1170h20l538 588h381l-563 -622l624 -866h-363z" />
    <glyph glyph-name="l" unicode="l" horiz-adv-x="747" 
d="M526 2068v-2068h-309v2068h309z" />
    <glyph glyph-name="lslash" unicode="&#x142;" horiz-adv-x="1003" 
d="M863 1097l-218 -78v-1019h-309v909l-194 -69v201l194 69v958h309v-848l218 78v-201z" />
    <glyph glyph-name="m" unicode="m" horiz-adv-x="2411" 
d="M1364 951v-951h-306v980q0 163 -71 226t-188 63q-113 0 -203 -89t-90 -254v-926h-309v1519h305v-222h15q44 93 149.5 169t250.5 76q139 0 239 -71t150 -181h16q44 94 161 173t278 79q131 0 237 -58t167.5 -182t61.5 -322v-980h-309v985q0 111 -40 172.5t-101 86.5
t-124 25q-134 0 -211.5 -84.5t-77.5 -233.5z" />
    <glyph glyph-name="n" unicode="n" horiz-adv-x="1643" 
d="M506 869v-869h-309v1519h292l5 -222h16q58 106 169.5 175.5t270.5 69.5q142 0 256 -60.5t180.5 -188.5t66.5 -331v-962h-309v946q0 152 -86 237.5t-213 85.5q-87 0 -164.5 -46t-126 -135t-48.5 -219z" />
    <glyph glyph-name="o" unicode="o" horiz-adv-x="1619" 
d="M808 -29q-198 0 -354 93.5t-246 270t-90 426.5q0 241 90 416t246 270t354 95q200 0 357 -90.5t247 -265t90 -425.5q0 -256 -90 -432t-247 -267t-357 -91zM808 236q176 0 276 134.5t100 390.5q0 253 -100 386t-276 133q-169 0 -273.5 -140.5t-104.5 -378.5
q0 -236 100 -380.5t278 -144.5z" />
    <glyph glyph-name="oslash" unicode="&#xf8;" horiz-adv-x="1688" 
d="M797 -29q-137 0 -256 45l-101 -206h-197l143 292q-129 98 -204.5 265.5t-75.5 393.5q0 241 90 416t246 270t355 95q147 0 271 -49l85 173h199l-129 -262q124 -97 195.5 -259t71.5 -384q0 -256 -89.5 -432t-246.5 -267t-357 -91zM418 761q0 -242 103 -384l427 872
q-67 31 -151 31q-169 0 -274 -140.5t-105 -378.5zM1172 761q0 230 -86 365l-424 -864q62 -26 135 -26q175 0 275 134.5t100 390.5z" />
    <glyph glyph-name="ohorn" unicode="&#x1a1;" horiz-adv-x="1771" 
d="M1444 761q0 -256 -89.5 -432t-246 -267t-357.5 -91q-199 0 -355 93.5t-246 270t-90 426.5q0 241 90 416t246 270t355 95q325 0 514 -221q72 35 94 118.5t22 201.5h232q0 -178 -58 -300.5t-191 -175.5q39 -84 59.5 -185t20.5 -219zM751 236q175 0 275 134.5t100 390.5
q0 253 -100 386t-275 133q-169 0 -274 -140.5t-105 -378.5q0 -236 100 -380.5t279 -144.5z" />
    <glyph glyph-name="p" unicode="p" horiz-adv-x="1598" 
d="M890 -28q-138 0 -237.5 52t-168.5 140v-740h-309v2095h282l18 -183q69 95 170 150.5t241 55.5q182 0 315.5 -99t205.5 -273.5t72 -400.5q0 -231 -72.5 -411t-205 -283t-311.5 -103zM1167 769q0 133 -39 247t-120 183.5t-208 69.5q-113 0 -185.5 -60t-109.5 -150.5
t-44 -180.5q-10 -54 -10 -132t10 -126q9 -84 49 -173t115 -150t187 -61q118 0 197 72t118.5 193t39.5 268z" />
    <glyph glyph-name="q" unicode="q" horiz-adv-x="1598" 
d="M1436 1519v-2094h-308v778q-71 -106 -177 -168.5t-256 -62.5q-179 0 -311.5 102.5t-205.5 282t-73 409.5q0 228 72.5 403t206 274t315.5 99q152 0 258 -66.5t177 -178.5l28 222h274zM419 766q0 -146 39 -266.5t117.5 -192t197.5 -71.5q109 0 184 60.5t117 149.5t51 174
q10 50 10 126t-10 130q-7 90 -45 181t-111 151.5t-184 60.5q-127 0 -208 -69.5t-119.5 -183.5t-38.5 -250z" />
    <glyph glyph-name="r" unicode="r" horiz-adv-x="1055" 
d="M989 1535v-308q-35 6 -113 6q-111 0 -193.5 -51.5t-128.5 -135.5t-48 -179v-867h-309v1519h309v-239h15q22 66 78.5 126.5t132.5 98.5t156 38q32 0 60 -1.5t41 -6.5z" />
    <glyph glyph-name="s" unicode="s" horiz-adv-x="1450" 
d="M158 1098q0 120 73 220.5t200 161.5t289 61q193 0 338.5 -71t219.5 -196l-228 -163q-38 55 -116.5 111.5t-205.5 56.5q-114 0 -185 -50.5t-71 -126.5q0 -71 59 -116.5t176 -76.5l176 -47q210 -58 314.5 -163t104.5 -271q0 -141 -76.5 -244t-211 -159t-307.5 -56
q-191 0 -342 67t-233 206l236 168q38 -56 120 -115.5t215 -59.5q122 0 204.5 50.5t82.5 131.5q0 134 -246 204l-192 50q-194 53 -294 157t-100 270z" />
    <glyph glyph-name="t" unicode="t" horiz-adv-x="1003" 
d="M911 7q-40 -13 -78.5 -19t-110.5 -6q-108 0 -206.5 43t-161 134t-62.5 235v870h-229v255h229v344h309v-344h300v-255h-300v-809q0 -93 32.5 -135t80.5 -53.5t96 -11.5q32 0 52.5 2.5t48.5 5.5v-256z" />
    <glyph glyph-name="u" unicode="u" horiz-adv-x="1598" 
d="M1121 637v882h308v-1519h-299l-4 194h-16q-60 -86 -170.5 -151.5t-269.5 -65.5q-122 0 -233.5 60.5t-182.5 188.5t-71 331v962h309v-963q0 -155 81.5 -230.5t214.5 -75.5q84 0 160 42.5t124.5 128.5t48.5 216z" />
    <glyph glyph-name="uhorn" unicode="&#x1b0;" horiz-adv-x="1771" 
d="M985 194q-61 -86 -171.5 -151.5t-269.5 -65.5q-121 0 -232.5 60.5t-182.5 188.5t-71 331v962h309v-963q0 -155 81.5 -230.5t213.5 -75.5q84 0 160 42.5t124.5 128.5t48.5 216v882h309v-213q117 20 142 94.5t25 210.5h222q0 -218 -83 -339.5t-306 -143.5v-1128h-299
l-4 194h-16z" />
    <glyph glyph-name="v" unicode="v" horiz-adv-x="1515" 
d="M1438 1519l-529 -1519h-303l-529 1519h318l347 -1086v-22h31v22l347 1086h318z" />
    <glyph glyph-name="w" unicode="w" horiz-adv-x="2238" 
d="M2148 1519l-431 -1519h-281l-305 1065h-24l-304 -1065h-281l-430 1519h302l277 -1114h17l304 1114h255l303 -1108h18l278 1108h302z" />
    <glyph glyph-name="x" unicode="x" horiz-adv-x="1515" 
d="M441 1519l317 -551l319 551h339l-464 -752l469 -767h-339l-324 541l-324 -541h-340l464 767l-457 752h340z" />
    <glyph glyph-name="y" unicode="y" horiz-adv-x="1515" 
d="M832 -225q-26 -75 -85.5 -162.5t-159 -150t-245.5 -62.5q-42 0 -95.5 6t-87.5 17v258q12 -2 43.5 -4t42.5 -2q131 0 201 40t116 157l47 116l-538 1531h333l359 -1098l356 1098h328z" />
    <glyph glyph-name="z" unicode="z" horiz-adv-x="1515" 
d="M158 1227v269h1193v-213l-786 -1014h805v-269h-1212v221l788 1006h-788z" />
    <glyph glyph-name="ae" unicode="&#xe6;" horiz-adv-x="2539" 
d="M2338 140q-38 -30 -111.5 -69.5t-181 -69t-247.5 -29.5q-178 0 -313.5 58.5t-224.5 163.5q-72 -84 -213 -153t-356 -69q-252 0 -385 125t-133 333q0 218 164.5 336t485.5 118h259v98q0 123 -65 194.5t-185 71.5q-130 0 -207 -63t-77 -149l-333 26q0 131 77.5 233.5
t217 161.5t325.5 59q148 0 265.5 -45.5t192.5 -136.5q85 88 201 135.5t256 46.5q297 0 457 -181.5t160 -490.5v-195h-953q11 -175 107.5 -291.5t296.5 -116.5q155 0 250 42.5t169 83.5zM1750 1248q-150 0 -231 -103.5t-101 -261.5h620v41q0 136 -66 230t-222 94zM756 227
q86 0 176.5 42t149.5 97v288h-259q-155 0 -235.5 -69t-80.5 -161q0 -84 60.5 -140.5t188.5 -56.5z" />
    <glyph glyph-name="oe" unicode="&#x153;" horiz-adv-x="2539" 
d="M2394 150q-74 -66 -210 -122t-335 -56q-172 0 -307.5 64t-225.5 177q-87 -112 -218.5 -176.5t-303.5 -64.5q-218 0 -370.5 99.5t-233 271t-80.5 385.5v32q0 214 80 385.5t232 271t368 99.5q174 0 307 -64.5t220 -177.5q89 115 215.5 179.5t277.5 62.5q310 0 465.5 -186
t155.5 -483v-198h-938q14 -171 106.5 -289.5t269.5 -118.5q147 0 243 36.5t172 89.5zM1810 1248q-126 0 -206 -101t-104 -254h599v36q0 131 -67.5 225t-221.5 94zM444 760v-32q0 -133 35.5 -243.5t113 -177t201.5 -66.5t201 66.5t112.5 177t35.5 243.5v32q0 130 -35.5 241
t-113.5 179t-204 68q-122 0 -198.5 -68t-112 -179t-35.5 -241z" />
    <glyph glyph-name="eth" unicode="&#xf0;" horiz-adv-x="1605" 
d="M1481 764q0 -234 -88.5 -412.5t-242.5 -279t-351 -100.5q-199 0 -350.5 90.5t-236.5 243t-85 338.5q0 209 77.5 365t216.5 242.5t324 86.5q104 0 194.5 -33.5t162.5 -90.5q-36 123 -97.5 222.5t-142.5 178.5l-280 -186l-108 148l238 158q-90 59 -190.5 101.5t-206.5 69.5
l104 269q326 -69 571 -255l246 164l108 -150l-212 -141q164 -170 256.5 -400.5t92.5 -509.5v-119zM459 644q0 -103 40.5 -195t118 -150t187.5 -58q109 0 185 66.5t116 180.5t40 256v142q0 27 -1 53q-39 56 -119 98.5t-203 42.5q-174 0 -269 -116.5t-95 -319.5z" />
    <glyph glyph-name="thorn" unicode="&#xfe;" horiz-adv-x="1605" 
d="M877 -28q-126 0 -223 42.5t-168 118.5v-705h-335v2684h335v-758q71 78 167 120t220 42q188 0 318 -95t197 -265.5t67 -396.5v-30q0 -216 -67 -387.5t-196 -270.5t-315 -99zM779 1243q-108 0 -179.5 -46t-113.5 -124v-660q42 -77 113.5 -124.5t183.5 -47.5q119 0 193.5 67
t109 178t34.5 243v30q0 133 -35 243t-110 175.5t-196 65.5z" />
    <glyph glyph-name="alpha" unicode="&#x3b1;" horiz-adv-x="1771" 
d="M1615 13q-45 -28 -86.5 -34.5t-87.5 -6.5q-108 0 -183.5 53.5t-113.5 170.5q-67 -106 -167 -165t-239 -59q-186 0 -315.5 93.5t-197 256.5t-67.5 374v28q0 232 67 410.5t196.5 280t318.5 101.5q131 0 227.5 -54.5t162.5 -152.5l27 179h287v-1042q0 -115 28.5 -153.5
t72.5 -38.5q21 0 37 7zM492 696q0 -126 32.5 -229.5t105 -164.5t192.5 -61q106 0 175 50t112 133v633q-43 87 -112 139t-171 52q-120 0 -193.5 -72t-107 -191t-33.5 -261v-28z" />
    <glyph glyph-name="beta" unicode="&#x3b2;" horiz-adv-x="1771" 
d="M939 -28q-102 0 -205 28t-188 86v-627h-335v1993q0 166 88 297t234 207t321 76q282 0 450.5 -147t168.5 -397q0 -129 -68.5 -236.5t-189.5 -172.5q166 -60 255.5 -191t89.5 -308q0 -290 -171.5 -449t-449.5 -159zM914 930h-167v255h103q154 0 221.5 79.5t67.5 210.5
q0 111 -71 199.5t-214 88.5q-130 0 -219 -87.5t-89 -223.5v-1098q57 -51 142.5 -82t193.5 -31q163 0 254 97t91 242q0 143 -80.5 246.5t-232.5 103.5z" />
    <glyph glyph-name="gamma" unicode="&#x3b3;" horiz-adv-x="1515" 
d="M1433 1488l-507 -1432v-628h-334v639l-507 1421h345l334 -1051l325 1051h344z" />
    <glyph glyph-name="delta" unicode="&#x3b4;" horiz-adv-x="1605" 
d="M287 1730q0 200 144.5 314t398.5 114q108 0 189.5 -17.5t177.5 -50.5v-270q-57 21 -153 47t-198 26q-109 0 -170.5 -41.5t-61.5 -113.5q0 -46 49 -104t215 -117q304 -107 457.5 -299t153.5 -480v-28q0 -209 -81.5 -376t-234.5 -264.5t-367 -97.5q-218 0 -371.5 96
t-234.5 261t-81 371v28q0 158 60 289t160 219t219 118l-1 8q-123 56 -196.5 149t-73.5 219zM452 746v-26q0 -130 37.5 -239.5t116 -175t200.5 -65.5q121 0 198 65.5t114 175t37 239.5v26q0 104 -42.5 205.5t-121 176t-185.5 96.5q-122 0 -200.5 -66.5t-116 -175
t-37.5 -236.5z" />
    <glyph glyph-name="epsilon" unicode="&#x3b5;" horiz-adv-x="1605" 
d="M794 881h272v-240h-272q-145 0 -225.5 -48.5t-80.5 -157.5q0 -79 81 -141.5t231 -62.5q149 0 233 63.5t84 148.5h331q0 -163 -94 -267.5t-240 -154t-303 -49.5q-188 0 -336 53.5t-234 154t-86 240.5q0 129 73.5 216.5t208.5 130.5q-119 48 -187 131t-68 182
q0 213 174 324.5t455 111.5q168 0 307.5 -54.5t223 -155.5t83.5 -240h-332q0 84 -84 137.5t-208 53.5q-148 0 -216.5 -60.5t-68.5 -130.5q0 -82 66.5 -133.5t211.5 -51.5z" />
    <glyph glyph-name="zeta" unicode="&#x3b6;" horiz-adv-x="1515" 
d="M157 1736v268h1201v-201l-480 -578q-98 -115 -166.5 -215.5t-104.5 -208t-36 -241.5q0 -128 49.5 -187.5t156.5 -89.5l149 -42q110 -32 196 -65t136 -94t49 -176q-1 -76 -46 -160t-110 -158t-126 -120l-172 139q128 139 127 237q1 46 -40.5 79.5t-142.5 59.5l-113 33
q-240 64 -343.5 181.5t-103.5 329.5q0 190 93.5 397t290.5 438l325 374h-789z" />
    <glyph glyph-name="eta" unicode="&#x3b7;" horiz-adv-x="1515" 
d="M1380 955v-1527h-335v1524q0 163 -69.5 229.5t-200.5 66.5q-109 0 -185 -45.5t-120 -122.5v-1080h-333v1488h305l16 -179q76 97 185 152t244 55q149 0 260 -52t172 -175t61 -334z" />
    <glyph glyph-name="theta" unicode="&#x3b8;" horiz-adv-x="1605" 
d="M1458 1150v-286q0 -458 -178.5 -675t-473.5 -217t-477 217t-182 675v286q0 455 180.5 668.5t474.5 213.5q296 0 476 -213.5t180 -668.5zM482 1200v-67h641v67q0 285 -82.5 424t-238.5 139q-154 0 -237 -139t-83 -424zM482 816q0 -287 85 -431t239 -144q317 0 317 575v55
h-641v-55z" />
    <glyph glyph-name="iota" unicode="&#x3b9;" horiz-adv-x="1003" 
d="M202 1488h332l-2 -1066q0 -102 44 -132t114 -30q33 0 65 5t51 10v-259q-40 -12 -93.5 -23.5t-126.5 -11.5q-166 0 -275 95.5t-109 324.5v1087z" />
    <glyph glyph-name="lambda" unicode="&#x3bb;" horiz-adv-x="1771" 
d="M1625 -12q-45 -13 -127 -13q-146 0 -230.5 61.5t-146.5 229.5l-270 714l-341 -980h-364l531 1430l-117 282q-29 72 -68.5 98.5t-98.5 26.5q-14 0 -34 -0.5t-37 -3.5l-4 252q29 9 83 15t93 6q152 0 234.5 -61t123.5 -171l585 -1491q26 -62 56 -95.5t80 -33.5h47z" />
    <glyph glyph-name="xi" unicode="&#x3be;" horiz-adv-x="1515" 
d="M966 1284h202v-274h-196q-236 0 -360.5 -96t-124.5 -292q0 -108 49 -180.5t128.5 -117t171.5 -66.5l146 -34q118 -29 203.5 -65.5t132 -98t45.5 -165.5q-1 -77 -46 -160.5t-109 -157t-124 -120.5l-183 136q66 73 100.5 128t34.5 117q0 49 -42 80t-140 57l-81 21
q-190 51 -329.5 115.5t-215.5 181.5t-76 323q0 201 113 335.5t312 197.5q-152 54 -237.5 152.5t-85.5 229.5q0 235 182 368t486 133q115 0 209 -17t170 -46l-50 -261q-88 24 -157.5 38t-151.5 14q-184 0 -268.5 -65.5t-84.5 -157.5q0 -112 87.5 -182.5t289.5 -70.5z" />
    <glyph glyph-name="pi" unicode="&#x3c0;" horiz-adv-x="1861" 
d="M117 1229v259h1577v-259h-220v-807q0 -102 43.5 -132t111.5 -30q34 0 66.5 5t52.5 10v-259q-40 -12 -95.5 -23.5t-127.5 -11.5q-166 0 -275.5 95.5t-109.5 324.5v828h-457v-1229h-332v1229h-234z" />
    <glyph glyph-name="rho" unicode="&#x3c1;" horiz-adv-x="1605" 
d="M878 -28q-127 0 -224 43t-167 122v-709h-335v1363q0 225 84 387.5t231 250t335 87.5q216 0 361 -101.5t217.5 -280t72.5 -410.5v-28q0 -211 -66 -374t-194.5 -256.5t-314.5 -93.5zM487 774v-371q43 -74 115 -118.5t183 -44.5q119 0 192.5 61.5t107 165t33.5 229.5v28
q0 142 -31.5 261t-103 191t-191.5 72q-108 0 -175 -71t-98.5 -180t-31.5 -223z" />
    <glyph glyph-name="sigma1" unicode="&#x3c2;" horiz-adv-x="1515" 
d="M795 1516q175 0 310 -66.5t211 -192t76 -301.5h-315q0 118 -69 205t-213 87q-123 0 -196.5 -70t-105.5 -180t-32 -230v-48q0 -182 103 -289t313 -166q119 -33 208.5 -67t140.5 -96t53 -179q-1 -75 -45.5 -159.5t-108.5 -159t-125 -120.5l-175 139q66 72 97 126.5
t31 116.5q0 56 -43.5 86t-134.5 51q-322 79 -485.5 251.5t-163.5 465.5v48q0 204 77.5 374t227 272t364.5 102z" />
    <glyph glyph-name="sigma" unicode="&#x3c3;" horiz-adv-x="1771" 
d="M1508 672q0 -187 -79 -346.5t-229 -256.5t-363 -97q-218 0 -371 99.5t-233.5 271t-80.5 385.5v32q0 206 80 371t232.5 261t368.5 96h786v-268h-366q116 -91 185.5 -224.5t69.5 -295.5v-28zM487 760v-32q0 -133 35 -244t111.5 -177.5t203.5 -66.5q121 0 194.5 66.5
t107.5 177.5t34 244v32q0 124 -34 228.5t-108.5 168t-197.5 63.5t-199.5 -63.5t-111.5 -168t-35 -228.5z" />
    <glyph glyph-name="tau" unicode="&#x3c4;" horiz-adv-x="1515" 
d="M111 1223v265h1294v-265h-495v-812q0 -97 37 -131t92 -34q40 0 71 10t57 22l54 -241q-67 -41 -128 -53t-130 -12q-181 0 -284.5 106t-103.5 341v804h-464z" />
    <glyph glyph-name="upsilon" unicode="&#x3c5;" horiz-adv-x="1515" 
d="M144 1488h334v-906q0 -190 63 -266t158 -76q115 0 194 81t120 205t41 253q-3 183 -46.5 360.5t-107.5 348.5h329q63 -126 111 -304.5t48 -404.5q0 -218 -71 -401.5t-220 -294.5t-383 -111q-262 0 -416 147.5t-154 466.5v902z" />
    <glyph glyph-name="phi" unicode="&#x3c6;" horiz-adv-x="2117" 
d="M1984 758q0 -187 -74.5 -354.5t-242.5 -282t-450 -141.5v-636h-332v637q-275 31 -439.5 150.5t-237.5 295t-73 373.5q0 221 87.5 402.5t242.5 295.5l209 -202q-106 -103 -153 -236t-51 -260q0 -124 39 -237t130 -195t246 -112v884q0 160 109.5 259t277.5 99
q217 0 377 -103.5t247.5 -272t87.5 -364.5zM1217 1149v-896q162 27 257 104t136 182.5t41 218.5q-3 126 -44 233.5t-119 173t-194 65.5q-45 0 -61 -26t-16 -55z" />
    <glyph glyph-name="psi" unicode="&#x3c8;" horiz-adv-x="2117" 
d="M1970 800q0 -200 -73 -377t-240.5 -296.5t-451.5 -147.5v-635h-332v638q-335 39 -530.5 240.5t-195.5 593.5v672h335v-674q0 -263 110 -392.5t281 -165.5v1232h332v-1234q160 30 255 112t137 195.5t42 238.5q-5 178 -50 350t-112 338h327q65 -123 115.5 -296.5
t50.5 -391.5z" />
    <glyph glyph-name="omega" unicode="&#x3c9;" horiz-adv-x="2373" 
d="M1015 662v447h345v-447q0 -231 74 -326t184 -95q94 0 149.5 74.5t79.5 197.5t24 267q-6 183 -58.5 360t-135.5 348h333q78 -126 137 -304.5t59 -403.5q0 -218 -54.5 -402t-181 -295t-340.5 -111q-317 0 -443 307q-126 -307 -445 -307q-213 0 -338 111t-179 295t-54 402
q0 225 57.5 403.5t135.5 304.5h332q-81 -171 -134.5 -348t-57.5 -360q0 -143 24 -266t79 -198t149 -75q109 0 184 95t75 326z" />
    <glyph glyph-name="tonos" unicode="&#x384;" horiz-adv-x="837" 
d="M194 1632l83 471h306l-190 -471h-199z" />
    <glyph glyph-name="becyrillic" unicode="&#x431;" horiz-adv-x="1771" 
d="M1568 692q0 -205 -80 -368t-232.5 -257.5t-370.5 -94.5q-217 0 -369 98t-232 267.5t-80 382.5v30v4v74q0 351 83.5 582t234.5 358.5t352 168.5q150 31 228.5 69t78.5 133h270q0 -167 -62.5 -257t-177.5 -135t-274 -78q-173 -37 -293.5 -140t-161.5 -327q91 94 207.5 148
t258.5 54q197 0 336 -89t211.5 -243t72.5 -350v-30zM885 1136q-124 0 -201.5 -57t-113 -151.5t-35.5 -205.5v-30q0 -123 35.5 -226t112.5 -164.5t202 -61.5q124 0 201 61.5t113 164.5t36 226v30q0 111 -35.5 205.5t-113 151.5t-201.5 57z" />
    <glyph glyph-name="vecyrillic" unicode="&#x432;" horiz-adv-x="1605" 
d="M1450 424q0 -210 -156.5 -317t-435.5 -107h-699v1488h603q287 0 455 -100.5t168 -310.5q0 -102 -64 -184.5t-186 -126.5q157 -35 236 -128.5t79 -213.5zM490 1223v-349h277q285 0 285 169q0 180 -290 180h-272zM1115 447q0 86 -61.5 136.5t-195.5 50.5h-368v-369h368
q257 0 257 182z" />
    <glyph glyph-name="gecyrillic" unicode="&#x433;" horiz-adv-x="1259" 
d="M1121 1488v-268h-648v-1220h-332v1488h980z" />
    <glyph glyph-name="gheupturncyrillic" unicode="&#x491;" horiz-adv-x="1349" 
d="M1197 1919v-699h-722v-1220h-332v1488h719v431h335z" />
    <glyph glyph-name="uni04FB" unicode="&#x4fb;" horiz-adv-x="1515" 
d="M1067 704h-364v-704h-332v704h-223v235h223v549h980v-268h-648v-281h364v-235zM851 277h332v-371q0 -248 -128.5 -380t-355.5 -132q-47 0 -87.5 4t-85.5 16l20 274q23 -9 64 -14t69 -5q80 0 126 60.5t46 176.5v371z" />
    <glyph glyph-name="decyrillic" unicode="&#x434;" horiz-adv-x="1861" 
d="M486 960l19 528h1033v-1219h207v-713h-335v444h-953v-444h-339v713h125q76 85 128 171.5t80.5 208t34.5 311.5zM821 960q-8 -240 -58 -408.5t-129 -282.5h571v933h-377z" />
    <glyph glyph-name="zhecyrillic" unicode="&#x436;" horiz-adv-x="2373" 
d="M1020 0v598h-176l-345 -598h-408l492 775l-465 713h406l339 -583h157v583h332v-583h158l339 583h409l-465 -708l493 -780h-412l-343 598h-179v-598h-332z" />
    <glyph glyph-name="zhedescendercyrillic" unicode="&#x497;" horiz-adv-x="2462" 
d="M2364 251v-746h-335v495h-149l-343 598h-179v-598h-332v598h-176l-345 -598h-408l492 775l-465 713h406l339 -583h157v583h332v-583h158l339 583h409l-465 -708l334 -529h231z" />
    <glyph glyph-name="zecyrillic" unicode="&#x437;" horiz-adv-x="1515" 
d="M775 641h-239v239h239q130 0 181.5 52t51.5 134q0 70 -53 130.5t-188 60.5q-113 0 -187.5 -53.5t-74.5 -137.5h-332q0 139 79.5 240t212 155.5t292.5 54.5q269 0 426.5 -111.5t157.5 -324.5q0 -99 -60.5 -181.5t-169.5 -131.5q258 -88 258 -347q0 -140 -78 -240.5
t-216 -154t-318 -53.5q-149 0 -289 49.5t-229.5 154t-89.5 267.5h332q0 -85 75 -149.5t211 -64.5q137 0 201 63.5t64 142.5q0 109 -62.5 157.5t-194.5 48.5z" />
    <glyph glyph-name="iicyrillic" unicode="&#x438;" horiz-adv-x="1515" 
d="M469 497l581 991h333v-1488h-333v995l-581 -995h-335v1488h335v-991z" />
    <glyph glyph-name="uni048B" unicode="&#x48b;" horiz-adv-x="1861" 
d="M993 2059h251q0 -170 -120 -279t-325 -109q-203 0 -322.5 109t-119.5 279h250q0 -75 43.5 -132t148.5 -57t149.5 57t44.5 132zM430 497l581 991h333v-1488h-333v995l-581 -995h-335v1488h335v-991zM1740 206v-224q-2 -145 -61 -282t-151 -249l-209 65q49 110 89 216
t40 237v237h292z" />
    <glyph glyph-name="kacyrillic" unicode="&#x43a;" horiz-adv-x="1605" 
d="M1105 0l-414 590h-170v-590h-333v1488h333v-593h149l410 593h414l-538 -712l582 -776h-433z" />
    <glyph glyph-name="kahookcyrillic" unicode="&#x4c4;" horiz-adv-x="1771" 
d="M1523 233q1 -104 -50.5 -230.5t-166 -233.5t-301.5 -152l-118 237q160 52 232 147t73 232q-2 187 -119.5 272t-312.5 85h-192v-590h-334v1488h334v-593h115l444 593h411l-513 -649q226 -53 362 -203.5t136 -402.5z" />
    <glyph glyph-name="kadescendercyrillic" unicode="&#x49b;" horiz-adv-x="1861" 
d="M1668 251v-746h-335v495h-235l-414 590h-170v-590h-333v1488h333v-593h149l410 593h414l-538 -712l394 -525h325z" />
    <glyph glyph-name="kaverticalstrokecyrillic" unicode="&#x49d;" horiz-adv-x="1771" 
d="M613 345v245h-118v-590h-335v1488h335v-593h118v275h215v-275h52l285 593h413l-435 -707l469 -781h-423l-299 590h-62v-245h-215z" />
    <glyph glyph-name="kabashkircyrillic" unicode="&#x4a1;" horiz-adv-x="2027" 
d="M59 1219v269h881v-593h149l410 593h415l-538 -712l582 -776h-434l-414 590h-170v-590h-333v1219h-548z" />
    <glyph glyph-name="elcyrillic" unicode="&#x43b;" horiz-adv-x="1515" 
d="M356 856l27 632h1071v-1488h-335v1220h-419l-27 -467q-23 -411 -142 -582t-365 -171h-100l-1 281l53 4q128 10 176 140.5t62 430.5z" />
    <glyph glyph-name="uni04C6" unicode="&#x4c6;" horiz-adv-x="1861" 
d="M368 856l27 632h1071v-1488h-335v1220h-419l-27 -467q-23 -411 -142 -582t-365 -171h-100l-1 281l53 4q128 10 176 140.5t62 430.5zM1796 206v-224q-2 -145 -61 -282t-151 -249l-209 65q49 110 89 216t40 237v237h292z" />
    <glyph glyph-name="uni0513" unicode="&#x513;" horiz-adv-x="1882" 
d="M389 856l27 632h1071v-1488h-335v1220h-419l-27 -467q-22 -411 -141.5 -582t-365.5 -171h-100l-1 281l53 4q128 10 176 140.5t62 430.5zM1627 283h332v-371q0 -248 -128.5 -380t-355.5 -132q-47 0 -87.5 4t-85.5 16l20 274q23 -9 64 -14t69 -5q80 0 126 60.5t46 176.5
v371z" />
    <glyph glyph-name="uni052F" unicode="&#x52f;" horiz-adv-x="1861" 
d="M420 1488h1072v-1237h270v-746h-334v495h-271v1220h-420l-26 -467q-21 -411 -140 -582t-365 -171h-102l-2 281l54 4q128 10 176.5 140.5t60.5 430.5z" />
    <glyph glyph-name="emcyrillic" unicode="&#x43c;" horiz-adv-x="2027" 
d="M1013 413l442 1075h417v-1488h-333v985l-411 -985h-226l-412 995v-995h-332v1488h419z" />
    <glyph glyph-name="uni04CE" unicode="&#x4ce;" horiz-adv-x="2373" 
d="M991 413l442 1075h417v-1488h-333v985l-411 -985h-226l-412 995v-995h-332v1488h419zM2240 206v-224q-2 -145 -61 -282t-151 -249l-209 65q49 110 89 216t40 237v237h292z" />
    <glyph glyph-name="encyrillic" unicode="&#x43d;" horiz-adv-x="1515" 
d="M1046 0v601h-577v-601h-335v1488h335v-619h577v619h335v-1488h-335z" />
    <glyph glyph-name="endescendercyrillic" unicode="&#x4a3;" horiz-adv-x="1861" 
d="M1709 251v-746h-335v495h-321v601h-577v-601h-335v1488h335v-619h577v619h335v-1237h321z" />
    <glyph glyph-name="enghecyrillic" unicode="&#x4a5;" horiz-adv-x="2027" 
d="M454 1488v-619h577v619h867v-268h-532v-1220h-335v601h-577v-601h-335v1488h335z" />
    <glyph glyph-name="enhookcyrillic" unicode="&#x4c8;" horiz-adv-x="1515" 
d="M134 1488h335v-619h577v619h335v-1576q0 -248 -128.5 -380t-354.5 -132q-47 0 -88.5 4t-88.5 16l20 264q26 -9 68 -12.5t70 -3.5q79 0 123 64t44 180v689h-577v-601h-335v1488z" />
    <glyph glyph-name="uni04CA" unicode="&#x4ca;" horiz-adv-x="1861" 
d="M1021 0v601h-577v-601h-335v1488h335v-619h577v619h335v-1488h-335zM1753 206v-224q-2 -145 -61 -282t-151 -249l-209 65q49 110 89 216t40 237v237h292z" />
    <glyph glyph-name="fitacyrillic" unicode="&#x473;" horiz-adv-x="1771" 
d="M797 -29q-199 0 -355 93.5t-246 270t-90 426.5q0 241 90 416t246 270t355 95q201 0 357.5 -90.5t246 -265t89.5 -425.5q0 -256 -89.5 -432t-246 -267t-357.5 -91zM797 1280q-150 0 -250.5 -111.5t-122.5 -303.5h743q-20 203 -117 309t-253 106zM797 236q151 0 247 100.5
t120 293.5h-737q26 -181 122 -287.5t248 -106.5z" />
    <glyph glyph-name="pecyrillic" unicode="&#x43f;" horiz-adv-x="1515" 
d="M134 0v1488h1249v-1488h-333v1220h-583v-1220h-333z" />
    <glyph glyph-name="uni0525" unicode="&#x525;" horiz-adv-x="1861" 
d="M1691 251v-746h-335v495h-268v1220h-582v-1220h-335v1488h1249v-1237h271z" />
    <glyph glyph-name="uni048F" unicode="&#x48f;" horiz-adv-x="1771" 
d="M872 -28q-138 0 -237.5 52t-168.5 140v-740h-309v2095h282l18 -183q69 95 170 150.5t241 55.5q182 0 315 -99t205.5 -273.5t72.5 -400.5q0 -174 -42 -320.5t-119 -252.5l152 -177l-153 -138l-148 172q-125 -81 -279 -81zM442 620q10 -84 50 -173t115 -150t187 -61
q90 0 161 46l-149 173l152 138l128 -149q62 135 62 325q0 133 -38.5 247t-119.5 183.5t-208 69.5q-113 0 -186 -60t-110.5 -150.5t-43.5 -180.5q-10 -54 -10 -132t10 -126z" />
    <glyph glyph-name="tecyrillic" unicode="&#x442;" horiz-adv-x="1515" 
d="M111 1223v265h1294v-265h-482v-1223h-335v1223h-477z" />
    <glyph glyph-name="efcyrillic" unicode="&#x444;" horiz-adv-x="2117" 
d="M1425 -28q-118 0 -209 42v-586h-331v581q-85 -37 -193 -37q-176 0 -297.5 93.5t-184 256.5t-62.5 374v28q0 232 62 410.5t184 280t301 101.5q106 0 190 -37v633h331v-640q90 44 206 44q180 0 302 -101.5t183.5 -280t61.5 -410.5v-28q0 -211 -62.5 -374t-183.5 -256.5
t-298 -93.5zM1328 1248q-63 0 -112 -17v-976q50 -14 115 -14q111 0 177.5 61t96 164.5t29.5 229.5v28q0 142 -30 261t-97 191t-179 72zM483 696q0 -126 27.5 -229.5t92 -164.5t175.5 -61q60 0 107 13v979q-47 15 -107 15q-110 0 -174.5 -72t-92.5 -191t-28 -261v-28z" />
    <glyph glyph-name="uni04FD" unicode="&#x4fd;" horiz-adv-x="1626" 
d="M1598 -88q0 -248 -129 -380t-355 -132q-47 0 -87.5 4t-85.5 16l20 274q23 -9 64 -14t69 -5q80 0 126 60.5t46 176.5v88h-271l-324 541l-324 -541h-340l464 767l-457 752h340l317 -551l319 551h339l-464 -752l401 -656v172h332v-371z" />
    <glyph glyph-name="hadescendercyrillic" unicode="&#x4b3;" horiz-adv-x="1605" 
d="M1487 251v-746h-335v495h-45l-324 541l-324 -541h-340l464 767l-457 752h340l317 -551l319 551h339l-464 -752l316 -516h194z" />
    <glyph glyph-name="tsecyrillic" unicode="&#x446;" horiz-adv-x="1771" 
d="M1611 268l-27 -708h-304v440h-1120v1488h335v-1219h582v1219h332v-1220h202z" />
    <glyph glyph-name="dzhecyrillic" unicode="&#x45f;" horiz-adv-x="1515" 
d="M1383 0h-457v-493h-331v493h-461v1488h333v-1219h583v1219h333v-1488z" />
    <glyph glyph-name="checyrillic" unicode="&#x447;" horiz-adv-x="1515" 
d="M1375 1488v-1488h-332v498q-64 -15 -133.5 -23.5t-141.5 -8.5q-288 0 -457 139t-169 429v457h333v-457q0 -162 73 -229.5t220 -67.5q75 0 142.5 8t132.5 24v719h332z" />
    <glyph glyph-name="chedescendercyrillic" unicode="&#x4b7;" horiz-adv-x="1861" 
d="M1682 251v-746h-335v495h-256v498q-64 -15 -133.5 -23.5t-141.5 -8.5q-288 0 -457 139t-169 429v457h333v-457q0 -162 73 -229.5t220 -67.5q75 0 142.5 8t132.5 24v719h332v-1237h259z" />
    <glyph glyph-name="cheverticalstrokecyrillic" unicode="&#x4b9;" horiz-adv-x="1515" 
d="M1385 1488v-1488h-332v498q-86 -20 -173 -28v-188h-225v191q-234 27 -368.5 165.5t-134.5 395.5v457h333v-457q0 -123 42.5 -191t127.5 -92v363h225v-373q86 7 173 28v719h332z" />
    <glyph glyph-name="shacyrillic" unicode="&#x448;" horiz-adv-x="2283" 
d="M175 1488h334v-1219h467v1219h335v-1219h463v1219h335v-1488h-1934v1488z" />
    <glyph glyph-name="shchacyrillic" unicode="&#x449;" horiz-adv-x="2629" 
d="M2409 268l-28 -708h-304v440h-1867v1488h335v-1219h467v1219h335v-1219h463v1219h334v-1220h265z" />
    <glyph glyph-name="softsigncyrillic" unicode="&#x44c;" horiz-adv-x="1605" 
d="M1432 510q0 -145 -70 -260.5t-203 -182.5t-324 -67h-662v1488h335v-473h327q286 0 441.5 -142t155.5 -363zM508 268h327q145 0 204 71.5t59 162.5q0 92 -59 168.5t-204 76.5h-327v-479z" />
    <glyph glyph-name="hardsigncyrillic" unicode="&#x44a;" horiz-adv-x="1861" 
d="M88 1219v269h739v-473h327q286 0 441.5 -142t155.5 -363q0 -145 -70 -260.5t-203.5 -182.5t-323.5 -67h-662v1219h-404zM827 268h327q145 0 204 71.5t59 162.5q0 92 -59 168.5t-204 76.5h-327v-479z" />
    <glyph glyph-name="yericyrillic" unicode="&#x44b;" horiz-adv-x="2283" 
d="M2061 1519v-1519h-312v1519h312zM1461 510q0 -145 -70 -260.5t-203.5 -182.5t-323.5 -67h-662v1488h335v-473h327q286 0 441.5 -142t155.5 -363zM537 268h327q145 0 204 71.5t59 162.5q0 92 -59 168.5t-204 76.5h-327v-479z" />
    <glyph glyph-name="uni048D" unicode="&#x48d;" horiz-adv-x="1605" 
d="M1553 535q0 -153 -70 -274t-203.5 -191t-323.5 -70h-662v1769h-242v235h242v244h335v-244h398v-235h-398v-708h327q286 0 441.5 -148.5t155.5 -377.5zM629 268h327q145 0 204 80t59 179q0 98 -59 182.5t-204 84.5h-327v-526z" />
    <glyph glyph-name="yatcyrillic" unicode="&#x463;" horiz-adv-x="1605" 
d="M1553 535q0 -153 -70 -274t-203.5 -191t-323.5 -70h-662v1488h-242v235h242v422h335v-422h398v-235h-398v-427h327q286 0 441.5 -148.5t155.5 -377.5zM629 268h327q145 0 204 80t59 179q0 98 -59 182.5t-204 84.5h-327v-526z" />
    <glyph glyph-name="ljecyrillic" unicode="&#x459;" horiz-adv-x="2539" 
d="M422 856l28 632h1038v-517h326q286 0 441.5 -136.5t155.5 -345.5q0 -210 -155.5 -349.5t-441.5 -139.5h-661v1220h-388l-24 -467q-23 -411 -142.5 -582t-366.5 -171h-101l-2 281l54 4q129 10 177 140.5t62 430.5zM1488 265h326q145 0 204 71.5t59 155.5q0 82 -59 147
t-204 65h-326v-439z" />
    <glyph glyph-name="njecyrillic" unicode="&#x45a;" horiz-adv-x="2539" 
d="M1098 0v656h-580v-656h-332v1488h332v-564h580v564h333v-519h326q289 0 444.5 -135.5t155.5 -344.5q0 -210 -155.5 -349.5t-444.5 -139.5h-659zM1431 265h326q146 0 205.5 71.5t59.5 155.5q0 82 -59.5 147t-205.5 65h-326v-439z" />
    <glyph glyph-name="ereversedcyrillic" unicode="&#x44d;" horiz-adv-x="1515" 
d="M1392 720q0 -204 -77.5 -374t-227.5 -272t-367 -102q-174 0 -308 72t-210 198t-76 290h315q0 -118 77.5 -204.5t201.5 -86.5q109 0 179 56t107.5 146.5t46.5 194.5h-469v231h468q-12 101 -49 187.5t-106.5 139t-176.5 52.5q-113 0 -196 -71.5t-83 -180.5h-315
q0 143 82 261t217 188.5t295 70.5q217 0 367 -102t227.5 -272t77.5 -374v-48z" />
    <glyph glyph-name="iucyrillic" unicode="&#x44e;" horiz-adv-x="2283" 
d="M2095 761q0 -256 -89.5 -432t-246.5 -267t-357 -91q-179 0 -324.5 76.5t-239.5 222t-119 352.5h-296v-622h-312v1519h312v-628h296q24 202 117.5 348t239.5 224.5t326 78.5q200 0 357 -90.5t246.5 -265t89.5 -425.5zM1402 236q176 0 276 134.5t100 390.5q0 253 -100 386
t-276 133q-169 0 -273.5 -140.5t-104.5 -378.5q0 -236 100 -380.5t278 -144.5z" />
    <glyph glyph-name="iacyrillic" unicode="&#x44f;" horiz-adv-x="1515" 
d="M1079 0v547h-311l-319 -547h-347l351 602q-137 57 -211 165t-74 245q0 207 160 341.5t443 134.5h643v-1488h-335zM753 795h326v428h-308q-140 0 -204 -69.5t-64 -146.5q0 -78 59.5 -145t190.5 -67z" />
    <glyph glyph-name="ghemiddlehookcyrillic" unicode="&#x495;" horiz-adv-x="1515" 
d="M1364 240q1 -79 -27.5 -173.5t-90.5 -186.5t-162 -164.5t-241 -107.5l-115 237q160 53 232 153t73 242q-1 188 -112 286.5t-292 98.5h-157v-625h-333v1488h981v-268h-648v-317h157q215 0 381 -76.5t260 -224.5t94 -362z" />
    <glyph glyph-name="pemiddlehookcyrillic" unicode="&#x4a7;" horiz-adv-x="2539" 
d="M143 0v1488h1248v-579h232q223 0 396 -77t271.5 -224.5t98.5 -361.5q0 -106 -52.5 -236.5t-167.5 -241t-303 -156.5l-116 237q161 55 232.5 155t72.5 242q-1 188 -120 285.5t-312 97.5h-232v-629h-332v1220h-583v-1220h-333z" />
    <glyph glyph-name="djecyrillic" unicode="&#x452;" horiz-adv-x="1682" 
d="M1521 -88q0 -248 -128.5 -380t-354.5 -132q-47 0 -88.5 4t-87.5 16l19 264q26 -9 68 -12.5t69 -3.5q80 0 124 64t44 180v728h53v323q0 156 -80 231t-213 75q-84 0 -160 -42.5t-124.5 -128.5t-48.5 -216v-882h-309v1649h-260v235h260v186h299l1 -186h359v-235h-357l2 -323
h16q60 86 170.5 151t269.5 65q121 0 232.5 -60.5t182.5 -188.5t71 -331v-962h-29v-88z" />
    <glyph glyph-name="tshecyrillic" unicode="&#x45b;" horiz-adv-x="1682" 
d="M604 882v-882h-309v1660h-235v235h235v175h299l1 -175h384v-235h-382l2 -334h16q60 86 170.5 151t269.5 65q121 0 232.5 -60.5t182.5 -188.5t71 -331v-962h-311v963q0 156 -80 231t-213 75q-83 0 -159.5 -42.5t-125 -128.5t-48.5 -216z" />
    <glyph glyph-name="uni0527" unicode="&#x527;" horiz-adv-x="1861" 
d="M1683 251v-746h-335v495h-271v962q0 154 -66.5 217.5t-194.5 63.5q-103 0 -179.5 -47.5t-122.5 -129.5v-1066h-332v2112h332v-787q76 89 182 140t233 51q219 0 351 -128t132 -430v-707h271z" />
    <glyph glyph-name="ecyrillic" unicode="&#x454;" horiz-adv-x="1515" 
d="M1382 477q-14 -149 -97.5 -263.5t-221 -179.5t-314.5 -65q-215 0 -371 101t-240 279.5t-84 410.5q0 227 83.5 403.5t239 277.5t371.5 101q182 0 319.5 -70.5t219 -189t95.5 -261.5h-299q-23 103 -104.5 181t-230.5 78q-165 0 -262.5 -120t-116.5 -309h488v-232h-481
q27 -173 122 -278t249 -105q140 0 226.5 66t109.5 175h299z" />
    <glyph glyph-name="haabkhasiancyrillic" unicode="&#x4a9;" horiz-adv-x="1861" 
d="M1708 -26q-132 0 -247.5 19.5t-212.5 56.5q-164 -78 -364 -78q-218 0 -381.5 104t-254.5 282.5t-91 401.5v104q0 186 67 333.5t187 233t279 85.5v-277q-90 -5 -139.5 -109t-49.5 -266v-104q0 -145 46 -260.5t132 -182.5t205 -67q26 0 51 2q-197 208 -197 511v175
q0 167 55.5 298.5t157.5 207t241 75.5q142 0 246 -83t161 -224.5t57 -318.5v-172q0 -145 -46 -271t-130 -224q105 -24 228 -24v-228zM1022 752q0 -236 166 -384q137 135 137 363v176q0 139 -40.5 236t-112.5 97q-73 0 -111.5 -87t-38.5 -220v-181z" />
    <glyph glyph-name="tetsecyrillic" unicode="&#x4b5;" horiz-adv-x="2027" 
d="M120 1219v269h974v-269h-326v-950h581v1219h333v-1220h202l-27 -708h-304v440h-1120v1219h-313z" />
    <glyph glyph-name="cheabkhasiancyrillic" unicode="&#x4bd;" horiz-adv-x="1771" 
d="M1683 288q-65 -132 -214 -225.5t-375 -93.5q-212 0 -367.5 90.5t-245 249.5t-104.5 365q-182 40 -276.5 172.5t-94.5 336.5h232q0 -98 36 -169t111 -105q26 187 115 330t232 223t332 80q191 0 340.5 -80.5t235.5 -250t86 -436.5v-131h-1032q24 -189 130.5 -298.5
t279.5 -109.5q126 0 211 52t137 149zM1065 1280q-156 0 -251 -111t-119 -291h727q0 182 -104 292t-253 110z" />
    <glyph glyph-name="dzeabkhasiancyrillic" unicode="&#x4e1;" horiz-adv-x="1605" 
d="M743 433h-198v234l481 553h-844v268h1250v-213l-515 -610q274 -33 423.5 -192t149.5 -429q0 -186 -91 -317.5t-250 -201t-363 -69.5q-123 0 -242.5 34t-216 105t-154.5 181.5t-58 263.5h334q0 -129 92 -222.5t245 -93.5q176 0 274 92.5t98 229.5q0 208 -106.5 297.5
t-308.5 89.5z" />
    <glyph glyph-name="izhitsacyrillic" unicode="&#x475;" horiz-adv-x="1515" 
d="M1218 1100l-365 -1100h-291l-503 1488h346l274 -983l28 -134l27 134l167 611q63 204 166.5 302t243.5 98q39 0 75 -5t70 -25l-31 -264q-13 9 -62 9q-45 0 -85.5 -38.5t-59.5 -92.5z" />
    <glyph glyph-name="dz" unicode="&#x2a3;" horiz-adv-x="2795" 
d="M2611 269v-269h-1464l-18 218q-70 -112 -178.5 -179t-263.5 -67q-179 0 -312 102.5t-206 282t-73 409.5q0 228 72.5 403t206.5 274t316 99q148 0 253 -64t175 -172v764h309v-582h1154v-209l-760 -1010h789zM410 766q0 -146 39 -266.5t118 -192t198 -71.5q109 0 184 60.5
t116.5 149.5t50.5 174q10 50 10 126t-10 130q-6 90 -44.5 181t-111.5 151.5t-183 60.5q-127 0 -208.5 -69.5t-120 -183.5t-38.5 -250zM1428 1220v-967l733 967h-733z" />
    <glyph glyph-name="Dzcaron" unicode="&#x1c5;" horiz-adv-x="3307" 
d="M2241 2092l192 -194l191 194h285v-22l-370 -346h-215l-367 344v24h284zM214 0v2033h630q270 0 484 -124.5t338 -351.5t124 -532q0 -324 -124.5 -553.5t-342 -350.5t-498.5 -121h-611zM825 1750h-287v-1474h270q297 0 475 192t178 557q0 221 -80.5 383.5t-224 252
t-331.5 89.5zM1842 1220v268h1163v-209l-761 -1010h792v-269h-1209v221l756 999h-741z" />
    <glyph glyph-name="dzcaron" unicode="&#x1c6;" horiz-adv-x="3051" 
d="M1220 0l-24 161q-71 -90 -171.5 -139.5t-234.5 -49.5q-178 0 -309.5 99t-203 269.5t-71.5 387.5v28q0 226 71.5 397t203 267t313.5 96q122 0 216.5 -42.5t164.5 -121.5v792h332v-2144h-287zM2052 2092l192 -194l191 194h285v-22l-367 -346h-216l-367 344v24h282z
M1655 1220v268h1163v-209l-760 -1010h789v-269h-1207v221l757 999h-742zM539 728q0 -133 34 -242.5t108 -174.5t195 -65q112 0 184.5 50.5t114.5 133.5v634q-43 81 -116 130t-182 49q-121 0 -195 -66t-108.5 -176.5t-34.5 -244.5v-28z" />
    <glyph glyph-name="germandbls" unicode="&#xdf;" horiz-adv-x="1861" 
d="M548 1517v-1517h-304v1520q0 309 150 466t420 157q157 0 282 -53t197.5 -161.5t72.5 -275.5q0 -107 -25 -174.5t-57.5 -117.5t-57.5 -101t-25 -125q0 -66 45 -121.5t111.5 -110t133.5 -116.5t112 -140.5t45 -182.5q0 -243 -153 -367.5t-418 -124.5q-108 0 -225.5 26.5
t-170.5 63.5l67 268q44 -27 130 -62t180 -35q147 0 214.5 56.5t67.5 162.5q0 72 -45.5 128.5t-113 109t-134.5 112t-112.5 138t-45.5 187.5q0 86 26.5 147t62 112.5t62 108.5t26.5 135q0 118 -78.5 184t-181.5 66q-122 0 -190 -86t-68 -277z" />
    <glyph glyph-name="dotlessi" unicode="&#x131;" horiz-adv-x="747" 
d="M525 1519v-1519h-312v1519h312z" />
    <glyph glyph-name="dotlessj" unicode="&#x237;" horiz-adv-x="747" 
d="M371 1488h332v-1576q0 -248 -128.5 -380t-355.5 -132q-47 0 -87.5 4t-85.5 16l20 264q25 -9 66.5 -12.5t66.5 -3.5q82 0 127 64t45 180v1576z" />
    <glyph glyph-name="dollar" unicode="$" horiz-adv-x="1688" 
d="M1501 531q-2 -233 -151.5 -379t-418.5 -166l-4 -246h-180l4 249q-162 15 -307.5 78.5t-237.5 182t-92 298.5h306q0 -133 97 -210.5t236 -97.5l6 675q-257 90 -402.5 219.5t-145.5 362.5q0 221 147.5 371t412.5 170l4 270h184l-4 -272q179 -20 305 -102t192.5 -207
t66.5 -275h-309q0 124 -63.5 211t-192.5 114l-11 -644q284 -98 421 -233.5t137 -368.5zM504 1499q0 -93 59.5 -166.5t199.5 -129.5l7 582q-140 -20 -203 -98t-63 -188zM1209 527q0 110 -55 184t-212 136l-9 -607q137 19 206.5 98t69.5 189z" />
    <glyph glyph-name="cent" unicode="&#xa2;" horiz-adv-x="1682" 
d="M1444 477q-19 -201 -161.5 -337.5t-366.5 -164.5v-311h-276v324q-246 57 -385 265t-139 507q0 293 138.5 500t385.5 263v289h276v-277q229 -30 369 -175t159 -339h-299q-23 103 -104 181t-231 78q-184 0 -283 -148t-99 -372q0 -230 99 -377t282 -147q140 0 226.5 66
t109.5 175h299z" />
    <glyph glyph-name="yen" unicode="&#xa5;" horiz-adv-x="1515" 
d="M1333 416h-416v-416h-325v416h-445v208h445v188h-445v208h350l-478 984h352l381 -868l386 868h344l-479 -984h330v-208h-416v-188h416v-208z" />
    <glyph glyph-name="sterling" unicode="&#xa3;" horiz-adv-x="1771" 
d="M172 0v278h114q44 12 68 60t33.5 111t9.5 121l-7 218h-225v274h216l-12 366q-4 206 76 346.5t222.5 212.5t323.5 72q287 0 435.5 -155.5t148.5 -403.5h-317q0 173 -81.5 229.5t-198.5 56.5q-121 0 -207.5 -86.5t-86.5 -271.5l14 -366h458v-274h-448l8 -208
q3 -88 -10.5 -165t-54.5 -137h919l-3 -278h-1395z" />
    <glyph glyph-name="florin" unicode="&#x192;" horiz-adv-x="1098" 
d="M959 1488v-245h-277v-1340q0 -245 -125.5 -374t-348.5 -129q-46 0 -88 4t-88 16l20 264q21 -8 66 -12t66 -4q84 0 124 61.5t40 173.5v1340h-227v245h227v141q0 249 135.5 380t372.5 131q54 0 105.5 -8t104.5 -20l-32 -257q-54 12 -135 12q-217 0 -217 -238v-141h277z" />
    <glyph glyph-name="uni20BA" unicode="&#x20ba;" horiz-adv-x="1771" 
d="M1625 950q0 -304 -105 -523t-292.5 -337t-435.5 -118q-96 0 -180 8t-160 20v832l-302 -120v276l302 120v187l-302 -120v275l302 120v434h346v-296l310 124v-277l-310 -123v-187l310 123v-275l-310 -123v-710q233 2 356 176.5t123 513.5v106h348v-106z" />
    <glyph glyph-name="uni20BD" unicode="&#x20bd;" horiz-adv-x="2027" 
d="M1199 318h-445v-318h-345v318h-283v281h283v146h-283v278h283v981h766q231 0 393.5 -81.5t248 -224t85.5 -324.5q0 -298 -192 -463.5t-535 -165.5h-421v-146h445v-281zM754 1722v-699h415q203 0 294 94.5t91 252.5q0 89 -39.5 169.5t-123 131.5t-216.5 51h-421z" />
    <glyph glyph-name="Euro" unicode="&#x20ac;" horiz-adv-x="1605" 
d="M1414 16q-168 -44 -340 -44q-221 0 -392.5 80.5t-271 244.5t-106.5 413h-235v194h235v192h-235v192h236q11 250 112 422t273 260.5t394 88.5q85 0 166.5 -12t163.5 -30l-46 -279q-61 22 -130.5 40t-141.5 18q-205 0 -337.5 -124t-145.5 -384h529v-192h-530v-192h530v-194
h-529q5 -176 69 -281t170.5 -151t239.5 -46q76 0 144 18t132 40z" />
    <glyph glyph-name="uni20B9" unicode="&#x20b9;" horiz-adv-x="1515" 
d="M75 1722l73 282h1296l-70 -253h-299q69 -101 90 -241h278l-69 -251h-208q-28 -208 -169.5 -337.5t-439.5 -153.5l639 -751v-17h-392l-701 818l-3 210h349q154 0 245 64t121 167h-740l69 251h666q-32 97 -119 154.5t-242 57.5h-374z" />
    <glyph glyph-name="tenge" unicode="&#x20b8;" horiz-adv-x="1771" 
d="M1681 2004v-282h-1590v282h1590zM91 1284v280h1590v-280h-626v-1284h-343v1284h-621z" />
    <glyph glyph-name="peseta" unicode="&#x20a7;" horiz-adv-x="2373" 
d="M2228 7q-39 -13 -77.5 -19t-110.5 -6q-108 0 -206.5 43t-161 134t-62.5 235v870h-195q-31 -231 -195 -376t-478 -145h-201v-743h-345v2004h546q304 0 467 -135.5t201 -349.5h200v344h309v-344h300v-255h-300v-809q0 -93 32 -135t80.5 -53.5t96.5 -11.5q32 0 52 2.5
t48 5.5v-256zM541 1724v-701h201q136 0 208.5 51t99.5 131.5t27 168.5t-27 168t-99.5 131t-208.5 51h-201z" />
    <glyph glyph-name="peso" unicode="&#x20b1;" horiz-adv-x="2283" 
d="M1157 745h-417v-745h-346v1102h-256v220h256v97h-256v220h256v365h763q255 0 426.5 -99.5t247.5 -265.5h315v-220h-260q2 -26 2 -53q0 -22 -1 -44h259v-220h-308q-73 -170 -247 -263.5t-434 -93.5zM740 1722v-83h682q-46 38 -112 60.5t-153 22.5h-417zM1539 1364
q0 28 -3 55h-796v-97h797q2 20 2 42zM1157 1023q92 0 160 20.5t114 58.5h-691v-79h417z" />
    <glyph glyph-name="kip" unicode="&#x20ad;" horiz-adv-x="2117" 
d="M1453 0l-517 836l-223 -293v-543h-323v871h-288v278h288v884h323v-884h75l666 884h392l-672 -884h802v-278h-697l556 -871h-382z" />
    <glyph glyph-name="won" unicode="&#x20a9;" horiz-adv-x="2373" 
d="M2226 806h-321l-163 -806h-342l-130 806h-170l-132 -806h-342l-164 806h-312v220h268l-45 222h-223v220h178l-109 536h346l87 -536h297l84 536h308l85 -536h292l85 536h344l-108 -536h187v-220h-232l-45 -222h277v-220zM723 1026h156l35 222h-227zM1136 1026h98l-36 222
h-26zM1496 1026h153l35 222h-223zM759 806l43 -269l43 269h-86zM1531 806l42 -260l41 260h-83z" />
    <glyph glyph-name="lira" unicode="&#x20a4;" horiz-adv-x="1771" 
d="M167 0v278h112q46 12 70 60t33 111t9 121l-2 74h-228v198h221l-5 168h-216v198h210l-7 220q0 190 80 325t221 206.5t323 71.5q284 0 440.5 -153t156.5 -402h-311q0 100 -45.5 160.5t-115 87t-142.5 26.5q-110 0 -200.5 -82t-90.5 -240l9 -220h467v-198h-460l7 -168h453
v-198h-445l2 -64q3 -88 -11 -165t-55 -137h963v-278h-1443z" />
    <glyph glyph-name="hryvnia" unicode="&#x20b4;" horiz-adv-x="1861" 
d="M1686 1343v-245h-1507v245h948q41 49 57.5 104t16.5 108q0 197 -260 197q-154 0 -219.5 -61t-67.5 -173h-347q5 147 71 263t203.5 183.5t356.5 67.5q293 0 452 -122t159 -343q0 -114 -77 -224h214zM1600 493q-8 -270 -188.5 -395.5t-478.5 -125.5q-310 0 -479 124
t-169 350q0 131 89 241h-195v244h1507v-244h-963q-52 -52 -70.5 -108t-18.5 -119q0 -212 299 -212q139 0 227 55.5t91 189.5h349z" />
    <glyph glyph-name="naira" unicode="&#x20a6;" horiz-adv-x="2373" 
d="M1681 0l-443 681h-530v-681h-323v681h-286v220h286v207h-286v220h286v705h317l457 -705h517v705h321v-705h276v-220h-276v-207h276v-220h-276v-681h-316zM708 1468v-140h110l-91 140h-19zM708 901h387l-134 207h-253v-207zM1435 901h241v207h-375zM1657 559h19v122h-98z
" />
    <glyph glyph-name="guarani" unicode="&#x20b2;" horiz-adv-x="2027" 
d="M1833 761q0 -222 -87 -393.5t-252 -274t-400 -118.5v-147h-269v164q-189 42 -337 172t-233.5 344t-85.5 509q0 298 83.5 512.5t231.5 343.5t341 169v102h269v-86q217 -15 371.5 -103t244.5 -228.5t113 -313.5h-332q-30 132 -128.5 238.5t-268.5 128.5v-744h739v-275z
M489 1016q0 -308 97.5 -481t238.5 -239v1450q-154 -68 -245 -252t-91 -478zM1512 776h-418v-524q201 18 309.5 154.5t108.5 369.5z" />
    <glyph glyph-name="coloncurrency" unicode="&#x20a1;" horiz-adv-x="2027" 
d="M630 -172l63 194q-69 26 -130 66l-85 -260h-261l146 449q-101 135 -156 323t-55 417q0 307 94.5 539t271.5 364t424 141l32 99h263l-40 -121q74 -16 139 -42l53 163h263l-98 -301q85 -81 136 -186.5t69 -225.5h-339l-386 -1187q177 13 266 105t114 216h340
q-23 -172 -120.5 -310t-264.5 -218.5t-396 -80.5q-16 0 -32 1l-47 -145h-264zM664 398q54 -59 121 -94l460 1413q-59 36 -135 52zM472 1017q0 -162 34 -300l339 1044q-178 -57 -275.5 -255t-97.5 -489z" />
    <glyph glyph-name="cedi" unicode="&#x20b5;" horiz-adv-x="2027" 
d="M1747 581q-21 -159 -107 -290t-231.5 -214t-345.5 -101v-148h-268v162q-197 42 -343 179.5t-226 353t-80 494.5q0 277 77 493t222.5 354.5t349.5 179.5v100h268v-87q208 -17 353 -101t228.5 -216t107.5 -293h-344q-20 130 -105.5 219t-239.5 110v-1512q159 21 239.5 110
t104.5 207h340zM465 1017q0 -261 85.5 -454t244.5 -267v1449q-157 -72 -243.5 -263.5t-86.5 -464.5z" />
    <glyph glyph-name="cruzeiro" unicode="&#x20a2;" horiz-adv-x="2027" 
d="M1778 581q-22 -172 -120 -310t-265 -218.5t-396 -80.5q-246 0 -431 129t-287.5 364t-102.5 552q0 313 98.5 548t282 365.5t439.5 130.5q240 0 406 -81.5t261 -220.5t120 -312h-344q-23 148 -130 241.5t-304 93.5q-160 0 -274 -96t-174.5 -268t-60.5 -401
q0 -240 72.5 -423.5t207.5 -269.5v880h310l14 -164q58 89 143 140.5t196 51.5q29 0 65 -5.5t55 -12.5l-3 -315q-67 12 -135 12q-120 0 -196.5 -46t-114.5 -128v-471q150 25 227.5 112.5t100.5 202.5h340z" />
    <glyph glyph-name="tugrik" unicode="&#x20ae;" horiz-adv-x="1771" 
d="M102 1755v278h1580v-278h-629v-354l270 108v-262l-270 -107v-202l270 107v-261l-270 -107v-677h-324v548l-366 -146v262l366 145v202l-366 -145v260l366 146v483h-627z" />
    <glyph glyph-name="mill" unicode="&#x20a5;" horiz-adv-x="2450" 
d="M1047 0v266l-175 -438h-265l440 1095v57q0 163 -71.5 226t-187.5 63q-113 0 -203.5 -89t-90.5 -254v-926h-308v1519h304v-222h15q44 93 149.5 169t250.5 76q106 0 189 -42t140 -112l149 372h261l-104 -261q46 20 99 31.5t111 11.5q132 0 237 -58t166.5 -182t61.5 -322
v-980h-309v985q0 111 -40 172.5t-101 86.5t-124 25q-173 0 -247 -135l-28 -69q-14 -52 -14 -114v-951h-305z" />
    <glyph glyph-name="afii57636" unicode="&#x20aa;" horiz-adv-x="2373" 
d="M205 1488h903q253 0 375.5 -129.5t122.5 -428.5v-440h-334v443q0 167 -70.5 227t-198.5 60h-463v-1220h-335v1488zM1546 0h-778v1000h335v-731h461q130 0 199.5 59.5t69.5 229.5v930h335v-930q0 -200 -85.5 -322.5t-227 -179t-309.5 -56.5z" />
    <glyph glyph-name="manat" unicode="&#x20bc;" horiz-adv-x="2027" 
d="M510 244v-244h-333v242q0 267 84.5 469t235 327.5t348.5 163.5v286h334v-285q202 -37 353 -162.5t234.5 -328t83.5 -470.5v-242h-335v244q0 275 -89 444t-247 225v-913h-334v911q-155 -57 -245 -225.5t-90 -441.5z" />
    <glyph glyph-name="rupee" unicode="&#x20a8;" horiz-adv-x="3141" 
d="M1348 0l-394 765h-419v-765h-323v2033h696q230 0 392 -79.5t248 -221t86 -328.5q0 -201 -99 -342t-270 -216l439 -829v-17h-356zM535 1755v-714h373q188 0 295 102t107 245q0 172 -92.5 269.5t-309.5 97.5h-373zM1732 1098q0 120 73 220.5t200 161.5t289 61
q193 0 338.5 -71t219.5 -196l-228 -163q-38 55 -116.5 111.5t-205.5 56.5q-114 0 -185 -50.5t-71 -126.5q0 -71 59 -116.5t176 -76.5l176 -47q210 -58 314.5 -163t104.5 -271q0 -141 -76.5 -244t-211 -159t-307.5 -56q-191 0 -342 67t-233 206l236 168q38 -56 120 -115.5
t215 -59.5q122 0 204.5 50.5t82.5 131.5q0 134 -246 204l-192 50q-194 53 -294 157t-100 270z" />
    <glyph glyph-name="lari" unicode="&#x20be;" horiz-adv-x="2027" 
d="M1831 269v-269h-1644v269h247q-118 120 -183.5 285.5t-65.5 367.5q0 322 140 539t376 303v268h230v-218q41 3 83 3t83 -3v218h232v-268q238 -87 377 -307t139 -544h-328q0 189 -48.5 320t-139.5 205v-525h-232v620q-40 5 -83 5t-83 -5v-620h-230v527q-90 -73 -139 -201.5
t-49 -315.5q0 -312 136.5 -483t368.5 -171h813z" />
    <glyph glyph-name="zero" unicode="0" horiz-adv-x="1664" 
d="M1531 1196v-327q0 -300 -89.5 -499.5t-246.5 -298.5t-359 -99q-203 0 -362 99t-250 298.5t-91 499.5v327q0 293 91 485t249 286.5t360 94.5q203 0 360.5 -94.5t247.5 -286.5t90 -485zM1212 819v426q0 268 -108.5 406.5t-270.5 138.5t-271.5 -138.5t-109.5 -406.5v-426
q0 -275 111 -424.5t273 -149.5q160 0 268 149.5t108 424.5z" />
    <glyph glyph-name="one" unicode="1" horiz-adv-x="1370" 
d="M974 2033v-2033h-316v1633l-531 -206v285l807 321h40z" />
    <glyph glyph-name="two" unicode="2" horiz-adv-x="1664" 
d="M1518 277v-277h-1387v232l700 709q170 174 246 290.5t76 229.5q0 144 -90.5 242.5t-249.5 98.5q-119 0 -190.5 -58t-104 -152t-32.5 -201h-314q0 173 71.5 326t215 248.5t361.5 95.5q198 0 342.5 -73t223 -203.5t78.5 -303.5q0 -189 -122 -370.5t-301 -363.5l-387 -396
q-23 -24 -41 -39t-48 -28l11 -23q30 12 56 14t63 2h823z" />
    <glyph glyph-name="three" unicode="3" horiz-adv-x="1664" 
d="M796 889h-152v283h152q172 0 263 91t91 227q0 142 -89.5 229.5t-240.5 87.5q-140 0 -231 -80t-91 -208h-308q0 157 77 279.5t218 192.5t332 70q189 0 334.5 -65t228.5 -192t83 -313q0 -120 -75 -248t-230 -202q187 -64 266 -198t79 -285q0 -185 -93 -316t-250.5 -200.5
t-348.5 -69.5q-175 0 -321.5 61.5t-234.5 185t-88 308.5h322q0 -133 87.5 -212t237.5 -79q158 0 262 84.5t104 241.5q0 172 -107 249.5t-277 77.5z" />
    <glyph glyph-name="four" unicode="4" horiz-adv-x="1709" 
d="M92 599l885 1434h331v-1366h288v-277h-288v-390h-305v390h-911v209zM442 667h561v954l-36 -84z" />
    <glyph glyph-name="five" unicode="5" horiz-adv-x="1664" 
d="M470 927l-277 66l120 1040h1075v-288h-803l-72 -559h11q46 44 134.5 81t203.5 37q188 0 332.5 -80.5t225.5 -229t81 -353.5q0 -188 -79 -339.5t-233.5 -240.5t-379.5 -89q-167 0 -309.5 62t-233.5 186.5t-103 311.5h312q23 -146 113.5 -221.5t228.5 -75.5q165 0 271 115
t106 300q0 202 -112.5 299.5t-270.5 97.5q-127 0 -206.5 -35t-134.5 -85z" />
    <glyph glyph-name="six" unicode="6" horiz-adv-x="1664" 
d="M1511 651q0 -191 -79 -345t-227.5 -244t-355.5 -90q-336 0 -512 248.5t-176 720.5v71q-1 321 72.5 556.5t229.5 364.5t402 129q270 0 419.5 -148.5t202.5 -405.5h-303q-24 72 -58 136.5t-95 105t-165 40.5q-96 0 -182 -60.5t-143 -205.5t-65 -399q86 91 204.5 138
t246.5 47q199 0 328.5 -92t192.5 -242t63 -325zM859 1043q-163 0 -267 -105.5t-104 -265.5q1 -220 109 -327t261 -107q149 0 248 113t99 292q0 167 -82.5 283.5t-263.5 116.5z" />
    <glyph glyph-name="seven" unicode="7" horiz-adv-x="1581" 
d="M1453 2033v-254l-787 -1779h-340l796 1747h-994v286h1325z" />
    <glyph glyph-name="eight" unicode="8" horiz-adv-x="1709" 
d="M1517 570q0 -186 -87.5 -320t-237 -206t-336.5 -72t-338 72t-239.5 206t-88.5 320q0 165 88.5 296.5t236.5 204.5q-128 69 -203 185.5t-75 260.5q0 177 81 298.5t220.5 183.5t316.5 62q178 0 317.5 -62t219.5 -183.5t80 -298.5q0 -144 -76 -261t-205 -185
q149 -74 237.5 -205.5t88.5 -295.5zM1165 1503q0 133 -91 213.5t-222 80.5q-125 0 -217 -77t-92 -214t92.5 -223.5t220.5 -86.5t218.5 86t90.5 221zM1203 582q0 102 -47.5 183.5t-127 129t-177.5 47.5q-97 0 -176.5 -47.5t-126.5 -128t-47 -181.5q0 -100 47.5 -179.5
t128 -126t180.5 -46.5q150 0 248 101t98 248z" />
    <glyph glyph-name="nine" unicode="9" horiz-adv-x="1709" 
d="M1521 1019q2 -481 -167.5 -761.5t-536.5 -288.5q-270 0 -419.5 148.5t-202.5 404.5h304q23 -72 57.5 -136.5t95.5 -105t165 -40.5q96 0 182 61t142.5 206t64.5 398q-86 -91 -204.5 -138t-246.5 -47q-199 0 -329 92t-194 242t-64 325q0 191 80 345t229 244t356 90
q336 0 512 -248.5t176 -719.5v-71zM477 1387q0 -167 82.5 -283.5t263.5 -116.5q163 0 267 105.5t104 265.5q-1 220 -109 327t-261 107q-148 0 -247.5 -113t-99.5 -292z" />
    <glyph glyph-name="ampersand" unicode="&#x26;" horiz-adv-x="1861" 
d="M1426 0l-124 147q-110 -89 -246 -132t-280 -43q-202 0 -348 73.5t-225 202.5t-79 295q0 181 107 304.5t279 242.5q-97 123 -157.5 233t-60.5 224q0 237 142 372.5t381 135.5q153 0 264.5 -61.5t172.5 -163.5t61 -221q0 -144 -74 -253.5t-195 -198.5l-140 -102l401 -479
q39 76 61 165.5t22 190.5h278q0 -175 -40.5 -320t-130.5 -263l291 -349h-360zM582 1553q0 -68 45.5 -143t112.5 -158l122 85q87 57 129 116.5t42 143.5q0 71 -59.5 135.5t-159.5 64.5q-106 0 -169 -73t-63 -171zM435 552q0 -130 95.5 -225t254.5 -95q183 0 340 124l-449 533
l-55 -41q-112 -87 -149 -166.5t-37 -129.5z" />
    <glyph glyph-name="exclam" unicode="!" horiz-adv-x="768" 
d="M556 2033l-32 -1436h-277l-33 1436h342zM299 52q-53 34 -66 94t26 112t99 66t113 -20q50 -34 63.5 -95t-25.5 -113q-39 -53 -99.5 -65.5t-110.5 21.5z" />
    <glyph glyph-name="exclamdown" unicode="&#xa1;" horiz-adv-x="768" 
d="M259 1271q-39 53 -26 112t66 94q50 35 110.5 22t99.5 -66t25.5 -113t-63.5 -95q-53 -35 -113 -21t-99 67zM524 932l32 -1436h-342l33 1436h277z" />
    <glyph glyph-name="question" unicode="?" horiz-adv-x="1515" 
d="M894 597h-289q0 159 34 264t87 174t113 119t113 97.5t87 110t34 157.5q0 137 -71.5 208.5t-200.5 71.5q-103 0 -191 -68.5t-89 -225.5h-319q1 183 80.5 306.5t215 186.5t303.5 63q275 0 429.5 -149t154.5 -394q0 -120 -35 -201.5t-91 -141.5t-118 -113.5t-118 -114.5
t-92 -144.5t-37 -205.5zM665 55q-53 35 -65 94t27 112q38 53 97.5 67t112.5 -21q51 -35 64 -95.5t-24 -113.5q-39 -52 -100 -65t-112 22z" />
    <glyph glyph-name="questiondown" unicode="&#xbf;" horiz-adv-x="1515" 
d="M848 1470q16 -34 20 -94t-8 -112t-29.5 -66t-33.5 20q-15 34 -19 95t7 114q12 53 30 65t33 -22zM780 928h86q0 -191 -14 -305.5t-35 -184.5t-42 -125t-35 -124t-14 -183q0 -280 82 -280q31 0 57 68t27 226h95q0 -274 -52 -415t-127 -141q-83 0 -129.5 149t-46.5 394
q0 143 15 234t37 157t43.5 132.5t36.5 159t16 238.5z" />
    <glyph glyph-name="parenleft" unicode="(" horiz-adv-x="998" 
d="M845 -384h-258q-105 148 -186.5 341.5t-128 416t-46.5 458.5q0 354 103.5 674t271.5 542h248q-180 -306 -260 -594.5t-80 -621.5q0 -321 79.5 -615.5t256.5 -600.5z" />
    <glyph glyph-name="parenright" unicode=")" horiz-adv-x="998" 
d="M411 -384h-258q177 306 256.5 600.5t79.5 615.5q0 333 -80 621.5t-260 594.5h248q168 -222 271.5 -542t103.5 -674q0 -236 -46.5 -458.5t-128 -416t-186.5 -341.5z" />
    <glyph glyph-name="bracketleft" unicode="[" horiz-adv-x="774" 
d="M703 2319v-262h-242v-2214h242v-261h-548v2737h548z" />
    <glyph glyph-name="bracketright" unicode="]" horiz-adv-x="685" 
d="M27 2057v262h548v-2737h-548v261h243v2214h-243z" />
    <glyph glyph-name="braceleft" unicode="{" horiz-adv-x="858" 
d="M304 424q0 139 -63 222.5t-203 83.5v244q140 0 203 81.5t63 220.5v280q0 144 36.5 270.5t136 222t287.5 147.5l66 -191q-142 -47 -193.5 -169t-51.5 -280v-280q0 -136 -49 -247.5t-165 -176.5q116 -65 165 -177.5t49 -250.5v-276q0 -158 51.5 -280t193.5 -169l-66 -195
q-188 54 -287.5 149.5t-136 222t-36.5 272.5v276z" />
    <glyph glyph-name="braceright" unicode="}" horiz-adv-x="858" 
d="M555 1276q0 -139 62.5 -220.5t202.5 -81.5v-244q-140 0 -202.5 -83.5t-62.5 -222.5v-276q0 -146 -36.5 -272.5t-136 -222t-289.5 -149.5l-68 195q145 47 197 169t52 280v276q0 141 51.5 253t174.5 174q-123 62 -174.5 174t-51.5 251v280q0 158 -52 280t-197 169l68 191
q190 -52 289.5 -147.5t136 -222t36.5 -270.5v-280z" />
    <glyph glyph-name="at" unicode="@" horiz-adv-x="2650" 
d="M1394 2000q575 0 846.5 -273t271.5 -843q0 -310 -33.5 -502t-130 -281t-286.5 -89q-77 0 -146.5 17.5t-117.5 66t-60 141.5h-20q-36 -84 -111 -130.5t-163 -64.5t-162 -18q-178 0 -304.5 89.5t-193 250t-66.5 372.5q0 202 80 351.5t208.5 232t275.5 84.5q35 0 95 -3
t124.5 -15.5t117 -42t73.5 -83.5h29v112h253v-996q0 -62 18.5 -84t45 -23t48.5 -1q86 0 120 79.5t38.5 219t4.5 321.5q0 322 -88.5 512t-279.5 273t-499 83q-306 0 -523.5 -124.5t-333 -357.5t-115.5 -558q0 -496 260 -756t760 -260q161 0 311 23.5t251 60.5l-8 -248
q-122 -46 -264 -65t-298 -19q-626 0 -957 326t-331 946q0 399 150.5 684.5t433 438.5t676.5 153zM1322 1152q-160 0 -250 -119t-90 -285q-1 -126 30.5 -231.5t104.5 -169t197 -63.5q189 0 300.5 115.5t111.5 348.5q0 158 -54.5 246t-146 123t-203.5 35z" />
    <glyph glyph-name="numbersign" unicode="#" horiz-adv-x="1792" 
d="M912 0l82 567h-309l-82 -567h-230l82 567h-327v218h359l66 460h-305v223h337l82 565h230l-82 -565h309l82 565h232l-83 -565h309v-223h-341l-67 -460h288v-218h-320l-83 -567h-229zM717 785h309l66 460h-309z" />
    <glyph glyph-name="currency" unicode="&#xa4;" horiz-adv-x="2027" 
d="M1886 164l-196 -200l-179 185q-104 -84 -231.5 -130.5t-268.5 -46.5q-140 0 -266 45.5t-229 127.5l-178 -181l-192 200l185 188q-65 102 -101 225t-36 259q0 142 39.5 269.5t109.5 231.5l-197 203l192 200l198 -201q100 75 221 116t254 41q134 0 256.5 -42t224.5 -118
l198 204l196 -200l-203 -206q69 -105 108 -231t39 -267q0 -135 -35.5 -256.5t-100.5 -223.5zM447 836q0 -168 76 -305.5t203.5 -219t284.5 -81.5q155 0 283 81.5t204 219t76 305.5q0 170 -76 307.5t-204 218t-283 80.5q-157 0 -284.5 -80.5t-203.5 -218t-76 -307.5z" />
    <glyph glyph-name="slash" unicode="/" horiz-adv-x="1069" 
d="M976 2048l-596 -2356h-290l596 2356h290z" />
    <glyph glyph-name="bar" unicode="|" horiz-adv-x="747" 
d="M477 2033v-2413h-230v2413h230z" />
    <glyph glyph-name="brokenbar" unicode="&#xa6;" horiz-adv-x="747" 
d="M533 2004v-1044h-315v1044h315zM533 -372h-315v1096h315v-1096z" />
    <glyph glyph-name="backslash" unicode="\" horiz-adv-x="1048" 
d="M80 2048h289l596 -2356h-289z" />
    <glyph glyph-name="hyphenbullet" unicode="&#x2043;" horiz-adv-x="1259" 
d="M1118 1312v-576h-976v576h976z" />
    <glyph glyph-name="hyphen" unicode="-" horiz-adv-x="1280" 
d="M1093 1002v-258h-908v258h908z" />
    <glyph glyph-name="endash" unicode="&#x2013;" horiz-adv-x="1459" 
d="M1414 1001v-255h-1369v255h1369z" />
    <glyph glyph-name="figuredash" unicode="&#x2012;" horiz-adv-x="1792" 
d="M1792 1001v-255h-1792v255h1792z" />
    <glyph glyph-name="emdash" unicode="&#x2014;" horiz-adv-x="2560" 
d="M2560 1001v-255h-2560v255h2560z" />
    <glyph glyph-name="bullet" unicode="&#x2022;" horiz-adv-x="1190" 
d="M1062 941q0 -133 -61 -238.5t-167 -167t-239 -61.5q-132 0 -237.5 61.5t-167.5 167t-62 238.5t62 239.5t167.5 168.5t237.5 62q133 0 239 -62t167 -168.5t61 -239.5z" />
    <glyph glyph-name="quoteleft" unicode="&#x2018;" horiz-adv-x="619" 
d="M158 1408v195q0 128 70 271t182 236l152 -107q-56 -85 -99 -182t-43 -215v-198h-262z" />
    <glyph glyph-name="quoteright" unicode="&#x2019;" horiz-adv-x="619" 
d="M461 2048v-195q0 -128 -69.5 -271t-182.5 -236l-152 107q57 85 99.5 182t42.5 215v198h262z" />
    <glyph glyph-name="primetripl1" unicode="&#x2034;" horiz-adv-x="1784" 
d="M128 1664l211 484h329l-305 -484h-235zM623 1664l209 484h332l-306 -484h-235zM1116 1664l211 484h332l-307 -484h-236z" />
    <glyph glyph-name="quotesingle" unicode="'" horiz-adv-x="574" 
d="M412 2048v-735h-254v735h254z" />
    <glyph glyph-name="quotedbl" unicode="&#x22;" horiz-adv-x="1170" 
d="M433 2048v-735h-254v735h254zM945 2048v-735h-254v735h254z" />
    <glyph glyph-name="quotedblleft" unicode="&#x201c;" horiz-adv-x="1214" 
d="M179 1408v195q0 128 69.5 271t182.5 236l152 -107q-56 -85 -99 -182t-43 -215v-198h-262zM687 1408v195q0 128 69.5 271t182.5 236l152 -107q-56 -85 -99 -182t-43 -215v-198h-262z" />
    <glyph glyph-name="quotedblright" unicode="&#x201d;" horiz-adv-x="1214" 
d="M486 2048v-195q0 -128 -70 -271t-182 -236l-152 107q57 85 99.5 182t42.5 215v198h262zM992 2048v-195q0 -128 -70 -271t-182 -236l-152 107q57 85 99.5 182t42.5 215v198h262z" />
    <glyph glyph-name="quotedblbase" unicode="&#x201e;" horiz-adv-x="1248" 
d="M470 256v-195q0 -128 -70 -271t-182 -236l-152 107q57 85 99.5 182t42.5 215v198h262zM976 256v-195q0 -128 -70 -271t-182 -236l-152 107q57 85 99.5 182t42.5 215v198h262z" />
    <glyph glyph-name="quotesinglbase" unicode="&#x201a;" horiz-adv-x="619" 
d="M451 256v-195q0 -128 -69.5 -271t-182.5 -236l-152 107q57 85 99.5 182t42.5 215v198h262z" />
    <glyph glyph-name="comma" unicode="," horiz-adv-x="685" 
d="M540 288v-224q-2 -145 -61 -282t-151 -249l-209 65q49 110 89 216t40 237v237h292z" />
    <glyph glyph-name="period" unicode="." horiz-adv-x="768" 
d="M188 161q0 78 51 132.5t145 54.5q89 0 142.5 -54.5t53.5 -132.5q0 -77 -53.5 -131t-142.5 -54q-94 0 -145 54t-51 131z" />
    <glyph glyph-name="ellipsis" unicode="&#x2026;" horiz-adv-x="2214" 
d="M180 161q0 78 51 132.5t145 54.5q89 0 142.5 -54.5t53.5 -132.5q0 -77 -53.5 -131t-142.5 -54q-94 0 -145 54t-51 131zM911 161q0 78 51 132.5t145 54.5q89 0 142.5 -54.5t53.5 -132.5q0 -77 -53.5 -131t-142.5 -54q-94 0 -145 54t-51 131zM1641 161q0 78 51 132.5
t145 54.5q89 0 142.5 -54.5t53.5 -132.5q0 -77 -53.5 -131t-142.5 -54q-94 0 -145 54t-51 131z" />
    <glyph glyph-name="colon" unicode=":" horiz-adv-x="768" 
d="M187 1327q0 78 51 132.5t145 54.5q89 0 142.5 -54.5t53.5 -132.5q0 -77 -53.5 -131t-142.5 -54q-94 0 -145 54t-51 131zM187 161q0 78 51 132.5t145 54.5q89 0 142.5 -54.5t53.5 -132.5q0 -77 -53.5 -131t-142.5 -54q-94 0 -145 54t-51 131z" />
    <glyph glyph-name="semicolon" unicode=";" horiz-adv-x="768" 
d="M187 1327q0 78 51 132.5t145 54.5q89 0 142.5 -54.5t53.5 -132.5q0 -77 -53.5 -131t-142.5 -54q-94 0 -145 54t-51 131zM569 288v-224q-2 -145 -61 -282t-151 -249l-209 65q49 110 89 216t40 237v237h292z" />
    <glyph glyph-name="guilsinglleft" unicode="&#x2039;" horiz-adv-x="1003" 
d="M809 584l-250 -195l-198 205h-47l-99 152l-32 33v20l5 3l257 390h249l-85 -375z" />
    <glyph glyph-name="guilsinglright" unicode="&#x203a;" horiz-adv-x="1003" 
d="M413 1381l396 -578v-26l-396 -578h-230l359 591l-359 591h230z" />
    <glyph glyph-name="guillemotleft" unicode="&#xab;" horiz-adv-x="1349" 
d="M744 584l-250 -195l-198 205h-47l-99 152l-32 33v20l5 3l257 390h249l-85 -375zM1272 584l-250 -195l-198 205h-47l-99 152l-32 33v20l5 3l257 390h249l-85 -375z" />
    <glyph glyph-name="guillemotright" unicode="&#xbb;" horiz-adv-x="1349" 
d="M313 1381l396 -578v-26l-396 -578h-230l359 591l-359 591h230zM842 1381l396 -578v-26l-396 -578h-230l359 591l-359 591h230z" />
    <glyph glyph-name="less" unicode="&#x3c;" horiz-adv-x="1536" 
d="M1312 545v-313l-1088 515v256l1088 517v-312l-762 -332z" />
    <glyph glyph-name="greater" unicode="&#x3e;" horiz-adv-x="1536" 
d="M224 1519l1088 -516v-256l-1088 -517v315l765 333l-765 330v311z" />
    <glyph glyph-name="lessequal" unicode="&#x2264;" horiz-adv-x="1536" 
d="M1311 696v-292l-1088 480v239l1088 483v-291l-762 -310zM1311 286v-254h-1086v254h1086z" />
    <glyph glyph-name="greaterequal" unicode="&#x2265;" horiz-adv-x="1536" 
d="M225 1605l1088 -482v-239l-1088 -482v294l765 311l-765 308v290zM1311 286v-254h-1086v254h1086z" />
    <glyph glyph-name="equal" unicode="=" horiz-adv-x="1619" 
d="M234 1290h1152v-266h-1152v266zM234 732h1152v-266h-1152v266z" />
    <glyph glyph-name="notequal" unicode="&#x2260;" horiz-adv-x="1619" 
d="M1370 466h-649l-188 -333l-151 85l140 248h-304v266h454l165 292h-619v266h769l194 343l150 -85l-146 -258h185v-266h-335l-164 -292h499v-266z" />
    <glyph glyph-name="plus" unicode="+" horiz-adv-x="1702" 
d="M1508 738h-513v-514h-285v514h-514v285h514v513h285v-513h513v-285z" />
    <glyph glyph-name="minus" unicode="&#x2212;" horiz-adv-x="1370" 
d="M1228 1048v-262h-1086v262h1086z" />
    <glyph glyph-name="multiply" unicode="&#xd7;" horiz-adv-x="1536" 
d="M1393 488l-188 -190l-437 445l-437 -445l-188 190l438 446l-448 456l188 190l447 -455l447 455l188 -190l-448 -456z" />
    <glyph glyph-name="divide" unicode="&#xf7;" horiz-adv-x="1792" 
d="M700 1437q0 79 51 131.5t145 52.5q92 0 144 -52.5t52 -131.5q0 -77 -52 -128t-144 -51q-94 0 -145 51t-51 128zM1563 1037v-261h-1332v261h1332zM700 383q0 79 51 132.5t145 53.5q92 0 144 -53.5t52 -132.5q0 -78 -52 -129t-144 -51q-94 0 -145 51t-51 129z" />
    <glyph glyph-name="plusminus" unicode="&#xb1;" horiz-adv-x="1702" 
d="M1509 1167v-281h-514v-426h-285v426h-514v281h514v426h285v-426h514zM1508 282v-282h-1312v282h1312z" />
    <glyph glyph-name="approxequal" unicode="&#x2248;" horiz-adv-x="1536" 
d="M121 952v300q63 69 154.5 107.5t181.5 38.5q111 3 179 -26.5t153 -73.5q83 -40 144.5 -67t163.5 -27q88 0 170.5 45.5t148.5 126.5v-300q-66 -68 -146 -106t-168 -38q-102 0 -164 27t-143 67q-87 44 -155 74t-177 26q-90 0 -184.5 -46t-157.5 -128zM121 376v300
q63 68 152.5 106t179.5 38q109 3 177 -26.5t155 -73.5q81 -40 143 -67t164 -27q88 0 173 45.5t151 126.5v-298q-66 -69 -148.5 -107.5t-170.5 -38.5q-102 0 -163.5 27t-144.5 67q-85 44 -153 73.5t-179 26.5q-90 0 -181.5 -45.5t-154.5 -126.5z" />
    <glyph glyph-name="asciitilde" unicode="~" horiz-adv-x="1958" 
d="M1499 1087h256q0 -159 -58.5 -288t-161.5 -205.5t-234 -76.5q-116 0 -204.5 47.5t-191.5 142.5q-62 59 -119.5 96.5t-118.5 37.5q-93 0 -145 -76.5t-52 -192.5l-266 2q0 160 58.5 283.5t161 193.5t233.5 70q115 0 211.5 -54t193.5 -144q64 -62 116.5 -94.5t113.5 -32.5
q92 0 149.5 87.5t57.5 203.5z" />
    <glyph glyph-name="logicalnot" unicode="&#xac;" horiz-adv-x="1515" 
d="M186 1108h1148v-592h-276v356h-872v236z" />
    <glyph glyph-name="periodcentered" unicode="&#xb7;" horiz-adv-x="768" 
d="M188 994q0 78 51 132.5t145 54.5q89 0 142.5 -54.5t53.5 -132.5q0 -77 -53.5 -131t-142.5 -54q-94 0 -145 54t-51 131z" />
    <glyph glyph-name="anoteleia" unicode="&#x387;" horiz-adv-x="768" 
d="M170 994q0 78 51 132.5t145 54.5q89 0 142.5 -54.5t53.5 -132.5q0 -77 -53.5 -131t-142.5 -54q-94 0 -145 54t-51 131z" />
    <glyph glyph-name="questiongreek" unicode="&#x37e;" horiz-adv-x="768" 
d="M191 1327q0 78 51 132.5t145 54.5q89 0 142.5 -54.5t53.5 -132.5q0 -77 -53.5 -131t-142.5 -54q-94 0 -145 54t-51 131zM574 288v-224q-2 -145 -61 -282t-151 -249l-209 65q49 110 89 216t40 237v237h292z" />
    <glyph glyph-name="underscore" unicode="_" horiz-adv-x="1280" 
d="M1274 0v-263h-1268v263h1268z" />
    <glyph glyph-name="dagger" unicode="&#x2020;" horiz-adv-x="1682" 
d="M1521 1215h-515v-1215h-335v1215h-510v273h510v516h335v-516h515v-273z" />
    <glyph glyph-name="daggerdbl" unicode="&#x2021;" horiz-adv-x="1515" 
d="M1438 0h-518v-572h-332v572h-510v269h510v951h-510v268h510v516h332v-516h518v-268h-518v-951h518v-269z" />
    <glyph glyph-name="asciicircum" unicode="^" horiz-adv-x="1259" 
d="M102 1004l410 1000h237l410 -1000h-283l-246 634l-244 -634h-284z" />
    <glyph glyph-name="asterisk" unicode="*" horiz-adv-x="1453" 
d="M268 1000l274 365l-427 132l74 229l428 -154l-11 461h246l-12 -465l424 152l75 -228l-431 -132l271 -362l-196 -140l-259 375l-260 -371z" />
    <glyph glyph-name="registered" unicode="&#xae;" horiz-adv-x="2283" 
d="M166 1004q0 218 76 404.5t211 327t311.5 218.5t377.5 78q202 0 379 -78t311.5 -218.5t210 -327t75.5 -404.5q0 -219 -75.5 -407t-210 -328t-311.5 -218.5t-379 -78.5q-201 0 -377.5 78.5t-311.5 218.5t-211 328t-76 407zM334 1004q0 -183 63 -339.5t174.5 -273.5
t258 -182t312.5 -65q168 0 314.5 65t257.5 182t173.5 273.5t62.5 339.5q0 182 -62.5 337.5t-173.5 272t-257.5 181.5t-314.5 65q-166 0 -312.5 -65t-258 -181.5t-174.5 -272t-63 -337.5zM1162 900h-216v-464h-208v1168h386q206 0 326 -89.5t120 -266.5q0 -163 -164 -249
q89 -40 124.5 -116.5t35.5 -174.5v-76q0 -110 24 -176v-20h-212q-15 33 -17.5 99.5t-2.5 96.5v76q0 96 -44 144t-152 48zM946 1420v-336h196q88 0 156 40.5t68 119.5q0 99 -54 137.5t-188 38.5h-178z" />
    <glyph glyph-name="trademark" unicode="&#x2122;" horiz-adv-x="1771" 
d="M1369 1261v511l-171 -511h-84l-172 512v-512h-151v743h188l176 -523l184 523h181v-743h-151zM688 2004v-131h-189v-610h-162v610h-192v131h543z" />
    <glyph glyph-name="servicemark" unicode="&#x2120;" horiz-adv-x="1771" 
d="M589 1461q0 38 -33.5 63t-128.5 46q-133 30 -202 80t-69 152q0 92 76.5 152.5t210.5 60.5q137 0 212.5 -61.5t75.5 -172.5h-152q0 49 -32.5 79t-103.5 30q-72 0 -103.5 -25t-31.5 -63t31 -60.5t137 -45.5q127 -32 195.5 -82.5t68.5 -150.5q0 -99 -80.5 -157t-221.5 -58
q-130 0 -219.5 58t-89.5 179h151q0 -65 48 -87.5t110 -22.5q80 0 115.5 24.5t35.5 61.5zM1265 1481l197 523h183v-743h-153v457l-184 -457h-86l-191 475v-475h-154v743h190z" />
    <glyph glyph-name="degree" unicode="&#xb0;" horiz-adv-x="1170" 
d="M586 1129q-122 0 -223.5 60t-162.5 161.5t-61 223.5q0 124 61 225.5t162.5 162.5t223.5 61q123 0 223.5 -61t160 -162.5t59.5 -225.5q0 -122 -59.5 -223.5t-160 -161.5t-223.5 -60zM586 1345q94 0 162.5 67.5t68.5 163.5q0 97 -68.5 165.5t-162.5 68.5t-163 -68.5
t-69 -165.5q0 -95 69 -163t163 -68z" />
    <glyph glyph-name="ordfeminine" unicode="&#xaa;" horiz-adv-x="1259" 
d="M830 971q-14 45 -22 95q-42 -46 -110.5 -80t-167.5 -34q-165 0 -254 85.5t-89 226.5q0 153 117 236t354 83h140v69q0 176 -160 176q-90 0 -140.5 -35t-50.5 -101l-237 19q0 139 116.5 230t311.5 91q180 0 290 -95.5t110 -284.5v-432q0 -67 7.5 -128t28.5 -121h-244z
M590 1151q56 0 113.5 25.5t94.5 60.5v186h-140q-120 0 -174 -46t-54 -106q0 -120 160 -120z" />
    <glyph glyph-name="ordmasculine" unicode="&#xba;" horiz-adv-x="1259" 
d="M154 1436v107q0 214 128.5 351.5t347.5 137.5q222 0 349 -137.5t127 -351.5v-107q0 -213 -126.5 -349t-345.5 -136q-222 0 -351 136t-129 349zM394 1543v-107q0 -123 60 -203.5t180 -80.5q117 0 174.5 80.5t57.5 203.5v107q0 121 -58 203t-178 82q-117 0 -176.5 -82
t-59.5 -203z" />
    <glyph glyph-name="isuperior" unicode="&#x2071;" horiz-adv-x="581" 
d="M134 2162q0 64 40.5 107.5t115.5 43.5q76 0 117 -43.5t41 -107.5t-41 -106t-117 -42q-75 0 -115.5 42t-40.5 106zM431 1876v-1104h-272v1104h272z" />
    <glyph glyph-name="nsuperior" unicode="&#x207f;" horiz-adv-x="1259" 
d="M634 1787q-70 0 -116 -33t-71 -89v-768h-271v1102h210l43 -167q49 86 124.5 135t175.5 49q165 0 260.5 -99t95.5 -321v-699h-269v630q0 145 -48.5 202.5t-133.5 57.5z" />
    <glyph glyph-name="paragraph" unicode="&#xb6;" horiz-adv-x="1259" 
d="M1171 0h-288v716h-115q-218 0 -369 83.5t-229 229t-78 331.5q0 184 78 329.5t229 230t369 84.5h403v-2004z" />
    <glyph glyph-name="section" unicode="&#xa7;" horiz-adv-x="1771" 
d="M1575 -144q0 -244 -189 -376t-504 -132q-136 0 -267 29t-236.5 95.5t-168.5 179t-63 278.5l333 3q0 -123 61 -192t153.5 -97t187.5 -28q173 0 266.5 67.5t93.5 172.5q0 71 -40 121t-136 93t-266 92q-202 56 -347.5 127t-223 180t-77.5 280q0 125 61.5 220.5t172.5 153.5
q-89 68 -136 163t-47 230q0 156 85.5 272t241 180t366.5 64q326 0 512.5 -153t186.5 -438h-334q0 133 -93 227.5t-272 94.5q-187 0 -272.5 -71.5t-85.5 -171.5q0 -79 35 -129.5t129.5 -91.5t271.5 -90q206 -55 352 -125t223 -179t77 -279q0 -129 -62 -223.5t-173 -151.5
q90 -68 137 -163t47 -232zM922 446q58 -16 111.5 -32.5t102.5 -33.5q158 63 158 225q0 74 -40 127t-136.5 98.5t-265.5 96.5q-59 16 -113.5 33t-103.5 35q-77 -29 -113.5 -89t-36.5 -139q0 -81 35.5 -133.5t130.5 -95t271 -92.5z" />
    <glyph glyph-name="copyright" unicode="&#xa9;" horiz-adv-x="2283" 
d="M166 1004q0 218 76 404.5t211 327t311.5 218.5t377.5 78q202 0 379 -78t311.5 -218.5t210 -327t75.5 -404.5q0 -219 -75.5 -407t-210 -328t-311.5 -218.5t-379 -78.5q-201 0 -377.5 78.5t-311.5 218.5t-211 328t-76 407zM334 1004q0 -183 63 -339.5t174.5 -273.5
t258 -182t312.5 -65q168 0 314.5 65t257.5 182t173.5 273.5t62.5 339.5q0 182 -62.5 337.5t-173.5 272t-257.5 181.5t-314.5 65q-166 0 -312.5 -65t-258 -181.5t-174.5 -272t-63 -337.5zM1370 820h216q0 -216 -125 -324t-337 -108q-220 0 -350 147.5t-130 384.5v164
q0 237 130 384.5t350 147.5q212 0 337 -108t125 -324h-214q0 132 -63 190t-185 58q-132 0 -199 -97.5t-67 -250.5v-164q0 -153 67 -250.5t199 -97.5q122 0 184 56.5t62 191.5z" />
    <glyph glyph-name="infinity" unicode="&#x221e;" horiz-adv-x="3051" 
d="M2848 828q0 -184 -77.5 -336.5t-225 -243.5t-357.5 -91q-146 0 -271.5 63.5t-224.5 161.5t-166 203q-68 -105 -166.5 -203t-223.5 -161.5t-272 -63.5q-209 0 -357 91t-226 243.5t-78 336.5v29q0 185 78 337.5t225.5 243.5t354.5 91q148 0 274 -62.5t225 -159.5t166 -200
q69 103 169 200t227 159.5t275 62.5q207 0 352.5 -91t222 -243.5t76.5 -337.5v-29zM501 857v-29q0 -172 96.5 -285t275.5 -113q84 0 166 45.5t150 112t111.5 131.5t51.5 104v48q-8 39 -51.5 102.5t-111.5 128.5t-150.5 109.5t-167.5 44.5q-176 0 -273 -115.5t-97 -283.5z
M2550 828v29q0 168 -93.5 283.5t-269.5 115.5q-86 0 -169.5 -44.5t-153 -109.5t-114.5 -128.5t-54 -102.5v-48q9 -39 53.5 -104t112.5 -131.5t150 -112t166 -45.5q178 0 275 113t97 285z" />
    <glyph glyph-name="partialdiff" unicode="&#x2202;" horiz-adv-x="1771" 
d="M850 1414q114 0 218 -43t184 -127q-35 265 -169.5 422t-316.5 157q-107 0 -188 -18.5t-174 -53.5l-41 252q77 34 174.5 65t256.5 31q252 0 425 -137.5t262 -392.5t89 -607v-80q0 -257 -80.5 -463t-233.5 -326.5t-370 -120.5t-369 95.5t-232 260t-80 372.5v32
q0 196 75 350t219.5 243t350.5 89zM890 1146q-126 0 -204 -59t-114 -155.5t-36 -209.5v-30q0 -123 35.5 -226t113 -164.5t201.5 -61.5t201.5 74t113 199t35.5 277v122q-14 44 -53.5 99t-111 95t-181.5 40z" />
    <glyph glyph-name="summation" unicode="&#x2211;" horiz-adv-x="1861" 
d="M138 1793v211h1507v-269h-1071l729 -897v-42l-730 -900h1150v-268h-1585v208l813 982z" />
    <glyph glyph-name="product" unicode="&#x220f;" horiz-adv-x="2027" 
d="M1772 2004v-2321h-336v2056h-845v-2056h-336v2321h1517z" />
    <glyph glyph-name="integral" unicode="&#x222b;" horiz-adv-x="858" 
d="M568 -111q0 -249 -129 -369t-356 -120q-90 0 -178 23l23 261q24 -6 55 -11t58 -5q93 0 144 52t51 169v1744q0 248 135 378t373 130q53 0 104.5 -8t103.5 -21l-32 -252q-54 12 -128 12q-110 0 -167 -62t-57 -177v-1744z" />
    <glyph glyph-name="radical" unicode="&#x221a;" horiz-adv-x="1771" 
d="M123 795v269h492l220 -651l517 1591h298l-672 -2004h-270l-300 795h-285z" />
    <glyph glyph-name="lozenge" unicode="&#x25ca;" horiz-adv-x="1515" 
d="M94 1000l529 1004h268l532 -1004l-527 -1000h-271zM429 1000l333 -647l327 647l-333 649z" />
    <glyph glyph-name="fraction" unicode="&#x2044;" horiz-adv-x="1426" 
d="M1287 1716l-976 -1564l-172 98l976 1566z" />
    <glyph glyph-name="zerosub" unicode="&#x2080;" horiz-adv-x="1259" 
d="M1116 146v-209q0 -232 -114.5 -343t-297.5 -111q-188 0 -304.5 111t-116.5 343v209q0 230 116 341.5t301 111.5q184 0 300 -111.5t116 -341.5zM860 -79v241q0 124 -42.5 177.5t-117.5 53.5q-76 0 -118 -53.5t-42 -177.5v-241q0 -125 42.5 -177.5t121.5 -52.5
q72 0 114 52.5t42 177.5z" />
    <glyph glyph-name="oneinferior" unicode="&#x2081;" horiz-adv-x="1003" 
d="M756 582v-1083h-252v784l-277 -66v202l505 163h24z" />
    <glyph glyph-name="twosub" unicode="&#x2082;" horiz-adv-x="1259" 
d="M1051 -295v-206h-842v173l395 363q86 74 121 133t35 97q0 58 -38 94t-108 36q-88 0 -130.5 -47.5t-42.5 -115.5h-256q0 150 112 258.5t306 108.5q195 0 303.5 -88t108.5 -246q0 -114 -71.5 -202.5t-208.5 -201.5l-195 -156h511z" />
    <glyph glyph-name="threesub" unicode="&#x2083;" horiz-adv-x="1259" 
d="M739 -37h-119v178h119q88 0 129.5 36.5t41.5 95.5q0 49 -37 85.5t-122 36.5q-65 0 -109.5 -27.5t-44.5 -75.5h-256q0 148 119.5 227.5t284.5 79.5q188 0 304.5 -79t116.5 -230q0 -80 -49 -140.5t-135 -93.5q204 -57 204 -253q0 -152 -126.5 -236t-314.5 -84
q-103 0 -199 34t-158 107.5t-62 190.5h257q0 -50 47 -87t127 -37q88 0 130.5 38.5t42.5 93.5q0 77 -51 108.5t-140 31.5z" />
    <glyph glyph-name="foursub" unicode="&#x2084;" horiz-adv-x="1259" 
d="M171 -108l502 691h259v-650h133v-208h-133v-226h-256v226h-493zM421 -67h255v329l-17 -27z" />
    <glyph glyph-name="fivesub" unicode="&#x2085;" horiz-adv-x="1259" 
d="M435 -24l-205 52l71 555h676v-203h-466l-28 -204q22 8 72 22t109 14q179 0 275.5 -92.5t96.5 -260.5q0 -97 -44.5 -183t-136.5 -139.5t-234 -53.5q-106 0 -200.5 38.5t-154.5 110t-63 171.5h255q4 -61 48.5 -86.5t114.5 -25.5q91 0 125 49.5t34 121.5q0 76 -45.5 123
t-134.5 47q-71 0 -106.5 -19t-58.5 -37z" />
    <glyph glyph-name="sixinferior" unicode="&#x2086;" horiz-adv-x="1259" 
d="M1045 -140q0 -160 -114.5 -268.5t-303.5 -108.5q-194 0 -314.5 112.5t-120.5 327.5v71q0 307 173 458t454 151h39v-211h-16q-163 0 -265 -57.5t-124 -206.5q43 41 104.5 67.5t139.5 26.5q171 0 259.5 -103.5t88.5 -258.5zM448 -112q0 -101 47 -149t127 -48
q75 0 120.5 48.5t45.5 119.5q0 76 -44 117.5t-124 41.5q-62 0 -106.5 -24t-65.5 -56v-50z" />
    <glyph glyph-name="sevensub" unicode="&#x2087;" horiz-adv-x="1259" 
d="M1185 583v-142l-466 -942h-269l466 880h-598v204h867z" />
    <glyph glyph-name="eightsub" unicode="&#x2088;" horiz-adv-x="1259" 
d="M1035 -201q0 -157 -118 -236.5t-297 -79.5t-298.5 79.5t-119.5 236.5q0 90 49.5 156t134.5 103q-74 37 -116 97.5t-42 138.5q0 148 110.5 226.5t280.5 78.5q172 0 282 -78.5t110 -226.5q0 -79 -42 -139.5t-116 -97.5q84 -37 133 -102.5t49 -155.5zM755 279
q0 53 -34.5 84.5t-101.5 31.5q-63 0 -99.5 -31.5t-36.5 -84.5q0 -54 36.5 -88t100.5 -34q66 0 100.5 34t34.5 88zM782 -179q0 64 -46 96t-117 32q-73 0 -116.5 -32t-43.5 -96q0 -60 44 -95t117 -35t117.5 35t44.5 95z" />
    <glyph glyph-name="nineinferior" unicode="&#x2089;" horiz-adv-x="1259" 
d="M1163 83q0 -314 -162.5 -456.5t-453.5 -142.5h-20v206h18q162 0 251 50.5t107 184.5q-42 -35 -96.5 -56t-117.5 -21q-171 0 -265 96.5t-94 266.5q0 105 52 193.5t146 141.5t219 53q185 0 300.5 -110.5t115.5 -333.5v-72zM587 209q0 -77 42 -123t126 -46q54 0 93 21t59 49
v96q0 98 -44.5 142.5t-115.5 44.5q-76 0 -118 -54t-42 -130z" />
    <glyph glyph-name="plussub" unicode="&#x208a;" horiz-adv-x="1259" 
d="M1152 -97h-349v-379h-221v379h-350v214h350v383h221v-383h349v-214z" />
    <glyph glyph-name="minussub" unicode="&#x208b;" horiz-adv-x="1259" 
d="M1151 117v-214h-826v214h826z" />
    <glyph glyph-name="equalsub" unicode="&#x208c;" horiz-adv-x="1259" 
d="M1031 318v-213h-826v213h826zM1031 -85v-213h-826v213h826z" />
    <glyph glyph-name="parenleftinferior" unicode="&#x208d;" horiz-adv-x="747" 
d="M132 28v22q0 215 64.5 373.5t156 258t171.5 137.5l93 -175q-51 -50 -101 -124t-82.5 -187t-32.5 -279v-26q0 -174 32.5 -287t82.5 -184.5t101 -121.5l-93 -168q-80 37 -171.5 135t-156 255t-64.5 371z" />
    <glyph glyph-name="parenrightsub" unicode="&#x208e;" horiz-adv-x="747" 
d="M617 66v-24q0 -218 -64 -378t-155 -260t-171 -137l-95 168q50 50 99.5 123t82 189t32.5 295v24q0 164 -32 275t-81 183t-101 120l95 175q80 -36 171 -133.5t155 -253t64 -366.5z" />
    <glyph glyph-name="zerosuperior" unicode="&#x2070;" horiz-adv-x="1259" 
d="M1116 1563v-209q0 -232 -114.5 -343t-297.5 -111q-188 0 -304.5 111t-116.5 343v209q0 229 116 341t301 112q184 0 300 -112t116 -341zM860 1338v241q0 124 -42.5 177.5t-117.5 53.5q-76 0 -118 -53.5t-42 -177.5v-241q0 -125 42.5 -177.5t121.5 -52.5q72 0 114 52.5
t42 177.5z" />
    <glyph glyph-name="onesuperior" unicode="&#xb9;" horiz-adv-x="1003" 
d="M756 1999v-1083h-252v784l-277 -66v202l505 163h24z" />
    <glyph glyph-name="twosuperior" unicode="&#xb2;" horiz-adv-x="1259" 
d="M1177 1122v-206h-842v173l395 363q86 74 121 133t35 97q0 58 -38 94t-108 36q-88 0 -130.5 -48t-42.5 -115h-256q0 150 112 258.5t306 108.5q195 0 303.5 -88t108.5 -246q0 -114 -71.5 -203t-208.5 -201l-195 -156h511z" />
    <glyph glyph-name="threesuperior" unicode="&#xb3;" horiz-adv-x="1259" 
d="M695 1380h-119v178h119q88 0 129.5 37t41.5 95q0 49 -37 85.5t-122 36.5q-65 0 -109.5 -27.5t-44.5 -75.5h-256q0 148 119.5 227.5t284.5 79.5q188 0 304.5 -79t116.5 -230q0 -80 -49 -140.5t-135 -93.5q204 -57 204 -253q0 -152 -126.5 -236t-314.5 -84q-103 0 -199 34
t-158 107t-62 191h257q0 -50 47 -87t127 -37q88 0 130.5 38t42.5 94q0 77 -51 108.5t-140 31.5z" />
    <glyph glyph-name="foursuperior" unicode="&#x2074;" horiz-adv-x="1259" 
d="M296 1309l502 691h259v-650h133v-208h-133v-226h-256v226h-493zM546 1350h255v329l-17 -27z" />
    <glyph glyph-name="fivesuperior" unicode="&#x2075;" horiz-adv-x="1259" 
d="M549 1393l-205 52l71 555h676v-203h-466l-28 -204q22 8 72 22t109 14q179 0 275.5 -92.5t96.5 -260.5q0 -97 -44.5 -183t-136.5 -139.5t-234 -53.5q-106 0 -200.5 38.5t-154.5 110t-63 171.5h255q4 -62 48.5 -87t114.5 -25q91 0 125 49.5t34 121.5q0 77 -45.5 123.5
t-134.5 46.5q-71 0 -106.5 -19t-58.5 -37z" />
    <glyph glyph-name="sixsuperior" unicode="&#x2076;" horiz-adv-x="1259" 
d="M1045 1277q0 -160 -114.5 -268.5t-303.5 -108.5q-194 0 -314.5 112.5t-120.5 327.5v71q0 307 173 458t454 151h39v-211h-16q-163 0 -265 -57.5t-124 -206.5q43 41 104.5 67.5t139.5 26.5q171 0 259.5 -103.5t88.5 -258.5zM448 1305q0 -101 47 -149t127 -48q75 0 120.5 49
t45.5 119q0 76 -44 117.5t-124 41.5q-62 0 -106.5 -24t-65.5 -56v-50z" />
    <glyph glyph-name="sevensuperior" unicode="&#x2077;" horiz-adv-x="1259" 
d="M1185 2000v-142l-466 -942h-269l466 880h-598v204h867z" />
    <glyph glyph-name="eightsuperior" unicode="&#x2078;" horiz-adv-x="1259" 
d="M1156 1216q0 -157 -118.5 -236.5t-296.5 -79.5t-298 79.5t-120 236.5q0 90 49.5 156t134.5 103q-74 37 -116 97.5t-42 138.5q0 149 110.5 227t280.5 78q172 0 282 -78t110 -227q0 -79 -42 -139.5t-116 -97.5q84 -37 133 -102.5t49 -155.5zM876 1696q0 53 -34.5 84.5
t-101.5 31.5q-63 0 -99.5 -31.5t-36.5 -84.5q0 -54 36.5 -88t100.5 -34q66 0 100.5 34t34.5 88zM903 1238q0 64 -46 96t-117 32q-73 0 -116.5 -32t-43.5 -96q0 -60 43.5 -95t117.5 -35q73 0 117.5 35t44.5 95z" />
    <glyph glyph-name="ninesuperior" unicode="&#x2079;" horiz-adv-x="1259" 
d="M1121 1500q0 -314 -162.5 -456.5t-453.5 -142.5h-20v206h18q162 0 251 50.5t107 184.5q-42 -35 -96.5 -56t-117.5 -21q-171 0 -265 96.5t-94 266.5q0 106 52 194t146 141t219 53q185 0 300.5 -110.5t115.5 -333.5v-72zM545 1626q0 -76 42 -122.5t126 -46.5q54 0 93 21
t59 49v96q0 97 -44.5 142t-115.5 45q-76 0 -118 -54t-42 -130z" />
    <glyph glyph-name="plussuperior" unicode="&#x207a;" horiz-adv-x="1259" 
d="M1090 1279h-349v-379h-221v379h-350v214h350v383h221v-383h349v-214z" />
    <glyph glyph-name="minussuperior" unicode="&#x207b;" horiz-adv-x="1259" 
d="M1044 1493v-214h-826v214h826z" />
    <glyph glyph-name="equalsuperior" unicode="&#x207c;" horiz-adv-x="1259" 
d="M1044 1694v-213h-826v213h826zM1044 1291v-213h-826v213h826z" />
    <glyph glyph-name="parenleftsuperior" unicode="&#x207d;" horiz-adv-x="747" 
d="M132 1348v24q0 226 64.5 393t156 271t171.5 144l93 -174q-51 -52 -101 -132t-82.5 -202t-32.5 -300v-24q0 -187 32.5 -309.5t82.5 -199.5t101 -130l-93 -170q-80 40 -171.5 144.5t-156 271.5t-64.5 393z" />
    <glyph glyph-name="parenrightsuperior" unicode="&#x207e;" horiz-adv-x="747" 
d="M617 1372v-24q0 -226 -64 -393t-155 -271.5t-171 -144.5l-95 170q50 53 99.5 130t82 199.5t32.5 309.5v24q0 178 -32 300t-81 202t-101 132l95 174q80 -40 171 -144t155 -271t64 -393z" />
    <glyph glyph-name="onehalf" unicode="&#xbd;" horiz-adv-x="2283" 
d="M729 1999v-1083h-252v784l-277 -66v202l505 163h24zM1651 1728l-976 -1564l-172 98l976 1566zM2187 206v-206h-842v173l395 363q86 74 121 133t35 97q0 58 -38 94t-108 36q-88 0 -130.5 -48t-42.5 -115h-256q0 150 112 258.5t306 108.5q195 0 303.5 -88t108.5 -246
q0 -114 -71.5 -203t-208.5 -201l-195 -156h511z" />
    <glyph glyph-name="onequarter" unicode="&#xbc;" horiz-adv-x="2194" 
d="M678 1995v-1083h-252v784l-277 -66v202l505 163h24zM1646 1728l-976 -1564l-172 98l976 1566zM1129 393l502 691h259v-650h133v-208h-133v-226h-256v226h-493zM1379 434h255v329l-17 -27z" />
    <glyph glyph-name="threequarters" unicode="&#xbe;" horiz-adv-x="2283" 
d="M697 1380h-119v178h119q88 0 129.5 37t41.5 95q0 49 -37 85.5t-122 36.5q-65 0 -109.5 -27.5t-44.5 -75.5h-256q0 148 119.5 227.5t284.5 79.5q188 0 304.5 -79t116.5 -230q0 -80 -49 -140.5t-135 -93.5q204 -57 204 -253q0 -152 -126.5 -236t-314.5 -84q-103 0 -199 34
t-158 107t-62 191h257q0 -50 47 -87t127 -37q88 0 130.5 38t42.5 94q0 77 -51 108.5t-140 31.5zM1888 1728l-976 -1564l-172 98l976 1566zM1342 393l502 691h259v-650h133v-208h-133v-226h-256v226h-493zM1592 434h255v329l-17 -27z" />
    <glyph glyph-name="percent" unicode="%" horiz-adv-x="2283" 
d="M217 1556v108q0 117 48.5 214.5t141.5 156.5t227 59q136 0 228 -59t139 -156.5t47 -214.5v-108q0 -117 -48 -214.5t-140 -156t-226 -58.5q-136 0 -229 58.5t-140.5 156t-47.5 214.5zM1983 2066l-1432 -2084h-275l1432 2084h275zM456 1664v-108q0 -85 39 -153.5t139 -68.5
q98 0 136.5 68.5t38.5 153.5v108q0 85 -37.5 154t-137.5 69q-98 0 -138 -69t-40 -154zM1237 384v108q0 117 48.5 214.5t141.5 156.5t227 59q136 0 228 -59t139 -156.5t47 -214.5v-108q0 -117 -48 -214.5t-140 -156.5t-226 -59q-136 0 -229 59t-140.5 156.5t-47.5 214.5z
M1476 492v-108q0 -85 39 -153.5t139 -68.5q98 0 136.5 68.5t38.5 153.5v108q0 85 -37.5 154t-137.5 69q-98 0 -138 -69t-40 -154z" />
    <glyph glyph-name="perthousand" unicode="&#x2030;" horiz-adv-x="2795" 
d="M154 1512v104q0 114 49.5 208.5t142 151t220.5 56.5q134 0 229 -56.5t145.5 -151t50.5 -208.5v-104q0 -112 -50.5 -205.5t-144.5 -150t-226 -56.5q-130 0 -223 56.5t-143 150t-50 205.5zM375 1616v-104q0 -82 48 -147t147 -65q95 0 141.5 65t46.5 147v104q0 86 -47 151
t-145 65q-96 0 -143.5 -65t-47.5 -151zM1645 1716l-978 -1564l-171 98l976 1566zM2646 384q0 -112 -50.5 -205.5t-145 -150t-226.5 -56.5q-106 0 -186 41.5t-131 111.5q-50 -70 -128.5 -111.5t-182.5 -41.5q-133 0 -228.5 56.5t-146.5 150t-51 205.5v108q0 112 51 205.5
t146.5 150t228.5 56.5q105 0 183.5 -41.5t127.5 -110.5q50 69 129.5 110.5t183.5 41.5q134 0 229 -56.5t146 -150t51 -205.5v-108zM1403 492v-108q0 -82 49.5 -147t143.5 -65q104 0 146 65t42 147v108q0 82 -46.5 147t-141.5 65q-99 0 -146 -65t-47 -147zM2027 492v-108
q0 -82 51.5 -147t145.5 -65q102 0 145 65t43 147v108q0 82 -47 147t-145 65q-96 0 -144.5 -65t-48.5 -147z" />
    <glyph glyph-name="numero" unicode="&#x2116;" horiz-adv-x="2795" 
d="M1712 1426v116q0 212 128.5 347t347.5 135q222 0 349 -135t127 -347v-116q0 -213 -126.5 -347.5t-346.5 -134.5q-221 0 -350 134.5t-129 347.5zM1521 2004v-2004h-368l-686 1423v-1423h-336v2004h368l690 -1428v1428h332zM1952 1542v-116q0 -122 58.5 -202t180.5 -80
q118 0 175.5 80t57.5 202v116q0 120 -58 199t-178 79t-178 -79t-58 -199zM2604 772v-202h-838v202h838z" />
    <glyph glyph-name="acute" unicode="&#xb4;" horiz-adv-x="847" 
d="M148 1696l269 416h381l-380 -416h-270z" />
    <glyph glyph-name="hungarumlaut" unicode="&#x2dd;" horiz-adv-x="1114" 
d="M544 1692l308 420h302l-364 -420h-246zM95 1692l238 419l300 1l-306 -420h-232z" />
    <glyph glyph-name="grave" unicode="`" horiz-adv-x="837" 
d="M461 2112l270 -416h-280l-371 416h381z" />
    <glyph glyph-name="dieresis" unicode="&#xa8;" horiz-adv-x="1509" 
d="M255 1905q0 68 44 116.5t126 48.5q79 0 123.5 -48.5t44.5 -116.5q0 -67 -44.5 -116t-123.5 -49q-82 0 -126 49t-44 116zM916 1905q0 68 44 116.5t126 48.5q80 0 124 -48.5t44 -116.5q0 -67 -44 -116t-124 -49q-82 0 -126 49t-44 116z" />
    <glyph glyph-name="circumflex" unicode="&#x2c6;" horiz-adv-x="1349" 
d="M770 2115l377 -382v-15h-268l-206 214l-206 -214h-264v17l372 380h195z" />
    <glyph glyph-name="tilde" unicode="&#x2dc;" horiz-adv-x="1259" 
d="M930 2098l204 -16q0 -154 -88 -253.5t-220 -99.5q-90 0 -144 31t-103 62t-123 31q-52 0 -87.5 -39.5t-35.5 -102.5l-208 9q0 152 88 255t220 103q75 0 132 -30.5t112.5 -61t125.5 -30.5q53 0 90 39.5t37 102.5z" />
    <glyph glyph-name="macron" unicode="&#xaf;" horiz-adv-x="1349" 
d="M1148 1994v-216h-944v216h944z" />
    <glyph glyph-name="breve" unicode="&#x2d8;" horiz-adv-x="1259" 
d="M824 2077h251q0 -170 -119.5 -279t-325.5 -109q-203 0 -322.5 109t-119.5 279h250q0 -75 43.5 -132t148.5 -57t149.5 57t44.5 132z" />
    <glyph glyph-name="dotaccent" unicode="&#x2d9;" horiz-adv-x="747" 
d="M195 1912q0 73 46.5 122t132.5 49q85 0 133 -49t48 -122q0 -72 -48 -119.5t-133 -47.5q-86 0 -132.5 47.5t-46.5 119.5z" />
    <glyph glyph-name="ring" unicode="&#x2da;" horiz-adv-x="920" 
d="M116 1970q0 89 45 163.5t123 119t176 44.5t175.5 -44.5t122 -119t44.5 -163.5q0 -134 -97.5 -225t-244.5 -91t-245.5 91t-98.5 225zM285 1970q0 -68 48.5 -120.5t126.5 -52.5t126.5 52.5t48.5 120.5q0 70 -48.5 124t-126.5 54t-126.5 -54t-48.5 -124z" />
    <glyph glyph-name="caron" unicode="&#x2c7;" horiz-adv-x="1349" 
d="M472 2115l204 -213l200 213h285v-15l-384 -382h-206l-380 382v15h281z" />
    <glyph glyph-name="dieresistonos" unicode="&#x385;" horiz-adv-x="1515" 
d="M647 1944l66 410h313l-176 -410h-203zM174 1879q0 68 46 115.5t126 47.5t128 -47.5t48 -115.5q0 -67 -48 -113.5t-128 -46.5t-126 46.5t-46 113.5zM995 1876q0 70 47 118t128 48q80 0 127 -48t47 -118q0 -68 -47 -113.5t-127 -45.5q-81 0 -128 45.5t-47 113.5z" />
    <glyph glyph-name="cedilla" unicode="&#xb8;" horiz-adv-x="837" 
d="M275 6h242l-16 -78q77 -12 142 -65.5t65 -170.5q0 -137 -114 -223t-334 -86l-10 191q80 0 133.5 27.5t53.5 92.5q0 64 -48.5 87t-157.5 31z" />
    <glyph glyph-name="ogonek" unicode="&#x2db;" horiz-adv-x="747" 
d="M452 84l154 -84q-96 -63 -159 -128t-63 -147q0 -43 21 -68t77 -25q42 0 72 11t50 21l29 -194q-35 -21 -89 -40.5t-137 -19.5q-122 0 -206.5 70t-84.5 204q0 106 74 210t262 190z" />
    <glyph glyph-name="commaaccent" unicode="&#xf6c3;" horiz-adv-x="658" 
d="M520 361v-104q0 -121 -54.5 -251.5t-149.5 -215.5l-176 105q50 77 76 161t26 190v115h278z" />
    <glyph glyph-name="acutecomb" unicode="&#x301;" 
d="M-927 1696l268 416h380l-380 -416h-268z" />
    <glyph glyph-name="acutedblnosp" unicode="&#x30b;" 
d="M-1440 1696l269 416h381l-380 -416h-270zM-842 1696l269 416h381l-380 -416h-270z" />
    <glyph glyph-name="gravecomb" unicode="&#x300;" 
d="M-833 2112l269 -416h-278l-372 416h381z" />
    <glyph glyph-name="dblgravecmb" unicode="&#x30f;" 
d="M-1032 2087l337 -365h-286l-411 365h360zM-543 2087l261 -365h-267l-337 365h343z" />
    <glyph glyph-name="macroncomb" unicode="&#x304;" 
d="M-332 1994v-217h-944v217h944z" />
    <glyph glyph-name="dieresisnosp" unicode="&#x308;" 
d="M-1348 1905q0 68 44 116.5t126 48.5q80 0 124 -48.5t44 -116.5q0 -67 -44 -116t-124 -49q-82 0 -126 49t-44 116zM-687 1905q0 68 44 116.5t126 48.5q79 0 123.5 -48.5t44.5 -116.5q0 -67 -44.5 -116t-123.5 -49q-82 0 -126 49t-44 116z" />
    <glyph glyph-name="brevenosp" unicode="&#x306;" 
d="M-611 2077h251q0 -171 -119 -279.5t-324 -108.5t-324.5 108.5t-119.5 279.5h251q0 -75 43.5 -132.5t149.5 -57.5q104 0 148 57.5t44 132.5z" />
    <glyph glyph-name="breveinvnosp" unicode="&#x311;" 
d="M-358 1614h-252q0 76 -43.5 133.5t-148.5 57.5q-106 0 -150 -57.5t-44 -133.5h-250q0 171 119 279.5t325 108.5q205 0 324.5 -108.5t119.5 -279.5z" />
    <glyph glyph-name="hook" unicode="&#x309;" 
d="M-701 1725h-244l-11 201q100 5 145.5 25.5t45.5 68.5q0 56 -59.5 77.5t-147.5 21.5l10 168q231 0 349.5 -71.5t118.5 -192.5q0 -100 -65 -146.5t-141 -57.5z" />
    <glyph glyph-name="circumflexnosp" unicode="&#x302;" 
d="M-711 2115l377 -382v-15h-268l-206 214l-206 -214h-264v17l372 380h195z" />
    <glyph glyph-name="caroncmb" unicode="&#x30c;" 
d="M-333 2099l-375 -382h-197l-372 379v18h265l205 -215l207 215h267v-15z" />
    <glyph glyph-name="tildecomb" unicode="&#x303;" 
d="M-489 2098l204 -16q0 -154 -88 -253.5t-220 -99.5q-90 0 -144 31t-103 62t-123 31q-53 0 -88 -39.5t-35 -102.5l-208 9q0 152 88 255t220 103q74 0 131.5 -30.5t113 -61t125.5 -30.5q52 0 89.5 39.5t37.5 102.5z" />
    <glyph glyph-name="dotnosp" unicode="&#x307;" 
d="M-992 1875q0 76 50 127t139 51q90 0 140 -51t50 -127t-50 -126t-140 -50q-89 0 -139 50t-50 126z" />
    <glyph glyph-name="ringnosp" unicode="&#x30a;" 
d="M-1155 2012q0 89 45 163.5t123 119t176 44.5t175.5 -44.5t122 -119t44.5 -163.5q0 -134 -97.5 -225t-244.5 -91t-245.5 91t-98.5 225zM-986 2012q0 -68 48.5 -120.5t126.5 -52.5t126.5 52.5t48.5 120.5q0 70 -48.5 124t-126.5 54t-126.5 -54t-48.5 -124z" />
    <glyph glyph-name="hornnosp" unicode="&#x31b;" 
d="M-140 2164v-98q0 -260 -69 -431.5t-182 -269.5l-175 107q42 76 69.5 156t41 204t13.5 332h302z" />
    <glyph glyph-name="ogoneknosp" unicode="&#x328;" 
d="M-778 83l138 -83q-94 -62 -158.5 -127t-64.5 -147q0 -42 22 -67.5t76 -25.5q42 0 73 11t51 21l28 -196q-34 -20 -88.5 -40t-137.5 -20q-121 0 -206 70t-85 206q0 107 82.5 211t269.5 187z" />
    <glyph glyph-name="cedillanosp" unicode="&#x327;" 
d="M-958 5h244l-16 -75q77 -14 142 -67t65 -171q0 -138 -114 -223t-335 -85l-9 190q80 0 133.5 28t53.5 93q0 62 -49 86t-158 32z" />
    <glyph glyph-name="circumflexsubnosp" unicode="&#x32d;" 
d="M-710 -144l377 -382v-15h-268l-206 214l-206 -214h-264v17l372 380h195z" />
    <glyph glyph-name="brevesubnosp" unicode="&#x32e;" 
d="M-610 -125h251q0 -172 -119 -280.5t-324 -108.5q-206 0 -325.5 108.5t-119.5 280.5h251q0 -76 44 -133.5t150 -57.5q104 0 148 57.5t44 133.5z" />
    <glyph glyph-name="dotbelow" unicode="&#x323;" 
d="M-1018 -332q0 72 49.5 121.5t139.5 49.5q89 0 139 -49.5t50 -121.5t-50 -121t-139 -49q-90 0 -139.5 49t-49.5 121z" />
    <glyph glyph-name="commabelowcmb" unicode="&#x326;" 
d="M-607 -199v-102q0 -116 -54 -245.5t-151 -214.5l-175 105q49 76 76 158t27 186v113h277z" />
    <glyph glyph-name="dotdblsubnosp" unicode="&#x324;" 
d="M-1404 -332q0 68 47 115.5t127 47.5q81 0 128 -47.5t47 -115.5t-47 -115t-128 -47q-80 0 -127 47t-47 115zM-775 -334q0 68 46.5 115.5t126.5 47.5q81 0 128 -47.5t47 -115.5t-47 -115t-128 -47q-80 0 -126.5 47t-46.5 115z" />
    <glyph glyph-name="ringsubnosp" unicode="&#x325;" 
d="M-1155 -285q0 89 45 163.5t123 119t176 44.5t175.5 -44.5t122 -119t44.5 -163.5q0 -133 -97.5 -224.5t-244.5 -91.5t-245.5 91.5t-98.5 224.5zM-986 -285q0 -68 48.5 -120.5t126.5 -52.5t126.5 52.5t48.5 120.5q0 70 -48.5 124t-126.5 54t-126.5 -54t-48.5 -124z" />
    <glyph glyph-name="underscorenosp" unicode="&#x332;" 
d="M-164 -202v-263h-1268v263h1268z" />
    <glyph glyph-name="tildesubnosp" unicode="&#x330;" 
d="M-554 -149l204 -16q0 -154 -88 -253.5t-220 -99.5q-90 0 -144 31t-103 62t-123 31q-52 0 -87.5 -39.5t-35.5 -102.5l-208 9q0 151 88 254.5t220 103.5q75 0 132 -30.5t112.5 -61t125.5 -30.5q53 0 90 39.5t37 102.5z" />
    <glyph glyph-name="enquad" unicode="&#x2000;" horiz-adv-x="1536" 
 />
    <glyph glyph-name="emquad" unicode="&#x2001;" horiz-adv-x="3072" 
 />
    <glyph glyph-name="enspace" unicode="&#x2002;" horiz-adv-x="1536" 
 />
    <glyph glyph-name="emspace" unicode="&#x2003;" horiz-adv-x="2906" 
 />
    <glyph glyph-name="thirdemspace" unicode="&#x2004;" horiz-adv-x="1024" 
 />
    <glyph glyph-name="quarteremspace" unicode="&#x2005;" horiz-adv-x="726" 
 />
    <glyph glyph-name="sixthemspace" unicode="&#x2006;" horiz-adv-x="512" 
 />
    <glyph glyph-name="figurespace" unicode="&#x2007;" horiz-adv-x="1626" 
 />
    <glyph glyph-name="punctuationspace" unicode="&#x2008;" horiz-adv-x="1024" 
 />
    <glyph glyph-name="thinspace" unicode="&#x2009;" horiz-adv-x="768" 
 />
    <glyph glyph-name="hairspace" unicode="&#x200a;" horiz-adv-x="512" 
 />
    <glyph glyph-name="zerowidthspace" unicode="&#x200b;" 
 />
    <glyph glyph-name="arrowleft" unicode="&#x2190;" horiz-adv-x="3072" 
d="M1089 18l-856 856l856 856l217 -213l-494 -493h2004v-301h-2004l490 -489z" />
    <glyph glyph-name="arrowup" unicode="&#x2191;" horiz-adv-x="1792" 
d="M41 1215l856 856l856 -856l-212 -217l-493 494v-2004h-301v2004l-489 -490z" />
    <glyph glyph-name="arrowright" unicode="&#x2192;" horiz-adv-x="3072" 
d="M1983 1729l856 -856l-856 -856l-217 213l494 493h-2004v301h2004l-490 489z" />
    <glyph glyph-name="arrowdown" unicode="&#x2193;" horiz-adv-x="1792" 
d="M1753 321l-856 -856l-856 856l213 217l493 -494v2004h301v-2004l489 490z" />
    <glyph glyph-name="triagrt" unicode="&#x25ba;" horiz-adv-x="2560" 
d="M256 -256v2560l2176 -1280z" />
    <glyph glyph-name="triagdn" unicode="&#x25bc;" horiz-adv-x="2560" 
d="M0 2048h2560l-1280 -2176z" />
    <glyph glyph-name="triagup" unicode="&#x25b2;" horiz-adv-x="2560" 
d="M0 0l1280 2176l1280 -2176h-2560z" />
    <glyph glyph-name="blackleftpointingtriangle" unicode="&#x25c0;" horiz-adv-x="2560" 
d="M2304 -256l-2176 1280l2176 1280v-2560z" />
    <glyph glyph-name="mu" unicode="&#xb5;" horiz-adv-x="1771" 
d="M884 -28q-95 0 -185 28t-159 87v-659h-301v2091h301v-883q0 -164 57 -251t137.5 -118.5t149.5 -31.5q120 0 209 59t138 159v1066h301v-1519h-273l-12 153q-69 -85 -161 -133t-202 -48z" />
    <glyph glyph-name="uni2009.fra" horiz-adv-x="512" 
 />
    <glyph glyph-name="overscoredblnosp" unicode="&#x33f;" 
d="M-172 2639v-216h-1262v216h1262zM-172 2267v-215h-1261v215h1261z" />
    <glyph glyph-name="uni215A" unicode="&#x215a;" horiz-adv-x="2539" 
d="M524 1389l-205 52l71 555h676v-203h-466l-28 -204q22 8 72 22t109 14q179 0 275.5 -92.5t96.5 -260.5q0 -97 -44.5 -183t-136.5 -139.5t-234 -53.5q-106 0 -200.5 38.5t-155 110t-62.5 171.5h255q4 -62 48.5 -87t114.5 -25q91 0 125 49.5t34 121.5q0 77 -45.5 123.5
t-134.5 46.5q-71 0 -107 -19t-58 -37zM1922 1716l-976 -1564l-172 98l976 1566zM2452 361q0 -160 -114.5 -268.5t-303.5 -108.5q-194 0 -314.5 112.5t-120.5 327.5v71q0 307 173 458t454 151h39v-211h-16q-163 0 -265 -57.5t-124 -206.5q43 41 104.5 67.5t139.5 26.5
q171 0 259.5 -103.5t88.5 -258.5zM1855 389q0 -101 47 -149t127 -48q75 0 120.5 49t45.5 119q0 76 -44.5 117.5t-123.5 41.5q-62 0 -106.5 -24t-65.5 -56v-50z" />
    <glyph glyph-name="uni02E5_uni02E7_uni02E8" horiz-adv-x="1605" 
d="M1531 0h-335v396l-555 510l-566 957l232 141l562 -950l327 -304v1254h335v-2004z" />
    <glyph glyph-name="uni215F" unicode="&#x215f;" horiz-adv-x="1771" 
d="M743 1995v-1083h-252v784l-277 -66v202l505 163h24zM1694 1716l-976 -1564l-172 98l976 1566z" />
    <glyph glyph-name="tturn" unicode="&#x287;" horiz-adv-x="1003" 
d="M929 364h-247v-364h-335v364h-262v245h262v831q0 101 -42.5 131.5t-110.5 30.5q-33 0 -66 -5.5t-50 -10.5v258q40 14 93 23t125 9q167 0 276.5 -93.5t109.5 -321.5v-852h247v-245z" />
    <glyph glyph-name="uni2DEA" unicode="&#x2dea;" 
d="M-802 1632q-166 0 -264 107t-98 278v15q0 172 97.5 279.5t263.5 107.5q167 0 264.5 -107.5t97.5 -279.5v-15q0 -171 -97.5 -278t-263.5 -107zM-802 1792q88 0 126 62t38 163v15q0 101 -38 164.5t-127 63.5q-88 0 -126 -63.5t-38 -164.5v-15q0 -101 38 -163t127 -62z" />
    <glyph glyph-name="uni2DEB" unicode="&#x2deb;" 
d="M-1143 1651v759h680v-759h-198v600h-285v-600h-197z" />
    <glyph glyph-name="uni2DEC" unicode="&#x2dec;" 
d="M-752 1635q-123 0 -196 76v-396h-197v1088h172l12 -74q76 91 210 91q143 0 225 -109.5t82 -274.5v-15q0 -173 -81.5 -279.5t-226.5 -106.5zM-794 2260q-109 0 -154 -101v-268q44 -99 153 -99q78 0 116 63t38 166v15q0 100 -37.5 162t-115.5 62z" />
    <glyph glyph-name="uni2DED" unicode="&#x2ded;" 
d="M-786 1632q-183 0 -269 112.5t-86 267.5v27q0 155 86.5 267.5t267.5 112.5q144 0 230.5 -80t90.5 -205h-187q-1 46 -33.5 86t-102.5 40q-84 0 -119.5 -66t-35.5 -155v-27q0 -92 35.5 -156t120.5 -64q62 0 95.5 30t39.5 76h187q-4 -110 -95.5 -188t-224.5 -78z" />
    <glyph glyph-name="uni2DEE" unicode="&#x2dee;" 
d="M-1137 2251v159h668v-159h-236v-600h-197v600h-235z" />
    <glyph glyph-name="macronacutecomb" 
d="M-914 1978l175 265h268l-250 -265h-193zM-330 1889v-218h-944v218h944z" />
    <glyph glyph-name="uni1D91" unicode="&#x1d91;" horiz-adv-x="1771" 
d="M1573 1923q-91 0 -153 -44.5t-62 -162.5v-1447h14v-422q0 -118 70.5 -161.5t159.5 -43.5q42 0 88 11v-223q-34 -10 -88 -15t-81 -5q-123 0 -233.5 44.5t-180 141t-69.5 251.5v307q-71 -87 -170.5 -134.5t-230.5 -47.5q-179 0 -310.5 99t-203 269.5t-71.5 387.5v28
q0 226 71.5 397t203.5 267t314 96q122 0 217 -42.5t165 -121.5v364q0 164 69 260t176.5 137.5t221.5 41.5q96 0 170 -21v-223q-45 12 -87 12zM387 728q0 -133 34 -242.5t108 -174.5t194 -65q112 0 184.5 51t115.5 134v632q-42 82 -115 131t-181 49q-121 0 -195.5 -66
t-109.5 -176.5t-35 -244.5v-28z" />
    <glyph glyph-name="uni1D90" unicode="&#x1d90;" horiz-adv-x="1861" 
d="M1320 446q0 -115 29 -151t72 -36h103v-412q0 -118 64 -161.5t153 -43.5q42 0 88 11v-223q-35 -10 -75 -15t-77 -5q-187 0 -312 113t-125 324v132q-162 33 -221 214q-67 -105 -166.5 -163t-237.5 -58q-187 0 -316.5 93.5t-196.5 256.5t-67 374v28q0 232 66.5 410.5
t196.5 280t318 101.5q131 0 227.5 -54.5t163.5 -152.5l27 179h286v-1042zM367 696q0 -126 32.5 -229.5t105.5 -164.5t193 -61q107 0 176 50.5t111 134.5v20v611q-43 87 -112 139t-172 52q-120 0 -193.5 -72t-107 -191t-33.5 -261v-28z" />
    <glyph glyph-name="uni1D93" unicode="&#x1d93;" horiz-adv-x="1615" 
d="M673 231q148 0 232.5 63.5t84.5 148.5h331q0 -74 -22 -139v-457q0 -118 64 -161.5t154 -43.5q44 0 86 11v-223q-34 -10 -75 -15t-78 -5q-186 0 -311.5 113t-125.5 324v184q-75 -30 -159.5 -44.5t-169.5 -14.5q-187 0 -335.5 53.5t-234.5 154t-86 240.5q0 129 73 216.5
t209 130.5q-119 48 -187.5 131t-68.5 182q0 213 174.5 324.5t455.5 111.5q167 0 307 -54.5t223.5 -155.5t83.5 -240h-332q0 84 -84 137.5t-208 53.5q-148 0 -216.5 -60.5t-68.5 -130.5q0 -82 66 -133.5t212 -51.5h272v-240h-272q-146 0 -226 -48.5t-80 -157.5
q0 -79 80.5 -141.5t231.5 -62.5z" />
    <glyph glyph-name="uni1D92" unicode="&#x1d92;" horiz-adv-x="1626" 
d="M1607 -570q-34 -10 -74.5 -15t-76.5 -5q-186 0 -311.5 113t-125.5 324v178q-61 -25 -132.5 -39t-155.5 -14q-221 0 -380.5 95t-246 258t-86.5 368v55q0 236 89.5 408t242 266t341.5 94q217 0 358.5 -94t210 -259.5t68.5 -379.5v-144h-973q14 -172 116.5 -285t280.5 -113
q122 0 213.5 49t157.5 134l182 -170v-407q0 -118 63.5 -161.5t151.5 -43.5q41 0 87 11v-223zM690 1248q-136 0 -220.5 -97t-107.5 -268h635v25q-3 87 -33.5 164.5t-97 126.5t-176.5 49z" />
    <glyph glyph-name="uni1D95" unicode="&#x1d95;" horiz-adv-x="2117" 
d="M2037 -570q-34 -10 -74.5 -15t-76.5 -5q-186 0 -311.5 113t-125.5 324v758h-69q-25 -195 -118 -337t-234 -219t-310 -77q-218 0 -359.5 94.5t-210.5 261t-69 380.5v142h973q-14 171 -116 284.5t-278 113.5q-122 0 -215 -49t-159 -135l-180 171q73 106 212.5 193.5
t360.5 87.5q212 0 367.5 -87t244 -238t99.5 -342h344v-1002q0 -118 63.5 -161.5t154.5 -43.5q41 0 87 11v-223zM718 241q136 0 220 96.5t107 267.5h-634v-25q5 -87 35.5 -164.5t96 -126t175.5 -48.5z" />
    <glyph glyph-name="uni1D94" unicode="&#x1d94;" horiz-adv-x="1515" 
d="M769 641h-274v240h274q143 0 209.5 51.5t66.5 133.5q0 70 -68 130.5t-218 60.5q-122 0 -205.5 -53.5t-83.5 -137.5h-332q0 139 83 240t222 155.5t306 54.5q281 0 456 -111.5t175 -324.5q0 -100 -68 -182.5t-188 -130.5q135 -44 207.5 -131.5t72.5 -215.5
q0 -140 -86 -240.5t-234 -154t-335 -53.5q-91 0 -181.5 17t-170.5 52v-194q0 -118 64 -161.5t154 -43.5q43 0 87 11v-223q-36 -10 -75.5 -15t-75.5 -5q-188 0 -314 113t-126 324v596h335q0 -85 82.5 -148.5t230.5 -63.5q150 0 231 62.5t81 141.5q0 109 -79 157.5t-223 48.5z
" />
    <glyph glyph-name="uni1D97" unicode="&#x1d97;" horiz-adv-x="1515" 
d="M111 -153v646h325q5 -109 89.5 -180.5t205.5 -71.5q138 0 211.5 69.5t100.5 179.5t27 230v48q0 120 -28 230t-101.5 180t-209.5 70q-137 0 -213.5 -87t-81.5 -205h-315q4 164 80.5 290t211.5 198t315 72q229 0 379 -102t224 -272t74 -374v-48q0 -204 -74 -374
t-224.5 -272t-379.5 -102q-92 0 -176 24t-155 67v-216q0 -118 64 -161.5t152 -43.5q46 0 88 11v-223q-35 -10 -75.5 -15t-77.5 -5q-185 0 -310.5 113t-125.5 324z" />
    <glyph glyph-name="uni1D96" unicode="&#x1d96;" horiz-adv-x="1093" 
d="M134 1903q0 73 52.5 128t141.5 55q90 0 143 -55t53 -128q0 -77 -53 -129.5t-143 -52.5q-89 0 -141.5 52.5t-52.5 129.5zM950 -570q-34 -10 -74.5 -15t-76.5 -5q-186 0 -311.5 113t-125.5 324v153h-189v1519h309v-1222h166v-450q0 -118 62.5 -161.5t152.5 -43.5
q43 0 87 11v-223z" />
    <glyph glyph-name="uni1D99" unicode="&#x1d99;" horiz-adv-x="1861" 
d="M1766 -570q-34 -10 -75 -15t-78 -5q-185 0 -310 113t-125 324v153h-164l-4 194h-16q-61 -86 -171.5 -151.5t-269.5 -65.5q-121 0 -232.5 60.5t-182.5 188.5t-71 331v962h309v-963q0 -155 81.5 -230.5t213.5 -75.5q84 0 160.5 42.5t124.5 128.5t48 216v882h309v-1222h151
v-450q0 -118 63 -161.5t151 -43.5q42 0 88 11v-223z" />
    <glyph glyph-name="uni1D98" unicode="&#x1d98;" horiz-adv-x="1259" 
d="M1034 1899q-112 0 -175 -60.5t-63 -176.5v-1284q0 -222 -112.5 -351t-312.5 -154v-36q0 -116 64 -160t154 -44q40 0 87 10v-223q-71 -20 -151 -20q-186 0 -311.5 113t-125.5 324v52l8 264q51 -12 129 -12q115 0 177 60.5t62 176.5v1284q0 248 139.5 381t381.5 133
q95 0 190 -27l-10 -262q-54 12 -131 12z" />
    <glyph glyph-name="uniA659" unicode="&#xa659;" horiz-adv-x="1771" 
d="M84 0l633 1488h341l633 -1488h-1607zM690 641h392l-197 485zM535 254h703l-54 135h-595z" />
    <glyph glyph-name="uniA658" unicode="&#xa658;" horiz-adv-x="2027" 
d="M102 0l755 2004h313l758 -2004h-1826zM749 819h529l-264 758zM562 280h903l-91 261h-721z" />
    <glyph glyph-name="crossbar" horiz-adv-x="1259" 
d="M1092 1126v-235h-919v235h919z" />
    <glyph glyph-name="uniA653" unicode="&#xa653;" horiz-adv-x="2117" 
d="M676 0v1471h-190v-1471h-309v2068h309v-330h190v406h334v-406h436v-267h-436v-456h326q287 0 442.5 -142t155.5 -363q0 -145 -69.5 -260.5t-203 -182.5t-325.5 -67h-660zM1010 268h326q145 0 204.5 71.5t59.5 162.5q0 92 -59.5 168.5t-204.5 76.5h-326v-479z" />
    <glyph glyph-name="uniA652" unicode="&#xa652;" horiz-adv-x="2373" 
d="M653 0v1471h-169v-1471h-323v2033h323v-287h169v258h348v-258h513v-275h-513v-234h409q340 0 528.5 -167.5t188.5 -444.5q0 -185 -84.5 -325.5t-245 -220t-387.5 -79.5h-757zM1001 278h409q192 0 282 105.5t90 245.5q0 137 -90 232.5t-282 95.5h-409v-679z" />
    <glyph glyph-name="austral" unicode="&#x20b3;" horiz-adv-x="2027" 
d="M1533 0l-151 479h-726l-152 -479h-351l164 479h-239v269h331l77 226h-408v268h500l270 791h340l271 -791h465v-268h-373l77 -226h296v-269h-204l164 -479h-351zM1006 1583l-108 -341h243l-108 341h-27zM745 761h548l-68 213h-412z" />
    <glyph glyph-name="uniA651" unicode="&#xa651;" horiz-adv-x="2373" 
d="M2313 1519v-1519h-312v1519h312zM1784 510q0 -145 -70 -260.5t-204 -182.5t-327 -67h-660v1219h-428v269h762v-473h326q289 0 445 -142t156 -363zM857 268h326q145 0 204.5 71.5t59.5 162.5q0 92 -59.5 168.5t-204.5 76.5h-326v-479z" />
    <glyph glyph-name="uniA650" unicode="&#xa650;" horiz-adv-x="2629" 
d="M2552 2033v-2033h-323v2033h323zM139 1735v269h890v-767h407q342 0 531.5 -167.5t189.5 -444.5q0 -185 -85.5 -325.5t-246.5 -220t-389 -79.5h-757v1735h-540zM1029 278h407q194 0 283 105.5t89 245.5q0 137 -89 232.5t-283 95.5h-407v-679z" />
    <glyph glyph-name="uniA657" unicode="&#xa657;" horiz-adv-x="2117" 
d="M1631 0q-25 51 -39 139q-65 -69 -162.5 -118t-228.5 -49q-183 0 -312.5 87t-173.5 225h-234v-284h-335v1488h335v-943h228q45 178 216 270.5t445 92.5h211v101q0 114 -64.5 183.5t-195.5 69.5q-120 0 -190 -58t-70 -143h-335q0 117 75.5 221t213 169t325.5 65
q166 0 296.5 -57t205 -170.5t74.5 -283.5v-660q0 -99 13 -180.5t42 -140.5v-24h-340zM1263 242q117 0 200.5 55.5t117.5 123.5v278h-181q-185 0 -279 -65t-94 -182q0 -91 61 -150.5t175 -59.5z" />
    <glyph glyph-name="uniA656" unicode="&#xa656;" horiz-adv-x="2629" 
d="M720 0l160 467h-389v-467h-324v2033h324v-1285h485l440 1285h340l695 -2033h-350l-154 488h-721l-155 -488h-351zM1574 1583l-261 -822h547l-260 822h-26z" />
    <glyph glyph-name="uniA655" unicode="&#xa655;" horiz-adv-x="2450" 
d="M1917 0v622h-396q-36 -317 -224.5 -484t-460.5 -167q-198 0 -354.5 93.5t-246.5 270t-90 426.5q0 241 90 416t246.5 270t354.5 95q274 0 462.5 -168t223.5 -483h395v628h312v-1519h-312zM836 236q175 0 275.5 134.5t100.5 390.5q0 253 -100.5 386t-275.5 133
q-170 0 -274 -140.5t-104 -378.5q0 -236 100 -380.5t278 -144.5z" />
    <glyph glyph-name="uniA65C" unicode="&#xa65c;" horiz-adv-x="2629" 
d="M1704 2004l759 -2004h-1828l204 541h-385v-541h-323v2033h323v-1214h490l447 1185h313zM1284 819h528l-264 756zM1094 272h908l-94 269h-720z" />
    <glyph glyph-name="uniA65B" unicode="&#xa65b;" horiz-adv-x="2027" 
d="M153 234q0 307 147 446t410 155l-384 653h1392l-383 -654q253 -19 395 -158.5t142 -441.5v-234h-335v207h-351v-207h-333v207h-365v-207h-335v234zM818 1248l206 -399l203 399h-409zM793 577q-101 0 -168 -28t-101 -100h977q-34 72 -99.5 100t-164.5 28h-444z" />
    <glyph glyph-name="uniA65A" unicode="&#xa65a;" horiz-adv-x="2373" 
d="M825 1113h33l-521 891h1720l-519 -891h30q196 0 345.5 -61.5t234 -199t84.5 -365.5v-487h-348v376h-513v-376h-344v376h-538v-376h-345v487q0 228 83 365.5t235.5 199t362.5 61.5zM879 1720l319 -583l319 583h-638zM836 830q-132 0 -214 -39.5t-114 -144.5h1357
q-31 105 -112.5 144.5t-216.5 39.5h-700z" />
    <glyph glyph-name="uniA65F" unicode="&#xa65f;" horiz-adv-x="1861" 
d="M119 188q199 202 323 403.5t202 421t139 475.5h323l638 -1488h-347l-261 686v-1258h-335v1214q-73 -181 -182.5 -346.5t-278.5 -323.5z" />
    <glyph glyph-name="uniA65E" unicode="&#xa65e;" horiz-adv-x="2117" 
d="M111 166q193 198 328 404t228 429t160 472t126 533h318l738 -2004h-347l-344 1026v-1598h-332v1539q-88 -272 -234.5 -513.5t-384.5 -494.5z" />
    <glyph glyph-name="uniA65D" unicode="&#xa65d;" horiz-adv-x="2373" 
d="M1576 1488l632 -1488h-1605l165 389h-268v-389h-335v1488h335v-847h376l360 847h340zM1211 641h391l-196 484zM1055 254h704l-55 135h-594z" />
    <glyph glyph-name="uni1D9A" unicode="&#x1d9a;" horiz-adv-x="1605" 
d="M743 506h-183v236l452 478h-830v268h1250v-213l-517 -534q275 -29 425 -169t150 -376q0 -190 -91 -323t-250 -203.5t-363 -70.5q-106 0 -210.5 25t-193.5 77v-22q0 -117 73 -158.5t161 -41.5q20 0 43 1.5t45 6.5v-223q-71 -20 -153 -20q-185 0 -310.5 111.5t-125.5 323.5
v504h334q0 -129 92 -222.5t245 -93.5q176 0 274 94t98 232q0 169 -106.5 241t-308.5 72z" />
    <glyph glyph-name="uni1D9C" unicode="&#x1d9c;" horiz-adv-x="1259" 
d="M657 1104q91 0 146 36t69 119h238q-4 -105 -65 -192t-162 -139t-224 -52q-169 0 -282.5 75t-170.5 200t-57 276v37q0 151 57 276.5t170.5 200.5t282.5 75q201 0 323 -115.5t128 -298.5h-238q-14 90 -64.5 137t-151.5 47q-128 0 -181.5 -95.5t-53.5 -226.5v-37
q0 -132 52 -227.5t184 -95.5z" />
    <glyph glyph-name="uni1D9B" unicode="&#x1d9b;" horiz-adv-x="1426" 
d="M1272 1464q0 -172 -54 -304.5t-154 -208t-239 -75.5q-97 0 -168.5 40.5t-120.5 114.5l-20 -132h-235v752q0 85 -21.5 114t-53.5 29q-13 0 -27 -7l-24 201q29 14 61 22.5t67 8.5q85 0 151 -34t96 -125q50 76 123 117.5t173 41.5q207 0 326.5 -150.5t119.5 -384.5v-20z
M763 1815q-79 0 -130 -36.5t-82 -97.5v-463q32 -63 83.5 -100.5t128.5 -37.5q132 0 185.5 112t53.5 272v20q0 142 -52.5 236.5t-186.5 94.5z" />
    <glyph glyph-name="uni006A.ccmp" horiz-adv-x="768" 
d="M530 1488h332v-1576q0 -248 -129 -380t-355 -132q-47 0 -87.5 4t-85.5 16l20 264q25 -9 66.5 -12.5t66.5 -3.5q82 0 127 64t45 180v1576z" />
    <glyph glyph-name="uni1D9D" unicode="&#x1d9d;" horiz-adv-x="1259" 
d="M718 876q-86 0 -158 19.5t-129 54.5l-154 -193l-177 131l179 219q-79 135 -79 320v37q0 154 58 279.5t170.5 199t277.5 73.5q201 0 324 -115.5t127 -298.5h-235q-13 88 -63.5 136t-151.5 48q-131 0 -183.5 -95.5t-52.5 -226.5v-37q0 -57 8 -105q96 88 183.5 127t187.5 39
q165 0 237 -82t72 -189q0 -105 -61.5 -181.5t-162 -118t-217.5 -41.5zM822 1268q-87 0 -230 -140q55 -34 132 -34q66 0 121 26t55 83q0 65 -78 65z" />
    <glyph glyph-name="uni1D9F" unicode="&#x1d9f;" horiz-adv-x="1259" 
d="M625 876q-111 0 -218 36.5t-176.5 113.5t-69.5 197h253q8 -64 59 -96.5t161 -32.5q108 0 151 38t43 96q0 68 -47 97.5t-140 29.5h-199v206h199q89 0 129.5 32t40.5 84q0 51 -43.5 83.5t-135.5 32.5q-91 0 -144.5 -25t-55.5 -84h-255q0 102 62 176.5t164 115t222 40.5
q204 0 329.5 -82t125.5 -238q0 -75 -48 -135.5t-134 -96.5q98 -33 151.5 -98t53.5 -158q0 -156 -137 -244t-341 -88z" />
    <glyph glyph-name="acutedotcomb.lc" 
d="M-968 2399q0 73 47 121.5t132 48.5q86 0 133.5 -48.5t47.5 -121.5q0 -72 -47.5 -120t-133.5 -48q-85 0 -132 48t-47 120zM-957 1696l268 416h381l-381 -416h-268z" />
    <glyph glyph-name="uni2DE9" unicode="&#x2de9;" 
d="M-661 1651v302h-284v-302h-198v759h198v-298h284v298h198v-759h-198z" />
    <glyph glyph-name="tildedieresiscomb.lc" 
d="M-1289 2347q0 68 46.5 115.5t127.5 47.5q80 0 127 -47.5t47 -115.5t-47 -115t-127 -47q-81 0 -127.5 47t-46.5 115zM-660 2345q0 69 46 116t127 47q80 0 127 -47t47 -116q0 -67 -47 -114t-127 -47q-81 0 -127 47t-46 114zM-503 2098l205 -17q0 -154 -88.5 -253.5
t-219.5 -99.5q-90 0 -144.5 31t-103.5 62t-123 31q-53 0 -89 -40t-36 -103l-204 12q0 151 87 254t219 103q74 0 131 -31t113 -61.5t126 -30.5q53 0 90 39.5t37 103.5z" />
    <glyph glyph-name="uni2DE0" unicode="&#x2de0;" 
d="M-803 1639q-173 0 -265 112.5t-92 269.5v54q0 286 90.5 417t244.5 163q76 15 120.5 28.5t48.5 53.5h161q0 -127 -65.5 -172t-194.5 -73q-86 -19 -147.5 -59.5t-83.5 -143.5q85 81 216 81q158 0 241 -99.5t83 -248.5v-15q0 -157 -92 -262.5t-265 -105.5zM-803 1798
q82 0 121 57t39 152v15q0 86 -39.5 137.5t-121.5 51.5q-81 0 -120 -51.5t-39 -137.5v-15q0 -95 39 -152t121 -57z" />
    <glyph glyph-name="uni2DE1" unicode="&#x2de1;" 
d="M-436 1869q0 -109 -84.5 -163.5t-226.5 -54.5h-374v759h324q147 0 237 -51.5t90 -158.5t-136 -152q82 -19 126 -69t44 -110zM-924 2267v-163h130q127 0 127 79q0 47 -33 65.5t-97 18.5h-127zM-634 1886q0 32 -22.5 59.5t-90.5 27.5h-177v-178h177q67 0 90 27.5t23 63.5z
" />
    <glyph glyph-name="uni2DE2" unicode="&#x2de2;" 
d="M-535 2410v-159h-319v-600h-198v759h517z" />
    <glyph glyph-name="uni2DE3" unicode="&#x2de3;" 
d="M-1031 2159l5 251h537v-599h104v-386h-174v226h-487v-226h-176v386h70q59 65 88 140.5t33 207.5zM-854 2140q-6 -110 -26.5 -191t-53.5 -138h248v440h-165z" />
    <glyph glyph-name="uni2DE4" unicode="&#x2de4;" 
d="M-899 1651v290h-90l-163 -290h-225l249 397l-226 363h215l169 -297h71v297h197v-297h72l169 297h215l-225 -362l249 -398h-226l-164 290h-90v-290h-197z" />
    <glyph glyph-name="uni2DE5" unicode="&#x2de5;" 
d="M-799 1967h-126v141h126q57 0 80.5 22t23.5 58q0 79 -108 79q-56 0 -90 -16.5t-36 -57.5h-181q0 106 90.5 166.5t211.5 60.5q136 0 223 -56.5t87 -163.5q0 -110 -118 -160q132 -45 132 -174q0 -107 -93.5 -167t-230.5 -60q-76 0 -147.5 25t-118.5 77.5t-47 135.5h180
q11 -89 138 -89q68 0 94.5 26t26.5 67q0 86 -117 86z" />
    <glyph glyph-name="uni2DE6" unicode="&#x2de6;" 
d="M-660 1651l-174 289h-85v-289h-197v759h197v-297h72l175 297h220l-235 -364l258 -395h-231z" />
    <glyph glyph-name="uni2DE7" unicode="&#x2de7;" 
d="M-1047 2087l14 323h574v-759h-196v600h-197l-7 -177q-9 -211 -73 -317t-223 -106h-32l-3 171l24 3q68 9 91 67.5t28 194.5z" />
    <glyph glyph-name="drthook" unicode="&#x256;" horiz-adv-x="1771" 
d="M1648 -583q-34 -9 -78 -13t-92 -4q-116 0 -223 41.5t-175.5 137t-68.5 258.5v304q-69 -78 -164 -123.5t-222 -45.5q-179 0 -311.5 102.5t-205.5 282t-73 409.5q0 228 72.5 403t206 274t315.5 99q149 0 254 -64t175 -172v764h309v-2070h-24v-163q0 -116 63.5 -160
t154.5 -44q19 0 43 1.5t44 6.5v-224zM349 766q0 -146 39 -266.5t118 -192t198 -71.5q108 0 183 60.5t117 149.5t51 174q10 50 10 126t-10 130q-7 90 -45 181t-111 151.5t-184 60.5q-127 0 -208 -69.5t-119.5 -183.5t-38.5 -250z" />
    <glyph glyph-name="qhook" unicode="&#x2a0;" horiz-adv-x="1771" 
d="M1602 1684q-89 0 -153 -44t-64 -162v-2050h-333v699q-70 -74 -164 -114.5t-216 -40.5q-185 0 -317 99t-201.5 270t-69.5 388v28q0 226 69.5 397t201.5 266.5t320 95.5q121 0 214.5 -40t162.5 -114v116q0 164 69 260.5t176.5 139t222.5 42.5q46 0 91 -7t79 -17v-224
q-44 12 -88 12zM416 729q0 -133 35 -243.5t110 -177.5t197 -67q108 0 179.5 46t114.5 123v675q-44 74 -116 118.5t-178 44.5q-120 0 -195.5 -66.5t-111 -178t-35.5 -246.5v-28z" />
    <glyph glyph-name="underscoredbl" unicode="&#x2017;" horiz-adv-x="1426" 
d="M1345 0v-216h-1264v216h1264zM1345 -358v-214h-1264v214h1264z" />
    <glyph glyph-name="uni2151" unicode="&#x2151;" horiz-adv-x="2450" 
d="M818 1995v-1083h-252v784l-277 -66v202l505 163h24zM1767 1716l-976 -1564l-172 98l976 1566zM2337 584q0 -314 -162.5 -456.5t-453.5 -142.5h-20v206h18q162 0 251 50.5t107 184.5q-42 -35 -96.5 -56t-117.5 -21q-171 0 -265 96.5t-94 266.5q0 106 52 194t146 141
t219 53q185 0 300.5 -110.5t115.5 -333.5v-72zM1761 710q0 -76 42 -122.5t126 -46.5q54 0 93 21t59 49v96q0 97 -44.5 142t-115.5 45q-76 0 -118 -54t-42 -130z" />
    <glyph glyph-name="uni2150" unicode="&#x2150;" horiz-adv-x="2539" 
d="M790 1995v-1083h-252v784l-277 -66v202l505 163h24zM1739 1716l-976 -1564l-172 98l976 1566zM2459 1084v-142l-466 -942h-269l466 880h-598v204h867z" />
    <glyph glyph-name="uni2152" unicode="&#x2152;" horiz-adv-x="3051" 
d="M786 1995v-1083h-252v784l-277 -66v202l505 163h24zM1736 1716l-976 -1564l-172 98l976 1566zM2965 647v-209q0 -232 -114.5 -343t-297.5 -111q-188 0 -304.5 111t-116.5 343v209q0 229 116 341t301 112t300.5 -112t115.5 -341zM1936 1083v-1083h-252v784l-277 -66v202
l505 163h24zM2709 422v241q0 124 -42.5 177.5t-117.5 53.5q-76 0 -118 -53.5t-42 -177.5v-241q0 -125 42.5 -177.5t121.5 -52.5q72 0 114 52.5t42 177.5z" />
    <glyph glyph-name="uni2155" unicode="&#x2155;" horiz-adv-x="2373" 
d="M767 1995v-1083h-252v784l-277 -66v202l505 163h24zM1716 1716l-976 -1564l-172 98l976 1566zM1699 477l-205 52l71 555h676v-203h-466l-28 -204q22 8 72 22t109 14q179 0 275.5 -92.5t96.5 -260.5q0 -97 -44.5 -183t-136.5 -139.5t-234 -53.5q-106 0 -200.5 38.5
t-154.5 110t-63 171.5h255q4 -62 48.5 -87t114.5 -25q91 0 125 49.5t34 121.5q0 77 -45.5 123.5t-134.5 46.5q-71 0 -106.5 -19t-58.5 -37z" />
    <glyph glyph-name="romanone" unicode="&#x2160;" horiz-adv-x="747" 
d="M499 2033v-2033h-323v2033h323z" />
    <glyph glyph-name="uni2157" unicode="&#x2157;" horiz-adv-x="2539" 
d="M669 1376h-119v178h119q88 0 129.5 37t41.5 95q0 49 -37 85.5t-122 36.5q-65 0 -109.5 -27.5t-44.5 -75.5h-256q0 148 119.5 227.5t284.5 79.5q188 0 304.5 -79t116.5 -230q0 -80 -49 -140.5t-135 -93.5q204 -57 204 -253q0 -152 -126.5 -236t-314.5 -84q-103 0 -199 34
t-158 107t-62 191h257q0 -50 47 -87t127 -37q88 0 130.5 38t42.5 94q0 77 -51 108.5t-140 31.5zM1873 1716l-976 -1564l-172 98l976 1566zM1912 477l-205 52l71 555h676v-203h-466l-28 -204q22 8 72 22t109 14q179 0 275.5 -92.5t96.5 -260.5q0 -97 -44.5 -183
t-136.5 -139.5t-234 -53.5q-106 0 -200.5 38.5t-155 110t-62.5 171.5h255q4 -62 48.5 -87t114.5 -25q91 0 125 49.5t34 121.5q0 77 -45.5 123.5t-134.5 46.5q-71 0 -107 -19t-58 -37z" />
    <glyph glyph-name="uni2156" unicode="&#x2156;" horiz-adv-x="2706" 
d="M1160 1118v-206h-842v173l395 363q85 74 120.5 133t35.5 97q0 58 -38 94t-108 36q-89 0 -131 -48t-42 -115h-256q0 150 112 258.5t306 108.5q195 0 303.5 -88t108.5 -246q0 -114 -72 -203t-208 -201l-195 -156h511zM2045 1716l-976 -1564l-172 98l976 1566zM2030 477
l-205 52l71 555h676v-203h-466l-28 -204q22 8 72 22t109 14q179 0 275.5 -92.5t96.5 -260.5q0 -97 -44.5 -183t-136.5 -139.5t-234 -53.5q-106 0 -200.5 38.5t-155 110t-62.5 171.5h255q4 -62 48.5 -87t114.5 -25q91 0 125 49.5t34 121.5q0 77 -45.5 123.5t-134.5 46.5
q-71 0 -107 -19t-58 -37z" />
    <glyph glyph-name="nrthook" unicode="&#x273;" horiz-adv-x="1861" 
d="M1678 -583q-35 -9 -79 -13t-92 -4q-116 0 -223 41.5t-175 137t-68 258.5v573h79v536q0 152 -86 237.5t-214 85.5q-87 0 -164.5 -46t-125.5 -135t-48 -219v-869h-309v1519h292l4 -222h16q59 106 170 175.5t271 69.5q142 0 256 -60.5t180.5 -188.5t66.5 -331v-962h-56v-163
q0 -116 63.5 -160t152.5 -44q20 0 44.5 1.5t44.5 6.5v-224z" />
    <glyph glyph-name="estimated" unicode="&#x212e;" horiz-adv-x="1771" 
d="M1414 272v-144q-114 -72 -243.5 -114t-264.5 -42q-150 0 -280.5 60.5t-229 166.5t-154.5 246t-56 299t61 299t164 246t231.5 166.5t263.5 60.5q188 0 342.5 -97t246 -265t91.5 -382v-64h-1056v-452q76 -69 172.5 -110.5t203.5 -41.5q129 0 257 40.5t251 127.5zM906 1388
q-102 0 -199.5 -46.5t-176.5 -121.5v-384h744v396q-72 72 -167.5 114t-200.5 42z" />
    <glyph glyph-name="hturn" unicode="&#x265;" horiz-adv-x="1605" 
d="M1420 1488v-2060h-335v734q-76 -89 -181 -139.5t-232 -50.5q-220 0 -351.5 128t-131.5 430v958h332v-962q0 -154 68 -217t197 -63q103 0 178.5 47.5t120.5 127.5v1067h335z" />
    <glyph glyph-name="degreecentigrade" unicode="&#x2103;" horiz-adv-x="2789" 
d="M2392 581h341q-23 -172 -120.5 -310t-264.5 -218.5t-396 -80.5q-246 0 -431 129t-287.5 364t-102.5 552q0 313 98.5 548t282 365.5t438.5 130.5q240 0 406 -81.5t261 -220.5t121 -312h-344q-23 148 -130.5 241.5t-303.5 93.5q-160 0 -274 -96t-174.5 -268t-60.5 -401
q0 -219 60 -390.5t173.5 -270t275.5 -98.5q204 0 305 95t127 228zM543 1129q-121 0 -223 60t-163 161.5t-61 223.5q0 124 61 225.5t163 162.5t223 61q123 0 223.5 -61t160 -162.5t59.5 -225.5q0 -122 -59.5 -223.5t-160 -161.5t-223.5 -60zM543 1345q95 0 163 67.5t68 163.5
q0 97 -68 165.5t-163 68.5t-163.5 -68.5t-68.5 -165.5q0 -95 68.5 -163t163.5 -68z" />
    <glyph glyph-name="dieresisacutecomb.lc" 
d="M-972 2110l268 415h381l-381 -415h-268zM-1289 1879q0 68 46.5 115.5t127.5 47.5q80 0 127 -47.5t47 -115.5t-47 -115t-127 -47q-81 0 -127.5 47t-46.5 115zM-660 1877q0 68 46 116t127 48q80 0 127 -48t47 -116t-47 -115t-127 -47q-81 0 -127 47t-46 115z" />
    <glyph glyph-name="uni2DEF" unicode="&#x2def;" 
d="M-884 2413l125 -226l126 226h224l-222 -375l230 -387h-223l-134 237l-134 -237h-224l230 387l-222 375h224z" />
    <glyph glyph-name="uniAB59" unicode="&#xab59;" horiz-adv-x="1771" 
d="M729 -338v-234h-686v234h157l667 1094l-455 732h370l279 -489l282 489h370l-455 -732l472 -756h-371l-295 510l-494 -848h159z" />
    <glyph glyph-name="uniAB58" unicode="&#xab58;" horiz-adv-x="2027" 
d="M1021 510l-631 -1082h-377l808 1328l-452 732h369l277 -489l286 489h370l-456 -732l119 -188q51 70 130 112t173 42q103 0 189 -50t137 -135t51 -190q0 -103 -51.5 -188t-138 -136t-192.5 -51q-130 0 -218 41.5t-151 115t-119 169.5zM1639 191q61 0 105.5 39.5
t44.5 118.5t-44.5 119.5t-105.5 40.5q-65 0 -109.5 -40.5t-44.5 -119.5t44.5 -118.5t109.5 -39.5z" />
    <glyph glyph-name="uniAB57" unicode="&#xab57;" horiz-adv-x="1771" 
d="M774 1488l279 -489l282 489h370l-452 -732l469 -756h-367l-299 510l-630 -1082h-375l808 1328l-455 732h370z" />
    <glyph glyph-name="uniAB56" unicode="&#xab56;" horiz-adv-x="1861" 
d="M1763 347q0 -103 -51 -188t-137 -136t-190 -51q-193 0 -301.5 91t-191.5 235l-125 212l-295 -510h-371l469 756l-455 732h370l279 -489l283 489h370l-452 -732l117 -188q51 70 130.5 112t172.5 42q104 0 190 -50t137 -135t51 -190zM1388 191q63 0 106 39.5t43 118.5
t-43 119.5t-106 40.5q-65 0 -108.5 -40.5t-43.5 -119.5t43.5 -118.5t108.5 -39.5z" />
    <glyph glyph-name="Gbar" unicode="&#x1e4;" horiz-adv-x="2027" 
d="M1885 449h-176q-80 -220 -277.5 -348.5t-493.5 -128.5q-234 0 -425 119t-303.5 352t-112.5 574q0 343 109.5 575.5t299 350.5t430.5 118q244 0 417 -85t273 -231.5t125 -331.5h-332q-22 97 -81.5 182t-157.5 137.5t-234 52.5q-234 0 -381.5 -195t-147.5 -574
q0 -279 79.5 -447.5t205 -243.5t262.5 -75q276 0 397 199h-398v218h469q7 52 7 109h-442v260h764v-275q0 -48 -4 -94h128v-218z" />
    <glyph glyph-name="uniAB54" unicode="&#xab54;" horiz-adv-x="1861" 
d="M1787 -225q0 -105 -51 -190t-137.5 -135t-190.5 -50q-139 0 -234.5 45.5t-165.5 143t-134 253.5l-128 307l-298 -721h-370l471 1046l-456 1014h370l277 -699l284 699h373l-454 -1014l199 -437q51 52 119.5 82.5t146.5 30.5q104 0 190.5 -50.5t137.5 -136t51 -188.5z
M1412 -383q63 0 106 40t43 118q0 79 -43 120.5t-106 41.5q-66 0 -109 -41.5t-43 -120.5q0 -78 43 -118t109 -40z" />
    <glyph glyph-name="uniAB53" unicode="&#xab53;" horiz-adv-x="1515" 
d="M475 1488l280 -699l284 699h370l-454 -1014l472 -1046h-372l-295 721l-300 -721h-370l471 1046l-454 1014h368z" />
    <glyph glyph-name="uniAB52" unicode="&#xab52;" horiz-adv-x="1771" 
d="M304 1516q219 0 331.5 -133t112.5 -382v-477q0 -161 71 -219.5t166 -58.5q128 0 207.5 46.5t119.5 124.5v1071h335v-1488h-314l-9 147q-69 -83 -173 -129t-246 -46q-218 0 -354.5 129.5t-136.5 425.5v474q0 131 -48 186t-139 55q-51 0 -102 -12v262q90 24 179 24z" />
    <glyph glyph-name="uniAB51" unicode="&#xab51;" horiz-adv-x="2450" 
d="M782 1242q-106 0 -175 -44t-108 -119v-1079h-335v1488h315l10 -155q75 86 182.5 134.5t247.5 48.5q136 0 242.5 -54t164.5 -173q74 104 188.5 165.5t269.5 61.5q230 0 359.5 -128t129.5 -423v-965h-335v965q0 165 -72 221t-195 56q-113 0 -185 -59.5t-102 -156.5
q1 -16 1 -34v-506h-335v475q0 158 -72 219.5t-196 61.5zM1406 149q0 -76 -50 -126.5t-141 -50.5q-89 0 -138 50.5t-49 126.5t49 126.5t138 50.5q91 0 141 -50.5t50 -126.5z" />
    <glyph glyph-name="uniAB50" unicode="&#xab50;" horiz-adv-x="2450" 
d="M1038 1339q0 76 50 126.5t141 50.5q89 0 138 -50.5t49 -126.5t-49 -126.5t-138 -50.5q-91 0 -141 50.5t-50 126.5zM1965 0l-10 155q-75 -86 -182.5 -134.5t-247.5 -48.5q-136 0 -242.5 54t-164.5 173q-74 -104 -188.5 -165.5t-269.5 -61.5q-230 0 -359.5 128t-129.5 423
v965h335v-965q0 -165 72 -221t195 -56q113 0 185 59.5t102 156.5q-1 16 -1 34v506h335v-475q0 -158 72 -219.5t196 -61.5q106 0 175 44t108 119v1079h335v-1488h-315z" />
    <glyph glyph-name="carondotcomb.lc" 
d="M-983 2376q0 73 47.5 121.5t132.5 48.5t133 -48.5t48 -121.5q0 -72 -48 -120t-133 -48t-132.5 48t-47.5 120zM-1005 2114l201 -212l202 212h285v-14l-383 -383h-207l-381 384v13h283z" />
    <glyph glyph-name="uni02E6_uni02E9_uni02E6" horiz-adv-x="1605" 
d="M1453 0h-335v939l-383 -939l-581 1465l252 106l347 -897l365 897v433h335v-2004z" />
    <glyph glyph-name="uniAB5F" unicode="&#xab5f;" horiz-adv-x="1259" 
d="M284 2016q137 0 197 -84.5t60 -259.5v-303q0 -145 48 -202.5t132 -57.5q72 0 118.5 33.5t71.5 89.5v767h272v-1102h-223l-32 165q-48 -85 -124.5 -133.5t-176.5 -48.5q-163 0 -259.5 99t-96.5 321v349q0 57 -27 82.5t-71 25.5q-23 0 -49.5 -4t-44.5 -7v246q100 24 205 24
z" />
    <glyph glyph-name="uniAB5E" unicode="&#xab5e;" horiz-adv-x="1003" 
d="M653 1637q-21 0 -41 3v-743h-272v827q-31 -9 -52.5 -39t-21.5 -70l-130 35q0 93 55.5 164.5t148.5 75.5v639h272v-730q14 -2 27 -2q39 0 67.5 33t28.5 81l134 -42q0 -94 -61 -163t-155 -69z" />
    <glyph glyph-name="uniAB5D" unicode="&#xab5d;" horiz-adv-x="1003" 
d="M690 1384q-36 0 -71 16v-503h-271v950q-18 19 -43 19q-37 0 -58.5 -33t-21.5 -88q0 -68 16.5 -116t68.5 -54v-188q-94 0 -166 88t-72 263q0 160 64 244.5t180 84.5q16 0 32 -3v465h271v-866q33 -80 79 -80q34 0 57.5 30.5t23.5 97.5t-19.5 96.5t-50.5 29.5v201
q103 0 164.5 -91t61.5 -251q0 -136 -66.5 -224t-178.5 -88z" />
    <glyph glyph-name="uniAB5C" unicode="&#xab5c;" horiz-adv-x="1259" 
d="M1085 801q0 -176 -60 -259.5t-197 -83.5q-52 0 -102.5 5.5t-102.5 15.5v250q45 -15 93 -15q97 0 97 110v464h39v239q0 145 -48 202.5t-132 57.5q-70 0 -116 -33t-71 -89v-768h-271v1632h271v-668q49 73 119.5 114t161.5 41q166 0 261.5 -99t95.5 -321v-699h-38v-96z" />
    <glyph glyph-name="uniAB5B" unicode="&#xab5b;" horiz-adv-x="1259" 
d="M824 2004h251q0 -173 -119.5 -281.5t-325.5 -108.5q-203 0 -322.5 108.5t-119.5 281.5h250q0 -76 43.5 -134t148.5 -58t149.5 58t44.5 134zM824 1032q0 75 -44.5 133.5t-149.5 58.5t-148.5 -58.5t-43.5 -133.5h-250q0 172 119.5 280t322.5 108q206 0 325.5 -108
t119.5 -280h-251z" />
    <glyph glyph-name="uniAB5A" unicode="&#xab5a;" horiz-adv-x="1349" 
d="M818 -225q-28 -75 -80 -162.5t-144 -150t-238 -62.5q-41 0 -84.5 7.5t-77.5 15.5v258q38 -6 65 -6q124 0 182.5 48t95.5 160l52 149l-514 1456h364l282 -920l16 -70l178 585h361z" />
    <glyph glyph-name="uni02E7_uni02E6_uni02E6" horiz-adv-x="1605" 
d="M1193 1571v433h333v-2004h-333v1297h-464l-475 -431l-173 193l556 512h556z" />
    <glyph glyph-name="aturn_uni02DE" horiz-adv-x="2304" 
d="M1439 429q0 -116 -75.5 -220.5t-213.5 -170.5t-325 -66q-166 0 -296 57t-205 171t-75 283v660q0 199 -54 321v24h340q24 -51 38 -138q65 68 163 117t229 49q147 0 261.5 -58.5t179.5 -159t65 -227.5q0 -238 -178.5 -364.5t-497.5 -126.5h-211v-98q0 -116 64.5 -186
t195.5 -70q120 0 190 58.5t70 144.5h335zM901 1246q-115 0 -198 -53.5t-119 -119.5v-284h178q188 0 282 65t94 182q0 91 -61 150.5t-176 59.5zM1506 744v271l537 112q19 -123 32.5 -208.5t46 -129.5t108.5 -44q17 0 33.5 0.5t32.5 3.5l52 -249q-42 -21 -93 -35.5t-104 -14.5
q-119 0 -185 46t-101 127t-63 184z" />
    <glyph glyph-name="uni02E9_uni02E5_uni02E5" horiz-adv-x="1605" 
d="M1216 1730h-362l-542 -1730l-254 81l604 1923h888v-2004h-334v1730z" />
    <glyph glyph-name="uni02E9_uni02E5_uni02E6" horiz-adv-x="1605" 
d="M748 2003l381 -354v355h334v-2004h-334v1297l-252 237l-479 -1534l-254 81z" />
    <glyph glyph-name="uni02E9_uni02E5_uni02E7" horiz-adv-x="1605" 
d="M1454 2004v-2004h-335v866l-288 495l-422 -1361l-257 81l607 1922l360 -619v620h335z" />
    <glyph glyph-name="uni1FFD" unicode="&#x1ffd;" horiz-adv-x="747" 
d="M154 1560v30l152 438h290v-28l-316 -440h-126z" />
    <glyph glyph-name="uni1FFE" unicode="&#x1ffe;" horiz-adv-x="747" 
d="M198 1936v120h242v-112q0 -178 109 -283l-110 -101q-111 58 -176 155t-65 221z" />
    <glyph glyph-name="uni02E9_uni02E5_uni02E8" horiz-adv-x="1605" 
d="M1465 2004v-2004h-335v433l-339 831l-394 -1264l-254 81l605 1923l382 -942v942h335z" />
    <glyph glyph-name="uni02E9_uni02E5_uni02E9" horiz-adv-x="1605" 
d="M1470 2004v-2004h-333l-384 1160l-362 -1160l-254 81l603 1923l397 -1198v1198h333z" />
    <glyph glyph-name="uni02E6_uni02E9_uni02E8" horiz-adv-x="1605" 
d="M1117 0v355l-383 -355l-578 1465l251 106l433 -1121l277 256v1298h335v-2004h-335z" />
    <glyph glyph-name="oopen" unicode="&#x254;" horiz-adv-x="1515" 
d="M116 493h314q8 -109 91 -180.5t205 -71.5q138 0 211.5 69.5t101.5 179.5t28 230v48q0 120 -29 230t-102.5 180t-209.5 70t-212 -87t-84 -205h-314q5 164 81.5 290t211.5 198t314 72q229 0 378.5 -102t223.5 -272t74 -374v-48q0 -204 -74 -374t-224 -272t-379 -102
q-164 0 -300 70.5t-218.5 189t-87.5 261.5z" />
    <glyph glyph-name="Gsmallcaphook" unicode="&#x29b;" horiz-adv-x="1861" 
d="M1536 219q-41 -51 -127.5 -108t-223 -97.5t-327.5 -40.5q-214 0 -378 84t-256.5 233.5t-92.5 345.5v224q0 194 91.5 342t252.5 231t370 83q137 0 245 -27.5t188 -79.5q86 211 343 211q73 0 152 -21v-223q-21 3 -44 6t-43 3q-90 0 -154 -44t-64 -162v-5q31 -78 40 -172
h-331q-19 127 -99 188.5t-233 61.5q-173 0 -276 -112t-103 -279v-225q0 -169 103.5 -282t288.5 -113q148 0 225.5 25t111.5 50v218h-331v246h672v-561z" />
    <glyph glyph-name="uni0346" unicode="&#x346;" 
d="M-1281 1672v541h955v-541h-231v339h-493v-339h-231z" />
    <glyph glyph-name="anglesupnosp" unicode="&#x31a;" 
d="M-1074 2080v201h936v-517h-230v316h-706z" />
    <glyph glyph-name="uniFFFC" unicode="&#xfffc;" horiz-adv-x="3051" 
d="M2266 1840h-380v160h380v-160zM1718 1840h-383v160h383v-160zM1166 1840h-380v160h380v-160zM2706 1840h-272v160h424v-392h-152v232zM350 1608h-156v392h424v-160h-268v-232zM2858 1436v-344h-152v344h152zM350 1436v-344h-156v344h156zM2387 584v520h127v-520
q0 -108 -72.5 -172t-183.5 -64q-120 0 -196 57t-76 171h128q0 -63 39 -93.5t105 -30.5q54 0 91.5 36t37.5 96zM1202 800v-156q0 -135 -87.5 -217.5t-227.5 -82.5q-142 0 -229.5 82.5t-87.5 217.5v156q0 132 87.5 216t228.5 84t228.5 -84t87.5 -216zM1870 560
q0 -105 -73 -158.5t-199 -53.5h-304v752h260q135 0 213.5 -49.5t78.5 -154.5q0 -112 -115 -159q67 -19 103 -68t36 -109zM1075 644v156q0 93 -51 146.5t-138 53.5q-89 0 -140.5 -53.5t-51.5 -146.5v-156q0 -96 51.5 -150t141.5 -54q89 0 138.5 54t49.5 150zM1426 988v-208
h128q160 0 160 108q0 57 -39.5 78.5t-120.5 21.5h-128zM2858 920v-348h-152v348h152zM350 920v-348h-156v348h156zM1739 564q0 54 -34.5 87t-106.5 33h-172v-232h172q141 0 141 112zM350 400v-344h-156v344h156zM2858 400v-344h-152v344h152zM618 -548h-424v432h156v-276
h268v-156zM2858 -548h-424v156h272v276h152v-432zM1718 -548h-383v156h383v-156zM1166 -548h-380v156h380v-156zM2266 -548h-380v156h380v-156z" />
    <glyph glyph-name="uniFFFD" unicode="&#xfffd;" horiz-adv-x="2795" 
d="M1406 2968v8h4v-8h-4zM82 884l1316 1340l1316 -1340l-1316 -1340zM1234 552h276q0 72 17.5 114t74.5 78q93 51 160.5 140.5t67.5 203.5q0 174 -116 279t-320 105q-174 0 -295.5 -86.5t-124.5 -281.5h280q3 75 44.5 109.5t95.5 34.5q78 0 117 -45.5t39 -114.5
q0 -72 -37 -126t-91 -90q-64 -44 -105.5 -83.5t-62 -94t-20.5 -142.5zM1510 196v232h-276v-232h276zM1406 -764v4h8v-4h-8z" />
    <glyph glyph-name="uni02E7_uni02E9" horiz-adv-x="1259" 
d="M1094 2004v-2004h-332l-596 999l230 139l366 -609v1475h332z" />
    <glyph glyph-name="uni02E7_uni02E8" horiz-adv-x="1259" 
d="M1075 2004v-2004h-334v433l-557 512l176 193l381 -351v1217h334z" />
    <glyph glyph-name="uni02E7_uni02E5" horiz-adv-x="1259" 
d="M1094 0h-332v1475l-366 -609l-230 139l596 999h332v-2004z" />
    <glyph glyph-name="uni02E7_uni02E6" horiz-adv-x="1259" 
d="M1075 0h-334v1214l-381 -348l-176 193l557 512v433h334v-2004z" />
    <glyph glyph-name="tildesubnosp_uni1ABD" 
d="M-1393 -676q-53 14 -113 52t-102 99t-42 146q0 83 42 143.5t102 98t113 51.5l20 -104q-49 -22 -92 -65.5t-43 -122.5q0 -86 44 -129.5t91 -67.5zM-212 -676l-20 101q47 24 91 67t44 130q0 82 -43 124t-92 64l20 104q52 -14 112 -51t102.5 -98t42.5 -144q0 -85 -42.5 -146
t-102.5 -99t-112 -52zM-512 -149l205 -17q0 -154 -88.5 -253.5t-219.5 -99.5q-91 0 -145 31t-103 61.5t-123 30.5q-52 0 -88.5 -39t-36.5 -102l-204 10q0 151 87 254.5t218 103.5q75 0 132 -30.5t113 -61.5t127 -31q52 0 89 39.5t37 103.5z" />
    <glyph glyph-name="ringacute" horiz-adv-x="1003" 
d="M323 2051l225 268h315l-337 -268h-203zM143 1746q0 105 75.5 175t182.5 70q105 0 179.5 -70t74.5 -175q0 -104 -74.5 -170.5t-179.5 -66.5q-107 0 -182.5 66.5t-75.5 170.5zM279 1746q0 -50 36 -83.5t86 -33.5t82.5 33.5t32.5 83.5q0 55 -32.5 89.5t-82.5 34.5t-86 -34.5
t-36 -89.5z" />
    <glyph glyph-name="ubar" unicode="&#x289;" horiz-adv-x="1861" 
d="M1259 194q-60 -86 -170.5 -151.5t-270.5 -65.5q-121 0 -232.5 60.5t-182.5 188.5t-71 331v105h-291v236h291v621h309v-621h628v621h309v-621h244v-236h-244v-662h-299l-4 194h-16zM641 556q0 -155 81.5 -230.5t213.5 -75.5q84 0 160 42.5t124.5 128.5t48.5 216v25h-628
v-106z" />
    <glyph glyph-name="uni2E3F" unicode="&#x2e3f;" horiz-adv-x="1694" 
d="M905 575q-21 0 -42 1v-948h-229v983q-219 61 -355 216t-136 371v47q0 219 136 374t355 216v169h229v-134q21 1 42 1q28 0 54 -1v134h230v-160q110 -25 201 -73.5t165 -127.5l-196 -189q-31 39 -75 65.5t-95 43.5v-677q55 15 102 37t77 50l155 -203q-114 -110 -334 -162
v-980h-230v948q-27 -1 -54 -1zM901 1604q-19 0 -38 -1v-759q19 -1 39 -1q26 0 57 2v758q-29 1 -58 1zM474 1198q0 -185 160 -285v616q-74 -48 -117 -122t-43 -162v-47z" />
    <glyph glyph-name="uni1DD8" unicode="&#x1dd8;" 
d="M-426 2049q0 -121 -50.5 -213.5t-136 -144.5t-190.5 -52q-161 0 -266 100.5t-105 243.5q0 160 101 257t255 97q89 0 168 -47q-42 123 -130 193t-182 100l64 151q126 -30 233.5 -116.5t173 -216t65.5 -291.5v-61zM-977 1983q0 -79 44.5 -131.5t130.5 -52.5q83 0 131.5 67
t48.5 183v62v14q-22 24 -66.5 41t-114.5 17q-90 0 -132 -56.5t-42 -143.5z" />
    <glyph glyph-name="uni1DD9" unicode="&#x1dd9;" 
d="M-426 2049q0 -121 -50.5 -213.5t-136 -144.5t-190.5 -52q-161 0 -266 100.5t-105 243.5q0 160 101 257t255 97q89 0 168 -47q-18 52 -45.5 94.5t-60.5 76.5l-156 -87l-55 76l132 74q-58 37 -127 59l64 151q126 -31 232 -115l158 88l55 -76l-141 -79q76 -84 122 -196.5
t46 -245.5v-61zM-977 1983q0 -79 44.5 -131.5t130.5 -52.5q83 0 131.5 67t48.5 183v62v14q-22 24 -66.5 41t-114.5 17q-90 0 -132 -56.5t-42 -143.5z" />
    <glyph glyph-name="uniA73D" unicode="&#xa73d;" horiz-adv-x="2373" 
d="M785 -600q-44 0 -93.5 7.5t-83.5 15.5v258q30 -6 62 -6q102 0 197.5 37t160.5 120l14 18l-14 280q-64 -66 -158.5 -112t-221.5 -46q-149 0 -263.5 58.5t-179.5 159t-65 227.5q0 239 177.5 365t500.5 126h209v101q0 114 -65.5 183.5t-195.5 69.5q-118 0 -189.5 -58
t-71.5 -143h-332q0 117 75 221t212.5 169t324.5 65q249 0 408 -128t159 -383v-675l533 1158h348l-881 -1728q-86 -159 -228 -259.5t-339 -100.5zM709 242q116 0 200.5 55t118.5 123v279h-180q-186 0 -278.5 -66.5t-92.5 -183.5q0 -90 58.5 -148.5t173.5 -58.5z" />
    <glyph glyph-name="uniA73E" unicode="&#xa73e;" horiz-adv-x="1861" 
d="M135 661h348q23 -190 114 -297.5t309 -107.5q235 0 353.5 173t118.5 490v163q0 302 -107.5 484t-350.5 182q-223 0 -317.5 -102.5t-119.5 -294.5h-347q18 195 110 349t260 243t414 89q247 0 428 -117t279.5 -330.5t98.5 -502.5v-160q0 -288 -100.5 -501.5t-285 -331
t-434.5 -117.5q-240 0 -405 89t-256 245t-110 355zM702 999q0 73 49 123t139 50q89 0 139 -50t50 -123q0 -71 -50 -119.5t-139 -48.5q-90 0 -139 48.5t-49 119.5z" />
    <glyph glyph-name="uniA73F" unicode="&#xa73f;" horiz-adv-x="1515" 
d="M116 493h314q8 -109 91 -180.5t205 -71.5q138 0 211.5 69.5t101.5 179.5t28 230v48q0 120 -29 230t-102.5 180t-209.5 70t-212 -87t-84 -205h-314q5 164 81.5 290t211.5 198t314 72q229 0 378.5 -102t223.5 -272t74 -374v-48q0 -204 -74 -374t-224 -272t-379 -102
q-164 0 -300 70.5t-218.5 189t-87.5 261.5zM543 737q0 71 46 118.5t127 47.5q82 0 127.5 -47.5t45.5 -118.5q0 -68 -45.5 -114t-127.5 -46q-81 0 -127 46t-46 114z" />
    <glyph glyph-name="uni1DD2" unicode="&#x1dd2;" 
d="M-851 1959q-87 0 -166 32t-128.5 102.5t-49.5 184.5q0 158 112 256t272 98q181 0 297.5 -113t116.5 -313q0 -156 -48 -265t-126 -180.5t-170.5 -114t-182.5 -65.5l-63 154q87 29 178 76t153.5 139t62.5 256q0 136 -59.5 203.5t-149.5 67.5q-88 0 -142.5 -51t-54.5 -139
q0 -97 46.5 -139.5t128.5 -42.5q81 0 132 25l35 -118q-35 -24 -81 -38.5t-113 -14.5z" />
    <glyph glyph-name="uni1DD3" unicode="&#x1dd3;" 
d="M-1015 1793q112 0 112 116h183q0 -53 36 -84.5t92 -31.5q112 0 112 116h197q0 -136 -86 -203t-223 -67q-133 0 -212 72q-69 -72 -211 -72q-139 0 -224 75.5t-85 194.5h190q0 -53 32 -84.5t87 -31.5z" />
    <glyph glyph-name="uni1DD0" unicode="&#x1dd0;" 
d="M-933 -88h210l-133 -337q105 63 185 63q52 0 95.5 -22t84.5 -43.5t87 -21.5q42 0 76 26t50 83l165 -53q-10 -107 -70.5 -196t-186.5 -89q-76 0 -141 26t-125 52t-120 26q-58 0 -114 -22t-119 -59l-142 66z" />
    <glyph glyph-name="uni1DD1" unicode="&#x1dd1;" 
d="M-630 1722q80 0 80 90q0 43 -24 78.5t-87 38.5v138q95 0 176.5 -65.5t81.5 -186.5q0 -102 -61.5 -171t-171.5 -69q-106 0 -158.5 56.5t-85.5 161.5q-19 60 -41 84.5t-56 24.5q-80 0 -80 -82q0 -88 98 -99v-142q-104 0 -174.5 67.5t-70.5 173.5q0 103 65 165.5t167 62.5
q104 0 158 -60t79 -142q23 -74 47 -99t58 -25z" />
    <glyph glyph-name="circumflexgravecomb" horiz-adv-x="1515" 
d="M348 2294l208 -368h-215l-298 368h305zM1073 2052l401 -342h-292l-218 194l-219 -194h-292l399 342h221z" />
    <glyph glyph-name="uni1DD4" unicode="&#x1dd4;" 
d="M-236 1776q-37 -55 -110.5 -99.5t-187.5 -44.5q-113 0 -194.5 45.5t-126.5 122.5q-30 -64 -94 -112.5t-165 -48.5q-115 0 -183 61.5t-68 165.5q0 112 87 174.5t256 62.5h116v46q0 117 -110 117q-121 0 -121 -91l-190 9q0 102 86 169.5t230 67.5q149 0 230 -81
q92 79 228 79q166 0 249.5 -105.5t83.5 -269.5v-75h-488q15 -176 185 -176q124 0 189 85zM-554 2260q-68 0 -104.5 -43.5t-46.5 -119.5h299v13q-4 66 -37 108t-111 42zM-1063 1790q55 0 103.5 29t67.5 73q-11 43 -13 91h-116q-74 0 -110.5 -33.5t-36.5 -76.5q0 -83 105 -83z
" />
    <glyph glyph-name="uni1DD5" unicode="&#x1dd5;" 
d="M-190 2017q0 -171 -97 -278t-264 -107q-107 0 -186.5 46t-124.5 126q-30 -65 -94 -115t-167 -50q-115 0 -183 61.5t-68 165.5q0 112 87.5 174.5t255.5 62.5h116v46q0 117 -110 117q-121 0 -121 -91l-189 9q0 102 86 169.5t229 67.5q151 0 232 -83q95 81 236 81
q167 0 264.5 -107.5t97.5 -279.5v-15zM-551 1792q89 0 126.5 62t37.5 163v15q0 101 -38 164.5t-127 63.5q-88 0 -126 -63.5t-38 -164.5v-15q0 -101 38 -163t127 -62zM-1071 1790q55 0 103.5 30t69.5 75q-11 42 -14 88h-118q-74 0 -110.5 -33.5t-36.5 -76.5q0 -83 106 -83z
" />
    <glyph glyph-name="dieresiscaroncomb" 
d="M-996 2333l192 -165l191 165h286v-24l-369 -307h-216l-367 305v26h283zM-1284 1844q0 67 44.5 112.5t125.5 45.5q82 0 127 -45.5t45 -112.5q0 -64 -45 -109t-127 -45q-81 0 -125.5 45t-44.5 109zM-663 1843q0 66 45 111.5t127 45.5q81 0 126 -45.5t45 -111.5
q0 -65 -45 -110t-126 -45q-82 0 -127 45t-45 110z" />
    <glyph glyph-name="eng" unicode="&#x14b;" horiz-adv-x="1515" 
d="M1380 -88q0 -248 -129 -380t-355 -132q-47 0 -88 4t-88 16l20 274q26 -9 67 -14t69 -5q169 0 169 237v1013q0 179 -69.5 248.5t-200.5 69.5q-106 0 -181.5 -38t-123.5 -104v-1101h-333v1488h305l18 -205q73 109 181.5 171t245.5 62q223 0 358 -136.5t135 -452.5v-1015z
" />
    <glyph glyph-name="breveinvsubnosp" unicode="&#x32f;" 
d="M-359 -525h-251q0 76 -44 133.5t-148 57.5q-106 0 -150 -57.5t-44 -133.5h-251q0 172 119.5 280t325.5 108q205 0 324 -108t119 -280z" />
    <glyph glyph-name="uni02E9_uni02E9_uni02E5" horiz-adv-x="1605" 
d="M1438 2004v-2004h-335v1112l-347 -1112h-589v274h394l542 1730h335z" />
    <glyph glyph-name="uni02E9_uni02E9_uni02E6" horiz-adv-x="1605" 
d="M1425 2004v-2004h-332v821l-329 -821h-584v274h402l511 1297v433h332z" />
    <glyph glyph-name="uni02E9_uni02E9_uni02E7" horiz-adv-x="1605" 
d="M1433 2004v-2004h-335v610l-359 -610h-567v274h413l513 864v866h335z" />
    <glyph glyph-name="commaturnsupnosp" unicode="&#x312;" 
d="M-958 1365v262q0 137 69 288t182 249l175 -107q-58 -92 -91 -196t-33 -232v-264h-302z" />
    <glyph glyph-name="uniA730" unicode="&#xa730;" horiz-adv-x="1259" 
d="M1032 539h-602v-539h-332v1488h980v-268h-648v-427h602v-254z" />
    <glyph glyph-name="uniA731" unicode="&#xa731;" horiz-adv-x="1515" 
d="M193 1098q0 120 73 220.5t200.5 161.5t288.5 61q193 0 339 -71t219 -196l-228 -163q-37 55 -116 111.5t-206 56.5q-114 0 -185 -50.5t-71 -126.5q0 -71 59 -116.5t176 -76.5l176 -47q210 -58 314.5 -163t104.5 -271q0 -141 -76.5 -244t-211 -159t-307.5 -56
q-191 0 -341.5 67t-233.5 206l236 168q37 -56 119 -115.5t216 -59.5q122 0 204.5 50.5t82.5 131.5q0 134 -246 204l-192 50q-194 53 -294 157t-100 270z" />
    <glyph glyph-name="uniA732" unicode="&#xa732;" horiz-adv-x="2885" 
d="M1437 0l-154 488h-721l-155 -488h-351l696 2033h340l357 -1045l356 1045h340l696 -2033h-351l-152 480h-715l164 -480h-350zM1963 1583l-254 -822h541l-260 822h-27zM910 1583l-261 -822h547l-260 822h-26z" />
    <glyph glyph-name="uniA733" unicode="&#xa733;" horiz-adv-x="2539" 
d="M2013 0q-25 52 -39 141q-66 -70 -164 -119.5t-229 -49.5q-151 0 -267.5 61.5t-178.5 164.5q-63 -87 -172.5 -156.5t-268.5 -69.5q-149 0 -263 58.5t-178.5 159t-64.5 227.5q0 239 178 365t498 126h211v101q0 114 -64.5 183.5t-195.5 69.5q-120 0 -190 -58t-70 -143h-335
q0 117 75.5 221t213 169t325.5 65q131 0 241 -35.5t187 -105.5q82 65 195.5 103t252.5 38q170 0 302.5 -57t208.5 -170.5t76 -283.5v-660q0 -205 56 -321v-24h-340zM1410 997v-137q145 48 343 48h209v101q0 114 -68 183.5t-208 69.5q-127 0 -201.5 -67t-74.5 -198zM1644 242
q115 0 199 55t119 122v280h-181q-185 0 -278 -65t-93 -182q0 -91 60.5 -150.5t173.5 -59.5zM757 242q116 0 200 55.5t118 123.5v278h-181q-186 0 -279.5 -65t-93.5 -182q0 -91 61 -150.5t175 -59.5z" />
    <glyph glyph-name="uniA734" unicode="&#xa734;" horiz-adv-x="3051" 
d="M81 0l756 2004h312l227 -618q82 320 296 497.5t511 177.5q249 0 440.5 -126t300.5 -360.5t109 -558.5q0 -326 -108.5 -560t-300 -359t-440.5 -125q-253 0 -447.5 129t-298.5 366h-832l-163 -467h-362zM2713 1016q0 364 -148.5 566.5t-386.5 202.5q-232 0 -378.5 -194.5
t-146.5 -574.5q0 -245 71 -415t192.5 -258.5t272.5 -88.5t269 88.5t186.5 258.5t68.5 415zM704 748h578l-289 829z" />
    <glyph glyph-name="uniA735" unicode="&#xa735;" horiz-adv-x="2539" 
d="M2390 761q0 -256 -89.5 -432t-246 -267t-357.5 -91q-175 0 -318.5 73.5t-236.5 211.5q-35 -69 -108 -134.5t-178 -107.5t-237 -42q-149 0 -263 58.5t-178.5 159t-64.5 227.5q0 239 177 365t499 126h211v101q0 114 -65.5 183.5t-196.5 69.5q-118 0 -189.5 -58t-71.5 -143
h-332q0 117 74.5 221t211.5 169t325 65q145 0 263.5 -42.5t196.5 -127.5q189 196 481 196q201 0 357.5 -90.5t246 -265t89.5 -425.5zM1319 761q0 -236 100 -380.5t278 -144.5q175 0 275.5 134.5t100.5 390.5q0 253 -100.5 386t-275.5 133q-137 0 -233 -93.5t-129 -257.5v-86
l-13 -2q-3 -39 -3 -80zM687 242q95 0 168.5 38.5t118 98t54.5 121.5l13 -17q-28 101 -33 216h-189q-186 0 -279.5 -65t-93.5 -182q0 -91 60.5 -150.5t180.5 -59.5z" />
    <glyph glyph-name="uniA736" unicode="&#xa736;" horiz-adv-x="3051" 
d="M3023 699q0 -229 -111.5 -391.5t-296.5 -249t-405 -86.5q-278 0 -487 129.5t-282 366.5h-710l-253 -468h-398l1149 2004h179v29h324v-1334q0 -131 64.5 -230t174 -154t242.5 -55t243 55t176.5 154t66.5 230v1334h324v-1334zM891 764h517v955z" />
    <glyph glyph-name="uniA737" unicode="&#xa737;" horiz-adv-x="2283" 
d="M727 1516q251 0 412.5 -128t161.5 -383v-481q0 -161 72 -219.5t166 -58.5q131 0 210.5 48.5t119.5 130.5v1063h332v-1488h-315l-7 147q-69 -83 -172.5 -129t-245.5 -46q-135 0 -240 47.5t-168 150.5q-69 -80 -187.5 -139t-275.5 -59q-149 0 -263 58.5t-178.5 159
t-64.5 227.5q0 239 177 365t499 126h211v101q0 114 -66 183.5t-197 69.5q-120 0 -190 -58t-70 -143h-335q0 117 75.5 221t213.5 169t325 65zM658 242q116 0 198.5 56t119.5 130q-5 47 -5 99v172h-181q-186 0 -279.5 -65t-93.5 -182q0 -91 60.5 -150.5t180.5 -59.5z" />
    <glyph glyph-name="uni1DDB" unicode="&#x1ddb;" 
d="M-796 1638q-164 0 -270.5 93t-106.5 241v170q0 150 106 242t264 92q161 0 248 -70.5t100 -190.5h-188q-12 55 -47.5 78.5t-112.5 23.5q-174 0 -174 -199v-131q0 -190 181 -190q76 0 113 12t53 25v110h-162v147h359v-330q-30 -39 -123.5 -81t-239.5 -42z" />
    <glyph glyph-name="uni1DDC" unicode="&#x1ddc;" 
d="M-630 1651l-212 321l-80 -84v-237h-197v1095h197v-632l48 61l202 235h218l-266 -305l315 -454h-225z" />
    <glyph glyph-name="ringrighthalfsubnosp" unicode="&#x339;" 
d="M-916 -642v125q57 0 96 40t39 100q0 64 -39 104.5t-96 40.5v129q119 0 202.5 -77.5t83.5 -196.5q0 -118 -83.5 -191.5t-202.5 -73.5z" />
    <glyph glyph-name="uni1DDF" unicode="&#x1ddf;" 
d="M-804 1871l224 599h241v-819h-198v498l-192 -498h-151l-193 503v-503h-196v819h242z" />
    <glyph glyph-name="uni1DDD" unicode="&#x1ddd;" 
d="M-901 2739h197v-1088h-197v1088z" />
    <glyph glyph-name="uni1DDE" unicode="&#x1dde;" 
d="M-490 1811v-160h-551v819h197v-659h354z" />
    <glyph glyph-name="romanten" unicode="&#x2169;" horiz-adv-x="1771" 
d="M451 2033l422 -763q9 -15 9 -36h13q0 23 8 36l427 763h365l-584 -1015l590 -1018h-368l-430 756q-8 13 -8 36h-13q0 -21 -9 -36l-426 -756h-368l590 1018l-585 1015h367z" />
    <glyph glyph-name="degreefarenheit" unicode="&#x2109;" horiz-adv-x="2622" 
d="M1189 0v2033h1277v-278h-954v-594h819v-277h-819v-884h-323zM574 1129q-122 0 -223.5 60t-162.5 161.5t-61 223.5q0 124 61 225.5t162.5 162.5t223.5 61q123 0 223.5 -61t160 -162.5t59.5 -225.5q0 -122 -59.5 -223.5t-160 -161.5t-223.5 -60zM574 1345q94 0 162.5 67.5
t68.5 163.5q0 97 -68.5 165.5t-162.5 68.5t-163 -68.5t-69 -165.5q0 -95 69 -163t163 -68z" />
    <glyph glyph-name="uni1D9E" unicode="&#x1d9e;" horiz-adv-x="1259" 
d="M1158 1470q0 -176 -69 -309.5t-189 -208.5t-271 -75q-157 0 -275 66.5t-184 179.5t-66 251q0 231 133 372.5t369 141.5q70 0 132.5 -20t113.5 -55q-23 80 -60 144t-85 114l-236 -132l-87 128l189 107q-57 31 -121 51l85 217q153 -38 278 -132l233 131l90 -129l-203 -113
q103 -118 163 -280.5t60 -360.5v-88zM372 1374q0 -116 66.5 -192.5t194.5 -76.5q131 0 192 98.5t61 266.5v90v25q-37 33 -99 57.5t-159 24.5q-125 0 -190.5 -79t-65.5 -214z" />
    <glyph glyph-name="Upsilon2" unicode="&#x1b1;" horiz-adv-x="1771" 
d="M1297 970q0 344 -92 525t-249 221v288h697v-282h-298q141 -134 227 -332.5t86 -419.5v-136q0 -254 -98.5 -448.5t-274.5 -304t-406 -109.5q-233 0 -410 109.5t-276.5 304t-99.5 448.5v136q0 221 86 419.5t226 332.5h-295v282h685v-288q-152 -40 -241 -222.5t-89 -523.5
v-140q0 -286 110.5 -432t303.5 -146q188 0 298 146t110 432v140z" />
    <glyph glyph-name="degreekelvin" unicode="&#x212a;" horiz-adv-x="1694" 
d="M1213 0l-517 836l-223 -293v-543h-323v2033h323v-963l72 75l669 888h392l-712 -936l701 -1097h-382z" />
    <glyph glyph-name="uniA64A" unicode="&#xa64a;" horiz-adv-x="1861" 
d="M643 476q0 -98 71.5 -165t215.5 -67q147 0 219.5 67t72.5 165q0 86 -64 146t-122 110l-104 89l-112 -93q-64 -56 -120.5 -113.5t-56.5 -138.5zM1561 463q0 -163 -87.5 -272t-231.5 -164t-312 -55q-166 0 -309.5 55t-232 164t-88.5 272q0 101 45 184t113 151t137 125
l113 93q-107 105 -206 252t-173 348l-144 388h366l128 -367q48 -134 112 -239t141 -186q76 82 140 186t110 236l129 370h365l-140 -391q-74 -199 -173.5 -345.5t-206.5 -252.5l118 -99q112 -90 199.5 -197t87.5 -256z" />
    <glyph glyph-name="uniA64B" unicode="&#xa64b;" horiz-adv-x="1861" 
d="M640 476q0 -98 73 -165t217 -67q147 0 218.5 67t71.5 165q0 40 -20.5 83t-66.5 84l-202 175l-209 -184q-44 -37 -63 -78t-19 -80zM1559 463q0 -163 -87 -272t-230.5 -164t-311.5 -55q-166 0 -309 55t-230.5 164t-87.5 272q0 107 48 191t133 154l235 198
q-146 140 -277.5 335t-189.5 469l-77 302h365l64 -277q42 -217 129.5 -372.5t198.5 -268.5q111 114 198.5 269.5t130.5 371.5l61 277h363l-73 -302q-59 -273 -191 -467t-278 -335l237 -201q83 -68 131 -152.5t48 -191.5z" />
    <glyph glyph-name="uniA64C" unicode="&#xa64c;" horiz-adv-x="3141" 
d="M2936 820q0 -242 -105.5 -434t-293 -303t-434.5 -111q-153 0 -292.5 47t-239.5 142q-100 -95 -239 -142t-292 -47q-248 0 -435.5 111t-293 303t-105.5 434v360q0 244 105.5 436.5t295 304t440.5 111.5v-284q-155 0 -265.5 -76t-169.5 -204t-59 -284v-364
q0 -156 59 -285.5t168 -207t260 -77.5q172 0 264.5 93t92.5 251v486h348v-486q0 -158 92 -251t266 -93q151 0 260 77.5t167 207t58 285.5v364q0 156 -58.5 284t-168 204t-264.5 76v284q249 0 438 -111.5t295 -304t106 -436.5v-360z" />
    <glyph glyph-name="uniA64D" unicode="&#xa64d;" horiz-adv-x="2539" 
d="M2359 716q0 -198 -83 -367.5t-242 -273t-388 -103.5q-111 0 -207 26t-168 80q-73 -54 -169.5 -80t-207.5 -26q-228 0 -386.5 103.5t-241 273t-82.5 367.5v56q0 198 79.5 367.5t232 273t370.5 103.5v-270q-124 0 -200 -71t-111.5 -180t-35.5 -223v-56q0 -114 37.5 -223
t119.5 -180t218 -71q119 0 164.5 51.5t45.5 142.5v361h335v-361q0 -91 44.5 -142.5t162.5 -51.5q136 0 219 71t121 180t38 223v56q0 114 -36 223t-113 180t-201 71v270q219 0 372 -103.5t233 -273t80 -367.5v-56z" />
    <glyph glyph-name="uniA64E" unicode="&#xa64e;" horiz-adv-x="2283" 
d="M134 1735v269h890v-767h407q342 0 531.5 -167.5t189.5 -444.5q0 -185 -85 -325.5t-246.5 -220t-389.5 -79.5h-757v1735h-540zM1024 278h407q193 0 282.5 105.5t89.5 245.5q0 137 -89.5 232.5t-282.5 95.5h-407v-679z" />
    <glyph glyph-name="uniA64F" unicode="&#xa64f;" horiz-adv-x="1861" 
d="M1777 510q0 -145 -70 -260.5t-204.5 -182.5t-326.5 -67h-660v1219h-428v269h762v-473h326q289 0 445 -142t156 -363zM850 268h326q145 0 204.5 71.5t59.5 162.5q0 92 -59.5 168.5t-204.5 76.5h-326v-479z" />
    <glyph glyph-name="uni1D8F" unicode="&#x1d8f;" horiz-adv-x="1771" 
d="M1726 -570q-37 -10 -76 -15t-76 -5q-188 0 -312.5 113t-124.5 324v153h-153q-25 51 -38 140q-65 -69 -162.5 -118.5t-228.5 -49.5q-149 0 -263 58.5t-179 159t-65 227.5q0 239 178 365t500 126h209v101q0 114 -65.5 183.5t-196.5 69.5q-119 0 -190 -58t-71 -143h-333
q0 117 75.5 221t213 169t324.5 65q252 0 413.5 -128t161.5 -383v-660q0 -39 3 -76h151v-422q0 -118 64 -161.5t153 -43.5q42 0 88 11v-223zM617 242q115 0 198.5 54.5t119.5 121.5v281h-180q-185 0 -278.5 -65t-93.5 -182q0 -91 59.5 -150.5t174.5 -59.5z" />
    <glyph glyph-name="uni1D8D" unicode="&#x1d8d;" horiz-adv-x="1515" 
d="M1415 -153q0 -211 -125.5 -324t-310.5 -113q-37 0 -78 5t-75 15v223q46 -11 88 -11q88 0 152 43.5t64 161.5v153h-51l-325 541l-323 -541h-341l465 767l-458 752h341l316 -551l319 551h339l-463 -752l305 -498h161v-264l3 -5h-3v-153z" />
    <glyph glyph-name="uni1D8E" unicode="&#x1d8e;" horiz-adv-x="1515" 
d="M1275 1283l-787 -1014h805v-269h-50v-153q0 -211 -124.5 -324t-312.5 -113q-37 0 -77.5 5t-74.5 15v223q46 -11 88 -11q89 0 153 43.5t64 161.5v153h-878v221l788 1006h-788v269h1194v-213z" />
    <glyph glyph-name="uni1D8B" unicode="&#x1d8b;" horiz-adv-x="1349" 
d="M1013 1867q-112 0 -175 -61t-63 -177v-1360h560v-422q0 -211 -125.5 -324t-311.5 -113q-36 0 -77 5t-76 15v223q47 -11 89 -11q89 0 152 43.5t63 161.5v153h-274v-89q0 -248 -140.5 -379.5t-382.5 -131.5q-47 0 -94.5 6t-91.5 17l8 262q52 -12 129 -12q114 0 176 61.5
t62 176.5v1718q0 249 140 380t382 131q49 0 96 -6t93 -17l-10 -262q-52 12 -129 12z" />
    <glyph glyph-name="uni1D8C" unicode="&#x1d8c;" horiz-adv-x="1515" 
d="M961 -153v153h-348l-530 1519h319l346 -1086v-22h32v22l346 1086h319l-436 -1250h237v-422q0 -211 -125.5 -324t-310.5 -113q-37 0 -77.5 5t-74.5 15v223q42 -11 88 -11q88 0 151.5 43.5t63.5 161.5z" />
    <glyph glyph-name="uni1D8A" unicode="&#x1d8a;" horiz-adv-x="1515" 
d="M1359 -153q0 -211 -126 -324t-314 -113q-34 0 -74.5 5t-76.5 15v223q47 -11 87 -11q91 0 154.5 43.5t63.5 161.5v193q-146 -71 -341 -71q-191 0 -341.5 67t-233.5 206l236 168q37 -56 119 -115.5t216 -59.5q122 0 204.5 50.5t82.5 131.5q0 134 -246 204l-192 50
q-194 53 -294 157t-100 270q0 120 73 220.5t200.5 161.5t288.5 61q193 0 339 -71t219 -196l-228 -163q-37 55 -116 111.5t-206 56.5q-114 0 -185 -50.5t-71 -126.5q0 -71 59 -116.5t176 -76.5l176 -47q210 -58 314.5 -163t104.5 -271v-4h32v-577z" />
    <glyph glyph-name="uni02AE" unicode="&#x2ae;" horiz-adv-x="1771" 
d="M288 1516q128 0 238 -47t177.5 -153t67.5 -284v-416q0 -149 34 -229t90 -110.5t122 -30.5q132 0 207.5 57t110.5 151v1034h335v-2060h-335v726q-69 -86 -170 -134t-235 -48q-220 0 -355.5 150.5t-135.5 493.5v416q0 131 -70.5 179.5t-170.5 48.5q-46 0 -95 -11v244
q84 23 185 23z" />
    <glyph glyph-name="uni02AB" unicode="&#x2ab;" horiz-adv-x="1861" 
d="M477 2068v-580h1181v-209l-818 -1010h847v-269h-1519v2068h309zM477 1220v-930l753 930h-753z" />
    <glyph glyph-name="uni02AC" unicode="&#x2ac;" horiz-adv-x="1349" 
d="M1264 2004l-227 -804h-199l-162 504l-165 -504h-199l-227 804h244l100 -481l149 481h191l156 -479l98 479h241zM1264 804l-227 -804h-199l-162 506l-165 -506h-199l-227 804h244l100 -478l149 478h191l156 -476l98 476h241z" />
    <glyph glyph-name="uni1FCD" unicode="&#x1fcd;" horiz-adv-x="1259" 
d="M1059 1616v-25h-127l-317 437v28h289zM556 2056v-120q0 -124 -65 -221t-177 -155l-111 101q109 106 109 283v112h244z" />
    <glyph glyph-name="uni2DE8" unicode="&#x2de8;" 
d="M-803 1897l215 512h249v-758h-196v462l-192 -462h-151l-192 462v-462h-197v758h250z" />
    <glyph glyph-name="kappa1" unicode="&#x3f0;" horiz-adv-x="2027" 
d="M1882 -5q-33 -11 -87 -17t-95 -6q-219 0 -328 130t-109 354v394l-636 -850h-304l140 188l-1 845q0 125 -62 172.5t-160 47.5q-47 0 -94 -11l-1 251q36 9 89.5 16t94.5 7q219 0 328 -130t109 -353v-436l662 891h313l-176 -235v-798q0 -125 62.5 -172t161.5 -47
q19 0 44.5 2.5t48.5 7.5v-251z" />
    <glyph glyph-name="uni02A9" unicode="&#x2a9;" horiz-adv-x="2373" 
d="M1788 1516q219 0 352.5 -143t133.5 -465v-1000q0 -163 -69 -259.5t-177 -138.5t-224 -42q-90 0 -170 20v223q22 -3 45.5 -5.5t43.5 -2.5q89 0 152.5 44t63.5 161v1004q0 178 -68 254.5t-196 76.5q-103 0 -178.5 -48t-120.5 -130v-1065h-335v1243h-379v-1243h-333v1243
h-227v245h227v141q0 249 139.5 380t381.5 131q47 0 95 -6t93 -17l-8 -262q-54 12 -130 12q-114 0 -176 -61t-62 -177v-141h714v-159q76 88 181 137.5t231 49.5z" />
    <glyph glyph-name="onethird" unicode="&#x2153;" horiz-adv-x="2450" 
d="M798 1995v-1083h-252v784l-277 -66v202l505 163h24zM1750 1716l-976 -1564l-172 98l976 1566zM1918 464h-119v178h119q88 0 129.5 37t41.5 95q0 49 -36.5 85.5t-122.5 36.5q-65 0 -109.5 -27.5t-44.5 -75.5h-256q0 148 119.5 227.5t284.5 79.5q188 0 304.5 -79
t116.5 -230q0 -80 -49 -140.5t-135 -93.5q204 -57 204 -253q0 -152 -126.5 -236t-314.5 -84q-103 0 -199 34t-158 107t-62 191h257q0 -50 47 -87t127 -37q88 0 130.5 38t42.5 94q0 77 -51.5 108.5t-139.5 31.5z" />
    <glyph glyph-name="uni1D88" unicode="&#x1d88;" horiz-adv-x="1771" 
d="M1361 -153q0 -211 -125.5 -324t-311.5 -113q-37 0 -77.5 5t-74.5 15v223q47 -11 89 -11q90 0 153 43.5t63 161.5v156q-85 -31 -180 -31q-138 0 -237.5 52t-168.5 140v-740h-309v2095h282l18 -183q69 95 170 150.5t241 55.5q183 0 316 -99t205 -273.5t72 -400.5
q0 -305 -125 -517v-405zM1174 769q0 133 -39 247t-120 183.5t-208 69.5q-113 0 -185.5 -60t-110 -150.5t-43.5 -180.5q-10 -54 -10 -132t10 -126q9 -84 49 -173t114.5 -150t187.5 -61q118 0 197 72t118.5 193t39.5 268z" />
    <glyph glyph-name="uni1D89" unicode="&#x1d89;" horiz-adv-x="1093" 
d="M695 -153q0 -211 -125.5 -324t-311.5 -113q-36 0 -76 5t-75 15v223q44 -11 87 -11q90 0 152.5 43.5t62.5 161.5v153h-243v1519h309v-239h15q22 66 78.5 126.5t132 98.5t156.5 38q31 0 59.5 -1.5t41.5 -6.5v-308q-34 6 -113 6q-111 0 -193.5 -51.5t-129 -135.5t-47.5 -179
v-598h220v-422z" />
    <glyph glyph-name="uni1D86" unicode="&#x1d86;" horiz-adv-x="2629" 
d="M2458 -153q0 -211 -125.5 -324t-311.5 -113q-36 0 -77 5t-75 15v223q46 -11 88 -11q88 0 151.5 43.5t63.5 161.5v153h-297v985q0 111 -40 172.5t-101.5 86.5t-123.5 25q-134 0 -211.5 -84.5t-77.5 -233.5v-951h-306v980q0 163 -71.5 226t-187.5 63q-113 0 -203 -89
t-90 -254v-926h-309v1519h305v-222h14q45 93 150 169t250 76q140 0 239.5 -71t149.5 -181h16q44 94 162 173t278 79q132 0 237 -58t166.5 -182t61.5 -322v-711h275v-422z" />
    <glyph glyph-name="uni1D87" unicode="&#x1d87;" horiz-adv-x="1771" 
d="M1591 -153q0 -211 -125.5 -324t-310.5 -113q-37 0 -77 5t-75 15v223q41 -11 87 -11q88 0 152 43.5t64 161.5v153h-193v946q0 152 -86.5 237.5t-213.5 85.5q-87 0 -164 -46t-125.5 -135t-48.5 -219v-869h-309v1519h292l4 -222h16q58 106 169.5 175.5t271.5 69.5
q142 0 256 -60.5t180.5 -188.5t66.5 -331v-693h169v-422z" />
    <glyph glyph-name="uni1D84" unicode="&#x1d84;" horiz-adv-x="1605" 
d="M1457 -153q0 -211 -125.5 -324t-311.5 -113q-36 0 -76 5t-75 15v223q44 -11 87 -11q88 0 151.5 43.5t63.5 161.5v153h-91l-460 647l-177 -195v-452h-309v2070h309v-1170h20l537 588h381l-563 -622l430 -597h209v-422z" />
    <glyph glyph-name="uni1D85" unicode="&#x1d85;" horiz-adv-x="1003" 
d="M800 -153q0 -211 -125.5 -324t-311.5 -113q-36 0 -76.5 5t-74.5 15v223q39 -11 84 -11q90 0 154 43.5t64 161.5v153h-247v2068h309v-1799h224v-422z" />
    <glyph glyph-name="uni1D82" unicode="&#x1d82;" horiz-adv-x="1003" 
d="M835 -153q0 -211 -125.5 -324t-313.5 -113q-37 0 -76 5t-76 15v223q44 -11 87 -11q90 0 154 43.5t64 161.5v153h-276v1264h-236v255h236v110q0 228 142 348.5t355 120.5q47 0 86.5 -6t68.5 -14v-254q-24 4 -44 6.5t-67 2.5q-48 0 -102 -18.5t-92 -62.5t-38 -123v-110h326
l-3 -255h-323v-995h253v-422z" />
    <glyph glyph-name="vturn" unicode="&#x28c;" horiz-adv-x="1515" 
d="M95 0l518 1488h288l519 -1488h-344l-321 1065l-316 -1065h-344z" />
    <glyph glyph-name="uni1D81" unicode="&#x1d81;" horiz-adv-x="1771" 
d="M1606 -153q0 -211 -124.5 -324t-312.5 -113q-36 0 -76.5 5t-75.5 15v223q46 -11 88 -11q90 0 154 43.5t64 161.5v153h-195l-18 219q-71 -113 -179 -180t-264 -67q-179 0 -311.5 102.5t-205.5 282t-73 409.5q0 228 72.5 403t206 274t315.5 99q149 0 254 -64t175 -172v764
h308v-1801h198v-422zM391 766q0 -146 39 -266.5t117.5 -192t197.5 -71.5q109 0 184 60.5t117 149.5t51 174q10 50 10 126t-10 130q-7 90 -45 181t-111 151.5t-184 60.5q-127 0 -208 -69.5t-119.5 -183.5t-38.5 -250z" />
    <glyph glyph-name="uniA648" unicode="&#xa648;" horiz-adv-x="1771" 
d="M886 949l-460 -949h-385l662 1250h-316v240h324v514h351v-514h324v-240h-316l663 -1250h-385z" />
    <glyph glyph-name="uniA649" unicode="&#xa649;" horiz-adv-x="1682" 
d="M1207 0l-364 708l-367 -708h-368l546 961h-283v235h300v292h334v-292h308v-235h-285l545 -961h-366z" />
    <glyph glyph-name="uniA640" unicode="&#xa640;" horiz-adv-x="1771" 
d="M149 1722v282h1451v-222l-1036 -1504h1069v-278v0q0 -138 -36.5 -253t-121 -184t-231.5 -69q-104 0 -196 37t-177.5 74.5t-169.5 37.5t-143 -48.5t-117 -112.5l-174 190q107 110 207.5 170t222.5 60q99 0 189.5 -37t175 -74.5t166.5 -37.5q80 0 114.5 64t34.5 183h-1235
v227l1034 1495h-1027z" />
    <glyph glyph-name="uniA641" unicode="&#xa641;" horiz-adv-x="1515" 
d="M171 1220v268h1162v-209l-761 -1010h790v-269v0q-1 -228 -67.5 -367t-252.5 -139q-94 0 -179 37t-163.5 74.5t-154.5 37.5q-66 0 -109.5 -42.5t-103.5 -112.5l-178 171q98 115 190 179t197 64q87 0 166.5 -37t153 -74.5t141.5 -37.5q72 0 88.5 64t16.5 183h-954v221
l759 999h-741z" />
    <glyph glyph-name="uniA642" unicode="&#xa642;" horiz-adv-x="1771" 
d="M136 1722v282h1451v-222l-452 -656h121v-235h-282l-423 -613h1069v-278v0q0 -138 -36.5 -253t-121 -184t-231.5 -69q-104 0 -196 37t-177.5 74.5t-169.5 37.5t-143 -48.5t-117 -112.5l-174 190q107 110 207.5 170t222.5 60q100 0 190 -37t174 -74.5t167 -37.5
q79 0 114 64t35 183h-1235v227l459 664h-251v235h414l412 596h-1027z" />
    <glyph glyph-name="uniA643" unicode="&#xa643;" horiz-adv-x="1515" 
d="M161 1220v268h1162v-209l-325 -431h114v-235h-291l-259 -344h790v-269v0q-1 -228 -67.5 -367t-252.5 -139q-94 0 -179 37t-163.5 74.5t-154.5 37.5q-66 0 -109.5 -42.5t-103.5 -112.5l-178 171q98 115 190 179t197 64q87 0 166.5 -37t153 -74.5t141.5 -37.5q72 0 88.5 64
t16.5 183h-954v221l298 392h-248v235h426l283 372h-741z" />
    <glyph glyph-name="uniA644" unicode="&#xa644;" horiz-adv-x="1771" 
d="M851 -28q-325 0 -518.5 148t-193.5 400q0 238 161.5 386.5t499.5 247.5q214 63 319.5 137t105.5 186q0 118 -88.5 196.5t-271.5 78.5q-194 0 -286.5 -93t-92.5 -241h-347q0 167 86.5 306.5t248.5 223.5t389 84q212 0 372 -71.5t249 -197t89 -287.5q0 -163 -86 -278
t-234.5 -195t-338.5 -137q-175 -54 -267 -103t-125.5 -107t-33.5 -140q0 -120 91 -194t272 -74q184 0 309.5 84.5t125.5 273.5h347q0 -158 -67 -277t-180 -198.5t-252 -119t-283 -39.5z" />
    <glyph glyph-name="uniA645" unicode="&#xa645;" horiz-adv-x="1515" 
d="M746 -28q-182 0 -317.5 58t-210.5 160t-75 234q0 200 145.5 300t403.5 155q181 38 243 81.5t62 117.5t-60 131.5t-186 57.5q-131 0 -196.5 -69.5t-65.5 -155.5h-335q0 133 71.5 240.5t205 170.5t320.5 63q177 0 305.5 -62.5t198.5 -165t70 -223.5q0 -187 -148 -288.5
t-388 -152.5q-133 -27 -201 -59.5t-91.5 -72.5t-23.5 -88q0 -78 68 -129.5t201 -51.5q74 0 142.5 24t114 78.5t50.5 145.5h325q0 -123 -72 -237.5t-212 -188t-344 -73.5z" />
    <glyph glyph-name="uniA646" unicode="&#xa646;" horiz-adv-x="1003" 
d="M195 2042h343v-1631q0 -101 43 -131t111 -30q33 0 65.5 5t50.5 8v-259q-39 -13 -92.5 -22.5t-126.5 -9.5q-170 0 -282 94t-112 326v1650z" />
    <glyph glyph-name="uniA647" unicode="&#xa647;" horiz-adv-x="1003" 
d="M167 1488h332l-2 -1066q0 -102 44 -132t114 -30q33 0 65 5t51 10v-259q-40 -12 -93.5 -23.5t-126.5 -11.5q-167 0 -275.5 95.5t-108.5 324.5v1087z" />
    <glyph glyph-name="uniAB4D" unicode="&#xab4d;" horiz-adv-x="1024" 
d="M898 1872q-108 0 -165 -63.5t-57 -179.5v-1146q0 -246 -141 -378.5t-383 -132.5q-48 0 -95 6t-92 17l8 263q28 -4 61.5 -6.5t68.5 -2.5q114 0 176.5 60.5t62.5 173.5v1146q0 249 135.5 380t371.5 131q55 0 106 -8t104 -20l-32 -252q-54 12 -129 12z" />
    <glyph glyph-name="uniAB4E" unicode="&#xab4e;" horiz-adv-x="1515" 
d="M1060 0l-8 146q-69 -82 -173 -128t-246 -46q-218 0 -354.5 129.5t-136.5 425.5v961h333v-964q0 -161 72 -219.5t166 -58.5q128 0 207.5 47t119.5 127v656h335v-1076h-315z" />
    <glyph glyph-name="uniAB4F" unicode="&#xab4f;" horiz-adv-x="1771" 
d="M1163 0l-8 146q-70 -82 -173.5 -128t-246.5 -46q-217 0 -353.5 129.5t-136.5 425.5v161h-207v235h207v565h333v-565h565v153h335v-153h259v-235h-259v-688h-315zM578 524q0 -161 72 -219.5t166 -58.5q128 0 207.5 47.5t119.5 127.5v267h-565v-164z" />
    <glyph glyph-name="uniAB4A" unicode="&#xab4a;" horiz-adv-x="1771" 
d="M1178 1194q-77 0 -127 -39.5t-78 -110.5v-326h298v-247h-298v-24q0 -124 -43 -232.5t-143 -175.5t-271 -67q-204 0 -318 105t-114 271q0 176 116.5 273t290.5 97h148v770h309l11 -121q45 70 107.5 109.5t142.5 39.5q109 0 187 -91q62 91 173 91q79 0 130 -38v-306
q-64 22 -111 22q-72 0 -102 -65h-169q-30 31 -58.5 48t-80.5 17zM502 212q76 0 106.5 43.5t30.5 109.5v106h-119q-64 0 -100.5 -35.5t-36.5 -93.5t33 -94t86 -36z" />
    <glyph glyph-name="uniAB4B" unicode="&#xab4b;" horiz-adv-x="1605" 
d="M664 1230q148 0 228 70.5t109 187.5h341v-1042q0 -115 28.5 -153.5t72.5 -38.5q11 0 19.5 2.5t14.5 4.5l36 -248q-47 -28 -90 -34.5t-90 -6.5q-155 0 -243.5 112.5t-88.5 361.5v665q-76 -75 -180.5 -115.5t-234.5 -40.5q-220 0 -355 136t-135 415h340q0 -153 68 -214.5
t160 -61.5z" />
    <glyph glyph-name="uniAB4C" unicode="&#xab4c;" horiz-adv-x="2283" 
d="M2136 493q0 -151 -73 -269t-195 -185t-269 -67q-148 0 -271 67.5t-197 185t-74 268.5v620q-77 -75 -182 -116.5t-236 -41.5q-220 0 -355 136t-135 415h340q0 -153 69.5 -214.5t161.5 -61.5q148 0 227.5 70.5t109.5 187.5h340v-506q97 38 202 38q147 0 269 -69t195 -188
t73 -270zM1599 246q97 0 166.5 68.5t69.5 178.5q0 111 -69.5 181t-166.5 70q-98 0 -170 -70t-72 -181q0 -108 72 -177.5t170 -69.5z" />
    <glyph glyph-name="uni2DF5" unicode="&#x2df5;" 
d="M-590 1651v600h-432q-84 0 -119.5 -61.5t-35.5 -150.5v-27q0 -92 35.5 -156t120.5 -64q61 0 95 30t40 76h187q-3 -110 -95 -188t-225 -78q-182 0 -268.5 112.5t-86.5 267.5v27q0 155 86.5 263t267.5 108h864v-159h-237v-600h-197z" />
    <glyph glyph-name="uni2DF4" unicode="&#x2df4;" 
d="M-803 1632q-167 0 -264.5 107t-97.5 278v15q0 172 97.5 279.5t263.5 107.5q167 0 264.5 -107.5t97.5 -279.5v-15q0 -171 -97 -278t-264 -107zM-804 2260q-69 0 -107 -40t-50 -108h315q-12 68 -50 108t-108 40zM-803 1792q74 0 112 43.5t48 117.5h-321q10 -74 48.5 -117.5
t112.5 -43.5z" />
    <glyph glyph-name="uni2DF7" unicode="&#x2df7;" 
d="M-477 1776q-37 -55 -110.5 -99.5t-187.5 -44.5q-176 0 -273.5 105.5t-97.5 261.5v29q0 182 99 286.5t253 104.5q166 0 249.5 -105.5t83.5 -269.5v-75h-487q15 -176 184 -176q124 0 189 85zM-794 2260q-68 0 -104.5 -43.5t-46.5 -119.5h298v13q-3 66 -36.5 108t-110.5 42z
" />
    <glyph glyph-name="uni2DF6" unicode="&#x2df6;" 
d="M-659 1652q-14 38 -21 85q-30 -38 -82.5 -68t-131.5 -30q-115 0 -183 61.5t-68 165.5q0 112 87 174.5t256 62.5h116v46q0 117 -110 117q-121 0 -121 -91l-190 9q0 102 86 169.5t229 67.5q133 0 218 -68.5t85 -204.5v-311q0 -59 7 -101t21 -84h-198zM-843 1790q52 0 97 27
t60 57v109h-115q-74 0 -110.5 -33.5t-36.5 -76.5q0 -83 105 -83z" />
    <glyph glyph-name="uni2DF1" unicode="&#x2df1;" 
d="M-534 2410v-759h-197v251q-60 -12 -121 -12q-148 0 -234 71.5t-86 226.5v223h196v-223q0 -82 32 -110.5t108 -28.5q52 0 105 13v348h197z" />
    <glyph glyph-name="uni2DF0" unicode="&#x2df0;" 
d="M-375 1811l-6 -384h-169v224h-614v759h197v-599h286v599h196v-599h110z" />
    <glyph glyph-name="uni2DF3" unicode="&#x2df3;" 
d="M-395 1427v224h-942v759h197v-599h208v599h197v-599h209v599h197v-599h109l-5 -384h-170z" />
    <glyph glyph-name="uni2DF2" unicode="&#x2df2;" 
d="M-299 2410v-759h-1008v759h197v-599h209v599h197v-599h208v599h197z" />
    <glyph glyph-name="uni2DF9" unicode="&#x2df9;" 
d="M-465 1898q0 -118 -95 -188.5t-243 -70.5t-242.5 70.5t-94.5 188.5q0 100 64 169.5t148 136.5q-76 70 -144 160t-96 212l-37 154h200l32 -143q20 -89 66.5 -156t103.5 -121q58 54 104.5 121t66.5 156l32 143h200l-38 -154q-28 -122 -96 -211.5t-144 -159.5
q84 -68 148.5 -137.5t64.5 -169.5zM-944 1912q0 -49 33.5 -81.5t107.5 -32.5t108 32.5t34 81.5q-1 46 -41.5 90.5t-100.5 95.5q-60 -51 -100.5 -95.5t-40.5 -90.5z" />
    <glyph glyph-name="uni2DF8" unicode="&#x2df8;" 
d="M-616 1651l-186 366l-187 -366h-205l256 453h-144v159h184v147h188v-147h189v-159h-146l256 -453h-205z" />
    <glyph glyph-name="uni2159" unicode="&#x2159;" horiz-adv-x="2283" 
d="M748 1995v-1083h-252v784l-277 -66v202l505 163h24zM1697 1716l-976 -1564l-172 98l976 1566zM2224 361q0 -160 -114.5 -268.5t-303.5 -108.5q-194 0 -314.5 112.5t-120.5 327.5v71q0 307 173 458t454 151h39v-211h-16q-163 0 -265 -57.5t-124 -206.5q43 41 104.5 67.5
t139.5 26.5q171 0 259.5 -103.5t88.5 -258.5zM1627 389q0 -101 47 -149t127 -48q75 0 120.5 49t45.5 119q0 76 -44.5 117.5t-123.5 41.5q-62 0 -106.5 -24t-65.5 -56v-50z" />
    <glyph glyph-name="uni2158" unicode="&#x2158;" horiz-adv-x="2795" 
d="M244 1305l502 691h259v-650h133v-208h-133v-226h-256v226h-493zM2028 1716l-976 -1564l-172 98l976 1566zM494 1346h255v329l-17 -27zM2066 477l-205 52l71 555h676v-203h-466l-28 -204q22 8 72 22t109 14q179 0 275.5 -92.5t96.5 -260.5q0 -97 -44.5 -183t-136.5 -139.5
t-234 -53.5q-106 0 -200.5 38.5t-155 110t-62.5 171.5h255q4 -62 48.5 -87t114.5 -25q91 0 125 49.5t34 121.5q0 77 -45.5 123.5t-134.5 46.5q-71 0 -107 -19t-58 -37z" />
    <glyph glyph-name="uniA68B" unicode="&#xa68b;" horiz-adv-x="1861" 
d="M1302 1040q219 0 351 -143.5t132 -466.5v-548q0 -178 -66 -283.5t-176.5 -152t-243.5 -46.5q-104 0 -183 20l13 244q23 -7 64 -10t63 -3q80 0 137 57t57 174v550q0 182 -67 258t-195 76q-103 0 -178.5 -47.5t-120.5 -127.5v-591h-335v1223h-477v265h1295v-265h-483v-372
q77 89 181.5 139t231.5 50z" />
    <glyph glyph-name="uniA68C" unicode="&#xa68c;" horiz-adv-x="1771" 
d="M1681 1722h-626v-1287q0 -116 64 -150.5t137 -34.5q32 0 65 5t56 10v-266q-39 -11 -91 -19t-119 -8q-121 0 -224.5 47.5t-167 150t-63.5 265.5v1287h-621v282h1590v-282z" />
    <glyph glyph-name="uni214F" unicode="&#x214f;" horiz-adv-x="2974" 
d="M2785 241v-269q-239 0 -433 105q-193 -105 -434 -105q-239 0 -431 105q-193 -105 -433 -105q-239 0 -433 105q-193 -105 -433 -105v269q116 0 206 24q-79 98 -124 226.5t-45 284.5q0 125 33.5 228.5t119 165.5t242.5 62q156 0 242.5 -62t120.5 -165.5t34 -228.5
q0 -156 -45 -284.5t-124 -227.5q90 -23 206 -23t206 24q-79 98 -123.5 226.5t-44.5 284.5q0 125 33.5 228.5t119 165.5t241.5 62q157 0 243 -62t120 -165.5t34 -228.5q0 -156 -45 -284.5t-124 -227.5q89 -23 204 -23q117 0 207 24q-79 98 -124 226.5t-45 284.5
q0 125 34 228.5t120.5 165.5t242.5 62t241.5 -62t119 -165.5t33.5 -228.5q0 -156 -44.5 -284.5t-123.5 -226.5q90 -24 206 -24zM2253 776q0 -111 22.5 -205t77.5 -164q54 70 76.5 164t22.5 205q0 81 -24.5 134.5t-74.5 53.5q-52 0 -76 -53.5t-24 -134.5zM1386 776
q0 -111 23 -205.5t78 -165.5q55 71 78 165.5t23 205.5q0 81 -24.5 134.5t-77.5 53.5t-76.5 -53.5t-23.5 -134.5zM522 776q0 -111 22.5 -205t76.5 -165q54 71 77 165t23 205q0 81 -24 134.5t-77 53.5q-51 0 -74.5 -53.5t-23.5 -134.5z" />
    <glyph glyph-name="uni214D" unicode="&#x214d;" horiz-adv-x="2795" 
d="M130 1100l463 1200h209l460 -1200h-240l-93 265h-467l-93 -265h-239zM527 1548h338l-169 481zM2115 1716l-976 -1564l-171 98l976 1566zM2440 306q0 67 -56.5 107.5t-198.5 91.5q-210 70 -315 152.5t-105 235.5q0 135 115 228t306 93q230 0 341 -112t123 -266h-223
q-4 62 -60.5 128t-181.5 66q-97 0 -146 -40t-49 -102q0 -67 64.5 -108.5t174.5 -80.5q217 -71 328 -152t111 -239q0 -146 -113.5 -241t-329.5 -95q-223 0 -357 115.5t-134 288.5h223q13 -122 85 -169.5t183 -47.5q110 0 162.5 39.5t52.5 107.5z" />
    <glyph glyph-name="OEsmallcap" unicode="&#x276;" horiz-adv-x="2450" 
d="M2265 265v-265h-871q-116 0 -201 -7t-158 -14t-155 -7q-217 0 -372 99.5t-237.5 271t-82.5 385.5v32q0 214 82.5 385.5t236.5 271t369 99.5q84 0 158 -7t159 -14t201 -7h871v-265h-762v-338h642v-268h-642v-352h762zM522 728q0 -133 37.5 -243.5t117 -177t203.5 -66.5
q75 0 142.5 5.5t145.5 10.5v974q-78 6 -146 11.5t-146 5.5q-122 0 -200.5 -68t-116 -179t-37.5 -241v-32z" />
    <glyph glyph-name="tackupsubnosp" unicode="&#x31d;" 
d="M-413 -402v-217h-605v217h186v296h233v-296h186z" />
    <glyph glyph-name="uni2DFE" unicode="&#x2dfe;" 
d="M-1259 1771q0 153 72.5 224t209.5 83l-218 332h783l-217 -332q136 -12 209 -83.5t73 -223.5v-120h-188v120q0 103 -38.5 132t-116.5 29h-21v-281h-189v281h-17q-78 0 -116 -29t-38 -132v-120h-188v120zM-901 2265l98 -180l99 180h-197z" />
    <glyph glyph-name="uni2DFD" unicode="&#x2dfd;" 
d="M-1208 1651l307 759h197l309 -759h-200l-69 180h-62v-180h-155v180h-59l-67 -180h-201zM-821 2152l-68 -183h173l-70 183l-17 55z" />
    <glyph glyph-name="uni2DFF" unicode="&#x2dff;" 
d="M-1284 2410v-330h430l-216 330h784l-218 -332q137 -12 209.5 -83t72.5 -224v-120h-188v120q0 103 -38 132t-116 29h-22v-281h-189v281h-17q-78 0 -116 -29t-38 -132v-120h-189v120q0 96 30 161h-179v-281h-197v759h197zM-776 2265l98 -180l99 180h-197z" />
    <glyph glyph-name="uni2DFA" unicode="&#x2dfa;" 
d="M-391 1923q0 -137 -92.5 -204.5t-239.5 -67.5h-363v835h-141v141h141v161h197v-161h212v-141h-212v-294h166q147 0 239.5 -66t92.5 -203zM-889 1804h166q72 0 103.5 34.5t31.5 85.5q0 50 -32 82.5t-103 32.5h-166v-235z" />
    <glyph glyph-name="uni2DFC" unicode="&#x2dfc;" 
d="M-405 1652q-15 38 -22 85q-30 -38 -82 -68t-131 -30q-101 0 -166.5 47.5t-80.5 129.5h-150v-165h-196v759h196v-435h172q73 128 316 128h116v46q0 117 -110 117q-121 0 -121 -91l-189 9q0 102 86 169.5t229 67.5q132 0 217 -68.5t85 -204.5v-311q0 -59 7 -101t21 -84
h-197zM-589 1790q50 0 95 26t61 56v111h-115q-74 0 -110.5 -33.5t-36.5 -76.5q0 -83 106 -83z" />
    <glyph glyph-name="uni2DFB" unicode="&#x2dfb;" 
d="M-197 2017q0 -171 -97 -278t-264 -107q-150 0 -245 88t-113 233h-130v-302h-197v759h197v-298h132q22 139 115.5 223t239.5 84q168 0 265 -107.5t97 -279.5v-15zM-558 1792q88 0 126 62t38 163v15q0 101 -38 164.5t-127 63.5q-87 0 -125.5 -63.5t-38.5 -164.5v-15
q0 -101 38.5 -163t126.5 -62z" />
    <glyph glyph-name="uniAB48" unicode="&#xab48;" horiz-adv-x="1349" 
d="M685 1194q-77 0 -127.5 -39.5t-79.5 -111.5v-1043h-332v1488h309l10 -120q44 69 106.5 108.5t143.5 39.5q112 0 186 -91q64 91 173 91q83 0 131 -38v-305q-65 21 -110 21q-76 0 -105 -65h-166q-30 31 -58 48t-81 17z" />
    </font>
</defs>
</svg>
